<?xml version="1.0" encoding="utf-8" standalone="no"?>
<!DOCTYPE svg PUBLIC "-//W3C//DTD SVG 1.1//EN"
  "http://www.w3.org/Graphics/SVG/1.1/DTD/svg11.dtd">
<!-- Created with matplotlib (https://matplotlib.org/) -->
<svg height="308.278125pt" version="1.1" viewBox="0 0 490.065625 308.278125" width="490.065625pt" xmlns="http://www.w3.org/2000/svg" xmlns:xlink="http://www.w3.org/1999/xlink">
 <metadata>
  <rdf:RDF xmlns:cc="http://creativecommons.org/ns#" xmlns:dc="http://purl.org/dc/elements/1.1/" xmlns:rdf="http://www.w3.org/1999/02/22-rdf-syntax-ns#">
   <cc:Work>
    <dc:type rdf:resource="http://purl.org/dc/dcmitype/StillImage"/>
    <dc:date>2021-02-15T15:49:25.449929</dc:date>
    <dc:format>image/svg+xml</dc:format>
    <dc:creator>
     <cc:Agent>
      <dc:title>Matplotlib v3.3.3, https://matplotlib.org/</dc:title>
     </cc:Agent>
    </dc:creator>
   </cc:Work>
  </rdf:RDF>
 </metadata>
 <defs>
  <style type="text/css">*{stroke-linecap:butt;stroke-linejoin:round;}</style>
 </defs>
 <g id="figure_1">
  <g id="patch_1">
   <path d="M 0 308.278125
L 490.065625 308.278125
L 490.065625 0
L 0 0
z
" style="fill:#ffffff;"/>
  </g>
  <g id="axes_1">
   <g id="patch_2">
    <path d="M 36.465625 284.4
L 482.865625 284.4
L 482.865625 7.2
L 36.465625 7.2
z
" style="fill:#ffffff;"/>
   </g>
   <g id="matplotlib.axis_1">
    <g id="xtick_1">
     <g id="line2d_1">
      <defs>
       <path d="M 0 0
L 0 3.5
" id="mc3d47ba66f" style="stroke:#000000;stroke-width:0.8;"/>
      </defs>
      <g>
       <use style="stroke:#000000;stroke-width:0.8;" x="56.756534" xlink:href="#mc3d47ba66f" y="284.4"/>
      </g>
     </g>
     <g id="text_1">
      <!-- −4 -->
      <g transform="translate(49.38544 298.998438)scale(0.1 -0.1)">
       <defs>
        <path d="M 10.59375 35.5
L 73.1875 35.5
L 73.1875 27.203125
L 10.59375 27.203125
z
" id="DejaVuSans-8722"/>
        <path d="M 37.796875 64.3125
L 12.890625 25.390625
L 37.796875 25.390625
z
M 35.203125 72.90625
L 47.609375 72.90625
L 47.609375 25.390625
L 58.015625 25.390625
L 58.015625 17.1875
L 47.609375 17.1875
L 47.609375 0
L 37.796875 0
L 37.796875 17.1875
L 4.890625 17.1875
L 4.890625 26.703125
z
" id="DejaVuSans-52"/>
       </defs>
       <use xlink:href="#DejaVuSans-8722"/>
       <use x="83.789062" xlink:href="#DejaVuSans-52"/>
      </g>
     </g>
    </g>
    <g id="xtick_2">
     <g id="line2d_2">
      <g>
       <use style="stroke:#000000;stroke-width:0.8;" x="107.483807" xlink:href="#mc3d47ba66f" y="284.4"/>
      </g>
     </g>
     <g id="text_2">
      <!-- −3 -->
      <g transform="translate(100.112713 298.998438)scale(0.1 -0.1)">
       <defs>
        <path d="M 40.578125 39.3125
Q 47.65625 37.796875 51.625 33
Q 55.609375 28.21875 55.609375 21.1875
Q 55.609375 10.40625 48.1875 4.484375
Q 40.765625 -1.421875 27.09375 -1.421875
Q 22.515625 -1.421875 17.65625 -0.515625
Q 12.796875 0.390625 7.625 2.203125
L 7.625 11.71875
Q 11.71875 9.328125 16.59375 8.109375
Q 21.484375 6.890625 26.8125 6.890625
Q 36.078125 6.890625 40.9375 10.546875
Q 45.796875 14.203125 45.796875 21.1875
Q 45.796875 27.640625 41.28125 31.265625
Q 36.765625 34.90625 28.71875 34.90625
L 20.21875 34.90625
L 20.21875 43.015625
L 29.109375 43.015625
Q 36.375 43.015625 40.234375 45.921875
Q 44.09375 48.828125 44.09375 54.296875
Q 44.09375 59.90625 40.109375 62.90625
Q 36.140625 65.921875 28.71875 65.921875
Q 24.65625 65.921875 20.015625 65.03125
Q 15.375 64.15625 9.8125 62.3125
L 9.8125 71.09375
Q 15.4375 72.65625 20.34375 73.4375
Q 25.25 74.21875 29.59375 74.21875
Q 40.828125 74.21875 47.359375 69.109375
Q 53.90625 64.015625 53.90625 55.328125
Q 53.90625 49.265625 50.4375 45.09375
Q 46.96875 40.921875 40.578125 39.3125
z
" id="DejaVuSans-51"/>
       </defs>
       <use xlink:href="#DejaVuSans-8722"/>
       <use x="83.789062" xlink:href="#DejaVuSans-51"/>
      </g>
     </g>
    </g>
    <g id="xtick_3">
     <g id="line2d_3">
      <g>
       <use style="stroke:#000000;stroke-width:0.8;" x="158.21108" xlink:href="#mc3d47ba66f" y="284.4"/>
      </g>
     </g>
     <g id="text_3">
      <!-- −2 -->
      <g transform="translate(150.839986 298.998438)scale(0.1 -0.1)">
       <defs>
        <path d="M 19.1875 8.296875
L 53.609375 8.296875
L 53.609375 0
L 7.328125 0
L 7.328125 8.296875
Q 12.9375 14.109375 22.625 23.890625
Q 32.328125 33.6875 34.8125 36.53125
Q 39.546875 41.84375 41.421875 45.53125
Q 43.3125 49.21875 43.3125 52.78125
Q 43.3125 58.59375 39.234375 62.25
Q 35.15625 65.921875 28.609375 65.921875
Q 23.96875 65.921875 18.8125 64.3125
Q 13.671875 62.703125 7.8125 59.421875
L 7.8125 69.390625
Q 13.765625 71.78125 18.9375 73
Q 24.125 74.21875 28.421875 74.21875
Q 39.75 74.21875 46.484375 68.546875
Q 53.21875 62.890625 53.21875 53.421875
Q 53.21875 48.921875 51.53125 44.890625
Q 49.859375 40.875 45.40625 35.40625
Q 44.1875 33.984375 37.640625 27.21875
Q 31.109375 20.453125 19.1875 8.296875
z
" id="DejaVuSans-50"/>
       </defs>
       <use xlink:href="#DejaVuSans-8722"/>
       <use x="83.789062" xlink:href="#DejaVuSans-50"/>
      </g>
     </g>
    </g>
    <g id="xtick_4">
     <g id="line2d_4">
      <g>
       <use style="stroke:#000000;stroke-width:0.8;" x="208.938352" xlink:href="#mc3d47ba66f" y="284.4"/>
      </g>
     </g>
     <g id="text_4">
      <!-- −1 -->
      <g transform="translate(201.567259 298.998438)scale(0.1 -0.1)">
       <defs>
        <path d="M 12.40625 8.296875
L 28.515625 8.296875
L 28.515625 63.921875
L 10.984375 60.40625
L 10.984375 69.390625
L 28.421875 72.90625
L 38.28125 72.90625
L 38.28125 8.296875
L 54.390625 8.296875
L 54.390625 0
L 12.40625 0
z
" id="DejaVuSans-49"/>
       </defs>
       <use xlink:href="#DejaVuSans-8722"/>
       <use x="83.789062" xlink:href="#DejaVuSans-49"/>
      </g>
     </g>
    </g>
    <g id="xtick_5">
     <g id="line2d_5">
      <g>
       <use style="stroke:#000000;stroke-width:0.8;" x="259.665625" xlink:href="#mc3d47ba66f" y="284.4"/>
      </g>
     </g>
     <g id="text_5">
      <!-- 0 -->
      <g transform="translate(256.484375 298.998438)scale(0.1 -0.1)">
       <defs>
        <path d="M 31.78125 66.40625
Q 24.171875 66.40625 20.328125 58.90625
Q 16.5 51.421875 16.5 36.375
Q 16.5 21.390625 20.328125 13.890625
Q 24.171875 6.390625 31.78125 6.390625
Q 39.453125 6.390625 43.28125 13.890625
Q 47.125 21.390625 47.125 36.375
Q 47.125 51.421875 43.28125 58.90625
Q 39.453125 66.40625 31.78125 66.40625
z
M 31.78125 74.21875
Q 44.046875 74.21875 50.515625 64.515625
Q 56.984375 54.828125 56.984375 36.375
Q 56.984375 17.96875 50.515625 8.265625
Q 44.046875 -1.421875 31.78125 -1.421875
Q 19.53125 -1.421875 13.0625 8.265625
Q 6.59375 17.96875 6.59375 36.375
Q 6.59375 54.828125 13.0625 64.515625
Q 19.53125 74.21875 31.78125 74.21875
z
" id="DejaVuSans-48"/>
       </defs>
       <use xlink:href="#DejaVuSans-48"/>
      </g>
     </g>
    </g>
    <g id="xtick_6">
     <g id="line2d_6">
      <g>
       <use style="stroke:#000000;stroke-width:0.8;" x="310.392898" xlink:href="#mc3d47ba66f" y="284.4"/>
      </g>
     </g>
     <g id="text_6">
      <!-- 1 -->
      <g transform="translate(307.211648 298.998438)scale(0.1 -0.1)">
       <use xlink:href="#DejaVuSans-49"/>
      </g>
     </g>
    </g>
    <g id="xtick_7">
     <g id="line2d_7">
      <g>
       <use style="stroke:#000000;stroke-width:0.8;" x="361.12017" xlink:href="#mc3d47ba66f" y="284.4"/>
      </g>
     </g>
     <g id="text_7">
      <!-- 2 -->
      <g transform="translate(357.93892 298.998438)scale(0.1 -0.1)">
       <use xlink:href="#DejaVuSans-50"/>
      </g>
     </g>
    </g>
    <g id="xtick_8">
     <g id="line2d_8">
      <g>
       <use style="stroke:#000000;stroke-width:0.8;" x="411.847443" xlink:href="#mc3d47ba66f" y="284.4"/>
      </g>
     </g>
     <g id="text_8">
      <!-- 3 -->
      <g transform="translate(408.666193 298.998438)scale(0.1 -0.1)">
       <use xlink:href="#DejaVuSans-51"/>
      </g>
     </g>
    </g>
    <g id="xtick_9">
     <g id="line2d_9">
      <g>
       <use style="stroke:#000000;stroke-width:0.8;" x="462.574716" xlink:href="#mc3d47ba66f" y="284.4"/>
      </g>
     </g>
     <g id="text_9">
      <!-- 4 -->
      <g transform="translate(459.393466 298.998438)scale(0.1 -0.1)">
       <use xlink:href="#DejaVuSans-52"/>
      </g>
     </g>
    </g>
   </g>
   <g id="matplotlib.axis_2">
    <g id="ytick_1">
     <g id="line2d_10">
      <defs>
       <path d="M 0 0
L -3.5 0
" id="m18d3472aaf" style="stroke:#000000;stroke-width:0.8;"/>
      </defs>
      <g>
       <use style="stroke:#000000;stroke-width:0.8;" x="36.465625" xlink:href="#m18d3472aaf" y="271.800939"/>
      </g>
     </g>
     <g id="text_10">
      <!-- 0.00 -->
      <g transform="translate(7.2 275.600158)scale(0.1 -0.1)">
       <defs>
        <path d="M 10.6875 12.40625
L 21 12.40625
L 21 0
L 10.6875 0
z
" id="DejaVuSans-46"/>
       </defs>
       <use xlink:href="#DejaVuSans-48"/>
       <use x="63.623047" xlink:href="#DejaVuSans-46"/>
       <use x="95.410156" xlink:href="#DejaVuSans-48"/>
       <use x="159.033203" xlink:href="#DejaVuSans-48"/>
      </g>
     </g>
    </g>
    <g id="ytick_2">
     <g id="line2d_11">
      <g>
       <use style="stroke:#000000;stroke-width:0.8;" x="36.465625" xlink:href="#m18d3472aaf" y="240.215694"/>
      </g>
     </g>
     <g id="text_11">
      <!-- 0.05 -->
      <g transform="translate(7.2 244.014913)scale(0.1 -0.1)">
       <defs>
        <path d="M 10.796875 72.90625
L 49.515625 72.90625
L 49.515625 64.59375
L 19.828125 64.59375
L 19.828125 46.734375
Q 21.96875 47.46875 24.109375 47.828125
Q 26.265625 48.1875 28.421875 48.1875
Q 40.625 48.1875 47.75 41.5
Q 54.890625 34.8125 54.890625 23.390625
Q 54.890625 11.625 47.5625 5.09375
Q 40.234375 -1.421875 26.90625 -1.421875
Q 22.3125 -1.421875 17.546875 -0.640625
Q 12.796875 0.140625 7.71875 1.703125
L 7.71875 11.625
Q 12.109375 9.234375 16.796875 8.0625
Q 21.484375 6.890625 26.703125 6.890625
Q 35.15625 6.890625 40.078125 11.328125
Q 45.015625 15.765625 45.015625 23.390625
Q 45.015625 31 40.078125 35.4375
Q 35.15625 39.890625 26.703125 39.890625
Q 22.75 39.890625 18.8125 39.015625
Q 14.890625 38.140625 10.796875 36.28125
z
" id="DejaVuSans-53"/>
       </defs>
       <use xlink:href="#DejaVuSans-48"/>
       <use x="63.623047" xlink:href="#DejaVuSans-46"/>
       <use x="95.410156" xlink:href="#DejaVuSans-48"/>
       <use x="159.033203" xlink:href="#DejaVuSans-53"/>
      </g>
     </g>
    </g>
    <g id="ytick_3">
     <g id="line2d_12">
      <g>
       <use style="stroke:#000000;stroke-width:0.8;" x="36.465625" xlink:href="#m18d3472aaf" y="208.630449"/>
      </g>
     </g>
     <g id="text_12">
      <!-- 0.10 -->
      <g transform="translate(7.2 212.429667)scale(0.1 -0.1)">
       <use xlink:href="#DejaVuSans-48"/>
       <use x="63.623047" xlink:href="#DejaVuSans-46"/>
       <use x="95.410156" xlink:href="#DejaVuSans-49"/>
       <use x="159.033203" xlink:href="#DejaVuSans-48"/>
      </g>
     </g>
    </g>
    <g id="ytick_4">
     <g id="line2d_13">
      <g>
       <use style="stroke:#000000;stroke-width:0.8;" x="36.465625" xlink:href="#m18d3472aaf" y="177.045203"/>
      </g>
     </g>
     <g id="text_13">
      <!-- 0.15 -->
      <g transform="translate(7.2 180.844422)scale(0.1 -0.1)">
       <use xlink:href="#DejaVuSans-48"/>
       <use x="63.623047" xlink:href="#DejaVuSans-46"/>
       <use x="95.410156" xlink:href="#DejaVuSans-49"/>
       <use x="159.033203" xlink:href="#DejaVuSans-53"/>
      </g>
     </g>
    </g>
    <g id="ytick_5">
     <g id="line2d_14">
      <g>
       <use style="stroke:#000000;stroke-width:0.8;" x="36.465625" xlink:href="#m18d3472aaf" y="145.459958"/>
      </g>
     </g>
     <g id="text_14">
      <!-- 0.20 -->
      <g transform="translate(7.2 149.259177)scale(0.1 -0.1)">
       <use xlink:href="#DejaVuSans-48"/>
       <use x="63.623047" xlink:href="#DejaVuSans-46"/>
       <use x="95.410156" xlink:href="#DejaVuSans-50"/>
       <use x="159.033203" xlink:href="#DejaVuSans-48"/>
      </g>
     </g>
    </g>
    <g id="ytick_6">
     <g id="line2d_15">
      <g>
       <use style="stroke:#000000;stroke-width:0.8;" x="36.465625" xlink:href="#m18d3472aaf" y="113.874713"/>
      </g>
     </g>
     <g id="text_15">
      <!-- 0.25 -->
      <g transform="translate(7.2 117.673932)scale(0.1 -0.1)">
       <use xlink:href="#DejaVuSans-48"/>
       <use x="63.623047" xlink:href="#DejaVuSans-46"/>
       <use x="95.410156" xlink:href="#DejaVuSans-50"/>
       <use x="159.033203" xlink:href="#DejaVuSans-53"/>
      </g>
     </g>
    </g>
    <g id="ytick_7">
     <g id="line2d_16">
      <g>
       <use style="stroke:#000000;stroke-width:0.8;" x="36.465625" xlink:href="#m18d3472aaf" y="82.289468"/>
      </g>
     </g>
     <g id="text_16">
      <!-- 0.30 -->
      <g transform="translate(7.2 86.088686)scale(0.1 -0.1)">
       <use xlink:href="#DejaVuSans-48"/>
       <use x="63.623047" xlink:href="#DejaVuSans-46"/>
       <use x="95.410156" xlink:href="#DejaVuSans-51"/>
       <use x="159.033203" xlink:href="#DejaVuSans-48"/>
      </g>
     </g>
    </g>
    <g id="ytick_8">
     <g id="line2d_17">
      <g>
       <use style="stroke:#000000;stroke-width:0.8;" x="36.465625" xlink:href="#m18d3472aaf" y="50.704222"/>
      </g>
     </g>
     <g id="text_17">
      <!-- 0.35 -->
      <g transform="translate(7.2 54.503441)scale(0.1 -0.1)">
       <use xlink:href="#DejaVuSans-48"/>
       <use x="63.623047" xlink:href="#DejaVuSans-46"/>
       <use x="95.410156" xlink:href="#DejaVuSans-51"/>
       <use x="159.033203" xlink:href="#DejaVuSans-53"/>
      </g>
     </g>
    </g>
    <g id="ytick_9">
     <g id="line2d_18">
      <g>
       <use style="stroke:#000000;stroke-width:0.8;" x="36.465625" xlink:href="#m18d3472aaf" y="19.118977"/>
      </g>
     </g>
     <g id="text_18">
      <!-- 0.40 -->
      <g transform="translate(7.2 22.918196)scale(0.1 -0.1)">
       <use xlink:href="#DejaVuSans-48"/>
       <use x="63.623047" xlink:href="#DejaVuSans-46"/>
       <use x="95.410156" xlink:href="#DejaVuSans-52"/>
       <use x="159.033203" xlink:href="#DejaVuSans-48"/>
      </g>
     </g>
    </g>
   </g>
   <g id="line2d_19">
    <path clip-path="url(#pc7ab18fad3)" d="M 56.756534 269.001319
L 60.855708 268.244915
L 64.954881 267.313544
L 69.054055 266.175091
L 73.153228 264.793718
L 77.252402 263.129969
L 81.351575 261.141026
L 85.450749 258.781158
L 89.549923 256.002368
L 93.649096 252.75528
L 97.74827 248.990257
L 101.847443 244.658765
L 105.946617 239.714977
L 110.04579 234.117582
L 114.144964 227.831777
L 118.244137 220.831381
L 122.343311 213.101004
L 126.442485 204.63819
L 130.541658 195.45545
L 134.640832 185.582058
L 138.740005 175.065532
L 142.839179 163.972672
L 146.938352 152.390067
L 151.037526 140.423984
L 155.136699 128.199566
L 159.235873 115.859306
L 163.335046 103.560791
L 167.43422 91.47372
L 171.533394 79.776276
L 175.632567 68.650944
L 179.731741 58.279886
L 183.830914 48.84006
L 187.930088 40.498232
L 192.029261 33.406103
L 196.128435 27.695727
L 200.227608 23.475427
L 204.326782 20.826374
L 208.425956 19.8
L 212.525129 20.416327
L 216.624303 22.663326
L 220.723476 26.4973
L 224.82265 31.844304
L 228.921823 38.602513
L 233.020997 46.645445
L 237.12017 55.8259
L 241.219344 65.980427
L 245.318518 76.93415
L 249.417691 88.505742
L 253.516865 100.512355
L 257.616038 112.774316
L 261.715212 125.119443
L 265.814385 137.386814
L 269.913559 149.429923
L 274.012732 161.119116
L 278.111906 172.343305
L 282.21108 183.010946
L 286.310253 193.050316
L 290.409427 202.409154
L 294.5086 211.053748
L 298.607774 218.967556
L 302.706947 226.149474
L 306.806121 232.611856
L 310.905294 238.37839
L 315.004468 243.481926
L 319.103642 247.96234
L 323.202815 251.864507
L 327.301989 255.236443
L 331.401162 258.127647
L 335.500336 260.587675
L 339.599509 262.664961
L 343.698683 264.405871
L 347.797856 265.854002
L 351.89703 267.049681
L 355.996204 268.029666
L 360.095377 268.827005
L 364.194551 269.47103
L 368.293724 269.987469
L 372.392898 270.398622
L 376.492071 270.723616
L 380.591245 270.978678
L 384.690418 271.177437
L 388.789592 271.331229
L 392.888765 271.44939
L 396.987939 271.539539
L 401.087113 271.607836
L 405.186286 271.659217
L 409.28546 271.697603
L 413.384633 271.726083
L 417.483807 271.747067
L 421.58298 271.76242
L 425.682154 271.773578
L 429.781327 271.78163
L 433.880501 271.787401
L 437.979675 271.791509
L 442.078848 271.794413
L 446.178022 271.796452
L 450.277195 271.797874
L 454.376369 271.798859
L 458.475542 271.799537
L 462.574716 271.8
" style="fill:none;stroke:#ff00ff;stroke-linecap:square;stroke-width:1.5;"/>
   </g>
   <g id="line2d_20">
    <path clip-path="url(#pc7ab18fad3)" d="M 56.756534 271.716398
L 60.855708 271.684519
L 64.954881 271.641662
L 69.054055 271.584448
L 73.153228 271.508596
L 77.252402 271.408737
L 81.351575 271.278194
L 85.450749 271.108734
L 89.549923 270.890307
L 93.649096 270.61075
L 97.74827 270.255497
L 101.847443 269.807268
L 105.946617 269.245777
L 110.04579 268.547464
L 114.144964 267.685269
L 118.244137 266.628472
L 122.343311 265.342628
L 126.442485 263.789614
L 130.541658 261.927834
L 134.640832 259.712582
L 138.740005 257.096622
L 142.839179 254.030977
L 146.938352 250.465958
L 151.037526 246.352445
L 155.136699 241.643394
L 159.235873 236.295574
L 163.335046 230.271502
L 167.43422 223.541508
L 171.533394 216.085902
L 175.632567 207.897132
L 179.731741 198.98187
L 183.830914 189.362911
L 187.930088 179.080785
L 192.029261 168.194971
L 196.128435 156.784614
L 200.227608 144.948659
L 204.326782 132.805307
L 208.425956 120.490774
L 212.525129 108.157296
L 216.624303 95.970422
L 220.723476 84.105617
L 224.82265 72.744274
L 228.921823 62.069238
L 233.020997 52.260001
L 237.12017 43.487733
L 241.219344 35.910342
L 245.318518 29.667758
L 249.417691 24.877643
L 253.516865 21.631701
L 257.616038 19.992764
L 261.715212 19.992764
L 265.814385 21.631701
L 269.913559 24.877643
L 274.012732 29.667758
L 278.111906 35.910342
L 282.21108 43.487733
L 286.310253 52.260001
L 290.409427 62.069238
L 294.5086 72.744274
L 298.607774 84.105617
L 302.706947 95.970422
L 306.806121 108.157296
L 310.905294 120.490774
L 315.004468 132.805307
L 319.103642 144.948659
L 323.202815 156.784614
L 327.301989 168.194971
L 331.401162 179.080785
L 335.500336 189.362911
L 339.599509 198.98187
L 343.698683 207.897132
L 347.797856 216.085902
L 351.89703 223.541508
L 355.996204 230.271502
L 360.095377 236.295574
L 364.194551 241.643394
L 368.293724 246.352445
L 372.392898 250.465958
L 376.492071 254.030977
L 380.591245 257.096622
L 384.690418 259.712582
L 388.789592 261.927834
L 392.888765 263.789614
L 396.987939 265.342628
L 401.087113 266.628472
L 405.186286 267.685269
L 409.28546 268.547464
L 413.384633 269.245777
L 417.483807 269.807268
L 421.58298 270.255497
L 425.682154 270.61075
L 429.781327 270.890307
L 433.880501 271.108734
L 437.979675 271.278194
L 442.078848 271.408737
L 446.178022 271.508596
L 450.277195 271.584448
L 454.376369 271.641662
L 458.475542 271.684519
L 462.574716 271.716398
" style="fill:none;stroke:#d9a31f;stroke-linecap:square;stroke-width:1.5;"/>
   </g>
   <g id="line2d_21">
    <path clip-path="url(#pc7ab18fad3)" d="M 56.756534 271.8
L 60.855708 271.799537
L 64.954881 271.798859
L 69.054055 271.797874
L 73.153228 271.796452
L 77.252402 271.794413
L 81.351575 271.791509
L 85.450749 271.787401
L 89.549923 271.78163
L 93.649096 271.773578
L 97.74827 271.76242
L 101.847443 271.747067
L 105.946617 271.726083
L 110.04579 271.697603
L 114.144964 271.659217
L 118.244137 271.607836
L 122.343311 271.539539
L 126.442485 271.44939
L 130.541658 271.331229
L 134.640832 271.177437
L 138.740005 270.978678
L 142.839179 270.723616
L 146.938352 270.398622
L 151.037526 269.987469
L 155.136699 269.47103
L 159.235873 268.827005
L 163.335046 268.029666
L 167.43422 267.049681
L 171.533394 265.854002
L 175.632567 264.405871
L 179.731741 262.664961
L 183.830914 260.587675
L 187.930088 258.127647
L 192.029261 255.236443
L 196.128435 251.864507
L 200.227608 247.96234
L 204.326782 243.481926
L 208.425956 238.37839
L 212.525129 232.611856
L 216.624303 226.149474
L 220.723476 218.967556
L 224.82265 211.053748
L 228.921823 202.409154
L 233.020997 193.050316
L 237.12017 183.010946
L 241.219344 172.343305
L 245.318518 161.119116
L 249.417691 149.429923
L 253.516865 137.386814
L 257.616038 125.119443
L 261.715212 112.774316
L 265.814385 100.512355
L 269.913559 88.505742
L 274.012732 76.93415
L 278.111906 65.980427
L 282.21108 55.8259
L 286.310253 46.645445
L 290.409427 38.602513
L 294.5086 31.844304
L 298.607774 26.4973
L 302.706947 22.663326
L 306.806121 20.416327
L 310.905294 19.8
L 315.004468 20.826374
L 319.103642 23.475427
L 323.202815 27.695727
L 327.301989 33.406103
L 331.401162 40.498232
L 335.500336 48.84006
L 339.599509 58.279886
L 343.698683 68.650944
L 347.797856 79.776276
L 351.89703 91.47372
L 355.996204 103.560791
L 360.095377 115.859306
L 364.194551 128.199566
L 368.293724 140.423984
L 372.392898 152.390067
L 376.492071 163.972672
L 380.591245 175.065532
L 384.690418 185.582058
L 388.789592 195.45545
L 392.888765 204.63819
L 396.987939 213.101004
L 401.087113 220.831381
L 405.186286 227.831777
L 409.28546 234.117582
L 413.384633 239.714977
L 417.483807 244.658765
L 421.58298 248.990257
L 425.682154 252.75528
L 429.781327 256.002368
L 433.880501 258.781158
L 437.979675 261.141026
L 442.078848 263.129969
L 446.178022 264.793718
L 450.277195 266.175091
L 454.376369 267.313544
L 458.475542 268.244915
L 462.574716 269.001319
" style="fill:none;stroke:#228b22;stroke-linecap:square;stroke-width:1.5;"/>
   </g>
   <g id="patch_3">
    <path d="M 36.465625 284.4
L 36.465625 7.2
" style="fill:none;stroke:#000000;stroke-linecap:square;stroke-linejoin:miter;stroke-width:0.8;"/>
   </g>
   <g id="patch_4">
    <path d="M 482.865625 284.4
L 482.865625 7.2
" style="fill:none;stroke:#000000;stroke-linecap:square;stroke-linejoin:miter;stroke-width:0.8;"/>
   </g>
   <g id="patch_5">
    <path d="M 36.465625 284.4
L 482.865625 284.4
" style="fill:none;stroke:#000000;stroke-linecap:square;stroke-linejoin:miter;stroke-width:0.8;"/>
   </g>
   <g id="patch_6">
    <path d="M 36.465625 7.2
L 482.865625 7.2
" style="fill:none;stroke:#000000;stroke-linecap:square;stroke-linejoin:miter;stroke-width:0.8;"/>
   </g>
  </g>
 </g>
 <defs>
  <clipPath id="pc7ab18fad3">
   <rect height="277.2" width="446.4" x="36.465625" y="7.2"/>
  </clipPath>
 </defs>
</svg>
