<?xml version="1.0" encoding="utf-8" standalone="no"?>
<!DOCTYPE svg PUBLIC "-//W3C//DTD SVG 1.1//EN"
  "http://www.w3.org/Graphics/SVG/1.1/DTD/svg11.dtd">
<!-- Created with matplotlib (https://matplotlib.org/) -->
<svg height="352.398125pt" version="1.1" viewBox="0 0 568.773125 352.398125" width="568.773125pt" xmlns="http://www.w3.org/2000/svg" xmlns:xlink="http://www.w3.org/1999/xlink">
 <metadata>
  <rdf:RDF xmlns:cc="http://creativecommons.org/ns#" xmlns:dc="http://purl.org/dc/elements/1.1/" xmlns:rdf="http://www.w3.org/1999/02/22-rdf-syntax-ns#">
   <cc:Work>
    <dc:type rdf:resource="http://purl.org/dc/dcmitype/StillImage"/>
    <dc:date>2021-02-15T16:29:47.776161</dc:date>
    <dc:format>image/svg+xml</dc:format>
    <dc:creator>
     <cc:Agent>
      <dc:title>Matplotlib v3.3.3, https://matplotlib.org/</dc:title>
     </cc:Agent>
    </dc:creator>
   </cc:Work>
  </rdf:RDF>
 </metadata>
 <defs>
  <style type="text/css">*{stroke-linecap:butt;stroke-linejoin:round;}</style>
 </defs>
 <g id="figure_1">
  <g id="patch_1">
   <path d="M 0 352.398125
L 568.773125 352.398125
L 568.773125 0
L 0 0
z
" style="fill:#ffffff;"/>
  </g>
  <g id="axes_1">
   <g id="patch_2">
    <path d="M 30.103125 328.52
L 561.573125 328.52
L 561.573125 7.2
L 30.103125 7.2
z
" style="fill:#ffffff;"/>
   </g>
   <g id="patch_3">
    <path clip-path="url(#p3ff7bd3d6c)" d="M 54.260852 328.52
L 61.757951 328.52
L 61.757951 328.083193
L 54.260852 328.083193
z
" style="fill:#40e0d0;opacity:0.5;"/>
   </g>
   <g id="patch_4">
    <path clip-path="url(#p3ff7bd3d6c)" d="M 61.757951 328.52
L 69.255049 328.52
L 69.255049 328.52
L 61.757951 328.52
z
" style="fill:#40e0d0;opacity:0.5;"/>
   </g>
   <g id="patch_5">
    <path clip-path="url(#p3ff7bd3d6c)" d="M 69.255049 328.52
L 76.752147 328.52
L 76.752147 328.083193
L 69.255049 328.083193
z
" style="fill:#40e0d0;opacity:0.5;"/>
   </g>
   <g id="patch_6">
    <path clip-path="url(#p3ff7bd3d6c)" d="M 76.752147 328.52
L 84.249245 328.52
L 84.249245 328.52
L 76.752147 328.52
z
" style="fill:#40e0d0;opacity:0.5;"/>
   </g>
   <g id="patch_7">
    <path clip-path="url(#p3ff7bd3d6c)" d="M 84.249245 328.52
L 91.746344 328.52
L 91.746344 328.083193
L 84.249245 328.083193
z
" style="fill:#40e0d0;opacity:0.5;"/>
   </g>
   <g id="patch_8">
    <path clip-path="url(#p3ff7bd3d6c)" d="M 91.746344 328.52
L 99.243442 328.52
L 99.243442 327.646385
L 91.746344 327.646385
z
" style="fill:#40e0d0;opacity:0.5;"/>
   </g>
   <g id="patch_9">
    <path clip-path="url(#p3ff7bd3d6c)" d="M 99.243442 328.52
L 106.74054 328.52
L 106.74054 327.646385
L 99.243442 327.646385
z
" style="fill:#40e0d0;opacity:0.5;"/>
   </g>
   <g id="patch_10">
    <path clip-path="url(#p3ff7bd3d6c)" d="M 106.74054 328.52
L 114.237638 328.52
L 114.237638 327.646385
L 106.74054 327.646385
z
" style="fill:#40e0d0;opacity:0.5;"/>
   </g>
   <g id="patch_11">
    <path clip-path="url(#p3ff7bd3d6c)" d="M 114.237638 328.52
L 121.734737 328.52
L 121.734737 327.646385
L 114.237638 327.646385
z
" style="fill:#40e0d0;opacity:0.5;"/>
   </g>
   <g id="patch_12">
    <path clip-path="url(#p3ff7bd3d6c)" d="M 121.734737 328.52
L 129.231835 328.52
L 129.231835 326.335963
L 121.734737 326.335963
z
" style="fill:#40e0d0;opacity:0.5;"/>
   </g>
   <g id="patch_13">
    <path clip-path="url(#p3ff7bd3d6c)" d="M 129.231835 328.52
L 136.728933 328.52
L 136.728933 323.278312
L 129.231835 323.278312
z
" style="fill:#40e0d0;opacity:0.5;"/>
   </g>
   <g id="patch_14">
    <path clip-path="url(#p3ff7bd3d6c)" d="M 136.728933 328.52
L 144.226031 328.52
L 144.226031 320.22066
L 136.728933 320.22066
z
" style="fill:#40e0d0;opacity:0.5;"/>
   </g>
   <g id="patch_15">
    <path clip-path="url(#p3ff7bd3d6c)" d="M 144.226031 328.52
L 151.72313 328.52
L 151.72313 313.231743
L 144.226031 313.231743
z
" style="fill:#40e0d0;opacity:0.5;"/>
   </g>
   <g id="patch_16">
    <path clip-path="url(#p3ff7bd3d6c)" d="M 151.72313 328.52
L 159.220228 328.52
L 159.220228 318.036624
L 151.72313 318.036624
z
" style="fill:#40e0d0;opacity:0.5;"/>
   </g>
   <g id="patch_17">
    <path clip-path="url(#p3ff7bd3d6c)" d="M 159.220228 328.52
L 166.717326 328.52
L 166.717326 305.369211
L 159.220228 305.369211
z
" style="fill:#40e0d0;opacity:0.5;"/>
   </g>
   <g id="patch_18">
    <path clip-path="url(#p3ff7bd3d6c)" d="M 166.717326 328.52
L 174.214424 328.52
L 174.214424 298.380293
L 166.717326 298.380293
z
" style="fill:#40e0d0;opacity:0.5;"/>
   </g>
   <g id="patch_19">
    <path clip-path="url(#p3ff7bd3d6c)" d="M 174.214424 328.52
L 181.711523 328.52
L 181.711523 274.792697
L 174.214424 274.792697
z
" style="fill:#40e0d0;opacity:0.5;"/>
   </g>
   <g id="patch_20">
    <path clip-path="url(#p3ff7bd3d6c)" d="M 181.711523 328.52
L 189.208621 328.52
L 189.208621 272.171853
L 181.711523 272.171853
z
" style="fill:#40e0d0;opacity:0.5;"/>
   </g>
   <g id="patch_21">
    <path clip-path="url(#p3ff7bd3d6c)" d="M 189.208621 328.52
L 196.705719 328.52
L 196.705719 245.526604
L 189.208621 245.526604
z
" style="fill:#40e0d0;opacity:0.5;"/>
   </g>
   <g id="patch_22">
    <path clip-path="url(#p3ff7bd3d6c)" d="M 196.705719 328.52
L 204.202817 328.52
L 204.202817 227.617503
L 196.705719 227.617503
z
" style="fill:#40e0d0;opacity:0.5;"/>
   </g>
   <g id="patch_23">
    <path clip-path="url(#p3ff7bd3d6c)" d="M 204.202817 328.52
L 211.699916 328.52
L 211.699916 205.777136
L 204.202817 205.777136
z
" style="fill:#40e0d0;opacity:0.5;"/>
   </g>
   <g id="patch_24">
    <path clip-path="url(#p3ff7bd3d6c)" d="M 211.699916 328.52
L 219.197014 328.52
L 219.197014 185.683998
L 211.699916 185.683998
z
" style="fill:#40e0d0;opacity:0.5;"/>
   </g>
   <g id="patch_25">
    <path clip-path="url(#p3ff7bd3d6c)" d="M 219.197014 328.52
L 226.694112 328.52
L 226.694112 145.060915
L 219.197014 145.060915
z
" style="fill:#40e0d0;opacity:0.5;"/>
   </g>
   <g id="patch_26">
    <path clip-path="url(#p3ff7bd3d6c)" d="M 226.694112 328.52
L 234.19121 328.52
L 234.19121 117.105245
L 226.694112 117.105245
z
" style="fill:#40e0d0;opacity:0.5;"/>
   </g>
   <g id="patch_27">
    <path clip-path="url(#p3ff7bd3d6c)" d="M 234.19121 328.52
L 241.688309 328.52
L 241.688309 107.932291
L 234.19121 107.932291
z
" style="fill:#40e0d0;opacity:0.5;"/>
   </g>
   <g id="patch_28">
    <path clip-path="url(#p3ff7bd3d6c)" d="M 241.688309 328.52
L 249.185407 328.52
L 249.185407 85.218309
L 241.688309 85.218309
z
" style="fill:#40e0d0;opacity:0.5;"/>
   </g>
   <g id="patch_29">
    <path clip-path="url(#p3ff7bd3d6c)" d="M 249.185407 328.52
L 256.682505 328.52
L 256.682505 64.688364
L 249.185407 64.688364
z
" style="fill:#40e0d0;opacity:0.5;"/>
   </g>
   <g id="patch_30">
    <path clip-path="url(#p3ff7bd3d6c)" d="M 256.682505 328.52
L 264.179604 328.52
L 264.179604 55.515409
L 256.682505 55.515409
z
" style="fill:#40e0d0;opacity:0.5;"/>
   </g>
   <g id="patch_31">
    <path clip-path="url(#p3ff7bd3d6c)" d="M 264.179604 328.52
L 271.676702 328.52
L 271.676702 55.515409
L 264.179604 55.515409
z
" style="fill:#40e0d0;opacity:0.5;"/>
   </g>
   <g id="patch_32">
    <path clip-path="url(#p3ff7bd3d6c)" d="M 271.676702 328.52
L 279.1738 328.52
L 279.1738 50.710529
L 271.676702 50.710529
z
" style="fill:#40e0d0;opacity:0.5;"/>
   </g>
   <g id="patch_33">
    <path clip-path="url(#p3ff7bd3d6c)" d="M 279.1738 328.52
L 286.670898 328.52
L 286.670898 80.850235
L 279.1738 80.850235
z
" style="fill:#40e0d0;opacity:0.5;"/>
   </g>
   <g id="patch_34">
    <path clip-path="url(#p3ff7bd3d6c)" d="M 286.670898 328.52
L 294.167997 328.52
L 294.167997 75.17174
L 286.670898 75.17174
z
" style="fill:#40e0d0;opacity:0.5;"/>
   </g>
   <g id="patch_35">
    <path clip-path="url(#p3ff7bd3d6c)" d="M 294.167997 328.52
L 301.665095 328.52
L 301.665095 103.12741
L 294.167997 103.12741
z
" style="fill:#40e0d0;opacity:0.5;"/>
   </g>
   <g id="patch_36">
    <path clip-path="url(#p3ff7bd3d6c)" d="M 301.665095 328.52
L 309.162193 328.52
L 309.162193 121.036511
L 301.665095 121.036511
z
" style="fill:#40e0d0;opacity:0.5;"/>
   </g>
   <g id="patch_37">
    <path clip-path="url(#p3ff7bd3d6c)" d="M 309.162193 328.52
L 316.659291 328.52
L 316.659291 145.060915
L 309.162193 145.060915
z
" style="fill:#40e0d0;opacity:0.5;"/>
   </g>
   <g id="patch_38">
    <path clip-path="url(#p3ff7bd3d6c)" d="M 316.659291 328.52
L 324.15639 328.52
L 324.15639 188.304842
L 316.659291 188.304842
z
" style="fill:#40e0d0;opacity:0.5;"/>
   </g>
   <g id="patch_39">
    <path clip-path="url(#p3ff7bd3d6c)" d="M 324.15639 328.52
L 331.653488 328.52
L 331.653488 200.098641
L 324.15639 200.098641
z
" style="fill:#40e0d0;opacity:0.5;"/>
   </g>
   <g id="patch_40">
    <path clip-path="url(#p3ff7bd3d6c)" d="M 331.653488 328.52
L 339.150586 328.52
L 339.150586 232.422384
L 331.653488 232.422384
z
" style="fill:#40e0d0;opacity:0.5;"/>
   </g>
   <g id="patch_41">
    <path clip-path="url(#p3ff7bd3d6c)" d="M 339.150586 328.52
L 346.647684 328.52
L 346.647684 252.078715
L 339.150586 252.078715
z
" style="fill:#40e0d0;opacity:0.5;"/>
   </g>
   <g id="patch_42">
    <path clip-path="url(#p3ff7bd3d6c)" d="M 346.647684 328.52
L 354.144783 328.52
L 354.144783 271.298238
L 346.647684 271.298238
z
" style="fill:#40e0d0;opacity:0.5;"/>
   </g>
   <g id="patch_43">
    <path clip-path="url(#p3ff7bd3d6c)" d="M 354.144783 328.52
L 361.641881 328.52
L 361.641881 287.023302
L 354.144783 287.023302
z
" style="fill:#40e0d0;opacity:0.5;"/>
   </g>
   <g id="patch_44">
    <path clip-path="url(#p3ff7bd3d6c)" d="M 361.641881 328.52
L 369.138979 328.52
L 369.138979 297.069871
L 361.641881 297.069871
z
" style="fill:#40e0d0;opacity:0.5;"/>
   </g>
   <g id="patch_45">
    <path clip-path="url(#p3ff7bd3d6c)" d="M 369.138979 328.52
L 376.636077 328.52
L 376.636077 306.679633
L 369.138979 306.679633
z
" style="fill:#40e0d0;opacity:0.5;"/>
   </g>
   <g id="patch_46">
    <path clip-path="url(#p3ff7bd3d6c)" d="M 376.636077 328.52
L 384.133176 328.52
L 384.133176 307.990055
L 376.636077 307.990055
z
" style="fill:#40e0d0;opacity:0.5;"/>
   </g>
   <g id="patch_47">
    <path clip-path="url(#p3ff7bd3d6c)" d="M 384.133176 328.52
L 391.630274 328.52
L 391.630274 318.036624
L 384.133176 318.036624
z
" style="fill:#40e0d0;opacity:0.5;"/>
   </g>
   <g id="patch_48">
    <path clip-path="url(#p3ff7bd3d6c)" d="M 391.630274 328.52
L 399.127372 328.52
L 399.127372 320.22066
L 391.630274 320.22066
z
" style="fill:#40e0d0;opacity:0.5;"/>
   </g>
   <g id="patch_49">
    <path clip-path="url(#p3ff7bd3d6c)" d="M 399.127372 328.52
L 406.62447 328.52
L 406.62447 325.899156
L 399.127372 325.899156
z
" style="fill:#40e0d0;opacity:0.5;"/>
   </g>
   <g id="patch_50">
    <path clip-path="url(#p3ff7bd3d6c)" d="M 406.62447 328.52
L 414.121569 328.52
L 414.121569 323.278312
L 406.62447 323.278312
z
" style="fill:#40e0d0;opacity:0.5;"/>
   </g>
   <g id="patch_51">
    <path clip-path="url(#p3ff7bd3d6c)" d="M 414.121569 328.52
L 421.618667 328.52
L 421.618667 326.335963
L 414.121569 326.335963
z
" style="fill:#40e0d0;opacity:0.5;"/>
   </g>
   <g id="patch_52">
    <path clip-path="url(#p3ff7bd3d6c)" d="M 421.618667 328.52
L 429.115765 328.52
L 429.115765 325.899156
L 421.618667 325.899156
z
" style="fill:#40e0d0;opacity:0.5;"/>
   </g>
   <g id="patch_53">
    <path clip-path="url(#p3ff7bd3d6c)" d="M 173.572759 328.52
L 175.391972 328.52
L 175.391972 326.719888
L 173.572759 326.719888
z
" style="fill:#ff00ff;opacity:0.5;"/>
   </g>
   <g id="patch_54">
    <path clip-path="url(#p3ff7bd3d6c)" d="M 175.391972 328.52
L 177.211185 328.52
L 177.211185 328.52
L 175.391972 328.52
z
" style="fill:#ff00ff;opacity:0.5;"/>
   </g>
   <g id="patch_55">
    <path clip-path="url(#p3ff7bd3d6c)" d="M 177.211185 328.52
L 179.030398 328.52
L 179.030398 328.52
L 177.211185 328.52
z
" style="fill:#ff00ff;opacity:0.5;"/>
   </g>
   <g id="patch_56">
    <path clip-path="url(#p3ff7bd3d6c)" d="M 179.030398 328.52
L 180.849611 328.52
L 180.849611 328.52
L 179.030398 328.52
z
" style="fill:#ff00ff;opacity:0.5;"/>
   </g>
   <g id="patch_57">
    <path clip-path="url(#p3ff7bd3d6c)" d="M 180.849611 328.52
L 182.668825 328.52
L 182.668825 328.52
L 180.849611 328.52
z
" style="fill:#ff00ff;opacity:0.5;"/>
   </g>
   <g id="patch_58">
    <path clip-path="url(#p3ff7bd3d6c)" d="M 182.668825 328.52
L 184.488038 328.52
L 184.488038 328.52
L 182.668825 328.52
z
" style="fill:#ff00ff;opacity:0.5;"/>
   </g>
   <g id="patch_59">
    <path clip-path="url(#p3ff7bd3d6c)" d="M 184.488038 328.52
L 186.307251 328.52
L 186.307251 328.52
L 184.488038 328.52
z
" style="fill:#ff00ff;opacity:0.5;"/>
   </g>
   <g id="patch_60">
    <path clip-path="url(#p3ff7bd3d6c)" d="M 186.307251 328.52
L 188.126464 328.52
L 188.126464 328.52
L 186.307251 328.52
z
" style="fill:#ff00ff;opacity:0.5;"/>
   </g>
   <g id="patch_61">
    <path clip-path="url(#p3ff7bd3d6c)" d="M 188.126464 328.52
L 189.945677 328.52
L 189.945677 328.52
L 188.126464 328.52
z
" style="fill:#ff00ff;opacity:0.5;"/>
   </g>
   <g id="patch_62">
    <path clip-path="url(#p3ff7bd3d6c)" d="M 189.945677 328.52
L 191.764891 328.52
L 191.764891 328.52
L 189.945677 328.52
z
" style="fill:#ff00ff;opacity:0.5;"/>
   </g>
   <g id="patch_63">
    <path clip-path="url(#p3ff7bd3d6c)" d="M 191.764891 328.52
L 193.584104 328.52
L 193.584104 328.52
L 191.764891 328.52
z
" style="fill:#ff00ff;opacity:0.5;"/>
   </g>
   <g id="patch_64">
    <path clip-path="url(#p3ff7bd3d6c)" d="M 193.584104 328.52
L 195.403317 328.52
L 195.403317 326.719888
L 193.584104 326.719888
z
" style="fill:#ff00ff;opacity:0.5;"/>
   </g>
   <g id="patch_65">
    <path clip-path="url(#p3ff7bd3d6c)" d="M 195.403317 328.52
L 197.22253 328.52
L 197.22253 328.52
L 195.403317 328.52
z
" style="fill:#ff00ff;opacity:0.5;"/>
   </g>
   <g id="patch_66">
    <path clip-path="url(#p3ff7bd3d6c)" d="M 197.22253 328.52
L 199.041743 328.52
L 199.041743 328.52
L 197.22253 328.52
z
" style="fill:#ff00ff;opacity:0.5;"/>
   </g>
   <g id="patch_67">
    <path clip-path="url(#p3ff7bd3d6c)" d="M 199.041743 328.52
L 200.860957 328.52
L 200.860957 328.52
L 199.041743 328.52
z
" style="fill:#ff00ff;opacity:0.5;"/>
   </g>
   <g id="patch_68">
    <path clip-path="url(#p3ff7bd3d6c)" d="M 200.860957 328.52
L 202.68017 328.52
L 202.68017 326.719888
L 200.860957 326.719888
z
" style="fill:#ff00ff;opacity:0.5;"/>
   </g>
   <g id="patch_69">
    <path clip-path="url(#p3ff7bd3d6c)" d="M 202.68017 328.52
L 204.499383 328.52
L 204.499383 328.52
L 202.68017 328.52
z
" style="fill:#ff00ff;opacity:0.5;"/>
   </g>
   <g id="patch_70">
    <path clip-path="url(#p3ff7bd3d6c)" d="M 204.499383 328.52
L 206.318596 328.52
L 206.318596 326.719888
L 204.499383 326.719888
z
" style="fill:#ff00ff;opacity:0.5;"/>
   </g>
   <g id="patch_71">
    <path clip-path="url(#p3ff7bd3d6c)" d="M 206.318596 328.52
L 208.137809 328.52
L 208.137809 328.52
L 206.318596 328.52
z
" style="fill:#ff00ff;opacity:0.5;"/>
   </g>
   <g id="patch_72">
    <path clip-path="url(#p3ff7bd3d6c)" d="M 208.137809 328.52
L 209.957023 328.52
L 209.957023 328.52
L 208.137809 328.52
z
" style="fill:#ff00ff;opacity:0.5;"/>
   </g>
   <g id="patch_73">
    <path clip-path="url(#p3ff7bd3d6c)" d="M 209.957023 328.52
L 211.776236 328.52
L 211.776236 326.719888
L 209.957023 326.719888
z
" style="fill:#ff00ff;opacity:0.5;"/>
   </g>
   <g id="patch_74">
    <path clip-path="url(#p3ff7bd3d6c)" d="M 211.776236 328.52
L 213.595449 328.52
L 213.595449 328.52
L 211.776236 328.52
z
" style="fill:#ff00ff;opacity:0.5;"/>
   </g>
   <g id="patch_75">
    <path clip-path="url(#p3ff7bd3d6c)" d="M 213.595449 328.52
L 215.414662 328.52
L 215.414662 326.719888
L 213.595449 326.719888
z
" style="fill:#ff00ff;opacity:0.5;"/>
   </g>
   <g id="patch_76">
    <path clip-path="url(#p3ff7bd3d6c)" d="M 215.414662 328.52
L 217.233875 328.52
L 217.233875 324.919776
L 215.414662 324.919776
z
" style="fill:#ff00ff;opacity:0.5;"/>
   </g>
   <g id="patch_77">
    <path clip-path="url(#p3ff7bd3d6c)" d="M 217.233875 328.52
L 219.053089 328.52
L 219.053089 328.52
L 217.233875 328.52
z
" style="fill:#ff00ff;opacity:0.5;"/>
   </g>
   <g id="patch_78">
    <path clip-path="url(#p3ff7bd3d6c)" d="M 219.053089 328.52
L 220.872302 328.52
L 220.872302 324.919776
L 219.053089 324.919776
z
" style="fill:#ff00ff;opacity:0.5;"/>
   </g>
   <g id="patch_79">
    <path clip-path="url(#p3ff7bd3d6c)" d="M 220.872302 328.52
L 222.691515 328.52
L 222.691515 326.719888
L 220.872302 326.719888
z
" style="fill:#ff00ff;opacity:0.5;"/>
   </g>
   <g id="patch_80">
    <path clip-path="url(#p3ff7bd3d6c)" d="M 222.691515 328.52
L 224.510728 328.52
L 224.510728 324.919776
L 222.691515 324.919776
z
" style="fill:#ff00ff;opacity:0.5;"/>
   </g>
   <g id="patch_81">
    <path clip-path="url(#p3ff7bd3d6c)" d="M 224.510728 328.52
L 226.329941 328.52
L 226.329941 321.319552
L 224.510728 321.319552
z
" style="fill:#ff00ff;opacity:0.5;"/>
   </g>
   <g id="patch_82">
    <path clip-path="url(#p3ff7bd3d6c)" d="M 226.329941 328.52
L 228.149155 328.52
L 228.149155 326.719888
L 226.329941 326.719888
z
" style="fill:#ff00ff;opacity:0.5;"/>
   </g>
   <g id="patch_83">
    <path clip-path="url(#p3ff7bd3d6c)" d="M 228.149155 328.52
L 229.968368 328.52
L 229.968368 321.319552
L 228.149155 321.319552
z
" style="fill:#ff00ff;opacity:0.5;"/>
   </g>
   <g id="patch_84">
    <path clip-path="url(#p3ff7bd3d6c)" d="M 229.968368 328.52
L 231.787581 328.52
L 231.787581 323.119664
L 229.968368 323.119664
z
" style="fill:#ff00ff;opacity:0.5;"/>
   </g>
   <g id="patch_85">
    <path clip-path="url(#p3ff7bd3d6c)" d="M 231.787581 328.52
L 233.606794 328.52
L 233.606794 326.719888
L 231.787581 326.719888
z
" style="fill:#ff00ff;opacity:0.5;"/>
   </g>
   <g id="patch_86">
    <path clip-path="url(#p3ff7bd3d6c)" d="M 233.606794 328.52
L 235.426007 328.52
L 235.426007 321.319552
L 233.606794 321.319552
z
" style="fill:#ff00ff;opacity:0.5;"/>
   </g>
   <g id="patch_87">
    <path clip-path="url(#p3ff7bd3d6c)" d="M 235.426007 328.52
L 237.24522 328.52
L 237.24522 324.919776
L 235.426007 324.919776
z
" style="fill:#ff00ff;opacity:0.5;"/>
   </g>
   <g id="patch_88">
    <path clip-path="url(#p3ff7bd3d6c)" d="M 237.24522 328.52
L 239.064434 328.52
L 239.064434 319.51944
L 237.24522 319.51944
z
" style="fill:#ff00ff;opacity:0.5;"/>
   </g>
   <g id="patch_89">
    <path clip-path="url(#p3ff7bd3d6c)" d="M 239.064434 328.52
L 240.883647 328.52
L 240.883647 323.119664
L 239.064434 323.119664
z
" style="fill:#ff00ff;opacity:0.5;"/>
   </g>
   <g id="patch_90">
    <path clip-path="url(#p3ff7bd3d6c)" d="M 240.883647 328.52
L 242.70286 328.52
L 242.70286 310.51888
L 240.883647 310.51888
z
" style="fill:#ff00ff;opacity:0.5;"/>
   </g>
   <g id="patch_91">
    <path clip-path="url(#p3ff7bd3d6c)" d="M 242.70286 328.52
L 244.522073 328.52
L 244.522073 317.719328
L 242.70286 317.719328
z
" style="fill:#ff00ff;opacity:0.5;"/>
   </g>
   <g id="patch_92">
    <path clip-path="url(#p3ff7bd3d6c)" d="M 244.522073 328.52
L 246.341286 328.52
L 246.341286 308.718768
L 244.522073 308.718768
z
" style="fill:#ff00ff;opacity:0.5;"/>
   </g>
   <g id="patch_93">
    <path clip-path="url(#p3ff7bd3d6c)" d="M 246.341286 328.52
L 248.1605 328.52
L 248.1605 299.718207
L 246.341286 299.718207
z
" style="fill:#ff00ff;opacity:0.5;"/>
   </g>
   <g id="patch_94">
    <path clip-path="url(#p3ff7bd3d6c)" d="M 248.1605 328.52
L 249.979713 328.52
L 249.979713 314.119104
L 248.1605 314.119104
z
" style="fill:#ff00ff;opacity:0.5;"/>
   </g>
   <g id="patch_95">
    <path clip-path="url(#p3ff7bd3d6c)" d="M 249.979713 328.52
L 251.798926 328.52
L 251.798926 319.51944
L 249.979713 319.51944
z
" style="fill:#ff00ff;opacity:0.5;"/>
   </g>
   <g id="patch_96">
    <path clip-path="url(#p3ff7bd3d6c)" d="M 251.798926 328.52
L 253.618139 328.52
L 253.618139 296.117983
L 251.798926 296.117983
z
" style="fill:#ff00ff;opacity:0.5;"/>
   </g>
   <g id="patch_97">
    <path clip-path="url(#p3ff7bd3d6c)" d="M 253.618139 328.52
L 255.437352 328.52
L 255.437352 303.318431
L 253.618139 303.318431
z
" style="fill:#ff00ff;opacity:0.5;"/>
   </g>
   <g id="patch_98">
    <path clip-path="url(#p3ff7bd3d6c)" d="M 255.437352 328.52
L 257.256566 328.52
L 257.256566 310.51888
L 255.437352 310.51888
z
" style="fill:#ff00ff;opacity:0.5;"/>
   </g>
   <g id="patch_99">
    <path clip-path="url(#p3ff7bd3d6c)" d="M 257.256566 328.52
L 259.075779 328.52
L 259.075779 308.718768
L 257.256566 308.718768
z
" style="fill:#ff00ff;opacity:0.5;"/>
   </g>
   <g id="patch_100">
    <path clip-path="url(#p3ff7bd3d6c)" d="M 259.075779 328.52
L 260.894992 328.52
L 260.894992 299.718207
L 259.075779 299.718207
z
" style="fill:#ff00ff;opacity:0.5;"/>
   </g>
   <g id="patch_101">
    <path clip-path="url(#p3ff7bd3d6c)" d="M 260.894992 328.52
L 262.714205 328.52
L 262.714205 287.117423
L 260.894992 287.117423
z
" style="fill:#ff00ff;opacity:0.5;"/>
   </g>
   <g id="patch_102">
    <path clip-path="url(#p3ff7bd3d6c)" d="M 262.714205 328.52
L 264.533418 328.52
L 264.533418 290.717647
L 262.714205 290.717647
z
" style="fill:#ff00ff;opacity:0.5;"/>
   </g>
   <g id="patch_103">
    <path clip-path="url(#p3ff7bd3d6c)" d="M 264.533418 328.52
L 266.352632 328.52
L 266.352632 297.918095
L 264.533418 297.918095
z
" style="fill:#ff00ff;opacity:0.5;"/>
   </g>
   <g id="patch_104">
    <path clip-path="url(#p3ff7bd3d6c)" d="M 266.352632 328.52
L 268.171845 328.52
L 268.171845 301.518319
L 266.352632 301.518319
z
" style="fill:#ff00ff;opacity:0.5;"/>
   </g>
   <g id="patch_105">
    <path clip-path="url(#p3ff7bd3d6c)" d="M 268.171845 328.52
L 269.991058 328.52
L 269.991058 287.117423
L 268.171845 287.117423
z
" style="fill:#ff00ff;opacity:0.5;"/>
   </g>
   <g id="patch_106">
    <path clip-path="url(#p3ff7bd3d6c)" d="M 269.991058 328.52
L 271.810271 328.52
L 271.810271 279.916975
L 269.991058 279.916975
z
" style="fill:#ff00ff;opacity:0.5;"/>
   </g>
   <g id="patch_107">
    <path clip-path="url(#p3ff7bd3d6c)" d="M 271.810271 328.52
L 273.629484 328.52
L 273.629484 287.117423
L 271.810271 287.117423
z
" style="fill:#ff00ff;opacity:0.5;"/>
   </g>
   <g id="patch_108">
    <path clip-path="url(#p3ff7bd3d6c)" d="M 273.629484 328.52
L 275.448698 328.52
L 275.448698 270.916415
L 273.629484 270.916415
z
" style="fill:#ff00ff;opacity:0.5;"/>
   </g>
   <g id="patch_109">
    <path clip-path="url(#p3ff7bd3d6c)" d="M 275.448698 328.52
L 277.267911 328.52
L 277.267911 303.318431
L 275.448698 303.318431
z
" style="fill:#ff00ff;opacity:0.5;"/>
   </g>
   <g id="patch_110">
    <path clip-path="url(#p3ff7bd3d6c)" d="M 277.267911 328.52
L 279.087124 328.52
L 279.087124 256.515518
L 277.267911 256.515518
z
" style="fill:#ff00ff;opacity:0.5;"/>
   </g>
   <g id="patch_111">
    <path clip-path="url(#p3ff7bd3d6c)" d="M 279.087124 328.52
L 280.906337 328.52
L 280.906337 269.116303
L 279.087124 269.116303
z
" style="fill:#ff00ff;opacity:0.5;"/>
   </g>
   <g id="patch_112">
    <path clip-path="url(#p3ff7bd3d6c)" d="M 280.906337 328.52
L 282.72555 328.52
L 282.72555 263.715966
L 280.906337 263.715966
z
" style="fill:#ff00ff;opacity:0.5;"/>
   </g>
   <g id="patch_113">
    <path clip-path="url(#p3ff7bd3d6c)" d="M 282.72555 328.52
L 284.544764 328.52
L 284.544764 263.715966
L 282.72555 263.715966
z
" style="fill:#ff00ff;opacity:0.5;"/>
   </g>
   <g id="patch_114">
    <path clip-path="url(#p3ff7bd3d6c)" d="M 284.544764 328.52
L 286.363977 328.52
L 286.363977 254.715406
L 284.544764 254.715406
z
" style="fill:#ff00ff;opacity:0.5;"/>
   </g>
   <g id="patch_115">
    <path clip-path="url(#p3ff7bd3d6c)" d="M 286.363977 328.52
L 288.18319 328.52
L 288.18319 260.115742
L 286.363977 260.115742
z
" style="fill:#ff00ff;opacity:0.5;"/>
   </g>
   <g id="patch_116">
    <path clip-path="url(#p3ff7bd3d6c)" d="M 288.18319 328.52
L 290.002403 328.52
L 290.002403 260.115742
L 288.18319 260.115742
z
" style="fill:#ff00ff;opacity:0.5;"/>
   </g>
   <g id="patch_117">
    <path clip-path="url(#p3ff7bd3d6c)" d="M 290.002403 328.52
L 291.821616 328.52
L 291.821616 225.913613
L 290.002403 225.913613
z
" style="fill:#ff00ff;opacity:0.5;"/>
   </g>
   <g id="patch_118">
    <path clip-path="url(#p3ff7bd3d6c)" d="M 291.821616 328.52
L 293.64083 328.52
L 293.64083 258.31563
L 291.821616 258.31563
z
" style="fill:#ff00ff;opacity:0.5;"/>
   </g>
   <g id="patch_119">
    <path clip-path="url(#p3ff7bd3d6c)" d="M 293.64083 328.52
L 295.460043 328.52
L 295.460043 225.913613
L 293.64083 225.913613
z
" style="fill:#ff00ff;opacity:0.5;"/>
   </g>
   <g id="patch_120">
    <path clip-path="url(#p3ff7bd3d6c)" d="M 295.460043 328.52
L 297.279256 328.52
L 297.279256 200.712045
L 295.460043 200.712045
z
" style="fill:#ff00ff;opacity:0.5;"/>
   </g>
   <g id="patch_121">
    <path clip-path="url(#p3ff7bd3d6c)" d="M 297.279256 328.52
L 299.098469 328.52
L 299.098469 215.112941
L 297.279256 215.112941
z
" style="fill:#ff00ff;opacity:0.5;"/>
   </g>
   <g id="patch_122">
    <path clip-path="url(#p3ff7bd3d6c)" d="M 299.098469 328.52
L 300.917682 328.52
L 300.917682 220.513277
L 299.098469 220.513277
z
" style="fill:#ff00ff;opacity:0.5;"/>
   </g>
   <g id="patch_123">
    <path clip-path="url(#p3ff7bd3d6c)" d="M 300.917682 328.52
L 302.736896 328.52
L 302.736896 209.712605
L 300.917682 209.712605
z
" style="fill:#ff00ff;opacity:0.5;"/>
   </g>
   <g id="patch_124">
    <path clip-path="url(#p3ff7bd3d6c)" d="M 302.736896 328.52
L 304.556109 328.52
L 304.556109 193.511597
L 302.736896 193.511597
z
" style="fill:#ff00ff;opacity:0.5;"/>
   </g>
   <g id="patch_125">
    <path clip-path="url(#p3ff7bd3d6c)" d="M 304.556109 328.52
L 306.375322 328.52
L 306.375322 184.511036
L 304.556109 184.511036
z
" style="fill:#ff00ff;opacity:0.5;"/>
   </g>
   <g id="patch_126">
    <path clip-path="url(#p3ff7bd3d6c)" d="M 306.375322 328.52
L 308.194535 328.52
L 308.194535 184.511036
L 306.375322 184.511036
z
" style="fill:#ff00ff;opacity:0.5;"/>
   </g>
   <g id="patch_127">
    <path clip-path="url(#p3ff7bd3d6c)" d="M 308.194535 328.52
L 310.013748 328.52
L 310.013748 188.111261
L 308.194535 188.111261
z
" style="fill:#ff00ff;opacity:0.5;"/>
   </g>
   <g id="patch_128">
    <path clip-path="url(#p3ff7bd3d6c)" d="M 310.013748 328.52
L 311.832961 328.52
L 311.832961 168.310028
L 310.013748 168.310028
z
" style="fill:#ff00ff;opacity:0.5;"/>
   </g>
   <g id="patch_129">
    <path clip-path="url(#p3ff7bd3d6c)" d="M 311.832961 328.52
L 313.652175 328.52
L 313.652175 173.710364
L 311.832961 173.710364
z
" style="fill:#ff00ff;opacity:0.5;"/>
   </g>
   <g id="patch_130">
    <path clip-path="url(#p3ff7bd3d6c)" d="M 313.652175 328.52
L 315.471388 328.52
L 315.471388 198.911933
L 313.652175 198.911933
z
" style="fill:#ff00ff;opacity:0.5;"/>
   </g>
   <g id="patch_131">
    <path clip-path="url(#p3ff7bd3d6c)" d="M 315.471388 328.52
L 317.290601 328.52
L 317.290601 144.908571
L 315.471388 144.908571
z
" style="fill:#ff00ff;opacity:0.5;"/>
   </g>
   <g id="patch_132">
    <path clip-path="url(#p3ff7bd3d6c)" d="M 317.290601 328.52
L 319.109814 328.52
L 319.109814 168.310028
L 317.290601 168.310028
z
" style="fill:#ff00ff;opacity:0.5;"/>
   </g>
   <g id="patch_133">
    <path clip-path="url(#p3ff7bd3d6c)" d="M 319.109814 328.52
L 320.929027 328.52
L 320.929027 135.908011
L 319.109814 135.908011
z
" style="fill:#ff00ff;opacity:0.5;"/>
   </g>
   <g id="patch_134">
    <path clip-path="url(#p3ff7bd3d6c)" d="M 320.929027 328.52
L 322.748241 328.52
L 322.748241 150.308908
L 320.929027 150.308908
z
" style="fill:#ff00ff;opacity:0.5;"/>
   </g>
   <g id="patch_135">
    <path clip-path="url(#p3ff7bd3d6c)" d="M 322.748241 328.52
L 324.567454 328.52
L 324.567454 112.506555
L 322.748241 112.506555
z
" style="fill:#ff00ff;opacity:0.5;"/>
   </g>
   <g id="patch_136">
    <path clip-path="url(#p3ff7bd3d6c)" d="M 324.567454 328.52
L 326.386667 328.52
L 326.386667 108.906331
L 324.567454 108.906331
z
" style="fill:#ff00ff;opacity:0.5;"/>
   </g>
   <g id="patch_137">
    <path clip-path="url(#p3ff7bd3d6c)" d="M 326.386667 328.52
L 328.20588 328.52
L 328.20588 112.506555
L 326.386667 112.506555
z
" style="fill:#ff00ff;opacity:0.5;"/>
   </g>
   <g id="patch_138">
    <path clip-path="url(#p3ff7bd3d6c)" d="M 328.20588 328.52
L 330.025093 328.52
L 330.025093 87.304986
L 328.20588 87.304986
z
" style="fill:#ff00ff;opacity:0.5;"/>
   </g>
   <g id="patch_139">
    <path clip-path="url(#p3ff7bd3d6c)" d="M 330.025093 328.52
L 331.844307 328.52
L 331.844307 137.708123
L 330.025093 137.708123
z
" style="fill:#ff00ff;opacity:0.5;"/>
   </g>
   <g id="patch_140">
    <path clip-path="url(#p3ff7bd3d6c)" d="M 331.844307 328.52
L 333.66352 328.52
L 333.66352 92.705322
L 331.844307 92.705322
z
" style="fill:#ff00ff;opacity:0.5;"/>
   </g>
   <g id="patch_141">
    <path clip-path="url(#p3ff7bd3d6c)" d="M 333.66352 328.52
L 335.482733 328.52
L 335.482733 42.302185
L 333.66352 42.302185
z
" style="fill:#ff00ff;opacity:0.5;"/>
   </g>
   <g id="patch_142">
    <path clip-path="url(#p3ff7bd3d6c)" d="M 335.482733 328.52
L 337.301946 328.52
L 337.301946 96.305546
L 335.482733 96.305546
z
" style="fill:#ff00ff;opacity:0.5;"/>
   </g>
   <g id="patch_143">
    <path clip-path="url(#p3ff7bd3d6c)" d="M 337.301946 328.52
L 339.121159 328.52
L 339.121159 107.106218
L 337.301946 107.106218
z
" style="fill:#ff00ff;opacity:0.5;"/>
   </g>
   <g id="patch_144">
    <path clip-path="url(#p3ff7bd3d6c)" d="M 339.121159 328.52
L 340.940373 328.52
L 340.940373 74.704202
L 339.121159 74.704202
z
" style="fill:#ff00ff;opacity:0.5;"/>
   </g>
   <g id="patch_145">
    <path clip-path="url(#p3ff7bd3d6c)" d="M 340.940373 328.52
L 342.759586 328.52
L 342.759586 112.506555
L 340.940373 112.506555
z
" style="fill:#ff00ff;opacity:0.5;"/>
   </g>
   <g id="patch_146">
    <path clip-path="url(#p3ff7bd3d6c)" d="M 342.759586 328.52
L 344.578799 328.52
L 344.578799 76.504314
L 342.759586 76.504314
z
" style="fill:#ff00ff;opacity:0.5;"/>
   </g>
   <g id="patch_147">
    <path clip-path="url(#p3ff7bd3d6c)" d="M 344.578799 328.52
L 346.398012 328.52
L 346.398012 44.102297
L 344.578799 44.102297
z
" style="fill:#ff00ff;opacity:0.5;"/>
   </g>
   <g id="patch_148">
    <path clip-path="url(#p3ff7bd3d6c)" d="M 346.398012 328.52
L 348.217225 328.52
L 348.217225 62.103417
L 346.398012 62.103417
z
" style="fill:#ff00ff;opacity:0.5;"/>
   </g>
   <g id="patch_149">
    <path clip-path="url(#p3ff7bd3d6c)" d="M 348.217225 328.52
L 350.036439 328.52
L 350.036439 101.705882
L 348.217225 101.705882
z
" style="fill:#ff00ff;opacity:0.5;"/>
   </g>
   <g id="patch_150">
    <path clip-path="url(#p3ff7bd3d6c)" d="M 350.036439 328.52
L 351.855652 328.52
L 351.855652 45.902409
L 350.036439 45.902409
z
" style="fill:#ff00ff;opacity:0.5;"/>
   </g>
   <g id="patch_151">
    <path clip-path="url(#p3ff7bd3d6c)" d="M 351.855652 328.52
L 353.674865 328.52
L 353.674865 47.702521
L 351.855652 47.702521
z
" style="fill:#ff00ff;opacity:0.5;"/>
   </g>
   <g id="patch_152">
    <path clip-path="url(#p3ff7bd3d6c)" d="M 353.674865 328.52
L 355.494078 328.52
L 355.494078 89.105098
L 353.674865 89.105098
z
" style="fill:#ff00ff;opacity:0.5;"/>
   </g>
   <g id="patch_153">
    <path clip-path="url(#p3ff7bd3d6c)" d="M 355.494078 328.52
L 357.313291 328.52
L 357.313291 51.302745
L 355.494078 51.302745
z
" style="fill:#ff00ff;opacity:0.5;"/>
   </g>
   <g id="patch_154">
    <path clip-path="url(#p3ff7bd3d6c)" d="M 357.313291 328.52
L 359.132505 328.52
L 359.132505 26.101176
L 357.313291 26.101176
z
" style="fill:#ff00ff;opacity:0.5;"/>
   </g>
   <g id="patch_155">
    <path clip-path="url(#p3ff7bd3d6c)" d="M 359.132505 328.52
L 360.951718 328.52
L 360.951718 56.703081
L 359.132505 56.703081
z
" style="fill:#ff00ff;opacity:0.5;"/>
   </g>
   <g id="patch_156">
    <path clip-path="url(#p3ff7bd3d6c)" d="M 360.951718 328.52
L 362.770931 328.52
L 362.770931 65.703641
L 360.951718 65.703641
z
" style="fill:#ff00ff;opacity:0.5;"/>
   </g>
   <g id="patch_157">
    <path clip-path="url(#p3ff7bd3d6c)" d="M 362.770931 328.52
L 364.590144 328.52
L 364.590144 31.501513
L 362.770931 31.501513
z
" style="fill:#ff00ff;opacity:0.5;"/>
   </g>
   <g id="patch_158">
    <path clip-path="url(#p3ff7bd3d6c)" d="M 364.590144 328.52
L 366.409357 328.52
L 366.409357 47.702521
L 364.590144 47.702521
z
" style="fill:#ff00ff;opacity:0.5;"/>
   </g>
   <g id="patch_159">
    <path clip-path="url(#p3ff7bd3d6c)" d="M 366.409357 328.52
L 368.228571 328.52
L 368.228571 31.501513
L 366.409357 31.501513
z
" style="fill:#ff00ff;opacity:0.5;"/>
   </g>
   <g id="patch_160">
    <path clip-path="url(#p3ff7bd3d6c)" d="M 368.228571 328.52
L 370.047784 328.52
L 370.047784 51.302745
L 368.228571 51.302745
z
" style="fill:#ff00ff;opacity:0.5;"/>
   </g>
   <g id="patch_161">
    <path clip-path="url(#p3ff7bd3d6c)" d="M 370.047784 328.52
L 371.866997 328.52
L 371.866997 60.303305
L 370.047784 60.303305
z
" style="fill:#ff00ff;opacity:0.5;"/>
   </g>
   <g id="patch_162">
    <path clip-path="url(#p3ff7bd3d6c)" d="M 371.866997 328.52
L 373.68621 328.52
L 373.68621 22.500952
L 371.866997 22.500952
z
" style="fill:#ff00ff;opacity:0.5;"/>
   </g>
   <g id="patch_163">
    <path clip-path="url(#p3ff7bd3d6c)" d="M 373.68621 328.52
L 375.505423 328.52
L 375.505423 42.302185
L 373.68621 42.302185
z
" style="fill:#ff00ff;opacity:0.5;"/>
   </g>
   <g id="patch_164">
    <path clip-path="url(#p3ff7bd3d6c)" d="M 375.505423 328.52
L 377.324637 328.52
L 377.324637 90.90521
L 375.505423 90.90521
z
" style="fill:#ff00ff;opacity:0.5;"/>
   </g>
   <g id="patch_165">
    <path clip-path="url(#p3ff7bd3d6c)" d="M 377.324637 328.52
L 379.14385 328.52
L 379.14385 27.901289
L 377.324637 27.901289
z
" style="fill:#ff00ff;opacity:0.5;"/>
   </g>
   <g id="patch_166">
    <path clip-path="url(#p3ff7bd3d6c)" d="M 379.14385 328.52
L 380.963063 328.52
L 380.963063 87.304986
L 379.14385 87.304986
z
" style="fill:#ff00ff;opacity:0.5;"/>
   </g>
   <g id="patch_167">
    <path clip-path="url(#p3ff7bd3d6c)" d="M 380.963063 328.52
L 382.782276 328.52
L 382.782276 85.504874
L 380.963063 85.504874
z
" style="fill:#ff00ff;opacity:0.5;"/>
   </g>
   <g id="patch_168">
    <path clip-path="url(#p3ff7bd3d6c)" d="M 382.782276 328.52
L 384.601489 328.52
L 384.601489 60.303305
L 382.782276 60.303305
z
" style="fill:#ff00ff;opacity:0.5;"/>
   </g>
   <g id="patch_169">
    <path clip-path="url(#p3ff7bd3d6c)" d="M 384.601489 328.52
L 386.420703 328.52
L 386.420703 96.305546
L 384.601489 96.305546
z
" style="fill:#ff00ff;opacity:0.5;"/>
   </g>
   <g id="patch_170">
    <path clip-path="url(#p3ff7bd3d6c)" d="M 386.420703 328.52
L 388.239916 328.52
L 388.239916 60.303305
L 386.420703 60.303305
z
" style="fill:#ff00ff;opacity:0.5;"/>
   </g>
   <g id="patch_171">
    <path clip-path="url(#p3ff7bd3d6c)" d="M 388.239916 328.52
L 390.059129 328.52
L 390.059129 116.106779
L 388.239916 116.106779
z
" style="fill:#ff00ff;opacity:0.5;"/>
   </g>
   <g id="patch_172">
    <path clip-path="url(#p3ff7bd3d6c)" d="M 390.059129 328.52
L 391.878342 328.52
L 391.878342 92.705322
L 390.059129 92.705322
z
" style="fill:#ff00ff;opacity:0.5;"/>
   </g>
   <g id="patch_173">
    <path clip-path="url(#p3ff7bd3d6c)" d="M 391.878342 328.52
L 393.697555 328.52
L 393.697555 110.706443
L 391.878342 110.706443
z
" style="fill:#ff00ff;opacity:0.5;"/>
   </g>
   <g id="patch_174">
    <path clip-path="url(#p3ff7bd3d6c)" d="M 393.697555 328.52
L 395.516768 328.52
L 395.516768 87.304986
L 393.697555 87.304986
z
" style="fill:#ff00ff;opacity:0.5;"/>
   </g>
   <g id="patch_175">
    <path clip-path="url(#p3ff7bd3d6c)" d="M 395.516768 328.52
L 397.335982 328.52
L 397.335982 123.307227
L 395.516768 123.307227
z
" style="fill:#ff00ff;opacity:0.5;"/>
   </g>
   <g id="patch_176">
    <path clip-path="url(#p3ff7bd3d6c)" d="M 397.335982 328.52
L 399.155195 328.52
L 399.155195 119.707003
L 397.335982 119.707003
z
" style="fill:#ff00ff;opacity:0.5;"/>
   </g>
   <g id="patch_177">
    <path clip-path="url(#p3ff7bd3d6c)" d="M 399.155195 328.52
L 400.974408 328.52
L 400.974408 166.509916
L 399.155195 166.509916
z
" style="fill:#ff00ff;opacity:0.5;"/>
   </g>
   <g id="patch_178">
    <path clip-path="url(#p3ff7bd3d6c)" d="M 400.974408 328.52
L 402.793621 328.52
L 402.793621 150.308908
L 400.974408 150.308908
z
" style="fill:#ff00ff;opacity:0.5;"/>
   </g>
   <g id="patch_179">
    <path clip-path="url(#p3ff7bd3d6c)" d="M 402.793621 328.52
L 404.612834 328.52
L 404.612834 141.308347
L 402.793621 141.308347
z
" style="fill:#ff00ff;opacity:0.5;"/>
   </g>
   <g id="patch_180">
    <path clip-path="url(#p3ff7bd3d6c)" d="M 404.612834 328.52
L 406.432048 328.52
L 406.432048 170.11014
L 404.612834 170.11014
z
" style="fill:#ff00ff;opacity:0.5;"/>
   </g>
   <g id="patch_181">
    <path clip-path="url(#p3ff7bd3d6c)" d="M 406.432048 328.52
L 408.251261 328.52
L 408.251261 161.10958
L 406.432048 161.10958
z
" style="fill:#ff00ff;opacity:0.5;"/>
   </g>
   <g id="patch_182">
    <path clip-path="url(#p3ff7bd3d6c)" d="M 408.251261 328.52
L 410.070474 328.52
L 410.070474 164.709804
L 408.251261 164.709804
z
" style="fill:#ff00ff;opacity:0.5;"/>
   </g>
   <g id="patch_183">
    <path clip-path="url(#p3ff7bd3d6c)" d="M 410.070474 328.52
L 411.889687 328.52
L 411.889687 130.507675
L 410.070474 130.507675
z
" style="fill:#ff00ff;opacity:0.5;"/>
   </g>
   <g id="patch_184">
    <path clip-path="url(#p3ff7bd3d6c)" d="M 411.889687 328.52
L 413.7089 328.52
L 413.7089 188.111261
L 411.889687 188.111261
z
" style="fill:#ff00ff;opacity:0.5;"/>
   </g>
   <g id="patch_185">
    <path clip-path="url(#p3ff7bd3d6c)" d="M 413.7089 328.52
L 415.528114 328.52
L 415.528114 195.311709
L 413.7089 195.311709
z
" style="fill:#ff00ff;opacity:0.5;"/>
   </g>
   <g id="patch_186">
    <path clip-path="url(#p3ff7bd3d6c)" d="M 415.528114 328.52
L 417.347327 328.52
L 417.347327 193.511597
L 415.528114 193.511597
z
" style="fill:#ff00ff;opacity:0.5;"/>
   </g>
   <g id="patch_187">
    <path clip-path="url(#p3ff7bd3d6c)" d="M 417.347327 328.52
L 419.16654 328.52
L 419.16654 213.312829
L 417.347327 213.312829
z
" style="fill:#ff00ff;opacity:0.5;"/>
   </g>
   <g id="patch_188">
    <path clip-path="url(#p3ff7bd3d6c)" d="M 419.16654 328.52
L 420.985753 328.52
L 420.985753 191.711485
L 419.16654 191.711485
z
" style="fill:#ff00ff;opacity:0.5;"/>
   </g>
   <g id="patch_189">
    <path clip-path="url(#p3ff7bd3d6c)" d="M 420.985753 328.52
L 422.804966 328.52
L 422.804966 206.112381
L 420.985753 206.112381
z
" style="fill:#ff00ff;opacity:0.5;"/>
   </g>
   <g id="patch_190">
    <path clip-path="url(#p3ff7bd3d6c)" d="M 422.804966 328.52
L 424.62418 328.52
L 424.62418 198.911933
L 422.804966 198.911933
z
" style="fill:#ff00ff;opacity:0.5;"/>
   </g>
   <g id="patch_191">
    <path clip-path="url(#p3ff7bd3d6c)" d="M 424.62418 328.52
L 426.443393 328.52
L 426.443393 193.511597
L 424.62418 193.511597
z
" style="fill:#ff00ff;opacity:0.5;"/>
   </g>
   <g id="patch_192">
    <path clip-path="url(#p3ff7bd3d6c)" d="M 426.443393 328.52
L 428.262606 328.52
L 428.262606 224.113501
L 426.443393 224.113501
z
" style="fill:#ff00ff;opacity:0.5;"/>
   </g>
   <g id="patch_193">
    <path clip-path="url(#p3ff7bd3d6c)" d="M 428.262606 328.52
L 430.081819 328.52
L 430.081819 225.913613
L 428.262606 225.913613
z
" style="fill:#ff00ff;opacity:0.5;"/>
   </g>
   <g id="patch_194">
    <path clip-path="url(#p3ff7bd3d6c)" d="M 430.081819 328.52
L 431.901032 328.52
L 431.901032 222.313389
L 430.081819 222.313389
z
" style="fill:#ff00ff;opacity:0.5;"/>
   </g>
   <g id="patch_195">
    <path clip-path="url(#p3ff7bd3d6c)" d="M 431.901032 328.52
L 433.720246 328.52
L 433.720246 249.31507
L 431.901032 249.31507
z
" style="fill:#ff00ff;opacity:0.5;"/>
   </g>
   <g id="patch_196">
    <path clip-path="url(#p3ff7bd3d6c)" d="M 433.720246 328.52
L 435.539459 328.52
L 435.539459 247.514958
L 433.720246 247.514958
z
" style="fill:#ff00ff;opacity:0.5;"/>
   </g>
   <g id="patch_197">
    <path clip-path="url(#p3ff7bd3d6c)" d="M 435.539459 328.52
L 437.358672 328.52
L 437.358672 258.31563
L 435.539459 258.31563
z
" style="fill:#ff00ff;opacity:0.5;"/>
   </g>
   <g id="patch_198">
    <path clip-path="url(#p3ff7bd3d6c)" d="M 437.358672 328.52
L 439.177885 328.52
L 439.177885 252.915294
L 437.358672 252.915294
z
" style="fill:#ff00ff;opacity:0.5;"/>
   </g>
   <g id="patch_199">
    <path clip-path="url(#p3ff7bd3d6c)" d="M 439.177885 328.52
L 440.997098 328.52
L 440.997098 258.31563
L 439.177885 258.31563
z
" style="fill:#ff00ff;opacity:0.5;"/>
   </g>
   <g id="patch_200">
    <path clip-path="url(#p3ff7bd3d6c)" d="M 440.997098 328.52
L 442.816312 328.52
L 442.816312 252.915294
L 440.997098 252.915294
z
" style="fill:#ff00ff;opacity:0.5;"/>
   </g>
   <g id="patch_201">
    <path clip-path="url(#p3ff7bd3d6c)" d="M 442.816312 328.52
L 444.635525 328.52
L 444.635525 278.116863
L 442.816312 278.116863
z
" style="fill:#ff00ff;opacity:0.5;"/>
   </g>
   <g id="patch_202">
    <path clip-path="url(#p3ff7bd3d6c)" d="M 444.635525 328.52
L 446.454738 328.52
L 446.454738 261.915854
L 444.635525 261.915854
z
" style="fill:#ff00ff;opacity:0.5;"/>
   </g>
   <g id="patch_203">
    <path clip-path="url(#p3ff7bd3d6c)" d="M 446.454738 328.52
L 448.273951 328.52
L 448.273951 276.316751
L 446.454738 276.316751
z
" style="fill:#ff00ff;opacity:0.5;"/>
   </g>
   <g id="patch_204">
    <path clip-path="url(#p3ff7bd3d6c)" d="M 448.273951 328.52
L 450.093164 328.52
L 450.093164 281.717087
L 448.273951 281.717087
z
" style="fill:#ff00ff;opacity:0.5;"/>
   </g>
   <g id="patch_205">
    <path clip-path="url(#p3ff7bd3d6c)" d="M 450.093164 328.52
L 451.912378 328.52
L 451.912378 296.117983
L 450.093164 296.117983
z
" style="fill:#ff00ff;opacity:0.5;"/>
   </g>
   <g id="patch_206">
    <path clip-path="url(#p3ff7bd3d6c)" d="M 451.912378 328.52
L 453.731591 328.52
L 453.731591 299.718207
L 451.912378 299.718207
z
" style="fill:#ff00ff;opacity:0.5;"/>
   </g>
   <g id="patch_207">
    <path clip-path="url(#p3ff7bd3d6c)" d="M 453.731591 328.52
L 455.550804 328.52
L 455.550804 288.917535
L 453.731591 288.917535
z
" style="fill:#ff00ff;opacity:0.5;"/>
   </g>
   <g id="patch_208">
    <path clip-path="url(#p3ff7bd3d6c)" d="M 455.550804 328.52
L 457.370017 328.52
L 457.370017 274.516639
L 455.550804 274.516639
z
" style="fill:#ff00ff;opacity:0.5;"/>
   </g>
   <g id="patch_209">
    <path clip-path="url(#p3ff7bd3d6c)" d="M 457.370017 328.52
L 459.18923 328.52
L 459.18923 287.117423
L 457.370017 287.117423
z
" style="fill:#ff00ff;opacity:0.5;"/>
   </g>
   <g id="patch_210">
    <path clip-path="url(#p3ff7bd3d6c)" d="M 459.18923 328.52
L 461.008444 328.52
L 461.008444 294.317871
L 459.18923 294.317871
z
" style="fill:#ff00ff;opacity:0.5;"/>
   </g>
   <g id="patch_211">
    <path clip-path="url(#p3ff7bd3d6c)" d="M 461.008444 328.52
L 462.827657 328.52
L 462.827657 296.117983
L 461.008444 296.117983
z
" style="fill:#ff00ff;opacity:0.5;"/>
   </g>
   <g id="patch_212">
    <path clip-path="url(#p3ff7bd3d6c)" d="M 462.827657 328.52
L 464.64687 328.52
L 464.64687 299.718207
L 462.827657 299.718207
z
" style="fill:#ff00ff;opacity:0.5;"/>
   </g>
   <g id="patch_213">
    <path clip-path="url(#p3ff7bd3d6c)" d="M 464.64687 328.52
L 466.466083 328.52
L 466.466083 296.117983
L 464.64687 296.117983
z
" style="fill:#ff00ff;opacity:0.5;"/>
   </g>
   <g id="patch_214">
    <path clip-path="url(#p3ff7bd3d6c)" d="M 466.466083 328.52
L 468.285296 328.52
L 468.285296 312.318992
L 466.466083 312.318992
z
" style="fill:#ff00ff;opacity:0.5;"/>
   </g>
   <g id="patch_215">
    <path clip-path="url(#p3ff7bd3d6c)" d="M 468.285296 328.52
L 470.104509 328.52
L 470.104509 317.719328
L 468.285296 317.719328
z
" style="fill:#ff00ff;opacity:0.5;"/>
   </g>
   <g id="patch_216">
    <path clip-path="url(#p3ff7bd3d6c)" d="M 470.104509 328.52
L 471.923723 328.52
L 471.923723 314.119104
L 470.104509 314.119104
z
" style="fill:#ff00ff;opacity:0.5;"/>
   </g>
   <g id="patch_217">
    <path clip-path="url(#p3ff7bd3d6c)" d="M 471.923723 328.52
L 473.742936 328.52
L 473.742936 305.118543
L 471.923723 305.118543
z
" style="fill:#ff00ff;opacity:0.5;"/>
   </g>
   <g id="patch_218">
    <path clip-path="url(#p3ff7bd3d6c)" d="M 473.742936 328.52
L 475.562149 328.52
L 475.562149 306.918655
L 473.742936 306.918655
z
" style="fill:#ff00ff;opacity:0.5;"/>
   </g>
   <g id="patch_219">
    <path clip-path="url(#p3ff7bd3d6c)" d="M 475.562149 328.52
L 477.381362 328.52
L 477.381362 310.51888
L 475.562149 310.51888
z
" style="fill:#ff00ff;opacity:0.5;"/>
   </g>
   <g id="patch_220">
    <path clip-path="url(#p3ff7bd3d6c)" d="M 477.381362 328.52
L 479.200575 328.52
L 479.200575 317.719328
L 477.381362 317.719328
z
" style="fill:#ff00ff;opacity:0.5;"/>
   </g>
   <g id="patch_221">
    <path clip-path="url(#p3ff7bd3d6c)" d="M 479.200575 328.52
L 481.019789 328.52
L 481.019789 315.919216
L 479.200575 315.919216
z
" style="fill:#ff00ff;opacity:0.5;"/>
   </g>
   <g id="patch_222">
    <path clip-path="url(#p3ff7bd3d6c)" d="M 481.019789 328.52
L 482.839002 328.52
L 482.839002 314.119104
L 481.019789 314.119104
z
" style="fill:#ff00ff;opacity:0.5;"/>
   </g>
   <g id="patch_223">
    <path clip-path="url(#p3ff7bd3d6c)" d="M 482.839002 328.52
L 484.658215 328.52
L 484.658215 321.319552
L 482.839002 321.319552
z
" style="fill:#ff00ff;opacity:0.5;"/>
   </g>
   <g id="patch_224">
    <path clip-path="url(#p3ff7bd3d6c)" d="M 484.658215 328.52
L 486.477428 328.52
L 486.477428 314.119104
L 484.658215 314.119104
z
" style="fill:#ff00ff;opacity:0.5;"/>
   </g>
   <g id="patch_225">
    <path clip-path="url(#p3ff7bd3d6c)" d="M 486.477428 328.52
L 488.296641 328.52
L 488.296641 321.319552
L 486.477428 321.319552
z
" style="fill:#ff00ff;opacity:0.5;"/>
   </g>
   <g id="patch_226">
    <path clip-path="url(#p3ff7bd3d6c)" d="M 488.296641 328.52
L 490.115855 328.52
L 490.115855 317.719328
L 488.296641 317.719328
z
" style="fill:#ff00ff;opacity:0.5;"/>
   </g>
   <g id="patch_227">
    <path clip-path="url(#p3ff7bd3d6c)" d="M 490.115855 328.52
L 491.935068 328.52
L 491.935068 319.51944
L 490.115855 319.51944
z
" style="fill:#ff00ff;opacity:0.5;"/>
   </g>
   <g id="patch_228">
    <path clip-path="url(#p3ff7bd3d6c)" d="M 491.935068 328.52
L 493.754281 328.52
L 493.754281 324.919776
L 491.935068 324.919776
z
" style="fill:#ff00ff;opacity:0.5;"/>
   </g>
   <g id="patch_229">
    <path clip-path="url(#p3ff7bd3d6c)" d="M 493.754281 328.52
L 495.573494 328.52
L 495.573494 323.119664
L 493.754281 323.119664
z
" style="fill:#ff00ff;opacity:0.5;"/>
   </g>
   <g id="patch_230">
    <path clip-path="url(#p3ff7bd3d6c)" d="M 495.573494 328.52
L 497.392707 328.52
L 497.392707 326.719888
L 495.573494 326.719888
z
" style="fill:#ff00ff;opacity:0.5;"/>
   </g>
   <g id="patch_231">
    <path clip-path="url(#p3ff7bd3d6c)" d="M 497.392707 328.52
L 499.211921 328.52
L 499.211921 323.119664
L 497.392707 323.119664
z
" style="fill:#ff00ff;opacity:0.5;"/>
   </g>
   <g id="patch_232">
    <path clip-path="url(#p3ff7bd3d6c)" d="M 499.211921 328.52
L 501.031134 328.52
L 501.031134 321.319552
L 499.211921 321.319552
z
" style="fill:#ff00ff;opacity:0.5;"/>
   </g>
   <g id="patch_233">
    <path clip-path="url(#p3ff7bd3d6c)" d="M 501.031134 328.52
L 502.850347 328.52
L 502.850347 324.919776
L 501.031134 324.919776
z
" style="fill:#ff00ff;opacity:0.5;"/>
   </g>
   <g id="patch_234">
    <path clip-path="url(#p3ff7bd3d6c)" d="M 502.850347 328.52
L 504.66956 328.52
L 504.66956 326.719888
L 502.850347 326.719888
z
" style="fill:#ff00ff;opacity:0.5;"/>
   </g>
   <g id="patch_235">
    <path clip-path="url(#p3ff7bd3d6c)" d="M 504.66956 328.52
L 506.488773 328.52
L 506.488773 324.919776
L 504.66956 324.919776
z
" style="fill:#ff00ff;opacity:0.5;"/>
   </g>
   <g id="patch_236">
    <path clip-path="url(#p3ff7bd3d6c)" d="M 506.488773 328.52
L 508.307987 328.52
L 508.307987 328.52
L 506.488773 328.52
z
" style="fill:#ff00ff;opacity:0.5;"/>
   </g>
   <g id="patch_237">
    <path clip-path="url(#p3ff7bd3d6c)" d="M 508.307987 328.52
L 510.1272 328.52
L 510.1272 326.719888
L 508.307987 326.719888
z
" style="fill:#ff00ff;opacity:0.5;"/>
   </g>
   <g id="patch_238">
    <path clip-path="url(#p3ff7bd3d6c)" d="M 510.1272 328.52
L 511.946413 328.52
L 511.946413 324.919776
L 510.1272 324.919776
z
" style="fill:#ff00ff;opacity:0.5;"/>
   </g>
   <g id="patch_239">
    <path clip-path="url(#p3ff7bd3d6c)" d="M 511.946413 328.52
L 513.765626 328.52
L 513.765626 326.719888
L 511.946413 326.719888
z
" style="fill:#ff00ff;opacity:0.5;"/>
   </g>
   <g id="patch_240">
    <path clip-path="url(#p3ff7bd3d6c)" d="M 513.765626 328.52
L 515.584839 328.52
L 515.584839 324.919776
L 513.765626 324.919776
z
" style="fill:#ff00ff;opacity:0.5;"/>
   </g>
   <g id="patch_241">
    <path clip-path="url(#p3ff7bd3d6c)" d="M 515.584839 328.52
L 517.404053 328.52
L 517.404053 324.919776
L 515.584839 324.919776
z
" style="fill:#ff00ff;opacity:0.5;"/>
   </g>
   <g id="patch_242">
    <path clip-path="url(#p3ff7bd3d6c)" d="M 517.404053 328.52
L 519.223266 328.52
L 519.223266 328.52
L 517.404053 328.52
z
" style="fill:#ff00ff;opacity:0.5;"/>
   </g>
   <g id="patch_243">
    <path clip-path="url(#p3ff7bd3d6c)" d="M 519.223266 328.52
L 521.042479 328.52
L 521.042479 326.719888
L 519.223266 326.719888
z
" style="fill:#ff00ff;opacity:0.5;"/>
   </g>
   <g id="patch_244">
    <path clip-path="url(#p3ff7bd3d6c)" d="M 521.042479 328.52
L 522.861692 328.52
L 522.861692 328.52
L 521.042479 328.52
z
" style="fill:#ff00ff;opacity:0.5;"/>
   </g>
   <g id="patch_245">
    <path clip-path="url(#p3ff7bd3d6c)" d="M 522.861692 328.52
L 524.680905 328.52
L 524.680905 326.719888
L 522.861692 326.719888
z
" style="fill:#ff00ff;opacity:0.5;"/>
   </g>
   <g id="patch_246">
    <path clip-path="url(#p3ff7bd3d6c)" d="M 524.680905 328.52
L 526.500119 328.52
L 526.500119 328.52
L 524.680905 328.52
z
" style="fill:#ff00ff;opacity:0.5;"/>
   </g>
   <g id="patch_247">
    <path clip-path="url(#p3ff7bd3d6c)" d="M 526.500119 328.52
L 528.319332 328.52
L 528.319332 328.52
L 526.500119 328.52
z
" style="fill:#ff00ff;opacity:0.5;"/>
   </g>
   <g id="patch_248">
    <path clip-path="url(#p3ff7bd3d6c)" d="M 528.319332 328.52
L 530.138545 328.52
L 530.138545 326.719888
L 528.319332 326.719888
z
" style="fill:#ff00ff;opacity:0.5;"/>
   </g>
   <g id="patch_249">
    <path clip-path="url(#p3ff7bd3d6c)" d="M 530.138545 328.52
L 531.957758 328.52
L 531.957758 326.719888
L 530.138545 326.719888
z
" style="fill:#ff00ff;opacity:0.5;"/>
   </g>
   <g id="patch_250">
    <path clip-path="url(#p3ff7bd3d6c)" d="M 531.957758 328.52
L 533.776971 328.52
L 533.776971 328.52
L 531.957758 328.52
z
" style="fill:#ff00ff;opacity:0.5;"/>
   </g>
   <g id="patch_251">
    <path clip-path="url(#p3ff7bd3d6c)" d="M 533.776971 328.52
L 535.596185 328.52
L 535.596185 328.52
L 533.776971 328.52
z
" style="fill:#ff00ff;opacity:0.5;"/>
   </g>
   <g id="patch_252">
    <path clip-path="url(#p3ff7bd3d6c)" d="M 535.596185 328.52
L 537.415398 328.52
L 537.415398 326.719888
L 535.596185 326.719888
z
" style="fill:#ff00ff;opacity:0.5;"/>
   </g>
   <g id="matplotlib.axis_1">
    <g id="xtick_1">
     <g id="line2d_1">
      <defs>
       <path d="M 0 0
L 0 3.5
" id="m393d2557d5" style="stroke:#000000;stroke-width:0.8;"/>
      </defs>
      <g>
       <use style="stroke:#000000;stroke-width:0.8;" x="31.415897" xlink:href="#m393d2557d5" y="328.52"/>
      </g>
     </g>
     <g id="text_1">
      <!-- 6 -->
      <g transform="translate(24.044803 343.118437)scale(0.1 -0.1)">
       <defs>
        <path d="M 10.59375 35.5
L 73.1875 35.5
L 73.1875 27.203125
L 10.59375 27.203125
z
" id="DejaVuSans-8722"/>
        <path d="M 33.015625 40.375
Q 26.375 40.375 22.484375 35.828125
Q 18.609375 31.296875 18.609375 23.390625
Q 18.609375 15.53125 22.484375 10.953125
Q 26.375 6.390625 33.015625 6.390625
Q 39.65625 6.390625 43.53125 10.953125
Q 47.40625 15.53125 47.40625 23.390625
Q 47.40625 31.296875 43.53125 35.828125
Q 39.65625 40.375 33.015625 40.375
z
M 52.59375 71.296875
L 52.59375 62.3125
Q 48.875 64.0625 45.09375 64.984375
Q 41.3125 65.921875 37.59375 65.921875
Q 27.828125 65.921875 22.671875 59.328125
Q 17.53125 52.734375 16.796875 39.40625
Q 19.671875 43.65625 24.015625 45.921875
Q 28.375 48.1875 33.59375 48.1875
Q 44.578125 48.1875 50.953125 41.515625
Q 57.328125 34.859375 57.328125 23.390625
Q 57.328125 12.15625 50.6875 5.359375
Q 44.046875 -1.421875 33.015625 -1.421875
Q 20.359375 -1.421875 13.671875 8.265625
Q 6.984375 17.96875 6.984375 36.375
Q 6.984375 53.65625 15.1875 63.9375
Q 23.390625 74.21875 37.203125 74.21875
Q 40.921875 74.21875 44.703125 73.484375
Q 48.484375 72.75 52.59375 71.296875
z
" id="DejaVuSans-54"/>
       </defs>
       <use xlink:href="#DejaVuSans-8722"/>
       <use x="83.789062" xlink:href="#DejaVuSans-54"/>
      </g>
     </g>
    </g>
    <g id="xtick_2">
     <g id="line2d_2">
      <g>
       <use style="stroke:#000000;stroke-width:0.8;" x="125.783456" xlink:href="#m393d2557d5" y="328.52"/>
      </g>
     </g>
     <g id="text_2">
      <!-- 4 -->
      <g transform="translate(118.412363 343.118437)scale(0.1 -0.1)">
       <defs>
        <path d="M 37.796875 64.3125
L 12.890625 25.390625
L 37.796875 25.390625
z
M 35.203125 72.90625
L 47.609375 72.90625
L 47.609375 25.390625
L 58.015625 25.390625
L 58.015625 17.1875
L 47.609375 17.1875
L 47.609375 0
L 37.796875 0
L 37.796875 17.1875
L 4.890625 17.1875
L 4.890625 26.703125
z
" id="DejaVuSans-52"/>
       </defs>
       <use xlink:href="#DejaVuSans-8722"/>
       <use x="83.789062" xlink:href="#DejaVuSans-52"/>
      </g>
     </g>
    </g>
    <g id="xtick_3">
     <g id="line2d_3">
      <g>
       <use style="stroke:#000000;stroke-width:0.8;" x="220.151016" xlink:href="#m393d2557d5" y="328.52"/>
      </g>
     </g>
     <g id="text_3">
      <!-- 2 -->
      <g transform="translate(212.779922 343.118437)scale(0.1 -0.1)">
       <defs>
        <path d="M 19.1875 8.296875
L 53.609375 8.296875
L 53.609375 0
L 7.328125 0
L 7.328125 8.296875
Q 12.9375 14.109375 22.625 23.890625
Q 32.328125 33.6875 34.8125 36.53125
Q 39.546875 41.84375 41.421875 45.53125
Q 43.3125 49.21875 43.3125 52.78125
Q 43.3125 58.59375 39.234375 62.25
Q 35.15625 65.921875 28.609375 65.921875
Q 23.96875 65.921875 18.8125 64.3125
Q 13.671875 62.703125 7.8125 59.421875
L 7.8125 69.390625
Q 13.765625 71.78125 18.9375 73
Q 24.125 74.21875 28.421875 74.21875
Q 39.75 74.21875 46.484375 68.546875
Q 53.21875 62.890625 53.21875 53.421875
Q 53.21875 48.921875 51.53125 44.890625
Q 49.859375 40.875 45.40625 35.40625
Q 44.1875 33.984375 37.640625 27.21875
Q 31.109375 20.453125 19.1875 8.296875
z
" id="DejaVuSans-50"/>
       </defs>
       <use xlink:href="#DejaVuSans-8722"/>
       <use x="83.789062" xlink:href="#DejaVuSans-50"/>
      </g>
     </g>
    </g>
    <g id="xtick_4">
     <g id="line2d_4">
      <g>
       <use style="stroke:#000000;stroke-width:0.8;" x="314.518576" xlink:href="#m393d2557d5" y="328.52"/>
      </g>
     </g>
     <g id="text_4">
      <!-- 0 -->
      <g transform="translate(311.337326 343.118437)scale(0.1 -0.1)">
       <defs>
        <path d="M 31.78125 66.40625
Q 24.171875 66.40625 20.328125 58.90625
Q 16.5 51.421875 16.5 36.375
Q 16.5 21.390625 20.328125 13.890625
Q 24.171875 6.390625 31.78125 6.390625
Q 39.453125 6.390625 43.28125 13.890625
Q 47.125 21.390625 47.125 36.375
Q 47.125 51.421875 43.28125 58.90625
Q 39.453125 66.40625 31.78125 66.40625
z
M 31.78125 74.21875
Q 44.046875 74.21875 50.515625 64.515625
Q 56.984375 54.828125 56.984375 36.375
Q 56.984375 17.96875 50.515625 8.265625
Q 44.046875 -1.421875 31.78125 -1.421875
Q 19.53125 -1.421875 13.0625 8.265625
Q 6.59375 17.96875 6.59375 36.375
Q 6.59375 54.828125 13.0625 64.515625
Q 19.53125 74.21875 31.78125 74.21875
z
" id="DejaVuSans-48"/>
       </defs>
       <use xlink:href="#DejaVuSans-48"/>
      </g>
     </g>
    </g>
    <g id="xtick_5">
     <g id="line2d_5">
      <g>
       <use style="stroke:#000000;stroke-width:0.8;" x="408.886136" xlink:href="#m393d2557d5" y="328.52"/>
      </g>
     </g>
     <g id="text_5">
      <!-- 2 -->
      <g transform="translate(405.704886 343.118437)scale(0.1 -0.1)">
       <use xlink:href="#DejaVuSans-50"/>
      </g>
     </g>
    </g>
    <g id="xtick_6">
     <g id="line2d_6">
      <g>
       <use style="stroke:#000000;stroke-width:0.8;" x="503.253695" xlink:href="#m393d2557d5" y="328.52"/>
      </g>
     </g>
     <g id="text_6">
      <!-- 4 -->
      <g transform="translate(500.072445 343.118437)scale(0.1 -0.1)">
       <use xlink:href="#DejaVuSans-52"/>
      </g>
     </g>
    </g>
   </g>
   <g id="matplotlib.axis_2">
    <g id="ytick_1">
     <g id="line2d_7">
      <defs>
       <path d="M 0 0
L -3.5 0
" id="m426a79cf7b" style="stroke:#000000;stroke-width:0.8;"/>
      </defs>
      <g>
       <use style="stroke:#000000;stroke-width:0.8;" x="30.103125" xlink:href="#m426a79cf7b" y="328.52"/>
      </g>
     </g>
     <g id="text_7">
      <!-- 0.0 -->
      <g transform="translate(7.2 332.319219)scale(0.1 -0.1)">
       <defs>
        <path d="M 10.6875 12.40625
L 21 12.40625
L 21 0
L 10.6875 0
z
" id="DejaVuSans-46"/>
       </defs>
       <use xlink:href="#DejaVuSans-48"/>
       <use x="63.623047" xlink:href="#DejaVuSans-46"/>
       <use x="95.410156" xlink:href="#DejaVuSans-48"/>
      </g>
     </g>
    </g>
    <g id="ytick_2">
     <g id="line2d_8">
      <g>
       <use style="stroke:#000000;stroke-width:0.8;" x="30.103125" xlink:href="#m426a79cf7b" y="259.115056"/>
      </g>
     </g>
     <g id="text_8">
      <!-- 0.1 -->
      <g transform="translate(7.2 262.914275)scale(0.1 -0.1)">
       <defs>
        <path d="M 12.40625 8.296875
L 28.515625 8.296875
L 28.515625 63.921875
L 10.984375 60.40625
L 10.984375 69.390625
L 28.421875 72.90625
L 38.28125 72.90625
L 38.28125 8.296875
L 54.390625 8.296875
L 54.390625 0
L 12.40625 0
z
" id="DejaVuSans-49"/>
       </defs>
       <use xlink:href="#DejaVuSans-48"/>
       <use x="63.623047" xlink:href="#DejaVuSans-46"/>
       <use x="95.410156" xlink:href="#DejaVuSans-49"/>
      </g>
     </g>
    </g>
    <g id="ytick_3">
     <g id="line2d_9">
      <g>
       <use style="stroke:#000000;stroke-width:0.8;" x="30.103125" xlink:href="#m426a79cf7b" y="189.710113"/>
      </g>
     </g>
     <g id="text_9">
      <!-- 0.2 -->
      <g transform="translate(7.2 193.509331)scale(0.1 -0.1)">
       <use xlink:href="#DejaVuSans-48"/>
       <use x="63.623047" xlink:href="#DejaVuSans-46"/>
       <use x="95.410156" xlink:href="#DejaVuSans-50"/>
      </g>
     </g>
    </g>
    <g id="ytick_4">
     <g id="line2d_10">
      <g>
       <use style="stroke:#000000;stroke-width:0.8;" x="30.103125" xlink:href="#m426a79cf7b" y="120.305169"/>
      </g>
     </g>
     <g id="text_10">
      <!-- 0.3 -->
      <g transform="translate(7.2 124.104388)scale(0.1 -0.1)">
       <defs>
        <path d="M 40.578125 39.3125
Q 47.65625 37.796875 51.625 33
Q 55.609375 28.21875 55.609375 21.1875
Q 55.609375 10.40625 48.1875 4.484375
Q 40.765625 -1.421875 27.09375 -1.421875
Q 22.515625 -1.421875 17.65625 -0.515625
Q 12.796875 0.390625 7.625 2.203125
L 7.625 11.71875
Q 11.71875 9.328125 16.59375 8.109375
Q 21.484375 6.890625 26.8125 6.890625
Q 36.078125 6.890625 40.9375 10.546875
Q 45.796875 14.203125 45.796875 21.1875
Q 45.796875 27.640625 41.28125 31.265625
Q 36.765625 34.90625 28.71875 34.90625
L 20.21875 34.90625
L 20.21875 43.015625
L 29.109375 43.015625
Q 36.375 43.015625 40.234375 45.921875
Q 44.09375 48.828125 44.09375 54.296875
Q 44.09375 59.90625 40.109375 62.90625
Q 36.140625 65.921875 28.71875 65.921875
Q 24.65625 65.921875 20.015625 65.03125
Q 15.375 64.15625 9.8125 62.3125
L 9.8125 71.09375
Q 15.4375 72.65625 20.34375 73.4375
Q 25.25 74.21875 29.59375 74.21875
Q 40.828125 74.21875 47.359375 69.109375
Q 53.90625 64.015625 53.90625 55.328125
Q 53.90625 49.265625 50.4375 45.09375
Q 46.96875 40.921875 40.578125 39.3125
z
" id="DejaVuSans-51"/>
       </defs>
       <use xlink:href="#DejaVuSans-48"/>
       <use x="63.623047" xlink:href="#DejaVuSans-46"/>
       <use x="95.410156" xlink:href="#DejaVuSans-51"/>
      </g>
     </g>
    </g>
    <g id="ytick_5">
     <g id="line2d_11">
      <g>
       <use style="stroke:#000000;stroke-width:0.8;" x="30.103125" xlink:href="#m426a79cf7b" y="50.900225"/>
      </g>
     </g>
     <g id="text_11">
      <!-- 0.4 -->
      <g transform="translate(7.2 54.699444)scale(0.1 -0.1)">
       <use xlink:href="#DejaVuSans-48"/>
       <use x="63.623047" xlink:href="#DejaVuSans-46"/>
       <use x="95.410156" xlink:href="#DejaVuSans-52"/>
      </g>
     </g>
    </g>
   </g>
   <g id="patch_253">
    <path d="M 30.103125 328.52
L 30.103125 7.2
" style="fill:none;stroke:#000000;stroke-linecap:square;stroke-linejoin:miter;stroke-width:0.8;"/>
   </g>
   <g id="patch_254">
    <path d="M 561.573125 328.52
L 561.573125 7.2
" style="fill:none;stroke:#000000;stroke-linecap:square;stroke-linejoin:miter;stroke-width:0.8;"/>
   </g>
   <g id="patch_255">
    <path d="M 30.103125 328.52
L 561.573125 328.52
" style="fill:none;stroke:#000000;stroke-linecap:square;stroke-linejoin:miter;stroke-width:0.8;"/>
   </g>
   <g id="patch_256">
    <path d="M 30.103125 7.2
L 561.573125 7.2
" style="fill:none;stroke:#000000;stroke-linecap:square;stroke-linejoin:miter;stroke-width:0.8;"/>
   </g>
  </g>
 </g>
 <defs>
  <clipPath id="p3ff7bd3d6c">
   <rect height="321.32" width="531.47" x="30.103125" y="7.2"/>
  </clipPath>
 </defs>
</svg>
