<?xml version="1.0" encoding="utf-8" standalone="no"?>
<!DOCTYPE svg PUBLIC "-//W3C//DTD SVG 1.1//EN"
  "http://www.w3.org/Graphics/SVG/1.1/DTD/svg11.dtd">
<!-- Created with matplotlib (https://matplotlib.org/) -->
<svg height="308.278125pt" version="1.1" viewBox="0 0 490.065625 308.278125" width="490.065625pt" xmlns="http://www.w3.org/2000/svg" xmlns:xlink="http://www.w3.org/1999/xlink">
 <metadata>
  <rdf:RDF xmlns:cc="http://creativecommons.org/ns#" xmlns:dc="http://purl.org/dc/elements/1.1/" xmlns:rdf="http://www.w3.org/1999/02/22-rdf-syntax-ns#">
   <cc:Work>
    <dc:type rdf:resource="http://purl.org/dc/dcmitype/StillImage"/>
    <dc:date>2021-02-15T15:46:46.218650</dc:date>
    <dc:format>image/svg+xml</dc:format>
    <dc:creator>
     <cc:Agent>
      <dc:title>Matplotlib v3.3.3, https://matplotlib.org/</dc:title>
     </cc:Agent>
    </dc:creator>
   </cc:Work>
  </rdf:RDF>
 </metadata>
 <defs>
  <style type="text/css">*{stroke-linecap:butt;stroke-linejoin:round;}</style>
 </defs>
 <g id="figure_1">
  <g id="patch_1">
   <path d="M 0 308.278125
L 490.065625 308.278125
L 490.065625 0
L 0 0
z
" style="fill:#ffffff;"/>
  </g>
  <g id="axes_1">
   <g id="patch_2">
    <path d="M 36.465625 284.4
L 482.865625 284.4
L 482.865625 7.2
L 36.465625 7.2
z
" style="fill:#ffffff;"/>
   </g>
   <g id="matplotlib.axis_1">
    <g id="xtick_1">
     <g id="line2d_1">
      <defs>
       <path d="M 0 0
L 0 3.5
" id="m2a4d89b497" style="stroke:#000000;stroke-width:0.8;"/>
      </defs>
      <g>
       <use style="stroke:#000000;stroke-width:0.8;" x="56.756534" xlink:href="#m2a4d89b497" y="284.4"/>
      </g>
     </g>
     <g id="text_1">
      <!-- −2 -->
      <g transform="translate(49.38544 298.998438)scale(0.1 -0.1)">
       <defs>
        <path d="M 10.59375 35.5
L 73.1875 35.5
L 73.1875 27.203125
L 10.59375 27.203125
z
" id="DejaVuSans-8722"/>
        <path d="M 19.1875 8.296875
L 53.609375 8.296875
L 53.609375 0
L 7.328125 0
L 7.328125 8.296875
Q 12.9375 14.109375 22.625 23.890625
Q 32.328125 33.6875 34.8125 36.53125
Q 39.546875 41.84375 41.421875 45.53125
Q 43.3125 49.21875 43.3125 52.78125
Q 43.3125 58.59375 39.234375 62.25
Q 35.15625 65.921875 28.609375 65.921875
Q 23.96875 65.921875 18.8125 64.3125
Q 13.671875 62.703125 7.8125 59.421875
L 7.8125 69.390625
Q 13.765625 71.78125 18.9375 73
Q 24.125 74.21875 28.421875 74.21875
Q 39.75 74.21875 46.484375 68.546875
Q 53.21875 62.890625 53.21875 53.421875
Q 53.21875 48.921875 51.53125 44.890625
Q 49.859375 40.875 45.40625 35.40625
Q 44.1875 33.984375 37.640625 27.21875
Q 31.109375 20.453125 19.1875 8.296875
z
" id="DejaVuSans-50"/>
       </defs>
       <use xlink:href="#DejaVuSans-8722"/>
       <use x="83.789062" xlink:href="#DejaVuSans-50"/>
      </g>
     </g>
    </g>
    <g id="xtick_2">
     <g id="line2d_2">
      <g>
       <use style="stroke:#000000;stroke-width:0.8;" x="130.541658" xlink:href="#m2a4d89b497" y="284.4"/>
      </g>
     </g>
     <g id="text_2">
      <!-- 0 -->
      <g transform="translate(127.360408 298.998438)scale(0.1 -0.1)">
       <defs>
        <path d="M 31.78125 66.40625
Q 24.171875 66.40625 20.328125 58.90625
Q 16.5 51.421875 16.5 36.375
Q 16.5 21.390625 20.328125 13.890625
Q 24.171875 6.390625 31.78125 6.390625
Q 39.453125 6.390625 43.28125 13.890625
Q 47.125 21.390625 47.125 36.375
Q 47.125 51.421875 43.28125 58.90625
Q 39.453125 66.40625 31.78125 66.40625
z
M 31.78125 74.21875
Q 44.046875 74.21875 50.515625 64.515625
Q 56.984375 54.828125 56.984375 36.375
Q 56.984375 17.96875 50.515625 8.265625
Q 44.046875 -1.421875 31.78125 -1.421875
Q 19.53125 -1.421875 13.0625 8.265625
Q 6.59375 17.96875 6.59375 36.375
Q 6.59375 54.828125 13.0625 64.515625
Q 19.53125 74.21875 31.78125 74.21875
z
" id="DejaVuSans-48"/>
       </defs>
       <use xlink:href="#DejaVuSans-48"/>
      </g>
     </g>
    </g>
    <g id="xtick_3">
     <g id="line2d_3">
      <g>
       <use style="stroke:#000000;stroke-width:0.8;" x="204.326782" xlink:href="#m2a4d89b497" y="284.4"/>
      </g>
     </g>
     <g id="text_3">
      <!-- 2 -->
      <g transform="translate(201.145532 298.998438)scale(0.1 -0.1)">
       <use xlink:href="#DejaVuSans-50"/>
      </g>
     </g>
    </g>
    <g id="xtick_4">
     <g id="line2d_4">
      <g>
       <use style="stroke:#000000;stroke-width:0.8;" x="278.111906" xlink:href="#m2a4d89b497" y="284.4"/>
      </g>
     </g>
     <g id="text_4">
      <!-- 4 -->
      <g transform="translate(274.930656 298.998438)scale(0.1 -0.1)">
       <defs>
        <path d="M 37.796875 64.3125
L 12.890625 25.390625
L 37.796875 25.390625
z
M 35.203125 72.90625
L 47.609375 72.90625
L 47.609375 25.390625
L 58.015625 25.390625
L 58.015625 17.1875
L 47.609375 17.1875
L 47.609375 0
L 37.796875 0
L 37.796875 17.1875
L 4.890625 17.1875
L 4.890625 26.703125
z
" id="DejaVuSans-52"/>
       </defs>
       <use xlink:href="#DejaVuSans-52"/>
      </g>
     </g>
    </g>
    <g id="xtick_5">
     <g id="line2d_5">
      <g>
       <use style="stroke:#000000;stroke-width:0.8;" x="351.89703" xlink:href="#m2a4d89b497" y="284.4"/>
      </g>
     </g>
     <g id="text_5">
      <!-- 6 -->
      <g transform="translate(348.71578 298.998438)scale(0.1 -0.1)">
       <defs>
        <path d="M 33.015625 40.375
Q 26.375 40.375 22.484375 35.828125
Q 18.609375 31.296875 18.609375 23.390625
Q 18.609375 15.53125 22.484375 10.953125
Q 26.375 6.390625 33.015625 6.390625
Q 39.65625 6.390625 43.53125 10.953125
Q 47.40625 15.53125 47.40625 23.390625
Q 47.40625 31.296875 43.53125 35.828125
Q 39.65625 40.375 33.015625 40.375
z
M 52.59375 71.296875
L 52.59375 62.3125
Q 48.875 64.0625 45.09375 64.984375
Q 41.3125 65.921875 37.59375 65.921875
Q 27.828125 65.921875 22.671875 59.328125
Q 17.53125 52.734375 16.796875 39.40625
Q 19.671875 43.65625 24.015625 45.921875
Q 28.375 48.1875 33.59375 48.1875
Q 44.578125 48.1875 50.953125 41.515625
Q 57.328125 34.859375 57.328125 23.390625
Q 57.328125 12.15625 50.6875 5.359375
Q 44.046875 -1.421875 33.015625 -1.421875
Q 20.359375 -1.421875 13.671875 8.265625
Q 6.984375 17.96875 6.984375 36.375
Q 6.984375 53.65625 15.1875 63.9375
Q 23.390625 74.21875 37.203125 74.21875
Q 40.921875 74.21875 44.703125 73.484375
Q 48.484375 72.75 52.59375 71.296875
z
" id="DejaVuSans-54"/>
       </defs>
       <use xlink:href="#DejaVuSans-54"/>
      </g>
     </g>
    </g>
    <g id="xtick_6">
     <g id="line2d_6">
      <g>
       <use style="stroke:#000000;stroke-width:0.8;" x="425.682154" xlink:href="#m2a4d89b497" y="284.4"/>
      </g>
     </g>
     <g id="text_6">
      <!-- 8 -->
      <g transform="translate(422.500904 298.998438)scale(0.1 -0.1)">
       <defs>
        <path d="M 31.78125 34.625
Q 24.75 34.625 20.71875 30.859375
Q 16.703125 27.09375 16.703125 20.515625
Q 16.703125 13.921875 20.71875 10.15625
Q 24.75 6.390625 31.78125 6.390625
Q 38.8125 6.390625 42.859375 10.171875
Q 46.921875 13.96875 46.921875 20.515625
Q 46.921875 27.09375 42.890625 30.859375
Q 38.875 34.625 31.78125 34.625
z
M 21.921875 38.8125
Q 15.578125 40.375 12.03125 44.71875
Q 8.5 49.078125 8.5 55.328125
Q 8.5 64.0625 14.71875 69.140625
Q 20.953125 74.21875 31.78125 74.21875
Q 42.671875 74.21875 48.875 69.140625
Q 55.078125 64.0625 55.078125 55.328125
Q 55.078125 49.078125 51.53125 44.71875
Q 48 40.375 41.703125 38.8125
Q 48.828125 37.15625 52.796875 32.3125
Q 56.78125 27.484375 56.78125 20.515625
Q 56.78125 9.90625 50.3125 4.234375
Q 43.84375 -1.421875 31.78125 -1.421875
Q 19.734375 -1.421875 13.25 4.234375
Q 6.78125 9.90625 6.78125 20.515625
Q 6.78125 27.484375 10.78125 32.3125
Q 14.796875 37.15625 21.921875 38.8125
z
M 18.3125 54.390625
Q 18.3125 48.734375 21.84375 45.5625
Q 25.390625 42.390625 31.78125 42.390625
Q 38.140625 42.390625 41.71875 45.5625
Q 45.3125 48.734375 45.3125 54.390625
Q 45.3125 60.0625 41.71875 63.234375
Q 38.140625 66.40625 31.78125 66.40625
Q 25.390625 66.40625 21.84375 63.234375
Q 18.3125 60.0625 18.3125 54.390625
z
" id="DejaVuSans-56"/>
       </defs>
       <use xlink:href="#DejaVuSans-56"/>
      </g>
     </g>
    </g>
   </g>
   <g id="matplotlib.axis_2">
    <g id="ytick_1">
     <g id="line2d_7">
      <defs>
       <path d="M 0 0
L -3.5 0
" id="m2d51b00b95" style="stroke:#000000;stroke-width:0.8;"/>
      </defs>
      <g>
       <use style="stroke:#000000;stroke-width:0.8;" x="36.465625" xlink:href="#m2d51b00b95" y="271.8"/>
      </g>
     </g>
     <g id="text_7">
      <!-- 0.00 -->
      <g transform="translate(7.2 275.599219)scale(0.1 -0.1)">
       <defs>
        <path d="M 10.6875 12.40625
L 21 12.40625
L 21 0
L 10.6875 0
z
" id="DejaVuSans-46"/>
       </defs>
       <use xlink:href="#DejaVuSans-48"/>
       <use x="63.623047" xlink:href="#DejaVuSans-46"/>
       <use x="95.410156" xlink:href="#DejaVuSans-48"/>
       <use x="159.033203" xlink:href="#DejaVuSans-48"/>
      </g>
     </g>
    </g>
    <g id="ytick_2">
     <g id="line2d_8">
      <g>
       <use style="stroke:#000000;stroke-width:0.8;" x="36.465625" xlink:href="#m2d51b00b95" y="240.216484"/>
      </g>
     </g>
     <g id="text_8">
      <!-- 0.05 -->
      <g transform="translate(7.2 244.015702)scale(0.1 -0.1)">
       <defs>
        <path d="M 10.796875 72.90625
L 49.515625 72.90625
L 49.515625 64.59375
L 19.828125 64.59375
L 19.828125 46.734375
Q 21.96875 47.46875 24.109375 47.828125
Q 26.265625 48.1875 28.421875 48.1875
Q 40.625 48.1875 47.75 41.5
Q 54.890625 34.8125 54.890625 23.390625
Q 54.890625 11.625 47.5625 5.09375
Q 40.234375 -1.421875 26.90625 -1.421875
Q 22.3125 -1.421875 17.546875 -0.640625
Q 12.796875 0.140625 7.71875 1.703125
L 7.71875 11.625
Q 12.109375 9.234375 16.796875 8.0625
Q 21.484375 6.890625 26.703125 6.890625
Q 35.15625 6.890625 40.078125 11.328125
Q 45.015625 15.765625 45.015625 23.390625
Q 45.015625 31 40.078125 35.4375
Q 35.15625 39.890625 26.703125 39.890625
Q 22.75 39.890625 18.8125 39.015625
Q 14.890625 38.140625 10.796875 36.28125
z
" id="DejaVuSans-53"/>
       </defs>
       <use xlink:href="#DejaVuSans-48"/>
       <use x="63.623047" xlink:href="#DejaVuSans-46"/>
       <use x="95.410156" xlink:href="#DejaVuSans-48"/>
       <use x="159.033203" xlink:href="#DejaVuSans-53"/>
      </g>
     </g>
    </g>
    <g id="ytick_3">
     <g id="line2d_9">
      <g>
       <use style="stroke:#000000;stroke-width:0.8;" x="36.465625" xlink:href="#m2d51b00b95" y="208.632967"/>
      </g>
     </g>
     <g id="text_9">
      <!-- 0.10 -->
      <g transform="translate(7.2 212.432186)scale(0.1 -0.1)">
       <defs>
        <path d="M 12.40625 8.296875
L 28.515625 8.296875
L 28.515625 63.921875
L 10.984375 60.40625
L 10.984375 69.390625
L 28.421875 72.90625
L 38.28125 72.90625
L 38.28125 8.296875
L 54.390625 8.296875
L 54.390625 0
L 12.40625 0
z
" id="DejaVuSans-49"/>
       </defs>
       <use xlink:href="#DejaVuSans-48"/>
       <use x="63.623047" xlink:href="#DejaVuSans-46"/>
       <use x="95.410156" xlink:href="#DejaVuSans-49"/>
       <use x="159.033203" xlink:href="#DejaVuSans-48"/>
      </g>
     </g>
    </g>
    <g id="ytick_4">
     <g id="line2d_10">
      <g>
       <use style="stroke:#000000;stroke-width:0.8;" x="36.465625" xlink:href="#m2d51b00b95" y="177.049451"/>
      </g>
     </g>
     <g id="text_10">
      <!-- 0.15 -->
      <g transform="translate(7.2 180.84867)scale(0.1 -0.1)">
       <use xlink:href="#DejaVuSans-48"/>
       <use x="63.623047" xlink:href="#DejaVuSans-46"/>
       <use x="95.410156" xlink:href="#DejaVuSans-49"/>
       <use x="159.033203" xlink:href="#DejaVuSans-53"/>
      </g>
     </g>
    </g>
    <g id="ytick_5">
     <g id="line2d_11">
      <g>
       <use style="stroke:#000000;stroke-width:0.8;" x="36.465625" xlink:href="#m2d51b00b95" y="145.465935"/>
      </g>
     </g>
     <g id="text_11">
      <!-- 0.20 -->
      <g transform="translate(7.2 149.265154)scale(0.1 -0.1)">
       <use xlink:href="#DejaVuSans-48"/>
       <use x="63.623047" xlink:href="#DejaVuSans-46"/>
       <use x="95.410156" xlink:href="#DejaVuSans-50"/>
       <use x="159.033203" xlink:href="#DejaVuSans-48"/>
      </g>
     </g>
    </g>
    <g id="ytick_6">
     <g id="line2d_12">
      <g>
       <use style="stroke:#000000;stroke-width:0.8;" x="36.465625" xlink:href="#m2d51b00b95" y="113.882419"/>
      </g>
     </g>
     <g id="text_12">
      <!-- 0.25 -->
      <g transform="translate(7.2 117.681637)scale(0.1 -0.1)">
       <use xlink:href="#DejaVuSans-48"/>
       <use x="63.623047" xlink:href="#DejaVuSans-46"/>
       <use x="95.410156" xlink:href="#DejaVuSans-50"/>
       <use x="159.033203" xlink:href="#DejaVuSans-53"/>
      </g>
     </g>
    </g>
    <g id="ytick_7">
     <g id="line2d_13">
      <g>
       <use style="stroke:#000000;stroke-width:0.8;" x="36.465625" xlink:href="#m2d51b00b95" y="82.298902"/>
      </g>
     </g>
     <g id="text_13">
      <!-- 0.30 -->
      <g transform="translate(7.2 86.098121)scale(0.1 -0.1)">
       <defs>
        <path d="M 40.578125 39.3125
Q 47.65625 37.796875 51.625 33
Q 55.609375 28.21875 55.609375 21.1875
Q 55.609375 10.40625 48.1875 4.484375
Q 40.765625 -1.421875 27.09375 -1.421875
Q 22.515625 -1.421875 17.65625 -0.515625
Q 12.796875 0.390625 7.625 2.203125
L 7.625 11.71875
Q 11.71875 9.328125 16.59375 8.109375
Q 21.484375 6.890625 26.8125 6.890625
Q 36.078125 6.890625 40.9375 10.546875
Q 45.796875 14.203125 45.796875 21.1875
Q 45.796875 27.640625 41.28125 31.265625
Q 36.765625 34.90625 28.71875 34.90625
L 20.21875 34.90625
L 20.21875 43.015625
L 29.109375 43.015625
Q 36.375 43.015625 40.234375 45.921875
Q 44.09375 48.828125 44.09375 54.296875
Q 44.09375 59.90625 40.109375 62.90625
Q 36.140625 65.921875 28.71875 65.921875
Q 24.65625 65.921875 20.015625 65.03125
Q 15.375 64.15625 9.8125 62.3125
L 9.8125 71.09375
Q 15.4375 72.65625 20.34375 73.4375
Q 25.25 74.21875 29.59375 74.21875
Q 40.828125 74.21875 47.359375 69.109375
Q 53.90625 64.015625 53.90625 55.328125
Q 53.90625 49.265625 50.4375 45.09375
Q 46.96875 40.921875 40.578125 39.3125
z
" id="DejaVuSans-51"/>
       </defs>
       <use xlink:href="#DejaVuSans-48"/>
       <use x="63.623047" xlink:href="#DejaVuSans-46"/>
       <use x="95.410156" xlink:href="#DejaVuSans-51"/>
       <use x="159.033203" xlink:href="#DejaVuSans-48"/>
      </g>
     </g>
    </g>
    <g id="ytick_8">
     <g id="line2d_14">
      <g>
       <use style="stroke:#000000;stroke-width:0.8;" x="36.465625" xlink:href="#m2d51b00b95" y="50.715386"/>
      </g>
     </g>
     <g id="text_14">
      <!-- 0.35 -->
      <g transform="translate(7.2 54.514605)scale(0.1 -0.1)">
       <use xlink:href="#DejaVuSans-48"/>
       <use x="63.623047" xlink:href="#DejaVuSans-46"/>
       <use x="95.410156" xlink:href="#DejaVuSans-51"/>
       <use x="159.033203" xlink:href="#DejaVuSans-53"/>
      </g>
     </g>
    </g>
    <g id="ytick_9">
     <g id="line2d_15">
      <g>
       <use style="stroke:#000000;stroke-width:0.8;" x="36.465625" xlink:href="#m2d51b00b95" y="19.13187"/>
      </g>
     </g>
     <g id="text_15">
      <!-- 0.40 -->
      <g transform="translate(7.2 22.931089)scale(0.1 -0.1)">
       <use xlink:href="#DejaVuSans-48"/>
       <use x="63.623047" xlink:href="#DejaVuSans-46"/>
       <use x="95.410156" xlink:href="#DejaVuSans-52"/>
       <use x="159.033203" xlink:href="#DejaVuSans-48"/>
      </g>
     </g>
    </g>
   </g>
   <g id="line2d_16">
    <path clip-path="url(#p31632f3162)" d="M 56.756534 269.000533
L 60.855708 267.917072
L 64.954881 266.480367
L 69.054055 264.601494
L 73.153228 262.178531
L 77.252402 259.097806
L 81.351575 255.236411
L 85.450749 250.466187
L 89.549923 244.659311
L 93.649096 237.695509
L 97.74827 229.470744
L 101.847443 219.90709
L 105.946617 208.963243
L 110.04579 196.645008
L 114.144964 183.014867
L 118.244137 168.199703
L 122.343311 152.395665
L 126.442485 135.869308
L 130.541658 118.954274
L 134.640832 102.043109
L 138.740005 85.574193
L 142.839179 70.014174
L 146.938352 55.836783
L 151.037526 43.499292
L 155.136699 33.418214
L 159.235873 25.946033
L 163.335046 21.350764
L 167.43422 19.8
L 171.533394 21.350764
L 175.632567 25.946033
L 179.731741 33.418214
L 183.830914 43.499292
L 187.930088 55.836783
L 192.029261 70.014174
L 196.128435 85.574193
L 200.227608 102.043109
L 204.326782 118.954274
L 208.425956 135.869308
L 212.525129 152.395665
L 216.624303 168.199703
L 220.723476 183.014867
L 224.82265 196.645008
L 228.921823 208.963243
L 233.020997 219.90709
L 237.12017 229.470744
L 241.219344 237.695509
L 245.318518 244.659311
L 249.417691 250.466187
L 253.516865 255.236411
L 257.616038 259.097806
L 261.715212 262.178531
L 265.814385 264.601494
L 269.913559 266.480367
L 274.012732 267.917072
L 278.111906 269.000533
L 282.21108 269.806438
L 286.310253 270.39776
L 290.409427 270.825788
L 294.5086 271.131467
L 298.607774 271.346862
L 302.706947 271.496627
L 306.806121 271.599386
L 310.905294 271.668966
L 315.004468 271.715463
L 319.103642 271.74613
L 323.202815 271.766094
L 327.301989 271.778921
L 331.401162 271.787056
L 335.500336 271.792149
L 339.599509 271.795297
L 343.698683 271.797217
L 347.797856 271.798373
L 351.89703 271.799061
L 355.996204 271.799464
L 360.095377 271.799698
L 364.194551 271.799832
L 368.293724 271.799908
L 372.392898 271.79995
L 376.492071 271.799973
L 380.591245 271.799986
L 384.690418 271.799993
L 388.789592 271.799996
L 392.888765 271.799998
L 396.987939 271.799999
L 401.087113 271.8
L 405.186286 271.8
L 409.28546 271.8
L 413.384633 271.8
L 417.483807 271.8
L 421.58298 271.8
L 425.682154 271.8
L 429.781327 271.8
L 433.880501 271.8
L 437.979675 271.8
L 442.078848 271.8
L 446.178022 271.8
L 450.277195 271.8
L 454.376369 271.8
L 458.475542 271.8
L 462.574716 271.8
" style="fill:none;stroke:#000000;stroke-linecap:square;stroke-width:0.5;"/>
   </g>
   <g id="line2d_17">
    <path clip-path="url(#p31632f3162)" d="M 56.756534 271.715463
L 60.855708 271.668966
L 64.954881 271.599386
L 69.054055 271.496627
L 73.153228 271.346862
L 77.252402 271.131467
L 81.351575 270.825788
L 85.450749 270.39776
L 89.549923 269.806438
L 93.649096 269.000533
L 97.74827 267.917072
L 101.847443 266.480367
L 105.946617 264.601494
L 110.04579 262.178531
L 114.144964 259.097806
L 118.244137 255.236411
L 122.343311 250.466187
L 126.442485 244.659311
L 130.541658 237.695509
L 134.640832 229.470744
L 138.740005 219.90709
L 142.839179 208.963243
L 146.938352 196.645008
L 151.037526 183.014867
L 155.136699 168.199703
L 159.235873 152.395665
L 163.335046 135.869308
L 167.43422 118.954274
L 171.533394 102.043109
L 175.632567 85.574193
L 179.731741 70.014174
L 183.830914 55.836783
L 187.930088 43.499292
L 192.029261 33.418214
L 196.128435 25.946033
L 200.227608 21.350764
L 204.326782 19.8
L 208.425956 21.350764
L 212.525129 25.946033
L 216.624303 33.418214
L 220.723476 43.499292
L 224.82265 55.836783
L 228.921823 70.014174
L 233.020997 85.574193
L 237.12017 102.043109
L 241.219344 118.954274
L 245.318518 135.869308
L 249.417691 152.395665
L 253.516865 168.199703
L 257.616038 183.014867
L 261.715212 196.645008
L 265.814385 208.963243
L 269.913559 219.90709
L 274.012732 229.470744
L 278.111906 237.695509
L 282.21108 244.659311
L 286.310253 250.466187
L 290.409427 255.236411
L 294.5086 259.097806
L 298.607774 262.178531
L 302.706947 264.601494
L 306.806121 266.480367
L 310.905294 267.917072
L 315.004468 269.000533
L 319.103642 269.806438
L 323.202815 270.39776
L 327.301989 270.825788
L 331.401162 271.131467
L 335.500336 271.346862
L 339.599509 271.496627
L 343.698683 271.599386
L 347.797856 271.668966
L 351.89703 271.715463
L 355.996204 271.74613
L 360.095377 271.766094
L 364.194551 271.778921
L 368.293724 271.787056
L 372.392898 271.792149
L 376.492071 271.795297
L 380.591245 271.797217
L 384.690418 271.798373
L 388.789592 271.799061
L 392.888765 271.799464
L 396.987939 271.799698
L 401.087113 271.799832
L 405.186286 271.799908
L 409.28546 271.79995
L 413.384633 271.799973
L 417.483807 271.799986
L 421.58298 271.799993
L 425.682154 271.799996
L 429.781327 271.799998
L 433.880501 271.799999
L 437.979675 271.8
L 442.078848 271.8
L 446.178022 271.8
L 450.277195 271.8
L 454.376369 271.8
L 458.475542 271.8
L 462.574716 271.8
" style="fill:none;stroke:#000000;stroke-linecap:square;"/>
   </g>
   <g id="line2d_18">
    <path clip-path="url(#p31632f3162)" d="M 56.756534 271.799061
L 60.855708 271.798373
L 64.954881 271.797217
L 69.054055 271.795297
L 73.153228 271.792149
L 77.252402 271.787056
L 81.351575 271.778921
L 85.450749 271.766094
L 89.549923 271.74613
L 93.649096 271.715463
L 97.74827 271.668966
L 101.847443 271.599386
L 105.946617 271.496627
L 110.04579 271.346862
L 114.144964 271.131467
L 118.244137 270.825788
L 122.343311 270.39776
L 126.442485 269.806438
L 130.541658 269.000533
L 134.640832 267.917072
L 138.740005 266.480367
L 142.839179 264.601494
L 146.938352 262.178531
L 151.037526 259.097806
L 155.136699 255.236411
L 159.235873 250.466187
L 163.335046 244.659311
L 167.43422 237.695509
L 171.533394 229.470744
L 175.632567 219.90709
L 179.731741 208.963243
L 183.830914 196.645008
L 187.930088 183.014867
L 192.029261 168.199703
L 196.128435 152.395665
L 200.227608 135.869308
L 204.326782 118.954274
L 208.425956 102.043109
L 212.525129 85.574193
L 216.624303 70.014174
L 220.723476 55.836783
L 224.82265 43.499292
L 228.921823 33.418214
L 233.020997 25.946033
L 237.12017 21.350764
L 241.219344 19.8
L 245.318518 21.350764
L 249.417691 25.946033
L 253.516865 33.418214
L 257.616038 43.499292
L 261.715212 55.836783
L 265.814385 70.014174
L 269.913559 85.574193
L 274.012732 102.043109
L 278.111906 118.954274
L 282.21108 135.869308
L 286.310253 152.395665
L 290.409427 168.199703
L 294.5086 183.014867
L 298.607774 196.645008
L 302.706947 208.963243
L 306.806121 219.90709
L 310.905294 229.470744
L 315.004468 237.695509
L 319.103642 244.659311
L 323.202815 250.466187
L 327.301989 255.236411
L 331.401162 259.097806
L 335.500336 262.178531
L 339.599509 264.601494
L 343.698683 266.480367
L 347.797856 267.917072
L 351.89703 269.000533
L 355.996204 269.806438
L 360.095377 270.39776
L 364.194551 270.825788
L 368.293724 271.131467
L 372.392898 271.346862
L 376.492071 271.496627
L 380.591245 271.599386
L 384.690418 271.668966
L 388.789592 271.715463
L 392.888765 271.74613
L 396.987939 271.766094
L 401.087113 271.778921
L 405.186286 271.787056
L 409.28546 271.792149
L 413.384633 271.795297
L 417.483807 271.797217
L 421.58298 271.798373
L 425.682154 271.799061
L 429.781327 271.799464
L 433.880501 271.799698
L 437.979675 271.799832
L 442.078848 271.799908
L 446.178022 271.79995
L 450.277195 271.799973
L 454.376369 271.799986
L 458.475542 271.799993
L 462.574716 271.799996
" style="fill:none;stroke:#000000;stroke-linecap:square;stroke-width:1.5;"/>
   </g>
   <g id="line2d_19">
    <path clip-path="url(#p31632f3162)" d="M 56.756534 271.799996
L 60.855708 271.799993
L 64.954881 271.799986
L 69.054055 271.799973
L 73.153228 271.79995
L 77.252402 271.799908
L 81.351575 271.799832
L 85.450749 271.799698
L 89.549923 271.799464
L 93.649096 271.799061
L 97.74827 271.798373
L 101.847443 271.797217
L 105.946617 271.795297
L 110.04579 271.792149
L 114.144964 271.787056
L 118.244137 271.778921
L 122.343311 271.766094
L 126.442485 271.74613
L 130.541658 271.715463
L 134.640832 271.668966
L 138.740005 271.599386
L 142.839179 271.496627
L 146.938352 271.346862
L 151.037526 271.131467
L 155.136699 270.825788
L 159.235873 270.39776
L 163.335046 269.806438
L 167.43422 269.000533
L 171.533394 267.917072
L 175.632567 266.480367
L 179.731741 264.601494
L 183.830914 262.178531
L 187.930088 259.097806
L 192.029261 255.236411
L 196.128435 250.466187
L 200.227608 244.659311
L 204.326782 237.695509
L 208.425956 229.470744
L 212.525129 219.90709
L 216.624303 208.963243
L 220.723476 196.645008
L 224.82265 183.014867
L 228.921823 168.199703
L 233.020997 152.395665
L 237.12017 135.869308
L 241.219344 118.954274
L 245.318518 102.043109
L 249.417691 85.574193
L 253.516865 70.014174
L 257.616038 55.836783
L 261.715212 43.499292
L 265.814385 33.418214
L 269.913559 25.946033
L 274.012732 21.350764
L 278.111906 19.8
L 282.21108 21.350764
L 286.310253 25.946033
L 290.409427 33.418214
L 294.5086 43.499292
L 298.607774 55.836783
L 302.706947 70.014174
L 306.806121 85.574193
L 310.905294 102.043109
L 315.004468 118.954274
L 319.103642 135.869308
L 323.202815 152.395665
L 327.301989 168.199703
L 331.401162 183.014867
L 335.500336 196.645008
L 339.599509 208.963243
L 343.698683 219.90709
L 347.797856 229.470744
L 351.89703 237.695509
L 355.996204 244.659311
L 360.095377 250.466187
L 364.194551 255.236411
L 368.293724 259.097806
L 372.392898 262.178531
L 376.492071 264.601494
L 380.591245 266.480367
L 384.690418 267.917072
L 388.789592 269.000533
L 392.888765 269.806438
L 396.987939 270.39776
L 401.087113 270.825788
L 405.186286 271.131467
L 409.28546 271.346862
L 413.384633 271.496627
L 417.483807 271.599386
L 421.58298 271.668966
L 425.682154 271.715463
L 429.781327 271.74613
L 433.880501 271.766094
L 437.979675 271.778921
L 442.078848 271.787056
L 446.178022 271.792149
L 450.277195 271.795297
L 454.376369 271.797217
L 458.475542 271.798373
L 462.574716 271.799061
" style="fill:none;stroke:#000000;stroke-linecap:square;stroke-width:2;"/>
   </g>
   <g id="line2d_20">
    <path clip-path="url(#p31632f3162)" d="M 56.756534 271.8
L 60.855708 271.8
L 64.954881 271.8
L 69.054055 271.8
L 73.153228 271.8
L 77.252402 271.8
L 81.351575 271.8
L 85.450749 271.799999
L 89.549923 271.799998
L 93.649096 271.799996
L 97.74827 271.799993
L 101.847443 271.799986
L 105.946617 271.799973
L 110.04579 271.79995
L 114.144964 271.799908
L 118.244137 271.799832
L 122.343311 271.799698
L 126.442485 271.799464
L 130.541658 271.799061
L 134.640832 271.798373
L 138.740005 271.797217
L 142.839179 271.795297
L 146.938352 271.792149
L 151.037526 271.787056
L 155.136699 271.778921
L 159.235873 271.766094
L 163.335046 271.74613
L 167.43422 271.715463
L 171.533394 271.668966
L 175.632567 271.599386
L 179.731741 271.496627
L 183.830914 271.346862
L 187.930088 271.131467
L 192.029261 270.825788
L 196.128435 270.39776
L 200.227608 269.806438
L 204.326782 269.000533
L 208.425956 267.917072
L 212.525129 266.480367
L 216.624303 264.601494
L 220.723476 262.178531
L 224.82265 259.097806
L 228.921823 255.236411
L 233.020997 250.466187
L 237.12017 244.659311
L 241.219344 237.695509
L 245.318518 229.470744
L 249.417691 219.90709
L 253.516865 208.963243
L 257.616038 196.645008
L 261.715212 183.014867
L 265.814385 168.199703
L 269.913559 152.395665
L 274.012732 135.869308
L 278.111906 118.954274
L 282.21108 102.043109
L 286.310253 85.574193
L 290.409427 70.014174
L 294.5086 55.836783
L 298.607774 43.499292
L 302.706947 33.418214
L 306.806121 25.946033
L 310.905294 21.350764
L 315.004468 19.8
L 319.103642 21.350764
L 323.202815 25.946033
L 327.301989 33.418214
L 331.401162 43.499292
L 335.500336 55.836783
L 339.599509 70.014174
L 343.698683 85.574193
L 347.797856 102.043109
L 351.89703 118.954274
L 355.996204 135.869308
L 360.095377 152.395665
L 364.194551 168.199703
L 368.293724 183.014867
L 372.392898 196.645008
L 376.492071 208.963243
L 380.591245 219.90709
L 384.690418 229.470744
L 388.789592 237.695509
L 392.888765 244.659311
L 396.987939 250.466187
L 401.087113 255.236411
L 405.186286 259.097806
L 409.28546 262.178531
L 413.384633 264.601494
L 417.483807 266.480367
L 421.58298 267.917072
L 425.682154 269.000533
L 429.781327 269.806438
L 433.880501 270.39776
L 437.979675 270.825788
L 442.078848 271.131467
L 446.178022 271.346862
L 450.277195 271.496627
L 454.376369 271.599386
L 458.475542 271.668966
L 462.574716 271.715463
" style="fill:none;stroke:#000000;stroke-linecap:square;stroke-width:2.5;"/>
   </g>
   <g id="line2d_21">
    <path clip-path="url(#p31632f3162)" d="M 56.756534 271.8
L 60.855708 271.8
L 64.954881 271.8
L 69.054055 271.8
L 73.153228 271.8
L 77.252402 271.8
L 81.351575 271.8
L 85.450749 271.8
L 89.549923 271.8
L 93.649096 271.8
L 97.74827 271.8
L 101.847443 271.8
L 105.946617 271.8
L 110.04579 271.8
L 114.144964 271.8
L 118.244137 271.8
L 122.343311 271.799999
L 126.442485 271.799998
L 130.541658 271.799996
L 134.640832 271.799993
L 138.740005 271.799986
L 142.839179 271.799973
L 146.938352 271.79995
L 151.037526 271.799908
L 155.136699 271.799832
L 159.235873 271.799698
L 163.335046 271.799464
L 167.43422 271.799061
L 171.533394 271.798373
L 175.632567 271.797217
L 179.731741 271.795297
L 183.830914 271.792149
L 187.930088 271.787056
L 192.029261 271.778921
L 196.128435 271.766094
L 200.227608 271.74613
L 204.326782 271.715463
L 208.425956 271.668966
L 212.525129 271.599386
L 216.624303 271.496627
L 220.723476 271.346862
L 224.82265 271.131467
L 228.921823 270.825788
L 233.020997 270.39776
L 237.12017 269.806438
L 241.219344 269.000533
L 245.318518 267.917072
L 249.417691 266.480367
L 253.516865 264.601494
L 257.616038 262.178531
L 261.715212 259.097806
L 265.814385 255.236411
L 269.913559 250.466187
L 274.012732 244.659311
L 278.111906 237.695509
L 282.21108 229.470744
L 286.310253 219.90709
L 290.409427 208.963243
L 294.5086 196.645008
L 298.607774 183.014867
L 302.706947 168.199703
L 306.806121 152.395665
L 310.905294 135.869308
L 315.004468 118.954274
L 319.103642 102.043109
L 323.202815 85.574193
L 327.301989 70.014174
L 331.401162 55.836783
L 335.500336 43.499292
L 339.599509 33.418214
L 343.698683 25.946033
L 347.797856 21.350764
L 351.89703 19.8
L 355.996204 21.350764
L 360.095377 25.946033
L 364.194551 33.418214
L 368.293724 43.499292
L 372.392898 55.836783
L 376.492071 70.014174
L 380.591245 85.574193
L 384.690418 102.043109
L 388.789592 118.954274
L 392.888765 135.869308
L 396.987939 152.395665
L 401.087113 168.199703
L 405.186286 183.014867
L 409.28546 196.645008
L 413.384633 208.963243
L 417.483807 219.90709
L 421.58298 229.470744
L 425.682154 237.695509
L 429.781327 244.659311
L 433.880501 250.466187
L 437.979675 255.236411
L 442.078848 259.097806
L 446.178022 262.178531
L 450.277195 264.601494
L 454.376369 266.480367
L 458.475542 267.917072
L 462.574716 269.000533
" style="fill:none;stroke:#000000;stroke-linecap:square;stroke-width:3;"/>
   </g>
   <g id="patch_3">
    <path d="M 36.465625 284.4
L 36.465625 7.2
" style="fill:none;stroke:#000000;stroke-linecap:square;stroke-linejoin:miter;stroke-width:0.8;"/>
   </g>
   <g id="patch_4">
    <path d="M 482.865625 284.4
L 482.865625 7.2
" style="fill:none;stroke:#000000;stroke-linecap:square;stroke-linejoin:miter;stroke-width:0.8;"/>
   </g>
   <g id="patch_5">
    <path d="M 36.465625 284.4
L 482.865625 284.4
" style="fill:none;stroke:#000000;stroke-linecap:square;stroke-linejoin:miter;stroke-width:0.8;"/>
   </g>
   <g id="patch_6">
    <path d="M 36.465625 7.2
L 482.865625 7.2
" style="fill:none;stroke:#000000;stroke-linecap:square;stroke-linejoin:miter;stroke-width:0.8;"/>
   </g>
  </g>
 </g>
 <defs>
  <clipPath id="p31632f3162">
   <rect height="277.2" width="446.4" x="36.465625" y="7.2"/>
  </clipPath>
 </defs>
</svg>
