<?xml version="1.0" encoding="utf-8" standalone="no"?>
<!DOCTYPE svg PUBLIC "-//W3C//DTD SVG 1.1//EN"
  "http://www.w3.org/Graphics/SVG/1.1/DTD/svg11.dtd">
<!-- Created with matplotlib (https://matplotlib.org/) -->
<svg height="308.278125pt" version="1.1" viewBox="0 0 490.065625 308.278125" width="490.065625pt" xmlns="http://www.w3.org/2000/svg" xmlns:xlink="http://www.w3.org/1999/xlink">
 <metadata>
  <rdf:RDF xmlns:cc="http://creativecommons.org/ns#" xmlns:dc="http://purl.org/dc/elements/1.1/" xmlns:rdf="http://www.w3.org/1999/02/22-rdf-syntax-ns#">
   <cc:Work>
    <dc:type rdf:resource="http://purl.org/dc/dcmitype/StillImage"/>
    <dc:date>2021-02-15T15:47:53.305860</dc:date>
    <dc:format>image/svg+xml</dc:format>
    <dc:creator>
     <cc:Agent>
      <dc:title>Matplotlib v3.3.3, https://matplotlib.org/</dc:title>
     </cc:Agent>
    </dc:creator>
   </cc:Work>
  </rdf:RDF>
 </metadata>
 <defs>
  <style type="text/css">*{stroke-linecap:butt;stroke-linejoin:round;}</style>
 </defs>
 <g id="figure_1">
  <g id="patch_1">
   <path d="M 0 308.278125
L 490.065625 308.278125
L 490.065625 0
L 0 0
z
" style="fill:#ffffff;"/>
  </g>
  <g id="axes_1">
   <g id="patch_2">
    <path d="M 36.465625 284.4
L 482.865625 284.4
L 482.865625 7.2
L 36.465625 7.2
z
" style="fill:#ffffff;"/>
   </g>
   <g id="matplotlib.axis_1">
    <g id="xtick_1">
     <g id="line2d_1">
      <defs>
       <path d="M 0 0
L 0 3.5
" id="m913703f936" style="stroke:#000000;stroke-width:0.8;"/>
      </defs>
      <g>
       <use style="stroke:#000000;stroke-width:0.8;" x="56.756534" xlink:href="#m913703f936" y="284.4"/>
      </g>
     </g>
     <g id="text_1">
      <!-- −6 -->
      <g transform="translate(49.38544 298.998438)scale(0.1 -0.1)">
       <defs>
        <path d="M 10.59375 35.5
L 73.1875 35.5
L 73.1875 27.203125
L 10.59375 27.203125
z
" id="DejaVuSans-8722"/>
        <path d="M 33.015625 40.375
Q 26.375 40.375 22.484375 35.828125
Q 18.609375 31.296875 18.609375 23.390625
Q 18.609375 15.53125 22.484375 10.953125
Q 26.375 6.390625 33.015625 6.390625
Q 39.65625 6.390625 43.53125 10.953125
Q 47.40625 15.53125 47.40625 23.390625
Q 47.40625 31.296875 43.53125 35.828125
Q 39.65625 40.375 33.015625 40.375
z
M 52.59375 71.296875
L 52.59375 62.3125
Q 48.875 64.0625 45.09375 64.984375
Q 41.3125 65.921875 37.59375 65.921875
Q 27.828125 65.921875 22.671875 59.328125
Q 17.53125 52.734375 16.796875 39.40625
Q 19.671875 43.65625 24.015625 45.921875
Q 28.375 48.1875 33.59375 48.1875
Q 44.578125 48.1875 50.953125 41.515625
Q 57.328125 34.859375 57.328125 23.390625
Q 57.328125 12.15625 50.6875 5.359375
Q 44.046875 -1.421875 33.015625 -1.421875
Q 20.359375 -1.421875 13.671875 8.265625
Q 6.984375 17.96875 6.984375 36.375
Q 6.984375 53.65625 15.1875 63.9375
Q 23.390625 74.21875 37.203125 74.21875
Q 40.921875 74.21875 44.703125 73.484375
Q 48.484375 72.75 52.59375 71.296875
z
" id="DejaVuSans-54"/>
       </defs>
       <use xlink:href="#DejaVuSans-8722"/>
       <use x="83.789062" xlink:href="#DejaVuSans-54"/>
      </g>
     </g>
    </g>
    <g id="xtick_2">
     <g id="line2d_2">
      <g>
       <use style="stroke:#000000;stroke-width:0.8;" x="124.392898" xlink:href="#m913703f936" y="284.4"/>
      </g>
     </g>
     <g id="text_2">
      <!-- −4 -->
      <g transform="translate(117.021804 298.998438)scale(0.1 -0.1)">
       <defs>
        <path d="M 37.796875 64.3125
L 12.890625 25.390625
L 37.796875 25.390625
z
M 35.203125 72.90625
L 47.609375 72.90625
L 47.609375 25.390625
L 58.015625 25.390625
L 58.015625 17.1875
L 47.609375 17.1875
L 47.609375 0
L 37.796875 0
L 37.796875 17.1875
L 4.890625 17.1875
L 4.890625 26.703125
z
" id="DejaVuSans-52"/>
       </defs>
       <use xlink:href="#DejaVuSans-8722"/>
       <use x="83.789062" xlink:href="#DejaVuSans-52"/>
      </g>
     </g>
    </g>
    <g id="xtick_3">
     <g id="line2d_3">
      <g>
       <use style="stroke:#000000;stroke-width:0.8;" x="192.029261" xlink:href="#m913703f936" y="284.4"/>
      </g>
     </g>
     <g id="text_3">
      <!-- −2 -->
      <g transform="translate(184.658168 298.998438)scale(0.1 -0.1)">
       <defs>
        <path d="M 19.1875 8.296875
L 53.609375 8.296875
L 53.609375 0
L 7.328125 0
L 7.328125 8.296875
Q 12.9375 14.109375 22.625 23.890625
Q 32.328125 33.6875 34.8125 36.53125
Q 39.546875 41.84375 41.421875 45.53125
Q 43.3125 49.21875 43.3125 52.78125
Q 43.3125 58.59375 39.234375 62.25
Q 35.15625 65.921875 28.609375 65.921875
Q 23.96875 65.921875 18.8125 64.3125
Q 13.671875 62.703125 7.8125 59.421875
L 7.8125 69.390625
Q 13.765625 71.78125 18.9375 73
Q 24.125 74.21875 28.421875 74.21875
Q 39.75 74.21875 46.484375 68.546875
Q 53.21875 62.890625 53.21875 53.421875
Q 53.21875 48.921875 51.53125 44.890625
Q 49.859375 40.875 45.40625 35.40625
Q 44.1875 33.984375 37.640625 27.21875
Q 31.109375 20.453125 19.1875 8.296875
z
" id="DejaVuSans-50"/>
       </defs>
       <use xlink:href="#DejaVuSans-8722"/>
       <use x="83.789062" xlink:href="#DejaVuSans-50"/>
      </g>
     </g>
    </g>
    <g id="xtick_4">
     <g id="line2d_4">
      <g>
       <use style="stroke:#000000;stroke-width:0.8;" x="259.665625" xlink:href="#m913703f936" y="284.4"/>
      </g>
     </g>
     <g id="text_4">
      <!-- 0 -->
      <g transform="translate(256.484375 298.998438)scale(0.1 -0.1)">
       <defs>
        <path d="M 31.78125 66.40625
Q 24.171875 66.40625 20.328125 58.90625
Q 16.5 51.421875 16.5 36.375
Q 16.5 21.390625 20.328125 13.890625
Q 24.171875 6.390625 31.78125 6.390625
Q 39.453125 6.390625 43.28125 13.890625
Q 47.125 21.390625 47.125 36.375
Q 47.125 51.421875 43.28125 58.90625
Q 39.453125 66.40625 31.78125 66.40625
z
M 31.78125 74.21875
Q 44.046875 74.21875 50.515625 64.515625
Q 56.984375 54.828125 56.984375 36.375
Q 56.984375 17.96875 50.515625 8.265625
Q 44.046875 -1.421875 31.78125 -1.421875
Q 19.53125 -1.421875 13.0625 8.265625
Q 6.59375 17.96875 6.59375 36.375
Q 6.59375 54.828125 13.0625 64.515625
Q 19.53125 74.21875 31.78125 74.21875
z
" id="DejaVuSans-48"/>
       </defs>
       <use xlink:href="#DejaVuSans-48"/>
      </g>
     </g>
    </g>
    <g id="xtick_5">
     <g id="line2d_5">
      <g>
       <use style="stroke:#000000;stroke-width:0.8;" x="327.301989" xlink:href="#m913703f936" y="284.4"/>
      </g>
     </g>
     <g id="text_5">
      <!-- 2 -->
      <g transform="translate(324.120739 298.998438)scale(0.1 -0.1)">
       <use xlink:href="#DejaVuSans-50"/>
      </g>
     </g>
    </g>
    <g id="xtick_6">
     <g id="line2d_6">
      <g>
       <use style="stroke:#000000;stroke-width:0.8;" x="394.938352" xlink:href="#m913703f936" y="284.4"/>
      </g>
     </g>
     <g id="text_6">
      <!-- 4 -->
      <g transform="translate(391.757102 298.998438)scale(0.1 -0.1)">
       <use xlink:href="#DejaVuSans-52"/>
      </g>
     </g>
    </g>
    <g id="xtick_7">
     <g id="line2d_7">
      <g>
       <use style="stroke:#000000;stroke-width:0.8;" x="462.574716" xlink:href="#m913703f936" y="284.4"/>
      </g>
     </g>
     <g id="text_7">
      <!-- 6 -->
      <g transform="translate(459.393466 298.998438)scale(0.1 -0.1)">
       <use xlink:href="#DejaVuSans-54"/>
      </g>
     </g>
    </g>
   </g>
   <g id="matplotlib.axis_2">
    <g id="ytick_1">
     <g id="line2d_8">
      <defs>
       <path d="M 0 0
L -3.5 0
" id="m80f4d78df7" style="stroke:#000000;stroke-width:0.8;"/>
      </defs>
      <g>
       <use style="stroke:#000000;stroke-width:0.8;" x="36.465625" xlink:href="#m80f4d78df7" y="271.8"/>
      </g>
     </g>
     <g id="text_8">
      <!-- 0.00 -->
      <g transform="translate(7.2 275.599219)scale(0.1 -0.1)">
       <defs>
        <path d="M 10.6875 12.40625
L 21 12.40625
L 21 0
L 10.6875 0
z
" id="DejaVuSans-46"/>
       </defs>
       <use xlink:href="#DejaVuSans-48"/>
       <use x="63.623047" xlink:href="#DejaVuSans-46"/>
       <use x="95.410156" xlink:href="#DejaVuSans-48"/>
       <use x="159.033203" xlink:href="#DejaVuSans-48"/>
      </g>
     </g>
    </g>
    <g id="ytick_2">
     <g id="line2d_9">
      <g>
       <use style="stroke:#000000;stroke-width:0.8;" x="36.465625" xlink:href="#m80f4d78df7" y="240.201979"/>
      </g>
     </g>
     <g id="text_9">
      <!-- 0.05 -->
      <g transform="translate(7.2 244.001198)scale(0.1 -0.1)">
       <defs>
        <path d="M 10.796875 72.90625
L 49.515625 72.90625
L 49.515625 64.59375
L 19.828125 64.59375
L 19.828125 46.734375
Q 21.96875 47.46875 24.109375 47.828125
Q 26.265625 48.1875 28.421875 48.1875
Q 40.625 48.1875 47.75 41.5
Q 54.890625 34.8125 54.890625 23.390625
Q 54.890625 11.625 47.5625 5.09375
Q 40.234375 -1.421875 26.90625 -1.421875
Q 22.3125 -1.421875 17.546875 -0.640625
Q 12.796875 0.140625 7.71875 1.703125
L 7.71875 11.625
Q 12.109375 9.234375 16.796875 8.0625
Q 21.484375 6.890625 26.703125 6.890625
Q 35.15625 6.890625 40.078125 11.328125
Q 45.015625 15.765625 45.015625 23.390625
Q 45.015625 31 40.078125 35.4375
Q 35.15625 39.890625 26.703125 39.890625
Q 22.75 39.890625 18.8125 39.015625
Q 14.890625 38.140625 10.796875 36.28125
z
" id="DejaVuSans-53"/>
       </defs>
       <use xlink:href="#DejaVuSans-48"/>
       <use x="63.623047" xlink:href="#DejaVuSans-46"/>
       <use x="95.410156" xlink:href="#DejaVuSans-48"/>
       <use x="159.033203" xlink:href="#DejaVuSans-53"/>
      </g>
     </g>
    </g>
    <g id="ytick_3">
     <g id="line2d_10">
      <g>
       <use style="stroke:#000000;stroke-width:0.8;" x="36.465625" xlink:href="#m80f4d78df7" y="208.603959"/>
      </g>
     </g>
     <g id="text_10">
      <!-- 0.10 -->
      <g transform="translate(7.2 212.403177)scale(0.1 -0.1)">
       <defs>
        <path d="M 12.40625 8.296875
L 28.515625 8.296875
L 28.515625 63.921875
L 10.984375 60.40625
L 10.984375 69.390625
L 28.421875 72.90625
L 38.28125 72.90625
L 38.28125 8.296875
L 54.390625 8.296875
L 54.390625 0
L 12.40625 0
z
" id="DejaVuSans-49"/>
       </defs>
       <use xlink:href="#DejaVuSans-48"/>
       <use x="63.623047" xlink:href="#DejaVuSans-46"/>
       <use x="95.410156" xlink:href="#DejaVuSans-49"/>
       <use x="159.033203" xlink:href="#DejaVuSans-48"/>
      </g>
     </g>
    </g>
    <g id="ytick_4">
     <g id="line2d_11">
      <g>
       <use style="stroke:#000000;stroke-width:0.8;" x="36.465625" xlink:href="#m80f4d78df7" y="177.005938"/>
      </g>
     </g>
     <g id="text_11">
      <!-- 0.15 -->
      <g transform="translate(7.2 180.805157)scale(0.1 -0.1)">
       <use xlink:href="#DejaVuSans-48"/>
       <use x="63.623047" xlink:href="#DejaVuSans-46"/>
       <use x="95.410156" xlink:href="#DejaVuSans-49"/>
       <use x="159.033203" xlink:href="#DejaVuSans-53"/>
      </g>
     </g>
    </g>
    <g id="ytick_5">
     <g id="line2d_12">
      <g>
       <use style="stroke:#000000;stroke-width:0.8;" x="36.465625" xlink:href="#m80f4d78df7" y="145.407917"/>
      </g>
     </g>
     <g id="text_12">
      <!-- 0.20 -->
      <g transform="translate(7.2 149.207136)scale(0.1 -0.1)">
       <use xlink:href="#DejaVuSans-48"/>
       <use x="63.623047" xlink:href="#DejaVuSans-46"/>
       <use x="95.410156" xlink:href="#DejaVuSans-50"/>
       <use x="159.033203" xlink:href="#DejaVuSans-48"/>
      </g>
     </g>
    </g>
    <g id="ytick_6">
     <g id="line2d_13">
      <g>
       <use style="stroke:#000000;stroke-width:0.8;" x="36.465625" xlink:href="#m80f4d78df7" y="113.809896"/>
      </g>
     </g>
     <g id="text_13">
      <!-- 0.25 -->
      <g transform="translate(7.2 117.609115)scale(0.1 -0.1)">
       <use xlink:href="#DejaVuSans-48"/>
       <use x="63.623047" xlink:href="#DejaVuSans-46"/>
       <use x="95.410156" xlink:href="#DejaVuSans-50"/>
       <use x="159.033203" xlink:href="#DejaVuSans-53"/>
      </g>
     </g>
    </g>
    <g id="ytick_7">
     <g id="line2d_14">
      <g>
       <use style="stroke:#000000;stroke-width:0.8;" x="36.465625" xlink:href="#m80f4d78df7" y="82.211876"/>
      </g>
     </g>
     <g id="text_14">
      <!-- 0.30 -->
      <g transform="translate(7.2 86.011094)scale(0.1 -0.1)">
       <defs>
        <path d="M 40.578125 39.3125
Q 47.65625 37.796875 51.625 33
Q 55.609375 28.21875 55.609375 21.1875
Q 55.609375 10.40625 48.1875 4.484375
Q 40.765625 -1.421875 27.09375 -1.421875
Q 22.515625 -1.421875 17.65625 -0.515625
Q 12.796875 0.390625 7.625 2.203125
L 7.625 11.71875
Q 11.71875 9.328125 16.59375 8.109375
Q 21.484375 6.890625 26.8125 6.890625
Q 36.078125 6.890625 40.9375 10.546875
Q 45.796875 14.203125 45.796875 21.1875
Q 45.796875 27.640625 41.28125 31.265625
Q 36.765625 34.90625 28.71875 34.90625
L 20.21875 34.90625
L 20.21875 43.015625
L 29.109375 43.015625
Q 36.375 43.015625 40.234375 45.921875
Q 44.09375 48.828125 44.09375 54.296875
Q 44.09375 59.90625 40.109375 62.90625
Q 36.140625 65.921875 28.71875 65.921875
Q 24.65625 65.921875 20.015625 65.03125
Q 15.375 64.15625 9.8125 62.3125
L 9.8125 71.09375
Q 15.4375 72.65625 20.34375 73.4375
Q 25.25 74.21875 29.59375 74.21875
Q 40.828125 74.21875 47.359375 69.109375
Q 53.90625 64.015625 53.90625 55.328125
Q 53.90625 49.265625 50.4375 45.09375
Q 46.96875 40.921875 40.578125 39.3125
z
" id="DejaVuSans-51"/>
       </defs>
       <use xlink:href="#DejaVuSans-48"/>
       <use x="63.623047" xlink:href="#DejaVuSans-46"/>
       <use x="95.410156" xlink:href="#DejaVuSans-51"/>
       <use x="159.033203" xlink:href="#DejaVuSans-48"/>
      </g>
     </g>
    </g>
    <g id="ytick_8">
     <g id="line2d_15">
      <g>
       <use style="stroke:#000000;stroke-width:0.8;" x="36.465625" xlink:href="#m80f4d78df7" y="50.613855"/>
      </g>
     </g>
     <g id="text_15">
      <!-- 0.35 -->
      <g transform="translate(7.2 54.413074)scale(0.1 -0.1)">
       <use xlink:href="#DejaVuSans-48"/>
       <use x="63.623047" xlink:href="#DejaVuSans-46"/>
       <use x="95.410156" xlink:href="#DejaVuSans-51"/>
       <use x="159.033203" xlink:href="#DejaVuSans-53"/>
      </g>
     </g>
    </g>
    <g id="ytick_9">
     <g id="line2d_16">
      <g>
       <use style="stroke:#000000;stroke-width:0.8;" x="36.465625" xlink:href="#m80f4d78df7" y="19.015834"/>
      </g>
     </g>
     <g id="text_16">
      <!-- 0.40 -->
      <g transform="translate(7.2 22.815053)scale(0.1 -0.1)">
       <use xlink:href="#DejaVuSans-48"/>
       <use x="63.623047" xlink:href="#DejaVuSans-46"/>
       <use x="95.410156" xlink:href="#DejaVuSans-52"/>
       <use x="159.033203" xlink:href="#DejaVuSans-48"/>
      </g>
     </g>
    </g>
   </g>
   <g id="line2d_17">
    <path clip-path="url(#p9faf3e9ac5)" d="M 56.756534 268.999247
L 60.855708 267.800464
L 64.954881 266.171876
L 69.054055 263.995647
L 73.153228 261.135775
L 77.252402 257.440449
L 81.351575 252.746637
L 85.450749 246.887255
L 89.549923 239.701059
L 93.649096 231.045178
L 97.74827 220.809826
L 101.847443 208.934386
L 105.946617 195.423631
L 110.04579 180.362564
L 114.144964 163.928119
L 118.244137 146.395926
L 122.343311 128.140543
L 126.442485 109.627962
L 130.541658 91.399843
L 134.640832 74.049755
L 138.740005 58.192583
L 142.839179 44.429138
L 146.938352 33.308739
L 151.037526 25.292968
L 155.136699 20.723922
L 159.235873 19.8
L 163.335046 22.561616
L 167.43422 28.888266
L 171.533394 38.50725
L 175.632567 51.013166
L 179.731741 65.896238
L 183.830914 82.576717
L 187.930088 100.442133
L 192.029261 118.884081
L 196.128435 137.331508
L 200.227608 155.278102
L 204.326782 172.302138
L 208.425956 188.07809
L 212.525129 202.380147
L 216.624303 215.078536
L 220.723476 226.130069
L 224.82265 235.56465
L 228.921823 243.469533
L 233.020997 249.972992
L 237.12017 255.228804
L 241.219344 259.402541
L 245.318518 262.660326
L 249.417691 265.160309
L 253.516865 267.04682
L 257.616038 268.446952
L 261.715212 269.469149
L 265.814385 270.203355
L 269.913559 270.722241
L 274.012732 271.083108
L 278.111906 271.3301
L 282.21108 271.496488
L 286.310253 271.606818
L 290.409427 271.678836
L 294.5086 271.725114
L 298.607774 271.754391
L 302.706947 271.772627
L 306.806121 271.783812
L 310.905294 271.790566
L 315.004468 271.794582
L 319.103642 271.796934
L 323.202815 271.79829
L 327.301989 271.79906
L 331.401162 271.799491
L 335.500336 271.799729
L 339.599509 271.799857
L 343.698683 271.799926
L 347.797856 271.799962
L 351.89703 271.799981
L 355.996204 271.799991
L 360.095377 271.799995
L 364.194551 271.799998
L 368.293724 271.799999
L 372.392898 271.8
L 376.492071 271.8
L 380.591245 271.8
L 384.690418 271.8
L 388.789592 271.8
L 392.888765 271.8
L 396.987939 271.8
L 401.087113 271.8
L 405.186286 271.8
L 409.28546 271.8
L 413.384633 271.8
L 417.483807 271.8
L 421.58298 271.8
L 425.682154 271.8
L 429.781327 271.8
L 433.880501 271.8
L 437.979675 271.8
L 442.078848 271.8
L 446.178022 271.8
L 450.277195 271.8
L 454.376369 271.8
L 458.475542 271.8
L 462.574716 271.8
" style="fill:none;stroke:#1f77b4;stroke-linecap:square;stroke-width:1.5;"/>
   </g>
   <g id="line2d_18">
    <path clip-path="url(#p9faf3e9ac5)" d="M 56.756534 271.79906
L 60.855708 271.79829
L 64.954881 271.796934
L 69.054055 271.794582
L 73.153228 271.790566
L 77.252402 271.783812
L 81.351575 271.772627
L 85.450749 271.754391
L 89.549923 271.725114
L 93.649096 271.678836
L 97.74827 271.606818
L 101.847443 271.496488
L 105.946617 271.3301
L 110.04579 271.083108
L 114.144964 270.722241
L 118.244137 270.203355
L 122.343311 269.469149
L 126.442485 268.446952
L 130.541658 267.04682
L 134.640832 265.160309
L 138.740005 262.660326
L 142.839179 259.402541
L 146.938352 255.228804
L 151.037526 249.972992
L 155.136699 243.469533
L 159.235873 235.56465
L 163.335046 226.130069
L 167.43422 215.078536
L 171.533394 202.380147
L 175.632567 188.07809
L 179.731741 172.302138
L 183.830914 155.278102
L 187.930088 137.331508
L 192.029261 118.884081
L 196.128435 100.442133
L 200.227608 82.576717
L 204.326782 65.896238
L 208.425956 51.013166
L 212.525129 38.50725
L 216.624303 28.888266
L 220.723476 22.561616
L 224.82265 19.8
L 228.921823 20.723922
L 233.020997 25.292968
L 237.12017 33.308739
L 241.219344 44.429138
L 245.318518 58.192583
L 249.417691 74.049755
L 253.516865 91.399843
L 257.616038 109.627962
L 261.715212 128.140543
L 265.814385 146.395926
L 269.913559 163.928119
L 274.012732 180.362564
L 278.111906 195.423631
L 282.21108 208.934386
L 286.310253 220.809826
L 290.409427 231.045178
L 294.5086 239.701059
L 298.607774 246.887255
L 302.706947 252.746637
L 306.806121 257.440449
L 310.905294 261.135775
L 315.004468 263.995647
L 319.103642 266.171876
L 323.202815 267.800464
L 327.301989 268.999247
L 331.401162 269.867324
L 335.500336 270.485797
L 339.599509 270.919387
L 343.698683 271.21853
L 347.797856 271.421655
L 351.89703 271.557412
L 355.996204 271.646726
L 360.095377 271.70457
L 364.194551 271.74145
L 368.293724 271.764602
L 372.392898 271.778911
L 376.492071 271.787619
L 380.591245 271.792837
L 384.690418 271.795917
L 388.789592 271.797706
L 392.888765 271.79873
L 396.987939 271.799307
L 401.087113 271.799628
L 405.186286 271.799803
L 409.28546 271.799897
L 413.384633 271.799947
L 417.483807 271.799973
L 421.58298 271.799987
L 425.682154 271.799993
L 429.781327 271.799997
L 433.880501 271.799998
L 437.979675 271.799999
L 442.078848 271.8
L 446.178022 271.8
L 450.277195 271.8
L 454.376369 271.8
L 458.475542 271.8
L 462.574716 271.8
" style="fill:none;stroke:#ff7f0e;stroke-dasharray:1.5,2.475;stroke-dashoffset:0;stroke-width:1.5;"/>
   </g>
   <g id="line2d_19">
    <path clip-path="url(#p9faf3e9ac5)" d="M 56.756534 271.8
L 60.855708 271.8
L 64.954881 271.8
L 69.054055 271.8
L 73.153228 271.8
L 77.252402 271.8
L 81.351575 271.799999
L 85.450749 271.799998
L 89.549923 271.799997
L 93.649096 271.799993
L 97.74827 271.799987
L 101.847443 271.799973
L 105.946617 271.799947
L 110.04579 271.799897
L 114.144964 271.799803
L 118.244137 271.799628
L 122.343311 271.799307
L 126.442485 271.79873
L 130.541658 271.797706
L 134.640832 271.795917
L 138.740005 271.792837
L 142.839179 271.787619
L 146.938352 271.778911
L 151.037526 271.764602
L 155.136699 271.74145
L 159.235873 271.70457
L 163.335046 271.646726
L 167.43422 271.557412
L 171.533394 271.421655
L 175.632567 271.21853
L 179.731741 270.919387
L 183.830914 270.485797
L 187.930088 269.867324
L 192.029261 268.999247
L 196.128435 267.800464
L 200.227608 266.171876
L 204.326782 263.995647
L 208.425956 261.135775
L 212.525129 257.440449
L 216.624303 252.746637
L 220.723476 246.887255
L 224.82265 239.701059
L 228.921823 231.045178
L 233.020997 220.809826
L 237.12017 208.934386
L 241.219344 195.423631
L 245.318518 180.362564
L 249.417691 163.928119
L 253.516865 146.395926
L 257.616038 128.140543
L 261.715212 109.627962
L 265.814385 91.399843
L 269.913559 74.049755
L 274.012732 58.192583
L 278.111906 44.429138
L 282.21108 33.308739
L 286.310253 25.292968
L 290.409427 20.723922
L 294.5086 19.8
L 298.607774 22.561616
L 302.706947 28.888266
L 306.806121 38.50725
L 310.905294 51.013166
L 315.004468 65.896238
L 319.103642 82.576717
L 323.202815 100.442133
L 327.301989 118.884081
L 331.401162 137.331508
L 335.500336 155.278102
L 339.599509 172.302138
L 343.698683 188.07809
L 347.797856 202.380147
L 351.89703 215.078536
L 355.996204 226.130069
L 360.095377 235.56465
L 364.194551 243.469533
L 368.293724 249.972992
L 372.392898 255.228804
L 376.492071 259.402541
L 380.591245 262.660326
L 384.690418 265.160309
L 388.789592 267.04682
L 392.888765 268.446952
L 396.987939 269.469149
L 401.087113 270.203355
L 405.186286 270.722241
L 409.28546 271.083108
L 413.384633 271.3301
L 417.483807 271.496488
L 421.58298 271.606818
L 425.682154 271.678836
L 429.781327 271.725114
L 433.880501 271.754391
L 437.979675 271.772627
L 442.078848 271.783812
L 446.178022 271.790566
L 450.277195 271.794582
L 454.376369 271.796934
L 458.475542 271.79829
L 462.574716 271.79906
" style="fill:none;stroke:#2ca02c;stroke-dasharray:5.55,2.4;stroke-dashoffset:0;stroke-width:1.5;"/>
   </g>
   <g id="line2d_20">
    <path clip-path="url(#p9faf3e9ac5)" d="M 56.756534 271.8
L 60.855708 271.8
L 64.954881 271.8
L 69.054055 271.8
L 73.153228 271.8
L 77.252402 271.8
L 81.351575 271.8
L 85.450749 271.8
L 89.549923 271.8
L 93.649096 271.8
L 97.74827 271.8
L 101.847443 271.8
L 105.946617 271.8
L 110.04579 271.8
L 114.144964 271.8
L 118.244137 271.8
L 122.343311 271.8
L 126.442485 271.8
L 130.541658 271.8
L 134.640832 271.8
L 138.740005 271.8
L 142.839179 271.8
L 146.938352 271.8
L 151.037526 271.799999
L 155.136699 271.799998
L 159.235873 271.799995
L 163.335046 271.799991
L 167.43422 271.799981
L 171.533394 271.799962
L 175.632567 271.799926
L 179.731741 271.799857
L 183.830914 271.799729
L 187.930088 271.799491
L 192.029261 271.79906
L 196.128435 271.79829
L 200.227608 271.796934
L 204.326782 271.794582
L 208.425956 271.790566
L 212.525129 271.783812
L 216.624303 271.772627
L 220.723476 271.754391
L 224.82265 271.725114
L 228.921823 271.678836
L 233.020997 271.606818
L 237.12017 271.496488
L 241.219344 271.3301
L 245.318518 271.083108
L 249.417691 270.722241
L 253.516865 270.203355
L 257.616038 269.469149
L 261.715212 268.446952
L 265.814385 267.04682
L 269.913559 265.160309
L 274.012732 262.660326
L 278.111906 259.402541
L 282.21108 255.228804
L 286.310253 249.972992
L 290.409427 243.469533
L 294.5086 235.56465
L 298.607774 226.130069
L 302.706947 215.078536
L 306.806121 202.380147
L 310.905294 188.07809
L 315.004468 172.302138
L 319.103642 155.278102
L 323.202815 137.331508
L 327.301989 118.884081
L 331.401162 100.442133
L 335.500336 82.576717
L 339.599509 65.896238
L 343.698683 51.013166
L 347.797856 38.50725
L 351.89703 28.888266
L 355.996204 22.561616
L 360.095377 19.8
L 364.194551 20.723922
L 368.293724 25.292968
L 372.392898 33.308739
L 376.492071 44.429138
L 380.591245 58.192583
L 384.690418 74.049755
L 388.789592 91.399843
L 392.888765 109.627962
L 396.987939 128.140543
L 401.087113 146.395926
L 405.186286 163.928119
L 409.28546 180.362564
L 413.384633 195.423631
L 417.483807 208.934386
L 421.58298 220.809826
L 425.682154 231.045178
L 429.781327 239.701059
L 433.880501 246.887255
L 437.979675 252.746637
L 442.078848 257.440449
L 446.178022 261.135775
L 450.277195 263.995647
L 454.376369 266.171876
L 458.475542 267.800464
L 462.574716 268.999247
" style="fill:none;stroke:#d62728;stroke-dasharray:9.6,2.4,1.5,2.4;stroke-dashoffset:0;stroke-width:1.5;"/>
   </g>
   <g id="patch_3">
    <path d="M 36.465625 284.4
L 36.465625 7.2
" style="fill:none;stroke:#000000;stroke-linecap:square;stroke-linejoin:miter;stroke-width:0.8;"/>
   </g>
   <g id="patch_4">
    <path d="M 482.865625 284.4
L 482.865625 7.2
" style="fill:none;stroke:#000000;stroke-linecap:square;stroke-linejoin:miter;stroke-width:0.8;"/>
   </g>
   <g id="patch_5">
    <path d="M 36.465625 284.4
L 482.865625 284.4
" style="fill:none;stroke:#000000;stroke-linecap:square;stroke-linejoin:miter;stroke-width:0.8;"/>
   </g>
   <g id="patch_6">
    <path d="M 36.465625 7.2
L 482.865625 7.2
" style="fill:none;stroke:#000000;stroke-linecap:square;stroke-linejoin:miter;stroke-width:0.8;"/>
   </g>
  </g>
 </g>
 <defs>
  <clipPath id="p9faf3e9ac5">
   <rect height="277.2" width="446.4" x="36.465625" y="7.2"/>
  </clipPath>
 </defs>
</svg>
