<?xml version="1.0" encoding="utf-8" standalone="no"?>
<!DOCTYPE svg PUBLIC "-//W3C//DTD SVG 1.1//EN"
  "http://www.w3.org/Graphics/SVG/1.1/DTD/svg11.dtd">
<!-- Created with matplotlib (https://matplotlib.org/) -->
<svg height="352.398125pt" version="1.1" viewBox="0 0 568.782812 352.398125" width="568.782812pt" xmlns="http://www.w3.org/2000/svg" xmlns:xlink="http://www.w3.org/1999/xlink">
 <metadata>
  <rdf:RDF xmlns:cc="http://creativecommons.org/ns#" xmlns:dc="http://purl.org/dc/elements/1.1/" xmlns:rdf="http://www.w3.org/1999/02/22-rdf-syntax-ns#">
   <cc:Work>
    <dc:type rdf:resource="http://purl.org/dc/dcmitype/StillImage"/>
    <dc:date>2021-02-15T16:18:23.776906</dc:date>
    <dc:format>image/svg+xml</dc:format>
    <dc:creator>
     <cc:Agent>
      <dc:title>Matplotlib v3.3.3, https://matplotlib.org/</dc:title>
     </cc:Agent>
    </dc:creator>
   </cc:Work>
  </rdf:RDF>
 </metadata>
 <defs>
  <style type="text/css">*{stroke-linecap:butt;stroke-linejoin:round;}</style>
 </defs>
 <g id="figure_1">
  <g id="patch_1">
   <path d="M 0 352.398125
L 568.782812 352.398125
L 568.782812 0
L 0 0
z
" style="fill:#ffffff;"/>
  </g>
  <g id="axes_1">
   <g id="patch_2">
    <path d="M 38.482813 328.52
L 561.582812 328.52
L 561.582812 7.2
L 38.482813 7.2
z
" style="fill:#ffffff;"/>
   </g>
   <g id="PathCollection_1">
    <defs>
     <path d="M -0 15.811388
L 15.811388 -15.811388
L -15.811388 -15.811388
z
" id="me4264991b0" style="stroke:#1f77b4;"/>
    </defs>
    <g clip-path="url(#pbba1b36a9f)">
     <use style="fill:#1f77b4;stroke:#1f77b4;" x="62.260085" xlink:href="#me4264991b0" y="313.914545"/>
     <use style="fill:#1f77b4;stroke:#1f77b4;" x="87.288793" xlink:href="#me4264991b0" y="307.76488"/>
     <use style="fill:#1f77b4;stroke:#1f77b4;" x="112.317501" xlink:href="#me4264991b0" y="301.615215"/>
     <use style="fill:#1f77b4;stroke:#1f77b4;" x="137.34621" xlink:href="#me4264991b0" y="295.46555"/>
     <use style="fill:#1f77b4;stroke:#1f77b4;" x="162.374918" xlink:href="#me4264991b0" y="289.315885"/>
     <use style="fill:#1f77b4;stroke:#1f77b4;" x="187.403626" xlink:href="#me4264991b0" y="283.16622"/>
     <use style="fill:#1f77b4;stroke:#1f77b4;" x="212.432334" xlink:href="#me4264991b0" y="277.016555"/>
     <use style="fill:#1f77b4;stroke:#1f77b4;" x="237.461042" xlink:href="#me4264991b0" y="270.86689"/>
     <use style="fill:#1f77b4;stroke:#1f77b4;" x="262.48975" xlink:href="#me4264991b0" y="264.717225"/>
     <use style="fill:#1f77b4;stroke:#1f77b4;" x="287.518458" xlink:href="#me4264991b0" y="258.56756"/>
     <use style="fill:#1f77b4;stroke:#1f77b4;" x="312.547167" xlink:href="#me4264991b0" y="252.417895"/>
     <use style="fill:#1f77b4;stroke:#1f77b4;" x="337.575875" xlink:href="#me4264991b0" y="246.26823"/>
     <use style="fill:#1f77b4;stroke:#1f77b4;" x="362.604583" xlink:href="#me4264991b0" y="240.118565"/>
     <use style="fill:#1f77b4;stroke:#1f77b4;" x="387.633291" xlink:href="#me4264991b0" y="233.9689"/>
     <use style="fill:#1f77b4;stroke:#1f77b4;" x="412.661999" xlink:href="#me4264991b0" y="227.819234"/>
     <use style="fill:#1f77b4;stroke:#1f77b4;" x="437.690707" xlink:href="#me4264991b0" y="221.669569"/>
     <use style="fill:#1f77b4;stroke:#1f77b4;" x="462.719415" xlink:href="#me4264991b0" y="215.519904"/>
     <use style="fill:#1f77b4;stroke:#1f77b4;" x="487.748124" xlink:href="#me4264991b0" y="209.370239"/>
     <use style="fill:#1f77b4;stroke:#1f77b4;" x="512.776832" xlink:href="#me4264991b0" y="203.220574"/>
     <use style="fill:#1f77b4;stroke:#1f77b4;" x="537.80554" xlink:href="#me4264991b0" y="197.070909"/>
    </g>
   </g>
   <g id="PathCollection_2">
    <defs>
     <path d="M -2.5 5
L 0 2.5
L 2.5 5
L 5 2.5
L 2.5 0
L 5 -2.5
L 2.5 -5
L 0 -2.5
L -2.5 -5
L -5 -2.5
L -2.5 0
L -5 2.5
z
" id="m9f97e13a8f" style="stroke:#ff7f0e;"/>
    </defs>
    <g clip-path="url(#pbba1b36a9f)">
     <use style="fill:#ff7f0e;stroke:#ff7f0e;" x="62.260085" xlink:href="#m9f97e13a8f" y="197.070909"/>
     <use style="fill:#ff7f0e;stroke:#ff7f0e;" x="87.288793" xlink:href="#m9f97e13a8f" y="203.220574"/>
     <use style="fill:#ff7f0e;stroke:#ff7f0e;" x="112.317501" xlink:href="#m9f97e13a8f" y="209.370239"/>
     <use style="fill:#ff7f0e;stroke:#ff7f0e;" x="137.34621" xlink:href="#m9f97e13a8f" y="215.519904"/>
     <use style="fill:#ff7f0e;stroke:#ff7f0e;" x="162.374918" xlink:href="#m9f97e13a8f" y="221.669569"/>
     <use style="fill:#ff7f0e;stroke:#ff7f0e;" x="187.403626" xlink:href="#m9f97e13a8f" y="227.819234"/>
     <use style="fill:#ff7f0e;stroke:#ff7f0e;" x="212.432334" xlink:href="#m9f97e13a8f" y="233.9689"/>
     <use style="fill:#ff7f0e;stroke:#ff7f0e;" x="237.461042" xlink:href="#m9f97e13a8f" y="240.118565"/>
     <use style="fill:#ff7f0e;stroke:#ff7f0e;" x="262.48975" xlink:href="#m9f97e13a8f" y="246.26823"/>
     <use style="fill:#ff7f0e;stroke:#ff7f0e;" x="287.518458" xlink:href="#m9f97e13a8f" y="252.417895"/>
     <use style="fill:#ff7f0e;stroke:#ff7f0e;" x="312.547167" xlink:href="#m9f97e13a8f" y="258.56756"/>
     <use style="fill:#ff7f0e;stroke:#ff7f0e;" x="337.575875" xlink:href="#m9f97e13a8f" y="264.717225"/>
     <use style="fill:#ff7f0e;stroke:#ff7f0e;" x="362.604583" xlink:href="#m9f97e13a8f" y="270.86689"/>
     <use style="fill:#ff7f0e;stroke:#ff7f0e;" x="387.633291" xlink:href="#m9f97e13a8f" y="277.016555"/>
     <use style="fill:#ff7f0e;stroke:#ff7f0e;" x="412.661999" xlink:href="#m9f97e13a8f" y="283.16622"/>
     <use style="fill:#ff7f0e;stroke:#ff7f0e;" x="437.690707" xlink:href="#m9f97e13a8f" y="289.315885"/>
     <use style="fill:#ff7f0e;stroke:#ff7f0e;" x="462.719415" xlink:href="#m9f97e13a8f" y="295.46555"/>
     <use style="fill:#ff7f0e;stroke:#ff7f0e;" x="487.748124" xlink:href="#m9f97e13a8f" y="301.615215"/>
     <use style="fill:#ff7f0e;stroke:#ff7f0e;" x="512.776832" xlink:href="#m9f97e13a8f" y="307.76488"/>
     <use style="fill:#ff7f0e;stroke:#ff7f0e;" x="537.80554" xlink:href="#m9f97e13a8f" y="313.914545"/>
    </g>
   </g>
   <g id="PathCollection_3">
    <defs>
     <path d="M -1.581139 1.581139
L 1.581139 1.581139
L 1.581139 -1.581139
L -1.581139 -1.581139
z
" id="mdcc4f24e04" style="stroke:#2ca02c;"/>
    </defs>
    <g clip-path="url(#pbba1b36a9f)">
     <use style="fill:#2ca02c;stroke:#2ca02c;" x="62.260085" xlink:href="#mdcc4f24e04" y="21.805455"/>
     <use style="fill:#2ca02c;stroke:#2ca02c;" x="87.288793" xlink:href="#mdcc4f24e04" y="68.413442"/>
     <use style="fill:#2ca02c;stroke:#2ca02c;" x="112.317501" xlink:href="#mdcc4f24e04" y="109.842765"/>
     <use style="fill:#2ca02c;stroke:#2ca02c;" x="137.34621" xlink:href="#mdcc4f24e04" y="146.093422"/>
     <use style="fill:#2ca02c;stroke:#2ca02c;" x="162.374918" xlink:href="#mdcc4f24e04" y="177.165414"/>
     <use style="fill:#2ca02c;stroke:#2ca02c;" x="187.403626" xlink:href="#mdcc4f24e04" y="203.058741"/>
     <use style="fill:#2ca02c;stroke:#2ca02c;" x="212.432334" xlink:href="#mdcc4f24e04" y="223.773402"/>
     <use style="fill:#2ca02c;stroke:#2ca02c;" x="237.461042" xlink:href="#mdcc4f24e04" y="239.309398"/>
     <use style="fill:#2ca02c;stroke:#2ca02c;" x="262.48975" xlink:href="#mdcc4f24e04" y="249.666729"/>
     <use style="fill:#2ca02c;stroke:#2ca02c;" x="287.518458" xlink:href="#mdcc4f24e04" y="254.845394"/>
     <use style="fill:#2ca02c;stroke:#2ca02c;" x="312.547167" xlink:href="#mdcc4f24e04" y="254.845394"/>
     <use style="fill:#2ca02c;stroke:#2ca02c;" x="337.575875" xlink:href="#mdcc4f24e04" y="249.666729"/>
     <use style="fill:#2ca02c;stroke:#2ca02c;" x="362.604583" xlink:href="#mdcc4f24e04" y="239.309398"/>
     <use style="fill:#2ca02c;stroke:#2ca02c;" x="387.633291" xlink:href="#mdcc4f24e04" y="223.773402"/>
     <use style="fill:#2ca02c;stroke:#2ca02c;" x="412.661999" xlink:href="#mdcc4f24e04" y="203.058741"/>
     <use style="fill:#2ca02c;stroke:#2ca02c;" x="437.690707" xlink:href="#mdcc4f24e04" y="177.165414"/>
     <use style="fill:#2ca02c;stroke:#2ca02c;" x="462.719415" xlink:href="#mdcc4f24e04" y="146.093422"/>
     <use style="fill:#2ca02c;stroke:#2ca02c;" x="487.748124" xlink:href="#mdcc4f24e04" y="109.842765"/>
     <use style="fill:#2ca02c;stroke:#2ca02c;" x="512.776832" xlink:href="#mdcc4f24e04" y="68.413442"/>
     <use style="fill:#2ca02c;stroke:#2ca02c;" x="537.80554" xlink:href="#mdcc4f24e04" y="21.805455"/>
    </g>
   </g>
   <g id="matplotlib.axis_1">
    <g id="xtick_1">
     <g id="line2d_1">
      <defs>
       <path d="M 0 0
L 0 3.5
" id="m8ac835c85b" style="stroke:#000000;stroke-width:0.8;"/>
      </defs>
      <g>
       <use style="stroke:#000000;stroke-width:0.8;" x="62.260085" xlink:href="#m8ac835c85b" y="328.52"/>
      </g>
     </g>
     <g id="text_1">
      <!-- −4 -->
      <g transform="translate(54.888991 343.118437)scale(0.1 -0.1)">
       <defs>
        <path d="M 10.59375 35.5
L 73.1875 35.5
L 73.1875 27.203125
L 10.59375 27.203125
z
" id="DejaVuSans-8722"/>
        <path d="M 37.796875 64.3125
L 12.890625 25.390625
L 37.796875 25.390625
z
M 35.203125 72.90625
L 47.609375 72.90625
L 47.609375 25.390625
L 58.015625 25.390625
L 58.015625 17.1875
L 47.609375 17.1875
L 47.609375 0
L 37.796875 0
L 37.796875 17.1875
L 4.890625 17.1875
L 4.890625 26.703125
z
" id="DejaVuSans-52"/>
       </defs>
       <use xlink:href="#DejaVuSans-8722"/>
       <use x="83.789062" xlink:href="#DejaVuSans-52"/>
      </g>
     </g>
    </g>
    <g id="xtick_2">
     <g id="line2d_2">
      <g>
       <use style="stroke:#000000;stroke-width:0.8;" x="121.703267" xlink:href="#m8ac835c85b" y="328.52"/>
      </g>
     </g>
     <g id="text_2">
      <!-- −3 -->
      <g transform="translate(114.332173 343.118437)scale(0.1 -0.1)">
       <defs>
        <path d="M 40.578125 39.3125
Q 47.65625 37.796875 51.625 33
Q 55.609375 28.21875 55.609375 21.1875
Q 55.609375 10.40625 48.1875 4.484375
Q 40.765625 -1.421875 27.09375 -1.421875
Q 22.515625 -1.421875 17.65625 -0.515625
Q 12.796875 0.390625 7.625 2.203125
L 7.625 11.71875
Q 11.71875 9.328125 16.59375 8.109375
Q 21.484375 6.890625 26.8125 6.890625
Q 36.078125 6.890625 40.9375 10.546875
Q 45.796875 14.203125 45.796875 21.1875
Q 45.796875 27.640625 41.28125 31.265625
Q 36.765625 34.90625 28.71875 34.90625
L 20.21875 34.90625
L 20.21875 43.015625
L 29.109375 43.015625
Q 36.375 43.015625 40.234375 45.921875
Q 44.09375 48.828125 44.09375 54.296875
Q 44.09375 59.90625 40.109375 62.90625
Q 36.140625 65.921875 28.71875 65.921875
Q 24.65625 65.921875 20.015625 65.03125
Q 15.375 64.15625 9.8125 62.3125
L 9.8125 71.09375
Q 15.4375 72.65625 20.34375 73.4375
Q 25.25 74.21875 29.59375 74.21875
Q 40.828125 74.21875 47.359375 69.109375
Q 53.90625 64.015625 53.90625 55.328125
Q 53.90625 49.265625 50.4375 45.09375
Q 46.96875 40.921875 40.578125 39.3125
z
" id="DejaVuSans-51"/>
       </defs>
       <use xlink:href="#DejaVuSans-8722"/>
       <use x="83.789062" xlink:href="#DejaVuSans-51"/>
      </g>
     </g>
    </g>
    <g id="xtick_3">
     <g id="line2d_3">
      <g>
       <use style="stroke:#000000;stroke-width:0.8;" x="181.146449" xlink:href="#m8ac835c85b" y="328.52"/>
      </g>
     </g>
     <g id="text_3">
      <!-- −2 -->
      <g transform="translate(173.775355 343.118437)scale(0.1 -0.1)">
       <defs>
        <path d="M 19.1875 8.296875
L 53.609375 8.296875
L 53.609375 0
L 7.328125 0
L 7.328125 8.296875
Q 12.9375 14.109375 22.625 23.890625
Q 32.328125 33.6875 34.8125 36.53125
Q 39.546875 41.84375 41.421875 45.53125
Q 43.3125 49.21875 43.3125 52.78125
Q 43.3125 58.59375 39.234375 62.25
Q 35.15625 65.921875 28.609375 65.921875
Q 23.96875 65.921875 18.8125 64.3125
Q 13.671875 62.703125 7.8125 59.421875
L 7.8125 69.390625
Q 13.765625 71.78125 18.9375 73
Q 24.125 74.21875 28.421875 74.21875
Q 39.75 74.21875 46.484375 68.546875
Q 53.21875 62.890625 53.21875 53.421875
Q 53.21875 48.921875 51.53125 44.890625
Q 49.859375 40.875 45.40625 35.40625
Q 44.1875 33.984375 37.640625 27.21875
Q 31.109375 20.453125 19.1875 8.296875
z
" id="DejaVuSans-50"/>
       </defs>
       <use xlink:href="#DejaVuSans-8722"/>
       <use x="83.789062" xlink:href="#DejaVuSans-50"/>
      </g>
     </g>
    </g>
    <g id="xtick_4">
     <g id="line2d_4">
      <g>
       <use style="stroke:#000000;stroke-width:0.8;" x="240.589631" xlink:href="#m8ac835c85b" y="328.52"/>
      </g>
     </g>
     <g id="text_4">
      <!-- −1 -->
      <g transform="translate(233.218537 343.118437)scale(0.1 -0.1)">
       <defs>
        <path d="M 12.40625 8.296875
L 28.515625 8.296875
L 28.515625 63.921875
L 10.984375 60.40625
L 10.984375 69.390625
L 28.421875 72.90625
L 38.28125 72.90625
L 38.28125 8.296875
L 54.390625 8.296875
L 54.390625 0
L 12.40625 0
z
" id="DejaVuSans-49"/>
       </defs>
       <use xlink:href="#DejaVuSans-8722"/>
       <use x="83.789062" xlink:href="#DejaVuSans-49"/>
      </g>
     </g>
    </g>
    <g id="xtick_5">
     <g id="line2d_5">
      <g>
       <use style="stroke:#000000;stroke-width:0.8;" x="300.032812" xlink:href="#m8ac835c85b" y="328.52"/>
      </g>
     </g>
     <g id="text_5">
      <!-- 0 -->
      <g transform="translate(296.851562 343.118437)scale(0.1 -0.1)">
       <defs>
        <path d="M 31.78125 66.40625
Q 24.171875 66.40625 20.328125 58.90625
Q 16.5 51.421875 16.5 36.375
Q 16.5 21.390625 20.328125 13.890625
Q 24.171875 6.390625 31.78125 6.390625
Q 39.453125 6.390625 43.28125 13.890625
Q 47.125 21.390625 47.125 36.375
Q 47.125 51.421875 43.28125 58.90625
Q 39.453125 66.40625 31.78125 66.40625
z
M 31.78125 74.21875
Q 44.046875 74.21875 50.515625 64.515625
Q 56.984375 54.828125 56.984375 36.375
Q 56.984375 17.96875 50.515625 8.265625
Q 44.046875 -1.421875 31.78125 -1.421875
Q 19.53125 -1.421875 13.0625 8.265625
Q 6.59375 17.96875 6.59375 36.375
Q 6.59375 54.828125 13.0625 64.515625
Q 19.53125 74.21875 31.78125 74.21875
z
" id="DejaVuSans-48"/>
       </defs>
       <use xlink:href="#DejaVuSans-48"/>
      </g>
     </g>
    </g>
    <g id="xtick_6">
     <g id="line2d_6">
      <g>
       <use style="stroke:#000000;stroke-width:0.8;" x="359.475994" xlink:href="#m8ac835c85b" y="328.52"/>
      </g>
     </g>
     <g id="text_6">
      <!-- 1 -->
      <g transform="translate(356.294744 343.118437)scale(0.1 -0.1)">
       <use xlink:href="#DejaVuSans-49"/>
      </g>
     </g>
    </g>
    <g id="xtick_7">
     <g id="line2d_7">
      <g>
       <use style="stroke:#000000;stroke-width:0.8;" x="418.919176" xlink:href="#m8ac835c85b" y="328.52"/>
      </g>
     </g>
     <g id="text_7">
      <!-- 2 -->
      <g transform="translate(415.737926 343.118437)scale(0.1 -0.1)">
       <use xlink:href="#DejaVuSans-50"/>
      </g>
     </g>
    </g>
    <g id="xtick_8">
     <g id="line2d_8">
      <g>
       <use style="stroke:#000000;stroke-width:0.8;" x="478.362358" xlink:href="#m8ac835c85b" y="328.52"/>
      </g>
     </g>
     <g id="text_8">
      <!-- 3 -->
      <g transform="translate(475.181108 343.118437)scale(0.1 -0.1)">
       <use xlink:href="#DejaVuSans-51"/>
      </g>
     </g>
    </g>
    <g id="xtick_9">
     <g id="line2d_9">
      <g>
       <use style="stroke:#000000;stroke-width:0.8;" x="537.80554" xlink:href="#m8ac835c85b" y="328.52"/>
      </g>
     </g>
     <g id="text_9">
      <!-- 4 -->
      <g transform="translate(534.62429 343.118437)scale(0.1 -0.1)">
       <use xlink:href="#DejaVuSans-52"/>
      </g>
     </g>
    </g>
   </g>
   <g id="matplotlib.axis_2">
    <g id="ytick_1">
     <g id="line2d_10">
      <defs>
       <path d="M 0 0
L -3.5 0
" id="m681c71ec11" style="stroke:#000000;stroke-width:0.8;"/>
      </defs>
      <g>
       <use style="stroke:#000000;stroke-width:0.8;" x="38.482813" xlink:href="#m681c71ec11" y="328.52"/>
      </g>
     </g>
     <g id="text_10">
      <!-- −5.0 -->
      <g transform="translate(7.2 332.319219)scale(0.1 -0.1)">
       <defs>
        <path d="M 10.796875 72.90625
L 49.515625 72.90625
L 49.515625 64.59375
L 19.828125 64.59375
L 19.828125 46.734375
Q 21.96875 47.46875 24.109375 47.828125
Q 26.265625 48.1875 28.421875 48.1875
Q 40.625 48.1875 47.75 41.5
Q 54.890625 34.8125 54.890625 23.390625
Q 54.890625 11.625 47.5625 5.09375
Q 40.234375 -1.421875 26.90625 -1.421875
Q 22.3125 -1.421875 17.546875 -0.640625
Q 12.796875 0.140625 7.71875 1.703125
L 7.71875 11.625
Q 12.109375 9.234375 16.796875 8.0625
Q 21.484375 6.890625 26.703125 6.890625
Q 35.15625 6.890625 40.078125 11.328125
Q 45.015625 15.765625 45.015625 23.390625
Q 45.015625 31 40.078125 35.4375
Q 35.15625 39.890625 26.703125 39.890625
Q 22.75 39.890625 18.8125 39.015625
Q 14.890625 38.140625 10.796875 36.28125
z
" id="DejaVuSans-53"/>
        <path d="M 10.6875 12.40625
L 21 12.40625
L 21 0
L 10.6875 0
z
" id="DejaVuSans-46"/>
       </defs>
       <use xlink:href="#DejaVuSans-8722"/>
       <use x="83.789062" xlink:href="#DejaVuSans-53"/>
       <use x="147.412109" xlink:href="#DejaVuSans-46"/>
       <use x="179.199219" xlink:href="#DejaVuSans-48"/>
      </g>
     </g>
    </g>
    <g id="ytick_2">
     <g id="line2d_11">
      <g>
       <use style="stroke:#000000;stroke-width:0.8;" x="38.482813" xlink:href="#m681c71ec11" y="292.006364"/>
      </g>
     </g>
     <g id="text_11">
      <!-- −2.5 -->
      <g transform="translate(7.2 295.805582)scale(0.1 -0.1)">
       <use xlink:href="#DejaVuSans-8722"/>
       <use x="83.789062" xlink:href="#DejaVuSans-50"/>
       <use x="147.412109" xlink:href="#DejaVuSans-46"/>
       <use x="179.199219" xlink:href="#DejaVuSans-53"/>
      </g>
     </g>
    </g>
    <g id="ytick_3">
     <g id="line2d_12">
      <g>
       <use style="stroke:#000000;stroke-width:0.8;" x="38.482813" xlink:href="#m681c71ec11" y="255.492727"/>
      </g>
     </g>
     <g id="text_12">
      <!-- 0.0 -->
      <g transform="translate(15.579688 259.291946)scale(0.1 -0.1)">
       <use xlink:href="#DejaVuSans-48"/>
       <use x="63.623047" xlink:href="#DejaVuSans-46"/>
       <use x="95.410156" xlink:href="#DejaVuSans-48"/>
      </g>
     </g>
    </g>
    <g id="ytick_4">
     <g id="line2d_13">
      <g>
       <use style="stroke:#000000;stroke-width:0.8;" x="38.482813" xlink:href="#m681c71ec11" y="218.979091"/>
      </g>
     </g>
     <g id="text_13">
      <!-- 2.5 -->
      <g transform="translate(15.579688 222.77831)scale(0.1 -0.1)">
       <use xlink:href="#DejaVuSans-50"/>
       <use x="63.623047" xlink:href="#DejaVuSans-46"/>
       <use x="95.410156" xlink:href="#DejaVuSans-53"/>
      </g>
     </g>
    </g>
    <g id="ytick_5">
     <g id="line2d_14">
      <g>
       <use style="stroke:#000000;stroke-width:0.8;" x="38.482813" xlink:href="#m681c71ec11" y="182.465455"/>
      </g>
     </g>
     <g id="text_14">
      <!-- 5.0 -->
      <g transform="translate(15.579688 186.264673)scale(0.1 -0.1)">
       <use xlink:href="#DejaVuSans-53"/>
       <use x="63.623047" xlink:href="#DejaVuSans-46"/>
       <use x="95.410156" xlink:href="#DejaVuSans-48"/>
      </g>
     </g>
    </g>
    <g id="ytick_6">
     <g id="line2d_15">
      <g>
       <use style="stroke:#000000;stroke-width:0.8;" x="38.482813" xlink:href="#m681c71ec11" y="145.951818"/>
      </g>
     </g>
     <g id="text_15">
      <!-- 7.5 -->
      <g transform="translate(15.579688 149.751037)scale(0.1 -0.1)">
       <defs>
        <path d="M 8.203125 72.90625
L 55.078125 72.90625
L 55.078125 68.703125
L 28.609375 0
L 18.3125 0
L 43.21875 64.59375
L 8.203125 64.59375
z
" id="DejaVuSans-55"/>
       </defs>
       <use xlink:href="#DejaVuSans-55"/>
       <use x="63.623047" xlink:href="#DejaVuSans-46"/>
       <use x="95.410156" xlink:href="#DejaVuSans-53"/>
      </g>
     </g>
    </g>
    <g id="ytick_7">
     <g id="line2d_16">
      <g>
       <use style="stroke:#000000;stroke-width:0.8;" x="38.482813" xlink:href="#m681c71ec11" y="109.438182"/>
      </g>
     </g>
     <g id="text_16">
      <!-- 10.0 -->
      <g transform="translate(9.217188 113.237401)scale(0.1 -0.1)">
       <use xlink:href="#DejaVuSans-49"/>
       <use x="63.623047" xlink:href="#DejaVuSans-48"/>
       <use x="127.246094" xlink:href="#DejaVuSans-46"/>
       <use x="159.033203" xlink:href="#DejaVuSans-48"/>
      </g>
     </g>
    </g>
    <g id="ytick_8">
     <g id="line2d_17">
      <g>
       <use style="stroke:#000000;stroke-width:0.8;" x="38.482813" xlink:href="#m681c71ec11" y="72.924545"/>
      </g>
     </g>
     <g id="text_17">
      <!-- 12.5 -->
      <g transform="translate(9.217188 76.723764)scale(0.1 -0.1)">
       <use xlink:href="#DejaVuSans-49"/>
       <use x="63.623047" xlink:href="#DejaVuSans-50"/>
       <use x="127.246094" xlink:href="#DejaVuSans-46"/>
       <use x="159.033203" xlink:href="#DejaVuSans-53"/>
      </g>
     </g>
    </g>
    <g id="ytick_9">
     <g id="line2d_18">
      <g>
       <use style="stroke:#000000;stroke-width:0.8;" x="38.482813" xlink:href="#m681c71ec11" y="36.410909"/>
      </g>
     </g>
     <g id="text_18">
      <!-- 15.0 -->
      <g transform="translate(9.217188 40.210128)scale(0.1 -0.1)">
       <use xlink:href="#DejaVuSans-49"/>
       <use x="63.623047" xlink:href="#DejaVuSans-53"/>
       <use x="127.246094" xlink:href="#DejaVuSans-46"/>
       <use x="159.033203" xlink:href="#DejaVuSans-48"/>
      </g>
     </g>
    </g>
   </g>
   <g id="patch_3">
    <path d="M 38.482813 328.52
L 38.482813 7.2
" style="fill:none;stroke:#000000;stroke-linecap:square;stroke-linejoin:miter;stroke-width:0.8;"/>
   </g>
   <g id="patch_4">
    <path d="M 561.582812 328.52
L 561.582812 7.2
" style="fill:none;stroke:#000000;stroke-linecap:square;stroke-linejoin:miter;stroke-width:0.8;"/>
   </g>
   <g id="patch_5">
    <path d="M 38.482813 328.52
L 561.582812 328.52
" style="fill:none;stroke:#000000;stroke-linecap:square;stroke-linejoin:miter;stroke-width:0.8;"/>
   </g>
   <g id="patch_6">
    <path d="M 38.482813 7.2
L 561.582812 7.2
" style="fill:none;stroke:#000000;stroke-linecap:square;stroke-linejoin:miter;stroke-width:0.8;"/>
   </g>
  </g>
 </g>
 <defs>
  <clipPath id="pbba1b36a9f">
   <rect height="321.32" width="523.1" x="38.482813" y="7.2"/>
  </clipPath>
 </defs>
</svg>
