<?xml version="1.0" encoding="utf-8" standalone="no"?>
<!DOCTYPE svg PUBLIC "-//W3C//DTD SVG 1.1//EN"
  "http://www.w3.org/Graphics/SVG/1.1/DTD/svg11.dtd">
<!-- Created with matplotlib (https://matplotlib.org/) -->
<svg height="352.572465pt" version="1.1" viewBox="0 0 499.030774 352.572465" width="499.030774pt" xmlns="http://www.w3.org/2000/svg" xmlns:xlink="http://www.w3.org/1999/xlink">
 <metadata>
  <rdf:RDF xmlns:cc="http://creativecommons.org/ns#" xmlns:dc="http://purl.org/dc/elements/1.1/" xmlns:rdf="http://www.w3.org/1999/02/22-rdf-syntax-ns#">
   <cc:Work>
    <dc:type rdf:resource="http://purl.org/dc/dcmitype/StillImage"/>
    <dc:date>2021-03-22T21:01:07.032306</dc:date>
    <dc:format>image/svg+xml</dc:format>
    <dc:creator>
     <cc:Agent>
      <dc:title>Matplotlib v3.3.4, https://matplotlib.org/</dc:title>
     </cc:Agent>
    </dc:creator>
   </cc:Work>
  </rdf:RDF>
 </metadata>
 <defs>
  <style type="text/css">*{stroke-linecap:butt;stroke-linejoin:round;}</style>
 </defs>
 <g id="figure_1">
  <g id="patch_1">
   <path d="M 0 352.572465
L 499.030774 352.572465
L 499.030774 0
L 0 0
z
" style="fill:#ffffff;"/>
  </g>
  <g id="axes_1">
   <g id="patch_2">
    <path d="M 78.923032 313.118883
L 491.830774 313.118883
L 491.830774 8.159583
L 78.923032 8.159583
z
" style="fill:#ffffff;"/>
   </g>
   <g id="patch_3">
    <path clip-path="url(#p6136f5978e)" d="M 177.457834 177.053126
L 179.334688 180.802626
L 177.927048 180.802626
L 177.927048 189.551458
L 176.988621 189.551458
L 176.988621 180.802626
L 175.580981 180.802626
z
"/>
   </g>
   <g id="patch_4">
    <path clip-path="url(#p6136f5978e)" d="M 177.457834 198.300291
L 175.580981 194.550791
L 176.988621 194.550791
L 176.988621 189.551458
L 177.927048 189.551458
L 177.927048 194.550791
L 179.334688 194.550791
z
"/>
   </g>
   <g id="patch_5">
    <path clip-path="url(#p6136f5978e)" d="M 177.457834 227.046454
L 175.580981 223.296955
L 176.988621 223.296955
L 176.988621 214.548122
L 177.927048 214.548122
L 177.927048 223.296955
L 179.334688 223.296955
z
"/>
   </g>
   <g id="patch_6">
    <path clip-path="url(#p6136f5978e)" d="M 177.457834 205.79929
L 179.334688 209.548789
L 177.927048 209.548789
L 177.927048 214.548122
L 176.988621 214.548122
L 176.988621 209.548789
L 175.580981 209.548789
z
"/>
   </g>
   <g id="matplotlib.axis_1">
    <g id="xtick_1">
     <g id="line2d_1">
      <defs>
       <path d="M 0 0
L 0 3.5
" id="mbacf03463c" style="stroke:#000000;stroke-width:0.8;"/>
      </defs>
      <g>
       <use style="stroke:#000000;stroke-width:0.8;" x="97.691566" xlink:href="#mbacf03463c" y="313.118883"/>
      </g>
     </g>
     <g id="text_1">
      <!-- $\mathdefault{−1.00}$ -->
      <g transform="translate(84.961487 327.037382)scale(0.1 -0.1)">
       <defs>
        <path d="M 65.90625 23
C 67.59375 23 69.40625 23 69.40625 25
C 69.40625 27 67.59375 27 65.90625 27
L 11.796875 27
C 10.09375 27 8.296875 27 8.296875 25
C 8.296875 23 10.09375 23 11.796875 23
z
" id="CMSY10-0"/>
        <path d="M 26.59375 63.796875
C 26.59375 65.890625 26.5 66 25.09375 66
C 21.203125 61.359375 15.296875 59.890625 9.703125 59.6875
C 9.40625 59.6875 8.90625 59.6875 8.796875 59.5
C 8.703125 59.296875 8.703125 59.09375 8.703125 57
C 11.796875 57 17 57.59375 21 59.984375
L 21 7.296875
C 21 3.796875 20.796875 2.59375 12.203125 2.59375
L 9.203125 2.59375
L 9.203125 0
C 14 0.09375 19 0.1875 23.796875 0.1875
C 28.59375 0.1875 33.59375 0.09375 38.40625 0
L 38.40625 2.59375
L 35.40625 2.59375
C 26.796875 2.59375 26.59375 3.6875 26.59375 7.296875
z
" id="CMR17-49"/>
        <path d="M 18.40625 4.796875
C 18.40625 7.6875 16 9.6875 13.59375 9.6875
C 10.703125 9.6875 8.703125 7.296875 8.703125 4.890625
C 8.703125 2 11.09375 0 13.5 0
C 16.40625 0 18.40625 2.390625 18.40625 4.796875
z
" id="CMMI12-58"/>
        <path d="M 42 31.84375
C 42 37.96875 41.90625 48.421875 37.703125 56.453125
C 34 63.484375 28.09375 66 22.90625 66
C 18.09375 66 12 63.78125 8.203125 56.5625
C 4.203125 49.015625 3.796875 39.671875 3.796875 31.84375
C 3.796875 26.109375 3.90625 17.375 7 9.734375
C 11.296875 -0.609375 19 -2 22.90625 -2
C 27.5 -2 34.5 -0.109375 38.59375 9.4375
C 41.59375 16.375 42 24.5 42 31.84375
z
M 22.90625 -0.40625
C 16.5 -0.40625 12.703125 5.125 11.296875 12.75
C 10.203125 18.6875 10.203125 27.328125 10.203125 32.953125
C 10.203125 40.6875 10.203125 47.109375 11.5 53.234375
C 13.40625 61.78125 19 64.390625 22.90625 64.390625
C 27 64.390625 32.296875 61.671875 34.203125 53.4375
C 35.5 47.71875 35.59375 40.984375 35.59375 32.953125
C 35.59375 26.421875 35.59375 18.375 34.40625 12.453125
C 32.296875 1.5 26.40625 -0.40625 22.90625 -0.40625
z
" id="CMR17-48"/>
       </defs>
       <use transform="scale(0.996264)" xlink:href="#CMSY10-0"/>
       <use transform="translate(77.487468 0)scale(0.996264)" xlink:href="#CMR17-49"/>
       <use transform="translate(123.177945 0)scale(0.996264)" xlink:href="#CMMI12-58"/>
       <use transform="translate(150.275122 0)scale(0.996264)" xlink:href="#CMR17-48"/>
       <use transform="translate(195.965599 0)scale(0.996264)" xlink:href="#CMR17-48"/>
      </g>
     </g>
    </g>
    <g id="xtick_2">
     <g id="line2d_2">
      <g>
       <use style="stroke:#000000;stroke-width:0.8;" x="144.6129" xlink:href="#mbacf03463c" y="313.118883"/>
      </g>
     </g>
     <g id="text_2">
      <!-- $\mathdefault{−0.75}$ -->
      <g transform="translate(131.882821 327.037382)scale(0.1 -0.1)">
       <defs>
        <path d="M 45.09375 61.796875
L 45.09375 64
L 21.59375 64
C 9.90625 64 9.703125 65.09375 9.296875 67
L 7.5 67
L 4.59375 48.5
L 6.40625 48.5
C 6.703125 50.40625 7.40625 55.5 8.59375 57.390625
C 9.203125 58.1875 16.59375 58.1875 18.296875 58.1875
L 40.296875 58.1875
L 29.203125 41.71875
C 21.796875 30.640625 16.703125 15.671875 16.703125 2.59375
C 16.703125 1.390625 16.703125 -2 20.296875 -2
C 23.90625 -2 23.90625 1.390625 23.90625 2.6875
L 23.90625 7.28125
C 23.90625 23.65625 26.703125 34.4375 31.296875 41.3125
z
" id="CMR17-55"/>
        <path d="M 11.40625 58.59375
C 12.40625 58.1875 16.5 56.890625 20.703125 56.890625
C 30 56.890625 35.09375 61.890625 38 64.6875
C 38 65.484375 38 66 37.40625 66
C 37.296875 66 37.09375 66 36.296875 65.59375
C 32.796875 64.09375 28.703125 63 23.703125 63
C 20.703125 63 16.203125 63.359375 11.296875 65.484375
C 10.203125 66 10 66 9.90625 66
C 9.40625 66 9.296875 65.890625 9.296875 63.90625
L 9.296875 34.859375
C 9.296875 33.015625 9.296875 32.5 10.296875 32.5
C 10.796875 32.5 11 32.703125 11.5 33.421875
C 14.703125 38.046875 19.09375 40 24.09375 40
C 27.59375 40 35.09375 37.734375 35.09375 20.203125
C 35.09375 16.984375 35.09375 11.1875 32.09375 6.59375
C 29.59375 2.484375 25.703125 0.390625 21.40625 0.390625
C 14.796875 0.390625 8.09375 4.984375 6.296875 12.6875
C 6.703125 12.59375 7.5 12.390625 7.90625 12.390625
C 9.203125 12.390625 11.703125 13.09375 11.703125 16.1875
C 11.703125 18.890625 9.796875 20 7.90625 20
C 5.59375 20 4.09375 18.59375 4.09375 15.796875
C 4.09375 7.09375 11 -2 21.59375 -2
C 31.90625 -2 41.703125 6.890625 41.703125 19.796875
C 41.703125 32.09375 33.90625 41.59375 24.203125 41.59375
C 19.09375 41.59375 14.796875 39.6875 11.40625 36
z
" id="CMR17-53"/>
       </defs>
       <use transform="scale(0.996264)" xlink:href="#CMSY10-0"/>
       <use transform="translate(77.487468 0)scale(0.996264)" xlink:href="#CMR17-48"/>
       <use transform="translate(123.177945 0)scale(0.996264)" xlink:href="#CMMI12-58"/>
       <use transform="translate(150.275122 0)scale(0.996264)" xlink:href="#CMR17-55"/>
       <use transform="translate(195.965599 0)scale(0.996264)" xlink:href="#CMR17-53"/>
      </g>
     </g>
    </g>
    <g id="xtick_3">
     <g id="line2d_3">
      <g>
       <use style="stroke:#000000;stroke-width:0.8;" x="191.534235" xlink:href="#mbacf03463c" y="313.118883"/>
      </g>
     </g>
     <g id="text_3">
      <!-- $\mathdefault{−0.50}$ -->
      <g transform="translate(178.804156 327.037382)scale(0.1 -0.1)">
       <use transform="scale(0.996264)" xlink:href="#CMSY10-0"/>
       <use transform="translate(77.487468 0)scale(0.996264)" xlink:href="#CMR17-48"/>
       <use transform="translate(123.177945 0)scale(0.996264)" xlink:href="#CMMI12-58"/>
       <use transform="translate(150.275122 0)scale(0.996264)" xlink:href="#CMR17-53"/>
       <use transform="translate(195.965599 0)scale(0.996264)" xlink:href="#CMR17-48"/>
      </g>
     </g>
    </g>
    <g id="xtick_4">
     <g id="line2d_4">
      <g>
       <use style="stroke:#000000;stroke-width:0.8;" x="238.455569" xlink:href="#mbacf03463c" y="313.118883"/>
      </g>
     </g>
     <g id="text_4">
      <!-- $\mathdefault{−0.25}$ -->
      <g transform="translate(225.72549 327.037382)scale(0.1 -0.1)">
       <defs>
        <path d="M 41.703125 15.46875
L 39.90625 15.46875
C 38.90625 8.390625 38.09375 7.1875 37.703125 6.59375
C 37.203125 5.796875 30 5.796875 28.59375 5.796875
L 9.40625 5.796875
C 13 9.6875 20 16.765625 28.5 24.9375
C 34.59375 30.71875 41.703125 37.5 41.703125 47.390625
C 41.703125 59.1875 32.296875 66 21.796875 66
C 10.796875 66 4.09375 56.296875 4.09375 47.296875
C 4.09375 43.390625 7 42.890625 8.203125 42.890625
C 9.203125 42.890625 12.203125 43.484375 12.203125 46.984375
C 12.203125 50.09375 9.59375 51 8.203125 51
C 7.59375 51 7 50.890625 6.59375 50.6875
C 8.5 59.1875 14.296875 63.390625 20.40625 63.390625
C 29.09375 63.390625 34.796875 56.5 34.796875 47.390625
C 34.796875 38.703125 29.703125 31.21875 24 24.734375
L 4.09375 2.296875
L 4.09375 0
L 39.296875 0
z
" id="CMR17-50"/>
       </defs>
       <use transform="scale(0.996264)" xlink:href="#CMSY10-0"/>
       <use transform="translate(77.487468 0)scale(0.996264)" xlink:href="#CMR17-48"/>
       <use transform="translate(123.177945 0)scale(0.996264)" xlink:href="#CMMI12-58"/>
       <use transform="translate(150.275122 0)scale(0.996264)" xlink:href="#CMR17-50"/>
       <use transform="translate(195.965599 0)scale(0.996264)" xlink:href="#CMR17-53"/>
      </g>
     </g>
    </g>
    <g id="xtick_5">
     <g id="line2d_5">
      <g>
       <use style="stroke:#000000;stroke-width:0.8;" x="285.376903" xlink:href="#mbacf03463c" y="313.118883"/>
      </g>
     </g>
     <g id="text_5">
      <!-- $\mathdefault{0.00}$ -->
      <g transform="translate(276.521196 327.037382)scale(0.1 -0.1)">
       <use transform="scale(0.996264)" xlink:href="#CMR17-48"/>
       <use transform="translate(45.690477 0)scale(0.996264)" xlink:href="#CMMI12-58"/>
       <use transform="translate(72.787654 0)scale(0.996264)" xlink:href="#CMR17-48"/>
       <use transform="translate(118.478131 0)scale(0.996264)" xlink:href="#CMR17-48"/>
      </g>
     </g>
    </g>
    <g id="xtick_6">
     <g id="line2d_6">
      <g>
       <use style="stroke:#000000;stroke-width:0.8;" x="332.298238" xlink:href="#mbacf03463c" y="313.118883"/>
      </g>
     </g>
     <g id="text_6">
      <!-- $\mathdefault{0.25}$ -->
      <g transform="translate(323.44253 327.037382)scale(0.1 -0.1)">
       <use transform="scale(0.996264)" xlink:href="#CMR17-48"/>
       <use transform="translate(45.690477 0)scale(0.996264)" xlink:href="#CMMI12-58"/>
       <use transform="translate(72.787654 0)scale(0.996264)" xlink:href="#CMR17-50"/>
       <use transform="translate(118.478131 0)scale(0.996264)" xlink:href="#CMR17-53"/>
      </g>
     </g>
    </g>
    <g id="xtick_7">
     <g id="line2d_7">
      <g>
       <use style="stroke:#000000;stroke-width:0.8;" x="379.219572" xlink:href="#mbacf03463c" y="313.118883"/>
      </g>
     </g>
     <g id="text_7">
      <!-- $\mathdefault{0.50}$ -->
      <g transform="translate(370.363865 327.037382)scale(0.1 -0.1)">
       <use transform="scale(0.996264)" xlink:href="#CMR17-48"/>
       <use transform="translate(45.690477 0)scale(0.996264)" xlink:href="#CMMI12-58"/>
       <use transform="translate(72.787654 0)scale(0.996264)" xlink:href="#CMR17-53"/>
       <use transform="translate(118.478131 0)scale(0.996264)" xlink:href="#CMR17-48"/>
      </g>
     </g>
    </g>
    <g id="xtick_8">
     <g id="line2d_8">
      <g>
       <use style="stroke:#000000;stroke-width:0.8;" x="426.140906" xlink:href="#mbacf03463c" y="313.118883"/>
      </g>
     </g>
     <g id="text_8">
      <!-- $\mathdefault{0.75}$ -->
      <g transform="translate(417.285199 327.037382)scale(0.1 -0.1)">
       <use transform="scale(0.996264)" xlink:href="#CMR17-48"/>
       <use transform="translate(45.690477 0)scale(0.996264)" xlink:href="#CMMI12-58"/>
       <use transform="translate(72.787654 0)scale(0.996264)" xlink:href="#CMR17-55"/>
       <use transform="translate(118.478131 0)scale(0.996264)" xlink:href="#CMR17-53"/>
      </g>
     </g>
    </g>
    <g id="xtick_9">
     <g id="line2d_9">
      <g>
       <use style="stroke:#000000;stroke-width:0.8;" x="473.06224" xlink:href="#mbacf03463c" y="313.118883"/>
      </g>
     </g>
     <g id="text_9">
      <!-- $\mathdefault{1.00}$ -->
      <g transform="translate(464.206533 327.037382)scale(0.1 -0.1)">
       <use transform="scale(0.996264)" xlink:href="#CMR17-49"/>
       <use transform="translate(45.690477 0)scale(0.996264)" xlink:href="#CMMI12-58"/>
       <use transform="translate(72.787654 0)scale(0.996264)" xlink:href="#CMR17-48"/>
       <use transform="translate(118.478131 0)scale(0.996264)" xlink:href="#CMR17-48"/>
      </g>
     </g>
    </g>
    <g id="text_10">
     <!-- $x$ -->
     <g transform="translate(281.496519 342.660436)scale(0.14 -0.14)">
      <defs>
       <path d="M 47.40625 41
C 44.203125 40.390625 43 37.984375 43 36.09375
C 43 33.6875 44.90625 32.890625 46.296875 32.890625
C 49.296875 32.890625 51.40625 35.484375 51.40625 38.1875
C 51.40625 42.09375 46.59375 44 42.40625 44
C 36.296875 44 32.90625 38.296875 32 36.390625
C 29.703125 43.59375 23.5 44 21.703125 44
C 11.5 44 6.09375 31.140625 6.09375 28.890625
C 6.09375 28.484375 6.5 27.96875 7.203125 27.96875
C 8 27.96875 8.203125 28.578125 8.40625 28.984375
C 11.796875 40.1875 18.5 41.984375 21.40625 41.984375
C 25.90625 41.984375 26.796875 38.09375 26.796875 35.6875
C 26.796875 33.484375 26.203125 31.140625 25 26.21875
L 21.59375 12.15625
C 20.09375 6.09375 17.203125 1 11.90625 1
C 11.40625 1 8.90625 1 6.796875 1.96875
C 10.40625 2.59375 11.203125 5.59375 11.203125 6.796875
C 11.203125 8.796875 9.703125 10 7.796875 10
C 5.40625 10 2.796875 7.890625 2.796875 4.6875
C 2.796875 0.890625 7.5 -1 11.796875 -1
C 16.59375 -1 20 2.390625 22.09375 6.484375
C 23.703125 1 28.703125 -1 32.40625 -1
C 42.59375 -1 48 11.734375 48 14
C 48 14.515625 47.59375 14.921875 47 14.921875
C 46.09375 14.921875 46 14.40625 45.703125 13.59375
C 43 4.6875 37.203125 1 32.703125 1
C 29.203125 1 27.296875 3.1875 27.296875 7.296875
C 27.296875 9.484375 27.703125 11.125 29.296875 17.90625
L 32.796875 31.859375
C 34.296875 37.890625 37.703125 41.984375 42.296875 41.984375
C 42.5 41.984375 45.296875 41.984375 47.40625 41
z
" id="CMMI12-120"/>
      </defs>
      <use transform="scale(0.996264)" xlink:href="#CMMI12-120"/>
     </g>
    </g>
   </g>
   <g id="matplotlib.axis_2">
    <g id="ytick_1">
     <g id="line2d_10">
      <defs>
       <path d="M 0 0
L -3.5 0
" id="m8de6d69e1b" style="stroke:#000000;stroke-width:0.8;"/>
      </defs>
      <g>
       <use style="stroke:#000000;stroke-width:0.8;" x="78.923032" xlink:href="#m8de6d69e1b" y="310.619217"/>
      </g>
     </g>
     <g id="text_11">
      <!-- $\mathdefault{−6}$ -->
      <g transform="translate(59.192953 314.078466)scale(0.1 -0.1)">
       <defs>
        <path d="M 10.59375 34.34375
C 10.59375 58 21.796875 63.6875 28.296875 63.6875
C 30.40625 63.6875 35.5 63.265625 37.5 59.09375
C 35.90625 59.09375 32.90625 59.09375 32.90625 55.59375
C 32.90625 52.890625 35.09375 52 36.5 52
C 37.40625 52 40.09375 52.390625 40.09375 55.796875
C 40.09375 62.296875 35.09375 66 28.203125 66
C 16.296875 66 3.796875 53.296875 3.796875 31.421875
C 3.796875 4.015625 15.09375 -2 23.09375 -2
C 32.796875 -2 42 6.734375 42 20.234375
C 42 32.828125 33.90625 42 23.703125 42
C 17.59375 42 13.09375 37.96875 10.59375 30.921875
z
M 23.09375 0.390625
C 10.796875 0.390625 10.796875 18.9375 10.796875 22.65625
C 10.796875 29.90625 14.203125 40.390625 23.5 40.390625
C 25.203125 40.390625 30.09375 40.390625 33.40625 33.4375
C 35.203125 29.515625 35.203125 25.375 35.203125 20.34375
C 35.203125 14.90625 35.203125 10.875 33.09375 6.84375
C 30.90625 2.703125 27.703125 0.390625 23.09375 0.390625
z
" id="CMR17-54"/>
       </defs>
       <use transform="scale(0.996264)" xlink:href="#CMSY10-0"/>
       <use transform="translate(77.487468 0)scale(0.996264)" xlink:href="#CMR17-54"/>
      </g>
     </g>
    </g>
    <g id="ytick_2">
     <g id="line2d_11">
      <g>
       <use style="stroke:#000000;stroke-width:0.8;" x="78.923032" xlink:href="#m8de6d69e1b" y="260.625889"/>
      </g>
     </g>
     <g id="text_12">
      <!-- $\mathdefault{−4}$ -->
      <g transform="translate(59.192953 264.085138)scale(0.1 -0.1)">
       <defs>
        <path d="M 33.59375 64.796875
C 33.59375 66.890625 33.5 67 31.703125 67
L 2 19.59375
L 2 17
L 27.796875 17
L 27.796875 7.1875
C 27.796875 3.59375 27.59375 2.59375 20.59375 2.59375
L 18.703125 2.59375
L 18.703125 0
C 21.90625 0.1875 27.296875 0.1875 30.703125 0.1875
C 34.09375 0.1875 39.5 0.1875 42.703125 0
L 42.703125 2.59375
L 40.796875 2.59375
C 33.796875 2.59375 33.59375 3.59375 33.59375 7.1875
L 33.59375 17
L 43.796875 17
L 43.796875 19.59375
L 33.59375 19.59375
z
M 28.09375 58.171875
L 28.09375 19.59375
L 4 19.59375
z
" id="CMR17-52"/>
       </defs>
       <use transform="scale(0.996264)" xlink:href="#CMSY10-0"/>
       <use transform="translate(77.487468 0)scale(0.996264)" xlink:href="#CMR17-52"/>
      </g>
     </g>
    </g>
    <g id="ytick_3">
     <g id="line2d_12">
      <g>
       <use style="stroke:#000000;stroke-width:0.8;" x="78.923032" xlink:href="#m8de6d69e1b" y="210.632561"/>
      </g>
     </g>
     <g id="text_13">
      <!-- $\mathdefault{−2}$ -->
      <g transform="translate(59.192953 214.09181)scale(0.1 -0.1)">
       <use transform="scale(0.996264)" xlink:href="#CMSY10-0"/>
       <use transform="translate(77.487468 0)scale(0.996264)" xlink:href="#CMR17-50"/>
      </g>
     </g>
    </g>
    <g id="ytick_4">
     <g id="line2d_13">
      <g>
       <use style="stroke:#000000;stroke-width:0.8;" x="78.923032" xlink:href="#m8de6d69e1b" y="160.639233"/>
      </g>
     </g>
     <g id="text_14">
      <!-- $\mathdefault{0}$ -->
      <g transform="translate(66.941697 164.098482)scale(0.1 -0.1)">
       <use transform="scale(0.996264)" xlink:href="#CMR17-48"/>
      </g>
     </g>
    </g>
    <g id="ytick_5">
     <g id="line2d_14">
      <g>
       <use style="stroke:#000000;stroke-width:0.8;" x="78.923032" xlink:href="#m8de6d69e1b" y="110.645905"/>
      </g>
     </g>
     <g id="text_15">
      <!-- $\mathdefault{2}$ -->
      <g transform="translate(66.941697 114.105154)scale(0.1 -0.1)">
       <use transform="scale(0.996264)" xlink:href="#CMR17-50"/>
      </g>
     </g>
    </g>
    <g id="ytick_6">
     <g id="line2d_15">
      <g>
       <use style="stroke:#000000;stroke-width:0.8;" x="78.923032" xlink:href="#m8de6d69e1b" y="60.652577"/>
      </g>
     </g>
     <g id="text_16">
      <!-- $\mathdefault{4}$ -->
      <g transform="translate(66.941697 64.111826)scale(0.1 -0.1)">
       <use transform="scale(0.996264)" xlink:href="#CMR17-52"/>
      </g>
     </g>
    </g>
    <g id="ytick_7">
     <g id="line2d_16">
      <g>
       <use style="stroke:#000000;stroke-width:0.8;" x="78.923032" xlink:href="#m8de6d69e1b" y="10.659249"/>
      </g>
     </g>
     <g id="text_17">
      <!-- $\mathdefault{6}$ -->
      <g transform="translate(66.941697 14.118498)scale(0.1 -0.1)">
       <use transform="scale(0.996264)" xlink:href="#CMR17-54"/>
      </g>
     </g>
    </g>
    <g id="text_18">
     <!-- $t$ -->
     <g transform="translate(52.480925 163.105076)rotate(-90)scale(0.14 -0.14)">
      <defs>
       <path d="M 20.09375 40.09375
L 29.296875 40.09375
C 31.203125 40.09375 32.203125 40.09375 32.203125 41.890625
C 32.203125 43 31.59375 43 29.59375 43
L 20.796875 43
L 24.5 57.25
C 24.90625 58.625 24.90625 58.8125 24.90625 59.5
C 24.90625 61.09375 23.59375 62 22.296875 62
C 21.5 62 19.203125 61.6875 18.40625 58.53125
L 14.5 43
L 5.09375 43
C 3.09375 43 2.203125 43 2.203125 41.09375
C 2.203125 40.09375 2.90625 40.09375 4.796875 40.09375
L 13.703125 40.09375
L 7.09375 13.765625
C 6.296875 10.265625 6 9.265625 6 7.96875
C 6 3.28125 9.296875 -1 14.90625 -1
C 25 -1 30.40625 13.5625 30.40625 14.265625
C 30.40625 14.859375 30 15.15625 29.40625 15.15625
C 29.203125 15.15625 28.796875 15.15625 28.59375 14.75
C 28.5 14.65625 28.40625 14.5625 27.703125 12.96875
C 25.59375 7.96875 21 1 15.203125 1
C 12.203125 1 12 3.484375 12 5.6875
C 12 5.78125 12 7.671875 12.296875 8.875
z
" id="CMMI12-116"/>
      </defs>
      <use transform="scale(0.996264)" xlink:href="#CMMI12-116"/>
     </g>
    </g>
   </g>
   <g id="line2d_17">
    <path clip-path="url(#p6136f5978e)" d="M 78.923032 329.426621
L 83.897824 318.715533
L 88.872616 308.523164
L 93.847409 298.836079
L 98.822201 289.640843
L 103.796993 280.924021
L 108.771785 272.67218
L 113.746577 264.871884
L 118.721369 257.509699
L 123.696161 250.572191
L 128.670953 244.045925
L 133.645745 237.917466
L 138.620537 232.17338
L 143.595329 226.800232
L 148.570121 221.784588
L 153.544913 217.113014
L 158.519705 212.772074
L 163.494498 208.748334
L 168.46929 205.028359
L 173.444082 201.598716
L 178.418874 198.445969
L 183.393666 195.556684
L 188.368458 192.917427
L 193.34325 190.514762
L 198.318042 188.335256
L 203.292834 186.365473
L 208.267626 184.59198
L 214.900682 182.509441
L 221.533738 180.720131
L 228.166794 179.192207
L 234.799851 177.893824
L 241.432907 176.793136
L 249.724227 175.646771
L 259.673811 174.525628
L 272.939923 173.286164
L 294.497355 171.283288
L 304.44694 170.108326
L 312.73826 168.898842
L 319.371316 167.735698
L 326.004372 166.364228
L 332.637428 164.752586
L 339.270484 162.868929
L 344.245276 161.258518
L 349.220068 159.463752
L 354.19486 157.471195
L 359.169652 155.267412
L 364.144444 152.838969
L 369.119236 150.172432
L 374.094029 147.254366
L 379.068821 144.071336
L 384.043613 140.609908
L 389.018405 136.856648
L 393.993197 132.79812
L 398.967989 128.42089
L 403.942781 123.711525
L 408.917573 118.656588
L 413.892365 113.242646
L 418.867157 107.456264
L 423.841949 101.284007
L 428.816741 94.712442
L 433.791533 87.728133
L 438.766325 80.317646
L 443.741118 72.467546
L 448.71591 64.164399
L 453.690702 55.39477
L 458.665494 46.145225
L 463.640286 36.402328
L 468.615078 26.152647
L 473.58987 15.382746
L 478.564662 4.07919
L 480.722677 -1
L 480.722677 -1
" style="fill:none;stroke:#40e0d0;stroke-linecap:square;"/>
   </g>
   <g id="line2d_18">
    <path clip-path="url(#p6136f5978e)" d="M 172.765702 353.572465
L 172.873077 292.503516
L 173.11293 283.996143
L 173.463327 278.491372
L 173.956589 273.987469
L 174.629836 269.983999
L 175.467292 266.480963
L 176.421253 263.478361
L 177.417389 260.976192
L 178.625956 258.474024
L 180.074918 255.971855
L 181.791247 253.469687
L 183.799487 250.967518
L 186.120087 248.46535
L 188.767606 245.963181
L 191.74883 243.461013
L 195.060946 240.958844
L 199.451575 237.956242
L 204.249291 234.953639
L 210.257321 231.450603
L 221.988904 224.944965
L 229.886309 220.441062
L 234.715775 217.438459
L 238.324229 214.936291
L 240.868648 212.934556
L 243.059589 210.932821
L 244.857218 208.931086
L 245.927004 207.429785
L 246.745322 205.928484
L 247.303434 204.427183
L 247.595343 202.925882
L 247.6179 201.424581
L 247.370862 199.923279
L 246.856893 198.421978
L 246.081522 196.920677
L 245.053039 195.419376
L 243.782349 193.918075
L 241.734686 191.91634
L 239.317905 189.914605
L 236.575298 187.91287
L 232.761932 185.410702
L 227.753377 182.4081
L 219.725693 177.904196
L 207.207813 170.898124
L 201.405952 167.395088
L 196.838136 164.392486
L 192.708993 161.389884
L 189.627635 158.887715
L 186.880227 156.385546
L 184.462676 153.883378
L 182.362561 151.381209
L 180.561006 148.879041
L 179.034516 146.376872
L 177.756684 143.874704
L 176.699708 141.372535
L 175.683597 138.369933
L 174.898933 135.36733
L 174.219199 131.864294
L 173.680959 127.860825
L 173.26091 122.856488
L 172.990455 116.851283
L 172.827373 107.843476
L 172.768575 89.327429
L 172.765701 -1
L 172.765701 -1
" style="fill:none;stroke:#228b22;stroke-linecap:square;stroke-opacity:0.5;"/>
   </g>
   <g id="line2d_19">
    <path clip-path="url(#p6136f5978e)" d="M 78.923032 202.04979
L 172.765701 202.04979
" style="fill:none;stroke:#228b22;stroke-dasharray:5.55,2.4;stroke-dashoffset:0;stroke-opacity:0.5;stroke-width:1.5;"/>
   </g>
   <g id="line2d_20">
    <path clip-path="url(#p6136f5978e)" d="M 172.765701 313.118883
L 172.765701 202.04979
" style="fill:none;stroke:#228b22;stroke-dasharray:5.55,2.4;stroke-dashoffset:0;stroke-opacity:0.5;stroke-width:1.5;"/>
   </g>
   <g id="patch_7">
    <path d="M 78.923032 313.118883
L 78.923032 8.159583
" style="fill:none;stroke:#000000;stroke-linecap:square;stroke-linejoin:miter;stroke-width:0.8;"/>
   </g>
   <g id="patch_8">
    <path d="M 491.830774 313.118883
L 491.830774 8.159583
" style="fill:none;stroke:#000000;stroke-linecap:square;stroke-linejoin:miter;stroke-width:0.8;"/>
   </g>
   <g id="patch_9">
    <path d="M 78.923032 313.118883
L 491.830774 313.118883
" style="fill:none;stroke:#000000;stroke-linecap:square;stroke-linejoin:miter;stroke-width:0.8;"/>
   </g>
   <g id="patch_10">
    <path d="M 78.923032 8.159583
L 491.830774 8.159583
" style="fill:none;stroke:#000000;stroke-linecap:square;stroke-linejoin:miter;stroke-width:0.8;"/>
   </g>
   <g id="PathCollection_1">
    <defs>
     <path d="M 0 1.767767
C 0.468817 1.767767 0.918496 1.581504 1.25 1.25
C 1.581504 0.918496 1.767767 0.468817 1.767767 -0
C 1.767767 -0.468817 1.581504 -0.918496 1.25 -1.25
C 0.918496 -1.581504 0.468817 -1.767767 0 -1.767767
C -0.468817 -1.767767 -0.918496 -1.581504 -1.25 -1.25
C -1.581504 -0.918496 -1.767767 -0.468817 -1.767767 0
C -1.767767 0.468817 -1.581504 0.918496 -1.25 1.25
C -0.918496 1.581504 -0.468817 1.767767 0 1.767767
z
" id="C0_0_e55dd6c111"/>
    </defs>
    <g clip-path="url(#p6136f5978e)">
     <use style="fill:none;stroke:#ff00ff;" x="97.691566" xlink:href="#C0_0_e55dd6c111" y="283.122886"/>
    </g>
    <g clip-path="url(#p6136f5978e)">
     <use style="fill:none;stroke:#ff00ff;" x="135.228633" xlink:href="#C0_0_e55dd6c111" y="248.127557"/>
    </g>
    <g clip-path="url(#p6136f5978e)">
     <use style="fill:none;stroke:#ff00ff;" x="172.765701" xlink:href="#C0_0_e55dd6c111" y="230.629892"/>
    </g>
    <g clip-path="url(#p6136f5978e)">
     <use style="fill:none;stroke:#ff00ff;" x="210.302768" xlink:href="#C0_0_e55dd6c111" y="140.641902"/>
    </g>
    <g clip-path="url(#p6136f5978e)">
     <use style="fill:none;stroke:#ff00ff;" x="247.839836" xlink:href="#C0_0_e55dd6c111" y="153.140234"/>
    </g>
    <g clip-path="url(#p6136f5978e)">
     <use style="fill:none;stroke:#ff00ff;" x="285.376903" xlink:href="#C0_0_e55dd6c111" y="200.633895"/>
    </g>
    <g clip-path="url(#p6136f5978e)">
     <use style="fill:none;stroke:#ff00ff;" x="322.913971" xlink:href="#C0_0_e55dd6c111" y="193.134896"/>
    </g>
    <g clip-path="url(#p6136f5978e)">
     <use style="fill:none;stroke:#ff00ff;" x="360.451038" xlink:href="#C0_0_e55dd6c111" y="148.140901"/>
    </g>
    <g clip-path="url(#p6136f5978e)">
     <use style="fill:none;stroke:#ff00ff;" x="397.988106" xlink:href="#C0_0_e55dd6c111" y="108.146239"/>
    </g>
    <g clip-path="url(#p6136f5978e)">
     <use style="fill:none;stroke:#ff00ff;" x="435.525173" xlink:href="#C0_0_e55dd6c111" y="88.148907"/>
    </g>
    <g clip-path="url(#p6136f5978e)">
     <use style="fill:none;stroke:#ff00ff;" x="473.06224" xlink:href="#C0_0_e55dd6c111" y="20.657915"/>
    </g>
   </g>
   <g id="text_19">
    <!-- $\sigma$ -->
    <g transform="translate(181.083471 191.041351)scale(0.11 -0.11)">
     <defs>
      <path d="M 50.796875 37.59375
C 52.09375 37.59375 55.40625 37.59375 55.40625 40.796875
C 55.40625 43 53.5 43 51.703125 43
L 29.59375 43
C 14.59375 43 3.796875 26.328125 3.796875 14.5625
C 3.796875 6.078125 9.296875 -1 18.296875 -1
C 30.09375 -1 43 11.65625 43 26.625
C 43 30.515625 42.09375 34.296875 39.703125 37.59375
z
M 18.40625 1
C 13.296875 1 9.59375 4.875 9.59375 11.765625
C 9.59375 17.75 13.203125 37.59375 27.90625 37.59375
C 32.203125 37.59375 37 35.5 37 27.8125
C 37 24.328125 35.40625 15.953125 31.90625 10.171875
C 28.296875 4.28125 22.90625 1 18.40625 1
z
" id="CMMI12-27"/>
     </defs>
     <use transform="scale(0.996264)" xlink:href="#CMMI12-27"/>
    </g>
   </g>
   <g id="text_20">
    <!-- $\sigma$ -->
    <g transform="translate(181.083471 219.787515)scale(0.11 -0.11)">
     <use transform="scale(0.996264)" xlink:href="#CMMI12-27"/>
    </g>
   </g>
   <g id="text_21">
    <!-- $h(\mathbf{x}_i, \mathbf{w})$ -->
    <g style="fill:#228b22;" transform="translate(7.2 206.532408)scale(0.18 -0.18)">
     <defs>
      <path d="M 28.09375 66.484375
C 28.203125 66.890625 28.40625 67.484375 28.40625 67.984375
C 28.40625 69 27.40625 69 27.203125 69
C 27.09375 69 22.203125 68.59375 21.703125 68.484375
C 20 68.390625 18.5 68.1875 16.703125 68.09375
C 14.203125 67.890625 13.5 67.796875 13.5 65.984375
C 13.5 64.984375 14.296875 64.984375 15.703125 64.984375
C 20.59375 64.984375 20.703125 64.109375 20.703125 63.125
C 20.703125 62.53125 20.5 61.734375 20.40625 61.4375
L 5.90625 3.890625
C 5.5 2.390625 5.5 2.1875 5.5 1.59375
C 5.5 -0.609375 7.203125 -1 8.203125 -1
C 9.90625 -1 11.203125 0.296875 11.703125 1.390625
L 16.203125 19.453125
C 16.703125 21.640625 17.296875 23.734375 17.796875 25.9375
C 18.90625 30.125 18.90625 30.21875 20.796875 33.109375
C 22.703125 36.015625 27.203125 41.984375 34.90625 41.984375
C 38.90625 41.984375 40.296875 39 40.296875 35.015625
C 40.296875 29.421875 36.40625 18.546875 34.203125 12.5625
C 33.296875 10.171875 32.796875 8.875 32.796875 7.078125
C 32.796875 2.59375 35.90625 -1 40.703125 -1
C 50 -1 53.5 13.65625 53.5 14.265625
C 53.5 14.765625 53.09375 15.15625 52.5 15.15625
C 51.59375 15.15625 51.5 14.859375 51 13.15625
C 48.703125 5.1875 45 1 41 1
C 40 1 38.40625 1.09375 38.40625 4.28125
C 38.40625 6.875 39.59375 10.078125 40 11.171875
C 41.796875 15.953125 46.296875 27.734375 46.296875 33.515625
C 46.296875 39.5 42.796875 44 35.203125 44
C 29.5 44 24.5 41.296875 20.40625 36.109375
z
" id="CMMI12-104"/>
      <path d="M 30.59375 -24.40625
C 30.59375 -24.3125 30.59375 -24.109375 30.296875 -23.8125
C 25.703125 -19.109375 13.40625 -6.296875 13.40625 24.9375
C 13.40625 56.171875 25.5 68.875 30.40625 73.890625
C 30.40625 73.984375 30.59375 74.1875 30.59375 74.484375
C 30.59375 74.796875 30.296875 75 29.90625 75
C 28.796875 75 20.296875 67.578125 15.40625 56.5625
C 10.40625 45.453125 9 34.65625 9 25.046875
C 9 17.828125 9.703125 5.625 15.703125 -7.296875
C 20.5 -17.703125 28.703125 -25 29.90625 -25
C 30.40625 -25 30.59375 -24.8125 30.59375 -24.40625
z
" id="CMR17-40"/>
      <path d="M 33.703125 24.46875
L 45.296875 37.609375
C 46.40625 38.90625 47.296875 39.6875 55.59375 39.6875
L 55.59375 44
C 50 43.796875 49.796875 43.796875 46.40625 43.796875
C 43.5 43.796875 39.203125 43.796875 36.40625 44
L 36.40625 39.6875
C 38.296875 39.6875 40.40625 39.203125 40.40625 38.5
C 40.40625 38.3125 39.90625 37.609375 39.703125 37.421875
L 31 27.71875
L 21.09375 39.6875
L 25.296875 39.6875
L 25.296875 44
C 23 43.796875 16.203125 43.796875 13.5 43.796875
C 10.5 43.796875 5.09375 43.796875 2.296875 44
L 2.296875 39.6875
L 9.40625 39.6875
L 25 20.90625
L 12 6.375
C 10.796875 4.984375 10.09375 4.296875 1.796875 4.296875
L 1.796875 0
C 7.796875 0.1875 8 0.1875 11.09375 0.1875
C 14 0.1875 18.203125 0.1875 21 0
L 21 4.296875
C 19.09375 4.296875 17 4.78125 17 5.484375
C 17 5.578125 17 5.671875 17.703125 6.46875
L 27.703125 17.640625
L 38.796875 4.296875
L 34.59375 4.296875
L 34.59375 0
C 37 0.1875 43.703125 0.1875 46.5 0.1875
C 49.5 0.1875 54.796875 0.1875 57.59375 0
L 57.59375 4.296875
L 50.59375 4.296875
z
" id="CMBX12-120"/>
      <path d="M 28.296875 14.265625
C 28.296875 14.765625 27.90625 15.15625 27.296875 15.15625
C 26.40625 15.15625 26.296875 14.859375 25.796875 13.15625
C 23.203125 4.078125 19.09375 1 15.796875 1
C 14.59375 1 13.203125 1.296875 13.203125 4.28125
C 13.203125 6.984375 14.40625 9.96875 15.5 12.96875
L 22.5 31.515625
C 22.796875 32.3125 23.5 34.109375 23.5 36.015625
C 23.5 40.203125 20.5 44 15.59375 44
C 6.40625 44 2.703125 29.53125 2.703125 28.71875
C 2.703125 28.328125 3.09375 27.828125 3.796875 27.828125
C 4.703125 27.828125 4.796875 28.234375 5.203125 29.625
C 7.59375 38 11.40625 41.984375 15.296875 41.984375
C 16.203125 41.984375 17.90625 41.890625 17.90625 38.703125
C 17.90625 36.109375 16.59375 32.8125 15.796875 30.625
L 8.796875 12.0625
C 8.203125 10.46875 7.59375 8.875 7.59375 7.078125
C 7.59375 2.59375 10.703125 -1 15.5 -1
C 24.703125 -1 28.296875 13.5625 28.296875 14.265625
z
M 27.5 62.6875
C 27.5 64.1875 26.296875 66 24.09375 66
C 21.796875 66 19.203125 63.796875 19.203125 61.1875
C 19.203125 58.6875 21.296875 57.890625 22.5 57.890625
C 25.203125 57.890625 27.5 60.484375 27.5 62.6875
z
" id="CMMI12-105"/>
      <path d="M 19.5 -0.40625
C 19.5 5.390625 17.59375 9.6875 13.5 9.6875
C 10.296875 9.6875 8.703125 7.09375 8.703125 4.890625
C 8.703125 2.6875 10.203125 0 13.59375 0
C 14.90625 0 16 0.390625 16.90625 1.296875
C 17.09375 1.5 17.203125 1.5 17.296875 1.5
C 17.5 1.5 17.5 0.09375 17.5 -0.40625
C 17.5 -3.640625 16.90625 -10.03125 11.09375 -16.421875
C 10 -17.609375 10 -17.8125 10 -18
C 10 -18.5 10.5 -19 11 -19
C 11.796875 -19 19.5 -11.703125 19.5 -0.40625
z
" id="CMMI12-59"/>
      <path d="M 72 37.28125
C 72.703125 39 73 39.6875 78.796875 39.6875
L 78.796875 44
C 75.90625 43.796875 74.59375 43.796875 71 43.796875
C 66.90625 43.796875 65.59375 43.796875 62 44
L 62 39.6875
C 62.90625 39.6875 67.796875 39.6875 67.796875 38.390625
C 67.796875 38.296875 67.796875 38.1875 67.40625 37.1875
L 56.90625 11.125
L 45.40625 39.6875
L 51.09375 39.6875
L 51.09375 44
C 48.703125 43.796875 42.796875 43.796875 40.09375 43.796875
C 35 43.796875 34.796875 43.796875 29.796875 44
L 29.796875 39.6875
L 35.703125 39.6875
C 36 38.890625 36.5 37.59375 36.90625 36.6875
C 37.203125 36.078125 38.203125 33.671875 38.203125 33.171875
C 38.203125 32.984375 37.90625 32.28125 37.796875 31.96875
L 30.203125 13.03125
L 19.40625 39.6875
L 25.09375 39.6875
L 25.09375 44
C 22.796875 43.796875 16 43.796875 13.296875 43.796875
C 10.09375 43.796875 5.296875 43.796875 2.296875 44
L 2.296875 39.6875
L 8.203125 39.6875
L 23.5 1.5
C 24.203125 -0.3125 24.59375 -1 26.796875 -1
C 27.90625 -1 29.09375 -1 29.90625 1
L 40.5 27.5625
L 51.09375 1.1875
C 52 -1 53.09375 -1 54.296875 -1
C 56.5 -1 56.796875 -0.40625 57.5 1.390625
z
" id="CMBX12-119"/>
      <path d="M 26.296875 24.9375
C 26.296875 32.140625 25.59375 44.359375 19.59375 57.265625
C 14.796875 67.6875 6.59375 75 5.40625 75
C 5.09375 75 4.703125 74.890625 4.703125 74.390625
C 4.703125 74.1875 4.796875 74.09375 4.90625 73.890625
C 9.703125 68.875 21.90625 56.171875 21.90625 25.046875
C 21.90625 -6.1875 9.796875 -18.90625 4.90625 -23.90625
C 4.796875 -24.109375 4.703125 -24.203125 4.703125 -24.40625
C 4.703125 -24.90625 5.09375 -25 5.40625 -25
C 6.5 -25 15 -17.609375 19.90625 -6.59375
C 24.90625 4.515625 26.296875 15.328125 26.296875 24.9375
z
" id="CMR17-41"/>
     </defs>
     <use transform="scale(0.996264)" xlink:href="#CMMI12-104"/>
     <use transform="translate(56.154624 0)scale(0.996264)" xlink:href="#CMR17-40"/>
     <use transform="translate(91.435392 0)scale(0.996264)" xlink:href="#CMBX12-120"/>
     <use transform="translate(150.588567 -14.943915)scale(0.697382)" xlink:href="#CMMI12-105"/>
     <use transform="translate(174.381607 0)scale(0.996264)" xlink:href="#CMMI12-59"/>
     <use transform="translate(218.083189 0)scale(0.996264)" xlink:href="#CMBX12-119"/>
     <use transform="translate(300.586302 0)scale(0.996264)" xlink:href="#CMR17-41"/>
    </g>
   </g>
   <g id="text_22">
    <!-- $\mathbf{x}_i$ -->
    <g style="fill:#228b22;" transform="translate(165.345376 335.899059)scale(0.18 -0.18)">
     <use transform="scale(0.996264)" xlink:href="#CMBX12-120"/>
     <use transform="translate(59.153176 -14.943915)scale(0.697382)" xlink:href="#CMMI12-105"/>
    </g>
   </g>
   <g id="text_23">
    <!-- cookieblues.github.io -->
    <g style="fill:#696969;" transform="translate(388.350528 309.759423)scale(0.11 -0.11)">
     <defs>
      <path d="M 34.90625 35
C 33 35 30.203125 35 30.203125 31.484375
C 30.203125 28.6875 32.5 27.890625 33.796875 27.890625
C 34.5 27.890625 37.40625 28.1875 37.40625 31.6875
C 37.40625 38.6875 30.59375 44 22.90625 44
C 12.296875 44 3.296875 34.390625 3.296875 21.546875
C 3.296875 8.140625 12.703125 -1 22.90625 -1
C 35.296875 -1 38.40625 10.5625 38.40625 11.671875
C 38.40625 12.078125 38.296875 12.375 37.59375 12.375
C 36.90625 12.375 36.796875 12.28125 36.40625 10.96875
C 33.796875 2.8125 28.09375 0.796875 23.796875 0.796875
C 17.40625 0.796875 9.703125 6.734375 9.703125 21.640625
C 9.703125 36.84375 17.09375 42.1875 23 42.1875
C 26.90625 42.1875 32.703125 40.34375 34.90625 35
z
" id="CMR17-99"/>
      <path d="M 43.09375 21.1875
C 43.09375 34 33.796875 44 22.90625 44
C 12 44 2.703125 34 2.703125 21.1875
C 2.703125 8.59375 12 -1 22.90625 -1
C 33.796875 -1 43.09375 8.59375 43.09375 21.1875
z
M 22.90625 0.796875
C 18.203125 0.796875 14.203125 3.59375 11.90625 7.5
C 9.40625 12 9.09375 17.59375 9.09375 22
C 9.09375 26.1875 9.296875 31.390625 11.90625 35.890625
C 13.90625 39.1875 17.796875 42.390625 22.90625 42.390625
C 27.40625 42.390625 31.203125 39.890625 33.59375 36.390625
C 36.703125 31.6875 36.703125 25.09375 36.703125 22
C 36.703125 18.09375 36.5 12.09375 33.796875 7.296875
C 31 2.6875 26.703125 0.796875 22.90625 0.796875
z
" id="CMR17-111"/>
      <path d="M 26.09375 26.234375
C 26 26.4375 25.5 27.03125 25.5 27.328125
C 25.5 27.53125 32.59375 33.984375 33.5 34.78125
C 39.203125 39.5625 42.796875 40.046875 45.40625 40.15625
L 45.40625 42.734375
C 44.796875 42.734375 44.59375 42.734375 44.5 42.640625
L 39.59375 42.53125
C 36.796875 42.53125 32.5 42.53125 29.796875 42.734375
L 29.796875 40.15625
C 31.203125 40.046875 32.203125 39.265625 32.203125 37.859375
C 32.203125 35.875 30.203125 33.984375 30.09375 33.984375
L 15 20.28125
L 15 69
L 3.09375 67.890625
L 3.09375 65.296875
C 9 65.296875 9.90625 64.703125 9.90625 59.921875
L 9.90625 6.859375
C 9.90625 3.09375 9.5 2.59375 3.09375 2.59375
L 3.09375 0
C 5.5 0.1875 9.90625 0.1875 12.40625 0.1875
C 14.90625 0.1875 19.296875 0.1875 21.703125 0
L 21.703125 2.59375
C 15.296875 2.59375 14.90625 2.984375 14.90625 6.859375
L 14.90625 17.796875
L 21.796875 24.0625
L 31.90625 9.15625
C 33.09375 7.359375 34.09375 5.96875 34.09375 4.671875
C 34.09375 2.890625 32.296875 2.59375 31.09375 2.59375
L 31.09375 0
C 33.5 0.1875 37.796875 0.1875 40.296875 0.1875
C 42.09375 0.1875 45.796875 0.09375 47.5 0
L 47.5 2.59375
C 42.796875 2.59375 41.703125 3.484375 38.703125 7.859375
z
" id="CMR17-107"/>
      <path d="M 15.5 61.890625
C 15.5 64.09375 13.703125 66 11.40625 66
C 9.203125 66 7.296875 64.1875 7.296875 61.890625
C 7.296875 59.6875 9.09375 57.796875 11.40625 57.796875
C 13.59375 57.796875 15.5 59.59375 15.5 61.890625
z
M 3.796875 42.890625
L 3.796875 40.296875
C 9.40625 40.296875 10.203125 39.6875 10.203125 34.859375
L 10.203125 6.921875
C 10.203125 3.09375 9.796875 2.59375 3.40625 2.59375
L 3.40625 0
C 5.796875 0.1875 10.09375 0.1875 12.59375 0.1875
C 15 0.1875 19.09375 0.1875 21.40625 0
L 21.40625 2.59375
C 15.5 2.59375 15.296875 3.203125 15.296875 6.8125
L 15.296875 44
z
" id="CMR17-105"/>
      <path d="M 38.09375 23.484375
C 38.5 23.890625 38.5 24.09375 38.5 25.09375
C 38.5 35.171875 33.09375 44 21.703125 44
C 11.09375 44 2.703125 33.984375 2.703125 21.78125
C 2.703125 8.65625 12.203125 -1 22.796875 -1
C 34 -1 38.40625 9.671875 38.40625 11.796875
C 38.40625 12.5 37.796875 12.5 37.59375 12.5
C 36.90625 12.5 36.796875 12.296875 36.40625 11.078125
C 34.203125 4.21875 28.703125 0.796875 23.5 0.796875
C 19.203125 0.796875 14.90625 3.21875 12.203125 7.65625
C 9.09375 12.796875 9.09375 18.75 9.09375 23.484375
z
M 9.203125 25
C 9.90625 39.234375 17.59375 42.390625 21.59375 42.390625
C 28.40625 42.390625 33 36.0625 33.09375 25
z
" id="CMR17-101"/>
      <path d="M 15 69
L 3.09375 67.890625
L 3.09375 65.296875
C 9 65.296875 9.90625 64.703125 9.90625 60.046875
L 9.90625 -0.203125
L 11.703125 -0.203125
L 14.59375 6.953125
C 17.5 2.203125 21.796875 -1 27.59375 -1
C 37.59375 -1 47.703125 7.859375 47.703125 21.59375
C 47.703125 34.515625 38.703125 44 28.59375 44
C 22.40625 44 18 40.671875 15 36.734375
z
M 15.203125 31.59375
C 15.203125 33.40625 15.203125 33.703125 16.59375 35.828125
C 20.5 41.890625 26.09375 42.390625 28 42.390625
C 31 42.390625 41.296875 40.78125 41.296875 21.6875
C 41.296875 1.703125 29.5 0.59375 27.09375 0.59375
C 24 0.59375 19.5 1.796875 16.296875 7.65625
C 15.203125 9.578125 15.203125 9.78125 15.203125 11.59375
z
" id="CMR17-98"/>
      <path d="M 15.296875 69
L 3.40625 67.890625
L 3.40625 65.296875
C 9.296875 65.296875 10.203125 64.703125 10.203125 59.921875
L 10.203125 6.859375
C 10.203125 3.09375 9.796875 2.59375 3.40625 2.59375
L 3.40625 0
C 5.796875 0.1875 10.203125 0.1875 12.703125 0.1875
C 15.296875 0.1875 19.703125 0.1875 22.09375 0
L 22.09375 2.59375
C 15.703125 2.59375 15.296875 2.984375 15.296875 6.859375
z
" id="CMR17-108"/>
      <path d="M 29.40625 42.890625
L 29.40625 40.296875
C 35.296875 40.296875 36.203125 39.6875 36.203125 34.828125
L 36.203125 16.453125
C 36.203125 7.96875 31.703125 0.59375 24.296875 0.59375
C 16.09375 0.59375 15.40625 5.546875 15.40625 10.796875
L 15.40625 44
L 3.296875 42.890625
L 3.296875 40.296875
C 7.296875 40.296875 10 40.296875 10.09375 36.25
L 10.09375 16.859375
C 10.09375 10.09375 10.09375 5.75 12.703125 2.921875
C 14 1.609375 16.5 -1 23.703125 -1
C 32.203125 -1 35.5 6.25 36.296875 8.375
L 36.40625 8.375
L 36.40625 -1
L 48.296875 -0.203125
L 48.296875 2.40625
C 42.40625 2.40625 41.5 3.015625 41.5 7.859375
L 41.5 44
z
" id="CMR17-117"/>
      <path d="M 30.90625 42
C 30.90625 43.796875 30.796875 43.890625 30.203125 43.890625
C 29.796875 43.890625 29.703125 43.796875 28.5 42.296875
C 28.203125 41.890625 27.296875 40.890625 27 40.5
C 23.796875 43.890625 19.296875 44 17.59375 44
C 6.5 44 2.5 38.1875 2.5 32.390625
C 2.5 23.390625 12.703125 21.296875 15.59375 20.6875
C 21.90625 19.390625 24.09375 19 26.203125 17.1875
C 27.5 16 29.703125 13.796875 29.703125 10.1875
C 29.703125 6 27.296875 0.59375 18.09375 0.59375
C 9.40625 0.59375 6.296875 7.1875 4.5 16
C 4.203125 17.390625 4.203125 17.5 3.40625 17.5
C 2.59375 17.5 2.5 17.390625 2.5 15.390625
L 2.5 1
C 2.5 -0.8125 2.59375 -0.90625 3.203125 -0.90625
C 3.703125 -0.90625 3.796875 -0.8125 4.296875 0
C 4.90625 0.890625 6.40625 3.296875 7 4.296875
C 9 1.59375 12.5 -1 18.09375 -1
C 28 -1 33.296875 4.390625 33.296875 12.1875
C 33.296875 17.296875 30.59375 20 29.296875 21.1875
C 26.296875 24.296875 22.796875 25 18.59375 25.796875
C 13.09375 27 6.09375 28.390625 6.09375 34.5
C 6.09375 37.09375 7.5 42.59375 17.59375 42.59375
C 28.296875 42.59375 28.90625 32.59375 29.09375 29.390625
C 29.203125 28.890625 29.703125 28.796875 30 28.796875
C 30.90625 28.796875 30.90625 29.09375 30.90625 30.796875
z
" id="CMR17-115"/>
      <path d="M 16.59375 4.09375
C 16.59375 6.59375 14.59375 8.1875 12.5 8.1875
C 10.5 8.1875 8.40625 6.59375 8.40625 4.09375
C 8.40625 1.59375 10.40625 0 12.5 0
C 14.5 0 16.59375 1.59375 16.59375 4.09375
z
" id="CMR17-46"/>
      <path d="M 11.09375 18.203125
C 13 16.6875 16.296875 15 20.296875 15
C 28.203125 15 35 21.234375 35 29.609375
C 35 32.234375 34.203125 36.265625 31.203125 39.390625
C 34 42.390625 38.09375 43.390625 40.40625 43.390625
C 40.796875 43.390625 41.40625 43.390625 41.90625 43.09375
C 41.5 42.984375 40.59375 42.59375 40.59375 40.984375
C 40.59375 39.6875 41.5 38.796875 42.796875 38.796875
C 44.296875 38.796875 45.09375 39.796875 45.09375 41.09375
C 45.09375 42.984375 43.59375 45 40.40625 45
C 36.40625 45 32.90625 43.09375 30.09375 40.484375
C 27.09375 43.1875 23.5 44.1875 20.296875 44.1875
C 12.40625 44.1875 5.59375 37.984375 5.59375 29.609375
C 5.59375 23.859375 8.90625 20.21875 9.90625 19.21875
C 6.90625 15.6875 6.90625 11.59375 6.90625 11.09375
C 6.90625 8.5 7.90625 4.6875 11.296875 2.59375
C 6.09375 1.28125 2 -2.875 2 -8.078125
C 2 -15.5625 11.5 -21 22.90625 -21
C 33.90625 -21 43.796875 -15.765625 43.796875 -7.96875
C 43.796875 6 29 6 21.296875 6
C 19 6 14.90625 6 14.40625 6.09375
C 11.296875 6.59375 9.203125 9.390625 9.203125 12.890625
C 9.203125 13.796875 9.203125 16 11.09375 18.203125
z
M 20.296875 16.6875
C 11.5 16.6875 11.5 27.59375 11.5 29.609375
C 11.5 31.625 11.5 42.484375 20.296875 42.484375
C 29.09375 42.484375 29.09375 31.625 29.09375 29.609375
C 29.09375 27.59375 29.09375 16.6875 20.296875 16.6875
z
M 22.90625 -19.3125
C 12.90625 -19.3125 6 -13.796875 6 -8.078125
C 6 -4.859375 7.703125 -1.84375 9.90625 -0.171875
C 12.40625 1.59375 13.40625 1.59375 20.203125 1.59375
C 28.40625 1.59375 39.796875 1.59375 39.796875 -8.078125
C 39.796875 -13.796875 32.90625 -19.3125 22.90625 -19.3125
z
" id="CMR17-103"/>
      <path d="M 15.09375 40.390625
L 29.09375 40.390625
L 29.09375 43
L 15.09375 43
L 15.09375 62
L 13.296875 62
C 13.09375 51.4375 9.59375 42.1875 1.09375 41.984375
L 1.09375 40.390625
L 9.796875 40.390625
L 9.796875 12.15625
C 9.796875 10.234375 9.796875 -1 21.40625 -1
C 27.296875 -1 30.703125 4.8125 30.703125 12.25
L 30.703125 17.984375
L 28.90625 17.984375
L 28.90625 12.34375
C 28.90625 5.421875 26.203125 0.796875 22 0.796875
C 19.09375 0.796875 15.09375 2.796875 15.09375 11.953125
z
" id="CMR17-116"/>
      <path d="M 41.5 30.53125
C 41.5 35.65625 40.5 44 28.703125 44
C 20.5 44 16.5 37.375 15.296875 34.046875
L 15.203125 34.046875
L 15.203125 69
L 3.296875 67.890625
L 3.296875 65.296875
C 9.203125 65.296875 10.09375 64.703125 10.09375 60.046875
L 10.09375 6.921875
C 10.09375 3.09375 9.703125 2.59375 3.296875 2.59375
L 3.296875 0
C 5.703125 0.1875 10.09375 0.1875 12.703125 0.1875
C 15.296875 0.1875 19.796875 0.1875 22.203125 0
L 22.203125 2.59375
C 15.796875 2.59375 15.40625 3 15.40625 6.921875
L 15.40625 26.21875
C 15.40625 35.453125 21 42.390625 28 42.390625
C 35.40625 42.390625 36.203125 35.765625 36.203125 30.9375
L 36.203125 6.921875
C 36.203125 3.09375 35.796875 2.59375 29.40625 2.59375
L 29.40625 0
C 31.796875 0.1875 36.203125 0.1875 38.796875 0.1875
C 41.40625 0.1875 45.90625 0.1875 48.296875 0
L 48.296875 2.59375
C 41.90625 2.59375 41.5 3 41.5 6.921875
z
" id="CMR17-104"/>
     </defs>
     <use transform="scale(0.996264)" xlink:href="#CMR17-99"/>
     <use transform="translate(40.48566 0)scale(0.996264)" xlink:href="#CMR17-111"/>
     <use transform="translate(88.778576 0)scale(0.996264)" xlink:href="#CMR17-111"/>
     <use transform="translate(134.469053 0)scale(0.996264)" xlink:href="#CMR17-107"/>
     <use transform="translate(182.761969 0)scale(0.996264)" xlink:href="#CMR17-105"/>
     <use transform="translate(207.633028 0)scale(0.996264)" xlink:href="#CMR17-101"/>
     <use transform="translate(248.118688 0)scale(0.996264)" xlink:href="#CMR17-98"/>
     <use transform="translate(299.014058 0)scale(0.996264)" xlink:href="#CMR17-108"/>
     <use transform="translate(323.885116 0)scale(0.996264)" xlink:href="#CMR17-117"/>
     <use transform="translate(374.780486 0)scale(0.996264)" xlink:href="#CMR17-101"/>
     <use transform="translate(415.266147 0)scale(0.996264)" xlink:href="#CMR17-115"/>
     <use transform="translate(451.067484 0)scale(0.996264)" xlink:href="#CMR17-46"/>
     <use transform="translate(475.938543 0)scale(0.996264)" xlink:href="#CMR17-103"/>
     <use transform="translate(521.62902 0)scale(0.996264)" xlink:href="#CMR17-105"/>
     <use transform="translate(546.500078 0)scale(0.996264)" xlink:href="#CMR17-116"/>
     <use transform="translate(581.780846 0)scale(0.996264)" xlink:href="#CMR17-104"/>
     <use transform="translate(630.073762 0)scale(0.996264)" xlink:href="#CMR17-117"/>
     <use transform="translate(680.969132 0)scale(0.996264)" xlink:href="#CMR17-98"/>
     <use transform="translate(731.864502 0)scale(0.996264)" xlink:href="#CMR17-46"/>
     <use transform="translate(756.73556 0)scale(0.996264)" xlink:href="#CMR17-105"/>
     <use transform="translate(781.606619 0)scale(0.996264)" xlink:href="#CMR17-111"/>
    </g>
   </g>
   <g id="legend_1">
    <g id="patch_11">
     <path d="M 88.723032 39.709424
L 141.38468 39.709424
Q 144.18468 39.709424 144.18468 36.909424
L 144.18468 17.959583
Q 144.18468 15.159583 141.38468 15.159583
L 88.723032 15.159583
Q 85.923032 15.159583 85.923032 17.959583
L 85.923032 36.909424
Q 85.923032 39.709424 88.723032 39.709424
z
" style="fill:none;opacity:0;"/>
    </g>
    <g id="line2d_21">
     <path d="M 91.523032 26.497395
L 119.523032 26.497395
" style="fill:none;stroke:#40e0d0;stroke-linecap:square;"/>
    </g>
    <g id="line2d_22"/>
    <g id="text_24">
     <!-- $h$ -->
     <g transform="translate(130.723032 31.397395)scale(0.14 -0.14)">
      <use transform="scale(0.996264)" xlink:href="#CMMI12-104"/>
     </g>
    </g>
   </g>
  </g>
 </g>
 <defs>
  <clipPath id="p6136f5978e">
   <rect height="304.9593" width="412.907742" x="78.923032" y="8.159583"/>
  </clipPath>
 </defs>
</svg>
