<?xml version="1.0" encoding="utf-8" standalone="no"?>
<!DOCTYPE svg PUBLIC "-//W3C//DTD SVG 1.1//EN"
  "http://www.w3.org/Graphics/SVG/1.1/DTD/svg11.dtd">
<!-- Created with matplotlib (https://matplotlib.org/) -->
<svg height="360pt" version="1.1" viewBox="0 0 360 360" width="360pt" xmlns="http://www.w3.org/2000/svg" xmlns:xlink="http://www.w3.org/1999/xlink">
 <metadata>
  <rdf:RDF xmlns:cc="http://creativecommons.org/ns#" xmlns:dc="http://purl.org/dc/elements/1.1/" xmlns:rdf="http://www.w3.org/1999/02/22-rdf-syntax-ns#">
   <cc:Work>
    <dc:type rdf:resource="http://purl.org/dc/dcmitype/StillImage"/>
    <dc:date>2020-12-10T16:56:29.688049</dc:date>
    <dc:format>image/svg+xml</dc:format>
    <dc:creator>
     <cc:Agent>
      <dc:title>Matplotlib v3.3.3, https://matplotlib.org/</dc:title>
     </cc:Agent>
    </dc:creator>
   </cc:Work>
  </rdf:RDF>
 </metadata>
 <defs>
  <style type="text/css">*{stroke-linecap:butt;stroke-linejoin:round;}</style>
 </defs>
 <g id="figure_1">
  <g id="patch_1">
   <path d="M 0 360
L 360 360
L 360 0
L 0 0
z
" style="fill:none;"/>
  </g>
  <g id="axes_1">
   <g id="patch_2">
    <path clip-path="url(#p4c7980778c)" d="M 215.59163 81
C 215.59163 80.964312 215.596308 80.928778 215.605545 80.894306
C 215.614782 80.859834 215.628497 80.826722 215.646341 80.795815
L 214.160974 79.938238
C 214.068186 80.098952 213.996864 80.271138 213.948834 80.450392
C 213.900803 80.629645 213.876476 80.814423 213.876476 81
z
" style="fill:#6a103c;stroke:#ffffff;stroke-linejoin:miter;stroke-width:5;"/>
   </g>
   <g id="patch_3">
    <path clip-path="url(#p4c7980778c)" d="M 215.646341 80.795815
C 215.664185 80.764908 215.686004 80.736474 215.711239 80.711239
C 215.736474 80.686004 215.764908 80.664185 215.795815 80.646341
L 214.693216 78.736584
C 214.495414 78.850785 214.313433 78.990424 214.151929 79.151929
C 213.990424 79.313433 213.850785 79.495414 213.736584 79.693216
z
" style="fill:#6a103c;stroke:#ffffff;stroke-linejoin:miter;stroke-width:5;"/>
   </g>
   <g id="patch_4">
    <path clip-path="url(#p4c7980778c)" d="M 215.795815 80.646341
C 215.826722 80.628497 215.859834 80.614782 215.894306 80.605545
C 215.928778 80.596308 215.964312 80.59163 216 80.59163
L 216 79.121498
C 215.835836 79.121498 215.672378 79.143018 215.513808 79.185507
C 215.355238 79.227995 215.202919 79.291088 215.060749 79.37317
z
" style="fill:#6a103c;stroke:#ffffff;stroke-linejoin:miter;stroke-width:5;"/>
   </g>
   <g id="patch_5">
    <path clip-path="url(#p4c7980778c)" d="M 216 80.59163
C 216.035688 80.59163 216.071222 80.596308 216.105694 80.605545
C 216.140166 80.614782 216.173278 80.628497 216.204185 80.646341
L 232.498147 52.424372
C 230.000897 50.982584 227.325389 49.874353 224.540069 49.128028
C 221.754749 48.381704 218.883575 48.003707 216 48.003707
z
" style="fill:#6a103c;stroke:#ffffff;stroke-linejoin:miter;stroke-width:5;"/>
   </g>
   <g id="patch_6">
    <path clip-path="url(#p4c7980778c)" d="M 216.204185 80.646341
C 216.235092 80.664185 216.263526 80.686004 216.288761 80.711239
C 216.313996 80.736474 216.335815 80.764908 216.353659 80.795815
L 276.617112 46.002694
C 273.558667 40.705311 269.81896 35.83163 265.493665 31.506335
C 261.16837 27.18104 256.294689 23.441333 250.997306 20.382888
z
" style="fill:#6a103c;stroke:#ffffff;stroke-linejoin:miter;stroke-width:5;"/>
   </g>
   <g id="patch_7">
    <path clip-path="url(#p4c7980778c)" d="M 216.353659 80.795815
C 216.371503 80.826722 216.385218 80.859834 216.394455 80.894306
C 216.403692 80.928778 216.40837 80.964312 216.40837 81
L 292.365183 81
C 292.365183 74.326379 291.490363 67.681459 289.763103 61.235236
C 288.035843 54.789014 285.470999 48.596933 282.134189 42.817408
z
" style="fill:#6a103c;stroke:#ffffff;stroke-linejoin:miter;stroke-width:5;"/>
   </g>
   <g id="patch_8">
    <path clip-path="url(#p4c7980778c)" d="M 216.40837 81
C 216.40837 81.035688 216.403692 81.071222 216.394455 81.105694
C 216.385218 81.140166 216.371503 81.173278 216.353659 81.204185
L 269.190278 111.709421
C 271.874001 107.061076 273.936849 102.080922 275.326046 96.896366
C 276.715244 91.711811 277.418843 86.367447 277.418843 81
z
" style="fill:#6a103c;stroke:#ffffff;stroke-linejoin:miter;stroke-width:5;"/>
   </g>
   <g id="patch_9">
    <path clip-path="url(#p4c7980778c)" d="M 216.353659 81.204185
C 216.335815 81.235092 216.313996 81.263526 216.288761 81.288761
C 216.263526 81.313996 216.235092 81.335815 216.204185 81.353659
L 267.168756 169.626886
C 274.913938 165.155203 282.039635 159.687464 288.363549 153.363549
C 294.687464 147.039635 300.155203 139.913938 304.626886 132.168756
z
" style="fill:#6a103c;stroke:#ffffff;stroke-linejoin:miter;stroke-width:5;"/>
   </g>
   <g id="patch_10">
    <path clip-path="url(#p4c7980778c)" d="M 216.204185 81.353659
C 216.173278 81.371503 216.140166 81.385218 216.105694 81.394455
C 216.071222 81.403692 216.035688 81.40837 216 81.40837
L 216 228.666579
C 228.904712 228.666579 241.753928 226.974948 254.218923 223.634962
C 266.683918 220.294977 278.657481 215.335365 289.833289 208.883009
z
" style="fill:#6a103c;stroke:#ffffff;stroke-linejoin:miter;stroke-width:5;"/>
   </g>
   <g id="patch_11">
    <path clip-path="url(#p4c7980778c)" d="M 216 81.40837
C 215.964312 81.40837 215.928778 81.403692 215.894306 81.394455
C 215.859834 81.385218 215.826722 81.371503 215.795815 81.353659
L 95.990277 288.862938
C 114.155602 299.350693 133.617608 307.41212 153.878396 312.840982
C 174.139184 318.269844 195.024489 321.019446 216 321.019446
z
" style="fill:#6a103c;stroke:#ffffff;stroke-linejoin:miter;stroke-width:5;"/>
   </g>
   <g id="patch_12">
    <path clip-path="url(#p4c7980778c)" d="M 215.795815 81.353659
C 215.764908 81.335815 215.736474 81.313996 215.711239 81.288761
C 215.686004 81.263526 215.664185 81.235092 215.646341 81.204185
L 42.495011 181.173152
C 51.249231 196.335906 61.953433 210.285894 74.33377 222.66623
C 86.714106 235.046567 100.664094 245.750769 115.826848 254.504989
z
" style="fill:#6a103c;stroke:#ffffff;stroke-linejoin:miter;stroke-width:5;"/>
   </g>
   <g id="patch_13">
    <path clip-path="url(#p4c7980778c)" d="M 215.646341 81.204185
C 215.628497 81.173278 215.614782 81.140166 215.605545 81.105694
C 215.596308 81.071222 215.59163 81.035688 215.59163 81
L 100.900926 81
C 100.900926 91.05861 102.219472 101.073962 104.822832 110.789832
C 107.426191 120.505703 111.291973 129.838526 116.321278 138.549537
z
" style="fill:#6a103c;stroke:#ffffff;stroke-linejoin:miter;stroke-width:5;"/>
   </g>
  </g>
 </g>
 <defs>
  <clipPath id="p4c7980778c">
   <path d="M 468 81
C 468 47.907663 461.481531 15.137108 448.817642 -15.436225
C 436.153753 -46.009558 417.590725 -73.791093 394.190909 -97.190909
C 370.791093 -120.590725 343.009558 -139.153753 312.436225 -151.817642
C 281.862892 -164.481531 249.092337 -171 216 -171
C 182.907663 -171 150.137108 -164.481531 119.563775 -151.817642
C 88.990442 -139.153753 61.208907 -120.590725 37.809091 -97.190909
C 14.409275 -73.791093 -4.153753 -46.009558 -16.817642 -15.436225
C -29.481531 15.137108 -36 47.907663 -36 81
C -36 114.092337 -29.481531 146.862892 -16.817642 177.436225
C -4.153753 208.009558 14.409275 235.791093 37.809091 259.190909
C 61.208907 282.590725 88.990442 301.153753 119.563775 313.817642
C 150.137108 326.481531 182.907663 333 216 333
C 249.092337 333 281.862892 326.481531 312.436225 313.817642
C 343.009558 301.153753 370.791093 282.590725 394.190909 259.190909
C 417.590725 235.791093 436.153753 208.009558 448.817642 177.436225
C 461.481531 146.862892 468 114.092337 468 81
M 216 81
C 216 81 216 81 216 81
C 216 81 216 81 216 81
C 216 81 216 81 216 81
C 216 81 216 81 216 81
C 216 81 216 81 216 81
C 216 81 216 81 216 81
C 216 81 216 81 216 81
C 216 81 216 81 216 81
C 216 81 216 81 216 81
C 216 81 216 81 216 81
C 216 81 216 81 216 81
C 216 81 216 81 216 81
C 216 81 216 81 216 81
C 216 81 216 81 216 81
C 216 81 216 81 216 81
C 216 81 216 81 216 81
M 468 81
z
"/>
  </clipPath>
 </defs>
</svg>
