<?xml version="1.0" encoding="utf-8" standalone="no"?>
<!DOCTYPE svg PUBLIC "-//W3C//DTD SVG 1.1//EN"
  "http://www.w3.org/Graphics/SVG/1.1/DTD/svg11.dtd">
<!-- Created with matplotlib (https://matplotlib.org/) -->
<svg height="360pt" version="1.1" viewBox="0 0 576 360" width="576pt" xmlns="http://www.w3.org/2000/svg" xmlns:xlink="http://www.w3.org/1999/xlink">
 <metadata>
  <rdf:RDF xmlns:cc="http://creativecommons.org/ns#" xmlns:dc="http://purl.org/dc/elements/1.1/" xmlns:rdf="http://www.w3.org/1999/02/22-rdf-syntax-ns#">
   <cc:Work>
    <dc:type rdf:resource="http://purl.org/dc/dcmitype/StillImage"/>
    <dc:date>2021-01-11T18:47:00.835100</dc:date>
    <dc:format>image/svg+xml</dc:format>
    <dc:creator>
     <cc:Agent>
      <dc:title>Matplotlib v3.3.3, https://matplotlib.org/</dc:title>
     </cc:Agent>
    </dc:creator>
   </cc:Work>
  </rdf:RDF>
 </metadata>
 <defs>
  <style type="text/css">*{stroke-linecap:butt;stroke-linejoin:round;}</style>
 </defs>
 <g id="figure_1">
  <g id="patch_1">
   <path d="M 0 360
L 576 360
L 576 0
L 0 0
z
" style="fill:none;"/>
  </g>
  <g id="axes_1">
   <g id="patch_2">
    <path d="M 73.83125 309.1975
L 560.88 309.1975
L 560.88 19.850625
L 73.83125 19.850625
z
" style="fill:none;"/>
   </g>
   <g id="matplotlib.axis_1">
    <g id="xtick_1">
     <g id="line2d_1">
      <path clip-path="url(#p55c15cf785)" d="M 124.573764 309.1975
L 124.573764 19.850625
" style="fill:none;stroke:#b0b0b0;stroke-linecap:square;stroke-width:0.8;"/>
     </g>
     <g id="line2d_2">
      <defs>
       <path d="M 0 0
L 0 3.5
" id="mb2b88f01c9" style="stroke:#000000;stroke-width:0.8;"/>
      </defs>
      <g>
       <use style="stroke:#000000;stroke-width:0.8;" x="124.573764" xlink:href="#mb2b88f01c9" y="309.1975"/>
      </g>
     </g>
     <g id="text_1">
      <!-- −0.10 -->
      <g transform="translate(107.528764 325.759063)scale(0.14 -0.14)">
       <defs>
        <path d="M 62.09375 22
L 6.40625 22
L 6.40625 28.59375
L 62.09375 28.59375
z
" id="STIXGeneral-Regular-8722"/>
        <path d="M 47.59375 33
Q 47.59375 26.296875 46.296875 20.34375
Q 45 14.40625 42.453125 9.40625
Q 39.90625 4.40625 35.40625 1.5
Q 30.90625 -1.40625 25 -1.40625
Q 18.90625 -1.40625 14.296875 1.6875
Q 9.703125 4.796875 7.203125 10
Q 4.703125 15.203125 3.546875 21.09375
Q 2.40625 27 2.40625 33.59375
Q 2.40625 42.90625 4.703125 50.34375
Q 7 57.796875 12.34375 62.6875
Q 17.703125 67.59375 25.40625 67.59375
Q 35.203125 67.59375 41.390625 58
Q 47.59375 48.40625 47.59375 33
z
M 38 32.5
Q 38 48.296875 34.640625 56.640625
Q 31.296875 65 24.796875 65
Q 18.59375 65 15.296875 56.59375
Q 12 48.203125 12 32.90625
Q 12 17.5 15.296875 9.34375
Q 18.59375 1.203125 25 1.203125
Q 31.296875 1.203125 34.640625 9.34375
Q 38 17.5 38 32.5
z
" id="STIXGeneral-Regular-48"/>
        <path d="M 18.09375 4.296875
Q 18.09375 2.09375 16.4375 0.5
Q 14.796875 -1.09375 12.5 -1.09375
Q 10.203125 -1.09375 8.59375 0.5
Q 7 2.09375 7 4.390625
Q 7 6.703125 8.640625 8.34375
Q 10.296875 10 12.59375 10
Q 14.796875 10 16.4375 8.296875
Q 18.09375 6.59375 18.09375 4.296875
z
" id="STIXGeneral-Regular-46"/>
        <path d="M 39.40625 0
L 11.796875 0
L 11.796875 1.5
Q 17.296875 1.796875 19.296875 3.546875
Q 21.296875 5.296875 21.296875 9.5
L 21.296875 54.40625
Q 21.296875 59.296875 18.296875 59.296875
Q 16.90625 59.296875 13.796875 58.09375
L 11.09375 57.09375
L 11.09375 58.5
L 29 67.59375
L 29.90625 67.296875
L 29.90625 7.59375
Q 29.90625 4.296875 31.90625 2.890625
Q 33.90625 1.5 39.40625 1.5
z
" id="STIXGeneral-Regular-49"/>
       </defs>
       <use xlink:href="#STIXGeneral-Regular-8722"/>
       <use x="68.499985" xlink:href="#STIXGeneral-Regular-48"/>
       <use x="118.499969" xlink:href="#STIXGeneral-Regular-46"/>
       <use x="143.499954" xlink:href="#STIXGeneral-Regular-49"/>
       <use x="193.499939" xlink:href="#STIXGeneral-Regular-48"/>
      </g>
     </g>
    </g>
    <g id="xtick_2">
     <g id="line2d_3">
      <path clip-path="url(#p55c15cf785)" d="M 218.068618 309.1975
L 218.068618 19.850625
" style="fill:none;stroke:#b0b0b0;stroke-linecap:square;stroke-width:0.8;"/>
     </g>
     <g id="line2d_4">
      <g>
       <use style="stroke:#000000;stroke-width:0.8;" x="218.068618" xlink:href="#mb2b88f01c9" y="309.1975"/>
      </g>
     </g>
     <g id="text_2">
      <!-- −0.05 -->
      <g transform="translate(201.023618 325.759063)scale(0.14 -0.14)">
       <defs>
        <path d="M 43.796875 68.09375
L 40.203125 59.59375
Q 39.59375 58.296875 37.5 58.296875
L 18.09375 58.296875
L 14.09375 49.796875
Q 25.09375 47.703125 30 45.25
Q 34.90625 42.796875 39.09375 37
Q 42.59375 32.203125 42.59375 24.296875
Q 42.59375 17.09375 40.25 12.1875
Q 37.90625 7.296875 32.796875 3.5
Q 26 -1.40625 15.796875 -1.40625
Q 10.09375 -1.40625 6.59375 0.296875
Q 3.09375 2 3.09375 4.796875
Q 3.09375 8.59375 7.59375 8.59375
Q 11.203125 8.59375 15 5.5
Q 18.90625 2.296875 22.09375 2.296875
Q 27.296875 2.296875 31.4375 7.5
Q 35.59375 12.703125 35.59375 19.203125
Q 35.59375 28.796875 28.90625 34.203125
Q 20.203125 41.203125 7.59375 41.203125
Q 6.40625 41.203125 6.40625 42
L 6.5 42.5
L 17.40625 66.203125
L 38.09375 66.203125
Q 39.796875 66.203125 40.75 66.703125
Q 41.703125 67.203125 42.90625 68.796875
z
" id="STIXGeneral-Regular-53"/>
       </defs>
       <use xlink:href="#STIXGeneral-Regular-8722"/>
       <use x="68.499985" xlink:href="#STIXGeneral-Regular-48"/>
       <use x="118.499969" xlink:href="#STIXGeneral-Regular-46"/>
       <use x="143.499954" xlink:href="#STIXGeneral-Regular-48"/>
       <use x="193.499939" xlink:href="#STIXGeneral-Regular-53"/>
      </g>
     </g>
    </g>
    <g id="xtick_3">
     <g id="line2d_5">
      <path clip-path="url(#p55c15cf785)" d="M 311.563472 309.1975
L 311.563472 19.850625
" style="fill:none;stroke:#b0b0b0;stroke-linecap:square;stroke-width:0.8;"/>
     </g>
     <g id="line2d_6">
      <g>
       <use style="stroke:#000000;stroke-width:0.8;" x="311.563472" xlink:href="#mb2b88f01c9" y="309.1975"/>
      </g>
     </g>
     <g id="text_3">
      <!-- 0.00 -->
      <g transform="translate(299.313472 325.759063)scale(0.14 -0.14)">
       <use xlink:href="#STIXGeneral-Regular-48"/>
       <use x="49.999985" xlink:href="#STIXGeneral-Regular-46"/>
       <use x="74.999969" xlink:href="#STIXGeneral-Regular-48"/>
       <use x="124.999954" xlink:href="#STIXGeneral-Regular-48"/>
      </g>
     </g>
    </g>
    <g id="xtick_4">
     <g id="line2d_7">
      <path clip-path="url(#p55c15cf785)" d="M 405.058326 309.1975
L 405.058326 19.850625
" style="fill:none;stroke:#b0b0b0;stroke-linecap:square;stroke-width:0.8;"/>
     </g>
     <g id="line2d_8">
      <g>
       <use style="stroke:#000000;stroke-width:0.8;" x="405.058326" xlink:href="#mb2b88f01c9" y="309.1975"/>
      </g>
     </g>
     <g id="text_4">
      <!-- 0.05 -->
      <g transform="translate(392.808326 325.759063)scale(0.14 -0.14)">
       <use xlink:href="#STIXGeneral-Regular-48"/>
       <use x="49.999985" xlink:href="#STIXGeneral-Regular-46"/>
       <use x="74.999969" xlink:href="#STIXGeneral-Regular-48"/>
       <use x="124.999954" xlink:href="#STIXGeneral-Regular-53"/>
      </g>
     </g>
    </g>
    <g id="xtick_5">
     <g id="line2d_9">
      <path clip-path="url(#p55c15cf785)" d="M 498.553181 309.1975
L 498.553181 19.850625
" style="fill:none;stroke:#b0b0b0;stroke-linecap:square;stroke-width:0.8;"/>
     </g>
     <g id="line2d_10">
      <g>
       <use style="stroke:#000000;stroke-width:0.8;" x="498.553181" xlink:href="#mb2b88f01c9" y="309.1975"/>
      </g>
     </g>
     <g id="text_5">
      <!-- 0.10 -->
      <g transform="translate(486.303181 325.759063)scale(0.14 -0.14)">
       <use xlink:href="#STIXGeneral-Regular-48"/>
       <use x="49.999985" xlink:href="#STIXGeneral-Regular-46"/>
       <use x="74.999969" xlink:href="#STIXGeneral-Regular-49"/>
       <use x="124.999954" xlink:href="#STIXGeneral-Regular-48"/>
      </g>
     </g>
    </g>
    <g id="text_6">
     <!-- Means -->
     <g transform="translate(298.691875 342.359062)scale(0.14 -0.14)">
      <defs>
       <path d="M 86.40625 0
L 58.40625 0
L 58.40625 1.90625
Q 64.296875 2.296875 65.84375 4.140625
Q 67.40625 6 67.40625 12.296875
L 67.40625 57.203125
L 41.90625 0
L 40.5 0
L 15.296875 54.90625
L 15.296875 15.09375
Q 15.296875 7 17 4.59375
Q 18.703125 2.203125 24.59375 1.90625
L 24.59375 0
L 1.203125 0
L 1.203125 1.90625
Q 5.59375 2.203125 7.5 3.203125
Q 9.40625 4.203125 10.15625 6.75
Q 10.90625 9.296875 10.90625 15.09375
L 10.90625 54.90625
Q 10.90625 60.59375 9.203125 62.25
Q 7.5 63.90625 1.40625 64.296875
L 1.40625 66.203125
L 21.203125 66.203125
L 44.296875 16
L 66.40625 66.203125
L 86.296875 66.203125
L 86.296875 64.296875
Q 80.90625 64.203125 79.25 62.390625
Q 77.59375 60.59375 77.59375 55
L 77.59375 11.203125
Q 77.59375 5.90625 79.25 4.09375
Q 80.90625 2.296875 86.40625 1.90625
z
" id="STIXGeneral-Regular-77"/>
       <path d="M 40.796875 16.40625
L 42.40625 15.703125
Q 36.40625 -1 21.5 -1
Q 12.703125 -1 7.59375 5.140625
Q 2.5 11.296875 2.5 21.703125
Q 2.5 32.40625 8.203125 39.203125
Q 13.90625 46 23.203125 46
Q 32.203125 46 37.09375 39.09375
Q 40 35.09375 40.5 27.703125
L 9.703125 27.703125
Q 10.09375 21.40625 10.9375 18.09375
Q 11.796875 14.796875 14.296875 11.40625
Q 18.5 5.90625 25.40625 5.90625
Q 30.296875 5.90625 33.640625 8.296875
Q 37 10.703125 40.796875 16.40625
z
M 9.90625 30.90625
L 30.296875 30.90625
Q 29.40625 37.203125 27.34375 39.796875
Q 25.296875 42.40625 20.5 42.40625
Q 16.296875 42.40625 13.5 39.453125
Q 10.703125 36.5 9.90625 30.90625
z
" id="STIXGeneral-Regular-101"/>
       <path d="M 44.203125 6.59375
L 44.203125 3.796875
Q 40.40625 -1 35.203125 -1
Q 29.5 -1 28.796875 6.296875
L 28.703125 6.296875
Q 22.296875 -1 14.203125 -1
Q 9.5 -1 6.59375 1.75
Q 3.703125 4.5 3.703125 9.40625
Q 3.703125 16.40625 10.703125 21.09375
Q 15.5 24.296875 28.703125 29.203125
L 28.703125 34.59375
Q 28.703125 39.09375 26.546875 41.34375
Q 24.40625 43.59375 20.90625 43.59375
Q 17.90625 43.59375 15.90625 42.140625
Q 13.90625 40.703125 13.90625 38.703125
Q 13.90625 37.796875 14.203125 36.6875
Q 14.5 35.59375 14.5 34.5
Q 14.5 33 13.140625 31.703125
Q 11.796875 30.40625 9.90625 30.40625
Q 8.203125 30.40625 6.890625 31.703125
Q 5.59375 33 5.59375 35
Q 5.59375 39.796875 10.703125 43
Q 15.40625 46 22.203125 46
Q 30.296875 46 34 41.5
Q 35.796875 39.40625 36.296875 37.25
Q 36.796875 35.09375 36.796875 30.40625
L 36.796875 11.296875
Q 36.796875 4.703125 39.90625 4.703125
Q 41.90625 4.703125 44.203125 6.59375
z
M 28.703125 12.703125
L 28.703125 26.796875
Q 19.5 23.59375 15.90625 20.203125
Q 12.5 17.09375 12.5 12.5
Q 12.5 8.703125 14.390625 6.75
Q 16.296875 4.796875 19.40625 4.796875
Q 22.703125 4.796875 25.203125 6.40625
Q 27.296875 7.90625 28 9.203125
Q 28.703125 10.5 28.703125 12.703125
z
" id="STIXGeneral-Regular-97"/>
       <path d="M 48.5 0
L 27.703125 0
L 27.796875 1.5
Q 31.5 1.796875 32.75 3.640625
Q 34 5.5 34 10.5
L 34 30.40625
Q 34 40.5 26.703125 40.5
Q 24.203125 40.5 22 39.296875
Q 19.796875 38.09375 16.40625 34.796875
L 16.40625 7.203125
Q 16.40625 4.203125 17.75 3
Q 19.09375 1.796875 22.90625 1.5
L 22.90625 0
L 1.796875 0
L 1.796875 1.5
Q 5.59375 1.796875 6.796875 3.34375
Q 8 4.90625 8 9.40625
L 8 33.703125
Q 8 37.40625 7.296875 38.796875
Q 6.59375 40.203125 4.5 40.203125
Q 2.5 40.203125 1.59375 39.796875
L 1.59375 41.5
Q 8.59375 43.5 15.296875 46
L 16.09375 45.703125
L 16.09375 37.90625
L 16.203125 37.90625
Q 23.296875 46 30.59375 46
Q 36.296875 46 39.34375 42
Q 42.40625 38 42.40625 30.59375
L 42.40625 8.5
Q 42.40625 4.5 43.59375 3.203125
Q 44.796875 1.90625 48.5 1.5
z
" id="STIXGeneral-Regular-110"/>
       <path d="M 15.59375 30.09375
L 26 23.796875
Q 31 20.796875 32.890625 18.1875
Q 34.796875 15.59375 34.796875 11.5
Q 34.796875 6.5 30.640625 2.75
Q 26.5 -1 20.796875 -1
Q 16.09375 -1 13.5 -0.09375
Q 10.796875 0.796875 8.90625 0.796875
Q 7.203125 0.796875 6.5 -0.40625
L 5.203125 -0.40625
L 5.203125 15.296875
L 6.796875 15.296875
Q 8.40625 8 11.40625 4.59375
Q 14.40625 1.203125 19.5 1.203125
Q 23.203125 1.203125 25.5 3.296875
Q 27.796875 5.40625 27.796875 8.59375
Q 27.796875 13.203125 22.5 16.09375
L 17.09375 19.09375
Q 5.09375 25.796875 5.09375 33.59375
Q 5.09375 39.40625 8.84375 42.65625
Q 12.59375 45.90625 18.90625 45.90625
Q 23.296875 45.90625 25.59375 44.796875
Q 27.40625 44 28.40625 44
Q 29.09375 44 30 45
L 31.09375 45
L 31.59375 31.40625
L 30.09375 31.40625
Q 28.40625 38.203125 25.84375 40.953125
Q 23.296875 43.703125 18.796875 43.703125
Q 15.40625 43.703125 13.34375 42
Q 11.296875 40.296875 11.296875 36.90625
Q 11.296875 35.203125 12.4375 33.25
Q 13.59375 31.296875 15.59375 30.09375
z
" id="STIXGeneral-Regular-115"/>
      </defs>
      <use xlink:href="#STIXGeneral-Regular-77"/>
      <use x="88.899994" xlink:href="#STIXGeneral-Regular-101"/>
      <use x="133.299988" xlink:href="#STIXGeneral-Regular-97"/>
      <use x="177.699982" xlink:href="#STIXGeneral-Regular-110"/>
      <use x="227.699966" xlink:href="#STIXGeneral-Regular-115"/>
     </g>
    </g>
   </g>
   <g id="matplotlib.axis_2">
    <g id="ytick_1">
     <g id="line2d_11">
      <path clip-path="url(#p55c15cf785)" d="M 73.83125 309.1975
L 560.88 309.1975
" style="fill:none;stroke:#b0b0b0;stroke-linecap:square;stroke-width:0.8;"/>
     </g>
     <g id="line2d_12">
      <defs>
       <path d="M 0 0
L -3.5 0
" id="m0e9f61d697" style="stroke:#000000;stroke-width:0.8;"/>
      </defs>
      <g>
       <use style="stroke:#000000;stroke-width:0.8;" x="73.83125" xlink:href="#m0e9f61d697" y="309.1975"/>
      </g>
     </g>
     <g id="text_7">
      <!-- 0 -->
      <g transform="translate(59.83125 313.978281)scale(0.14 -0.14)">
       <use xlink:href="#STIXGeneral-Regular-48"/>
      </g>
     </g>
    </g>
    <g id="ytick_2">
     <g id="line2d_13">
      <path clip-path="url(#p55c15cf785)" d="M 73.83125 251.328125
L 560.88 251.328125
" style="fill:none;stroke:#b0b0b0;stroke-linecap:square;stroke-width:0.8;"/>
     </g>
     <g id="line2d_14">
      <g>
       <use style="stroke:#000000;stroke-width:0.8;" x="73.83125" xlink:href="#m0e9f61d697" y="251.328125"/>
      </g>
     </g>
     <g id="text_8">
      <!-- 2000 -->
      <g transform="translate(38.83125 256.108906)scale(0.14 -0.14)">
       <defs>
        <path d="M 47.40625 13.703125
L 42 0
L 2.90625 0
L 2.90625 1.203125
L 20.703125 20.09375
Q 27.703125 27.40625 30.703125 33.5
Q 33.703125 39.59375 33.703125 46.09375
Q 33.703125 52.796875 30 56.5
Q 26.296875 60.203125 19.796875 60.203125
Q 14.40625 60.203125 11.25 57.390625
Q 8.09375 54.59375 5.09375 47.203125
L 3 47.703125
Q 4.703125 57 9.84375 62.296875
Q 15 67.59375 23.796875 67.59375
Q 32.09375 67.59375 37.1875 62.59375
Q 42.296875 57.59375 42.296875 50
Q 42.296875 38.703125 29.5 25.203125
L 13 7.59375
L 36.40625 7.59375
Q 39.703125 7.59375 41.640625 8.890625
Q 43.59375 10.203125 46 14.296875
z
" id="STIXGeneral-Regular-50"/>
       </defs>
       <use xlink:href="#STIXGeneral-Regular-50"/>
       <use x="49.999985" xlink:href="#STIXGeneral-Regular-48"/>
       <use x="99.999969" xlink:href="#STIXGeneral-Regular-48"/>
       <use x="149.999954" xlink:href="#STIXGeneral-Regular-48"/>
      </g>
     </g>
    </g>
    <g id="ytick_3">
     <g id="line2d_15">
      <path clip-path="url(#p55c15cf785)" d="M 73.83125 193.45875
L 560.88 193.45875
" style="fill:none;stroke:#b0b0b0;stroke-linecap:square;stroke-width:0.8;"/>
     </g>
     <g id="line2d_16">
      <g>
       <use style="stroke:#000000;stroke-width:0.8;" x="73.83125" xlink:href="#m0e9f61d697" y="193.45875"/>
      </g>
     </g>
     <g id="text_9">
      <!-- 4000 -->
      <g transform="translate(38.83125 198.239531)scale(0.14 -0.14)">
       <defs>
        <path d="M 47.296875 16.703125
L 37 16.703125
L 37 0
L 29.203125 0
L 29.203125 16.703125
L 1.203125 16.703125
L 1.203125 23.09375
L 32.59375 67.59375
L 37 67.59375
L 37 23.09375
L 47.296875 23.09375
z
M 29.203125 23.09375
L 29.203125 57.40625
L 5.203125 23.09375
z
" id="STIXGeneral-Regular-52"/>
       </defs>
       <use xlink:href="#STIXGeneral-Regular-52"/>
       <use x="49.999985" xlink:href="#STIXGeneral-Regular-48"/>
       <use x="99.999969" xlink:href="#STIXGeneral-Regular-48"/>
       <use x="149.999954" xlink:href="#STIXGeneral-Regular-48"/>
      </g>
     </g>
    </g>
    <g id="ytick_4">
     <g id="line2d_17">
      <path clip-path="url(#p55c15cf785)" d="M 73.83125 135.589375
L 560.88 135.589375
" style="fill:none;stroke:#b0b0b0;stroke-linecap:square;stroke-width:0.8;"/>
     </g>
     <g id="line2d_18">
      <g>
       <use style="stroke:#000000;stroke-width:0.8;" x="73.83125" xlink:href="#m0e9f61d697" y="135.589375"/>
      </g>
     </g>
     <g id="text_10">
      <!-- 6000 -->
      <g transform="translate(38.83125 140.370156)scale(0.14 -0.14)">
       <defs>
        <path d="M 44.59375 68.40625
L 44.796875 66.796875
Q 33 64.90625 25.09375 57.25
Q 17.203125 49.59375 15.203125 38.296875
Q 21 42.796875 27.90625 42.796875
Q 36.703125 42.796875 41.75 37.1875
Q 46.796875 31.59375 46.796875 21.90625
Q 46.796875 12.09375 41.703125 5.90625
Q 35.796875 -1.40625 25.796875 -1.40625
Q 13.59375 -1.40625 8.09375 8.703125
Q 3.40625 17.296875 3.40625 27.90625
Q 3.40625 44.296875 14.296875 55.5
Q 20.5 61.90625 27.046875 64.546875
Q 33.59375 67.203125 44.59375 68.40625
z
M 37.796875 18.796875
Q 37.796875 38.203125 24.296875 38.203125
Q 19.296875 38.203125 16 35.546875
Q 12.703125 32.90625 12.703125 26.59375
Q 12.703125 14.90625 16.34375 8.15625
Q 20 1.40625 26.90625 1.40625
Q 32.203125 1.40625 35 6.15625
Q 37.796875 10.90625 37.796875 18.796875
z
" id="STIXGeneral-Regular-54"/>
       </defs>
       <use xlink:href="#STIXGeneral-Regular-54"/>
       <use x="49.999985" xlink:href="#STIXGeneral-Regular-48"/>
       <use x="99.999969" xlink:href="#STIXGeneral-Regular-48"/>
       <use x="149.999954" xlink:href="#STIXGeneral-Regular-48"/>
      </g>
     </g>
    </g>
    <g id="ytick_5">
     <g id="line2d_19">
      <path clip-path="url(#p55c15cf785)" d="M 73.83125 77.72
L 560.88 77.72
" style="fill:none;stroke:#b0b0b0;stroke-linecap:square;stroke-width:0.8;"/>
     </g>
     <g id="line2d_20">
      <g>
       <use style="stroke:#000000;stroke-width:0.8;" x="73.83125" xlink:href="#m0e9f61d697" y="77.72"/>
      </g>
     </g>
     <g id="text_11">
      <!-- 8000 -->
      <g transform="translate(38.83125 82.500781)scale(0.14 -0.14)">
       <defs>
        <path d="M 44.5 15.5
Q 44.5 7.796875 39.140625 3.1875
Q 33.796875 -1.40625 24.796875 -1.40625
Q 16.40625 -1.40625 11 3.1875
Q 5.59375 7.796875 5.59375 14.90625
Q 5.59375 20.203125 8.1875 23.953125
Q 10.796875 27.703125 18.59375 33.203125
Q 11.09375 39.40625 8.640625 43.203125
Q 6.203125 47 6.203125 52
Q 6.203125 59.09375 11.640625 63.34375
Q 17.09375 67.59375 25.59375 67.59375
Q 32.90625 67.59375 37.65625 63.4375
Q 42.40625 59.296875 42.40625 53.296875
Q 42.40625 47.796875 39.546875 44.5
Q 36.703125 41.203125 29 37.09375
Q 38 31.09375 41.25 26.390625
Q 44.5 21.703125 44.5 15.5
z
M 35.5 53.296875
Q 35.5 58.5 32.59375 61.640625
Q 29.703125 64.796875 24.59375 64.796875
Q 19.5 64.796875 16.546875 62.140625
Q 13.59375 59.5 13.59375 54.890625
Q 13.59375 50.296875 16.546875 46.546875
Q 19.5 42.796875 26.09375 38.90625
Q 31.203125 41.90625 33.34375 45.25
Q 35.5 48.59375 35.5 53.296875
z
M 27.09375 27.203125
L 21.203125 31.203125
Q 16.796875 27.59375 15 24.140625
Q 13.203125 20.703125 13.203125 15.796875
Q 13.203125 9 16.640625 5.203125
Q 20.09375 1.40625 25.90625 1.40625
Q 30.796875 1.40625 33.84375 4.453125
Q 36.90625 7.5 36.90625 12.40625
Q 36.90625 16.90625 34.59375 20.296875
Q 32.296875 23.703125 27.09375 27.203125
z
" id="STIXGeneral-Regular-56"/>
       </defs>
       <use xlink:href="#STIXGeneral-Regular-56"/>
       <use x="49.999985" xlink:href="#STIXGeneral-Regular-48"/>
       <use x="99.999969" xlink:href="#STIXGeneral-Regular-48"/>
       <use x="149.999954" xlink:href="#STIXGeneral-Regular-48"/>
      </g>
     </g>
    </g>
    <g id="ytick_6">
     <g id="line2d_21">
      <path clip-path="url(#p55c15cf785)" d="M 73.83125 19.850625
L 560.88 19.850625
" style="fill:none;stroke:#b0b0b0;stroke-linecap:square;stroke-width:0.8;"/>
     </g>
     <g id="line2d_22">
      <g>
       <use style="stroke:#000000;stroke-width:0.8;" x="73.83125" xlink:href="#m0e9f61d697" y="19.850625"/>
      </g>
     </g>
     <g id="text_12">
      <!-- 10000 -->
      <g transform="translate(31.83125 24.631406)scale(0.14 -0.14)">
       <use xlink:href="#STIXGeneral-Regular-49"/>
       <use x="49.999985" xlink:href="#STIXGeneral-Regular-48"/>
       <use x="99.999969" xlink:href="#STIXGeneral-Regular-48"/>
       <use x="149.999954" xlink:href="#STIXGeneral-Regular-48"/>
       <use x="199.999939" xlink:href="#STIXGeneral-Regular-48"/>
      </g>
     </g>
    </g>
    <g id="text_13">
     <!-- Number of vectors -->
     <g transform="translate(24.792812 217.010938)rotate(-90)scale(0.14 -0.14)">
      <defs>
       <path d="M 70.703125 66.203125
L 70.703125 64.296875
Q 65.59375 63.796875 64.09375 62.5
Q 62.5 61.09375 61.84375 58.6875
Q 61.203125 56.296875 61.203125 50.703125
L 61.203125 -1.09375
L 59.40625 -1.09375
L 15.296875 53.796875
L 15.296875 15
Q 15.296875 7.40625 17 5.046875
Q 18.703125 2.703125 24.59375 1.90625
L 24.59375 0
L 1.203125 0
L 1.203125 1.90625
Q 7.40625 2.59375 9.15625 4.84375
Q 10.90625 7.09375 10.90625 15
L 10.90625 59
Q 8.296875 62.203125 6.5 63.25
Q 4.703125 64.296875 1.203125 64.296875
L 1.203125 66.203125
L 18.203125 66.203125
L 56.796875 17.90625
L 56.796875 51.90625
Q 56.796875 59.5 54.90625 61.703125
Q 53.703125 63 52.25 63.453125
Q 50.796875 63.90625 47 64.296875
L 47 66.203125
z
" id="STIXGeneral-Regular-78"/>
       <path d="M 48 5
L 48 3.59375
Q 40.203125 1.5 34.296875 -0.90625
L 33.796875 -0.59375
L 33.796875 7.59375
L 33.59375 7.59375
Q 27.296875 -1 19.296875 -1
Q 13.59375 -1 10.34375 2.5
Q 7.09375 6 7.09375 11.796875
L 7.09375 36.90625
Q 7.09375 40.59375 5.796875 42
Q 4.5 43.40625 0.90625 43.59375
L 0.90625 45
L 15.5 45
L 15.5 12.703125
Q 15.5 9.296875 17.546875 7.046875
Q 19.59375 4.796875 22.59375 4.796875
Q 27.5 4.796875 31 7.90625
Q 32.296875 9.09375 32.796875 10.140625
Q 33.296875 11.203125 33.296875 13.703125
L 33.296875 36.796875
Q 33.296875 40.703125 31.890625 41.84375
Q 30.5 43 25.90625 43.296875
L 25.90625 45
L 41.703125 45
L 41.703125 10.703125
Q 41.703125 7.203125 42.84375 6.09375
Q 44 5 47.40625 5
z
" id="STIXGeneral-Regular-117"/>
       <path d="M 77.5 0
L 55.703125 0
L 55.703125 1.5
Q 59.90625 1.90625 61.046875 3.25
Q 62.203125 4.59375 62.203125 9
L 62.203125 29.59375
Q 62.203125 35.59375 60.453125 38.1875
Q 58.703125 40.796875 54.5 40.796875
Q 51 40.796875 48.546875 39.390625
Q 46.09375 38 43.796875 34.703125
L 43.796875 9.5
Q 43.796875 4.703125 45.25 3.140625
Q 46.703125 1.59375 51 1.5
L 51 0
L 28.59375 0
L 28.59375 1.5
Q 33 1.796875 34.203125 2.9375
Q 35.40625 4.09375 35.40625 8.59375
L 35.40625 29.703125
Q 35.40625 40.796875 28.90625 40.796875
Q 26.09375 40.796875 22.9375 39.546875
Q 19.796875 38.296875 18.296875 36.5
Q 17 35 17 34.796875
L 17 7
Q 17 3.796875 18.390625 2.75
Q 19.796875 1.703125 23.796875 1.5
L 23.796875 0
L 1.59375 0
L 1.59375 1.5
Q 5.796875 1.59375 7.1875 3.046875
Q 8.59375 4.5 8.59375 8.796875
L 8.59375 33.59375
Q 8.59375 37.296875 7.796875 38.75
Q 7 40.203125 5.09375 40.203125
Q 3.59375 40.203125 1.90625 39.796875
L 1.90625 41.5
Q 8.703125 43.40625 15.796875 46
L 16.59375 45.703125
L 16.59375 38.296875
L 16.796875 38.296875
Q 21.296875 43 24.75 44.5
Q 28.203125 46 32.09375 46
Q 40 46 42.703125 37.59375
Q 50.5 46 59 46
Q 70.59375 46 70.59375 28
L 70.59375 7.703125
Q 70.59375 4.40625 71.59375 3.15625
Q 72.59375 1.90625 74.90625 1.703125
L 77.5 1.5
z
" id="STIXGeneral-Regular-109"/>
       <path d="M 15.296875 68.09375
L 15.296875 37.59375
Q 16.90625 41.40625 20.546875 43.703125
Q 24.203125 46 28.796875 46
Q 36.703125 46 41.75 39.703125
Q 46.796875 33.40625 46.796875 24
Q 46.796875 13 40.09375 6
Q 33.40625 -1 23.40625 -1
Q 17.296875 -1 12.09375 1.046875
Q 6.90625 3.09375 6.90625 5.59375
L 6.90625 56.59375
Q 6.90625 60.296875 6 61.34375
Q 5.09375 62.40625 2 62.40625
Q 1.296875 62.40625 0.296875 62.203125
L 0.296875 63.90625
L 3.296875 64.796875
Q 13.5 67.90625 14.796875 68.296875
z
M 15.296875 31.796875
L 15.296875 7.40625
Q 15.296875 5.09375 18.140625 3.640625
Q 21 2.203125 25 2.203125
Q 30.90625 2.203125 34.296875 6.5
Q 38 11.09375 38 19.703125
Q 38 29.5 34.09375 35
Q 30.796875 39.703125 25.203125 39.703125
Q 21.203125 39.703125 18.25 37.34375
Q 15.296875 35 15.296875 31.796875
z
" id="STIXGeneral-Regular-98"/>
       <path d="M 16 45.796875
L 16 36.59375
Q 19.796875 42 22.34375 44
Q 24.90625 46 28 46
Q 30.59375 46 32.046875 44.59375
Q 33.5 43.203125 33.5 40.703125
Q 33.5 38.59375 32.453125 37.390625
Q 31.40625 36.203125 29.59375 36.203125
Q 27.703125 36.203125 25.59375 38.203125
Q 24 39.703125 23 39.703125
Q 20.90625 39.703125 18.453125 36.796875
Q 16 33.90625 16 31.5
L 16 9
Q 16 4.703125 17.703125 3.203125
Q 19.40625 1.703125 24.5 1.5
L 24.5 0
L 0.5 0
L 0.5 1.5
Q 5.296875 2.40625 6.4375 3.5
Q 7.59375 4.59375 7.59375 8.40625
L 7.59375 33.40625
Q 7.59375 36.703125 6.84375 38.046875
Q 6.09375 39.40625 4.203125 39.40625
Q 2.59375 39.40625 0.703125 39
L 0.703125 40.59375
Q 7 42.59375 15.5 46
z
" id="STIXGeneral-Regular-114"/>
       <path id="STIXGeneral-Regular-32"/>
       <path d="M 47 23.09375
Q 47 12.59375 40.75 5.796875
Q 34.5 -1 24.5 -1
Q 15.296875 -1 9.09375 5.75
Q 2.90625 12.5 2.90625 22.796875
Q 2.90625 33.203125 9.09375 39.59375
Q 15.296875 46 25.40625 46
Q 34.703125 46 40.84375 39.640625
Q 47 33.296875 47 23.09375
z
M 38 20.40625
Q 38 31.796875 33 38.203125
Q 29 43.203125 23.5 43.203125
Q 18.296875 43.203125 15.09375 38.953125
Q 11.90625 34.703125 11.90625 27.296875
Q 11.90625 14.5 17.203125 6.796875
Q 20.59375 1.796875 26.203125 1.796875
Q 31.703125 1.796875 34.84375 6.75
Q 38 11.703125 38 20.40625
z
" id="STIXGeneral-Regular-111"/>
       <path d="M 2.09375 45
L 10.296875 45
Q 10.40625 51 11.09375 54.34375
Q 11.796875 57.703125 13.796875 61.09375
Q 18 68.296875 27.90625 68.296875
Q 32.40625 68.296875 35.34375 66.546875
Q 38.296875 64.796875 38.296875 62.09375
Q 38.296875 60.40625 37.09375 59.203125
Q 35.90625 58 34.09375 58
Q 31.703125 58 29.59375 61.59375
Q 27.203125 65.5 24.296875 65.5
Q 18.703125 65.5 18.703125 56.59375
L 18.703125 45
L 30.90625 45
L 30.90625 41.796875
L 18.703125 41.796875
L 18.703125 10.40625
Q 18.703125 4.796875 20.296875 3.25
Q 21.90625 1.703125 28 1.5
L 28 0
L 2 0
L 2 1.5
Q 7.40625 1.796875 8.84375 3.34375
Q 10.296875 4.90625 10.296875 10.40625
L 10.296875 41.796875
L 2.09375 41.796875
z
" id="STIXGeneral-Regular-102"/>
       <path d="M 47.703125 45
L 47.703125 43.5
Q 45.40625 43.296875 44.296875 42
Q 43.203125 40.703125 41.203125 35.703125
L 28.40625 3.59375
Q 26.40625 -1.40625 25.59375 -1.40625
Q 24.796875 -1.40625 23.796875 1.203125
Q 23.59375 1.5 23.390625 2.203125
Q 23.203125 2.90625 23 3.296875
L 11 32
Q 7.796875 39.59375 6.296875 41.4375
Q 4.796875 43.296875 1.90625 43.5
L 1.90625 45
L 21.5 45
L 21.5 43.5
Q 18.90625 43.296875 17.90625 42.6875
Q 16.90625 42.09375 16.90625 40.796875
Q 16.90625 39.203125 17.796875 37
L 28 11.40625
L 37.90625 37.296875
Q 38.5 38.796875 38.5 40.296875
Q 38.5 43.09375 33.796875 43.5
L 33.796875 45
z
" id="STIXGeneral-Regular-118"/>
       <path d="M 39.796875 15.59375
L 41.203125 14.703125
Q 36.90625 6.296875 33 3.203125
Q 27.90625 -1 21.5 -1
Q 13.203125 -1 7.84375 5.25
Q 2.5 11.5 2.5 21.203125
Q 2.5 33.90625 10.90625 40.90625
Q 17.09375 46 24.40625 46
Q 30.703125 46 35.25 42.953125
Q 39.796875 39.90625 39.796875 35.703125
Q 39.796875 34 38.390625 32.75
Q 37 31.5 35.09375 31.5
Q 31.59375 31.5 30.296875 36.09375
L 29.703125 38.296875
Q 28.90625 41.09375 27.703125 42.09375
Q 26.5 43.09375 23.796875 43.09375
Q 17.703125 43.09375 13.953125 38.296875
Q 10.203125 33.5 10.203125 25.703125
Q 10.203125 17.09375 14.5 11.640625
Q 18.796875 6.203125 25.703125 6.203125
Q 30 6.203125 33.09375 8.25
Q 36.203125 10.296875 39.796875 15.59375
z
" id="STIXGeneral-Regular-99"/>
       <path d="M 26.59375 7.703125
L 27.90625 6.59375
Q 23.09375 -1 15.796875 -1
Q 7 -1 7 11.703125
L 7 41.796875
L 1.703125 41.796875
Q 1.296875 42.09375 1.296875 42.5
Q 1.296875 43.296875 3 44.40625
Q 6.796875 46.59375 12.703125 55.09375
Q 12.90625 55.40625 13.65625 56.34375
Q 14.40625 57.296875 14.703125 57.90625
Q 15.40625 57.90625 15.40625 56.59375
L 15.40625 45
L 25.5 45
L 25.5 41.796875
L 15.40625 41.796875
L 15.40625 13.203125
Q 15.40625 8.40625 16.59375 6.296875
Q 17.796875 4.203125 20.59375 4.203125
Q 23.59375 4.203125 26.59375 7.703125
z
" id="STIXGeneral-Regular-116"/>
      </defs>
      <use xlink:href="#STIXGeneral-Regular-78"/>
      <use x="72.199982" xlink:href="#STIXGeneral-Regular-117"/>
      <use x="122.199966" xlink:href="#STIXGeneral-Regular-109"/>
      <use x="199.999954" xlink:href="#STIXGeneral-Regular-98"/>
      <use x="249.999939" xlink:href="#STIXGeneral-Regular-101"/>
      <use x="294.399933" xlink:href="#STIXGeneral-Regular-114"/>
      <use x="327.699921" xlink:href="#STIXGeneral-Regular-32"/>
      <use x="352.699905" xlink:href="#STIXGeneral-Regular-111"/>
      <use x="402.69989" xlink:href="#STIXGeneral-Regular-102"/>
      <use x="435.999878" xlink:href="#STIXGeneral-Regular-32"/>
      <use x="460.999863" xlink:href="#STIXGeneral-Regular-118"/>
      <use x="510.999847" xlink:href="#STIXGeneral-Regular-101"/>
      <use x="555.399841" xlink:href="#STIXGeneral-Regular-99"/>
      <use x="599.799835" xlink:href="#STIXGeneral-Regular-116"/>
      <use x="627.599823" xlink:href="#STIXGeneral-Regular-111"/>
      <use x="677.599808" xlink:href="#STIXGeneral-Regular-114"/>
      <use x="710.899796" xlink:href="#STIXGeneral-Regular-115"/>
     </g>
    </g>
   </g>
   <g id="patch_3">
    <path clip-path="url(#p55c15cf785)" d="M 95.96983 309.1975
L 98.183688 309.1975
L 98.183688 309.168565
L 95.96983 309.168565
z
" style="fill:#ff00ff;opacity:0.5;"/>
   </g>
   <g id="patch_4">
    <path clip-path="url(#p55c15cf785)" d="M 98.183688 309.1975
L 100.397545 309.1975
L 100.397545 309.1975
L 98.183688 309.1975
z
" style="fill:#ff00ff;opacity:0.5;"/>
   </g>
   <g id="patch_5">
    <path clip-path="url(#p55c15cf785)" d="M 100.397545 309.1975
L 102.611403 309.1975
L 102.611403 309.1975
L 100.397545 309.1975
z
" style="fill:#ff00ff;opacity:0.5;"/>
   </g>
   <g id="patch_6">
    <path clip-path="url(#p55c15cf785)" d="M 102.611403 309.1975
L 104.825261 309.1975
L 104.825261 309.168565
L 102.611403 309.168565
z
" style="fill:#ff00ff;opacity:0.5;"/>
   </g>
   <g id="patch_7">
    <path clip-path="url(#p55c15cf785)" d="M 104.825261 309.1975
L 107.039119 309.1975
L 107.039119 309.1975
L 104.825261 309.1975
z
" style="fill:#ff00ff;opacity:0.5;"/>
   </g>
   <g id="patch_8">
    <path clip-path="url(#p55c15cf785)" d="M 107.039119 309.1975
L 109.252977 309.1975
L 109.252977 309.139631
L 107.039119 309.139631
z
" style="fill:#ff00ff;opacity:0.5;"/>
   </g>
   <g id="patch_9">
    <path clip-path="url(#p55c15cf785)" d="M 109.252977 309.1975
L 111.466835 309.1975
L 111.466835 309.168565
L 109.252977 309.168565
z
" style="fill:#ff00ff;opacity:0.5;"/>
   </g>
   <g id="patch_10">
    <path clip-path="url(#p55c15cf785)" d="M 111.466835 309.1975
L 113.680693 309.1975
L 113.680693 309.168565
L 111.466835 309.168565
z
" style="fill:#ff00ff;opacity:0.5;"/>
   </g>
   <g id="patch_11">
    <path clip-path="url(#p55c15cf785)" d="M 113.680693 309.1975
L 115.894551 309.1975
L 115.894551 309.168565
L 113.680693 309.168565
z
" style="fill:#ff00ff;opacity:0.5;"/>
   </g>
   <g id="patch_12">
    <path clip-path="url(#p55c15cf785)" d="M 115.894551 309.1975
L 118.108409 309.1975
L 118.108409 309.168565
L 115.894551 309.168565
z
" style="fill:#ff00ff;opacity:0.5;"/>
   </g>
   <g id="patch_13">
    <path clip-path="url(#p55c15cf785)" d="M 118.108409 309.1975
L 120.322267 309.1975
L 120.322267 309.168565
L 118.108409 309.168565
z
" style="fill:#ff00ff;opacity:0.5;"/>
   </g>
   <g id="patch_14">
    <path clip-path="url(#p55c15cf785)" d="M 120.322267 309.1975
L 122.536125 309.1975
L 122.536125 309.139631
L 120.322267 309.139631
z
" style="fill:#ff00ff;opacity:0.5;"/>
   </g>
   <g id="patch_15">
    <path clip-path="url(#p55c15cf785)" d="M 122.536125 309.1975
L 124.749983 309.1975
L 124.749983 309.110696
L 122.536125 309.110696
z
" style="fill:#ff00ff;opacity:0.5;"/>
   </g>
   <g id="patch_16">
    <path clip-path="url(#p55c15cf785)" d="M 124.749983 309.1975
L 126.963841 309.1975
L 126.963841 309.139631
L 124.749983 309.139631
z
" style="fill:#ff00ff;opacity:0.5;"/>
   </g>
   <g id="patch_17">
    <path clip-path="url(#p55c15cf785)" d="M 126.963841 309.1975
L 129.177699 309.1975
L 129.177699 309.110696
L 126.963841 309.110696
z
" style="fill:#ff00ff;opacity:0.5;"/>
   </g>
   <g id="patch_18">
    <path clip-path="url(#p55c15cf785)" d="M 129.177699 309.1975
L 131.391557 309.1975
L 131.391557 309.052827
L 129.177699 309.052827
z
" style="fill:#ff00ff;opacity:0.5;"/>
   </g>
   <g id="patch_19">
    <path clip-path="url(#p55c15cf785)" d="M 131.391557 309.1975
L 133.605415 309.1975
L 133.605415 309.110696
L 131.391557 309.110696
z
" style="fill:#ff00ff;opacity:0.5;"/>
   </g>
   <g id="patch_20">
    <path clip-path="url(#p55c15cf785)" d="M 133.605415 309.1975
L 135.819273 309.1975
L 135.819273 309.081761
L 133.605415 309.081761
z
" style="fill:#ff00ff;opacity:0.5;"/>
   </g>
   <g id="patch_21">
    <path clip-path="url(#p55c15cf785)" d="M 135.819273 309.1975
L 138.033131 309.1975
L 138.033131 309.168565
L 135.819273 309.168565
z
" style="fill:#ff00ff;opacity:0.5;"/>
   </g>
   <g id="patch_22">
    <path clip-path="url(#p55c15cf785)" d="M 138.033131 309.1975
L 140.246989 309.1975
L 140.246989 309.052827
L 138.033131 309.052827
z
" style="fill:#ff00ff;opacity:0.5;"/>
   </g>
   <g id="patch_23">
    <path clip-path="url(#p55c15cf785)" d="M 140.246989 309.1975
L 142.460847 309.1975
L 142.460847 309.023892
L 140.246989 309.023892
z
" style="fill:#ff00ff;opacity:0.5;"/>
   </g>
   <g id="patch_24">
    <path clip-path="url(#p55c15cf785)" d="M 142.460847 309.1975
L 144.674705 309.1975
L 144.674705 309.110696
L 142.460847 309.110696
z
" style="fill:#ff00ff;opacity:0.5;"/>
   </g>
   <g id="patch_25">
    <path clip-path="url(#p55c15cf785)" d="M 144.674705 309.1975
L 146.888563 309.1975
L 146.888563 308.937088
L 144.674705 308.937088
z
" style="fill:#ff00ff;opacity:0.5;"/>
   </g>
   <g id="patch_26">
    <path clip-path="url(#p55c15cf785)" d="M 146.888563 309.1975
L 149.10242 309.1975
L 149.10242 309.052827
L 146.888563 309.052827
z
" style="fill:#ff00ff;opacity:0.5;"/>
   </g>
   <g id="patch_27">
    <path clip-path="url(#p55c15cf785)" d="M 149.10242 309.1975
L 151.316278 309.1975
L 151.316278 308.908153
L 149.10242 308.908153
z
" style="fill:#ff00ff;opacity:0.5;"/>
   </g>
   <g id="patch_28">
    <path clip-path="url(#p55c15cf785)" d="M 151.316278 309.1975
L 153.530136 309.1975
L 153.530136 308.792414
L 151.316278 308.792414
z
" style="fill:#ff00ff;opacity:0.5;"/>
   </g>
   <g id="patch_29">
    <path clip-path="url(#p55c15cf785)" d="M 153.530136 309.1975
L 155.743994 309.1975
L 155.743994 308.908153
L 153.530136 308.908153
z
" style="fill:#ff00ff;opacity:0.5;"/>
   </g>
   <g id="patch_30">
    <path clip-path="url(#p55c15cf785)" d="M 155.743994 309.1975
L 157.957852 309.1975
L 157.957852 308.76348
L 155.743994 308.76348
z
" style="fill:#ff00ff;opacity:0.5;"/>
   </g>
   <g id="patch_31">
    <path clip-path="url(#p55c15cf785)" d="M 157.957852 309.1975
L 160.17171 309.1975
L 160.17171 308.618806
L 157.957852 308.618806
z
" style="fill:#ff00ff;opacity:0.5;"/>
   </g>
   <g id="patch_32">
    <path clip-path="url(#p55c15cf785)" d="M 160.17171 309.1975
L 162.385568 309.1975
L 162.385568 308.474133
L 160.17171 308.474133
z
" style="fill:#ff00ff;opacity:0.5;"/>
   </g>
   <g id="patch_33">
    <path clip-path="url(#p55c15cf785)" d="M 162.385568 309.1975
L 164.599426 309.1975
L 164.599426 308.560937
L 162.385568 308.560937
z
" style="fill:#ff00ff;opacity:0.5;"/>
   </g>
   <g id="patch_34">
    <path clip-path="url(#p55c15cf785)" d="M 164.599426 309.1975
L 166.813284 309.1975
L 166.813284 308.300525
L 164.599426 308.300525
z
" style="fill:#ff00ff;opacity:0.5;"/>
   </g>
   <g id="patch_35">
    <path clip-path="url(#p55c15cf785)" d="M 166.813284 309.1975
L 169.027142 309.1975
L 169.027142 308.069047
L 166.813284 308.069047
z
" style="fill:#ff00ff;opacity:0.5;"/>
   </g>
   <g id="patch_36">
    <path clip-path="url(#p55c15cf785)" d="M 169.027142 309.1975
L 171.241 309.1975
L 171.241 308.126917
L 169.027142 308.126917
z
" style="fill:#ff00ff;opacity:0.5;"/>
   </g>
   <g id="patch_37">
    <path clip-path="url(#p55c15cf785)" d="M 171.241 309.1975
L 173.454858 309.1975
L 173.454858 307.606092
L 171.241 307.606092
z
" style="fill:#ff00ff;opacity:0.5;"/>
   </g>
   <g id="patch_38">
    <path clip-path="url(#p55c15cf785)" d="M 173.454858 309.1975
L 175.668716 309.1975
L 175.668716 307.635027
L 173.454858 307.635027
z
" style="fill:#ff00ff;opacity:0.5;"/>
   </g>
   <g id="patch_39">
    <path clip-path="url(#p55c15cf785)" d="M 175.668716 309.1975
L 177.882574 309.1975
L 177.882574 307.027398
L 175.668716 307.027398
z
" style="fill:#ff00ff;opacity:0.5;"/>
   </g>
   <g id="patch_40">
    <path clip-path="url(#p55c15cf785)" d="M 177.882574 309.1975
L 180.096432 309.1975
L 180.096432 307.027398
L 177.882574 307.027398
z
" style="fill:#ff00ff;opacity:0.5;"/>
   </g>
   <g id="patch_41">
    <path clip-path="url(#p55c15cf785)" d="M 180.096432 309.1975
L 182.31029 309.1975
L 182.31029 306.535509
L 180.096432 306.535509
z
" style="fill:#ff00ff;opacity:0.5;"/>
   </g>
   <g id="patch_42">
    <path clip-path="url(#p55c15cf785)" d="M 182.31029 309.1975
L 184.524148 309.1975
L 184.524148 306.390835
L 182.31029 306.390835
z
" style="fill:#ff00ff;opacity:0.5;"/>
   </g>
   <g id="patch_43">
    <path clip-path="url(#p55c15cf785)" d="M 184.524148 309.1975
L 186.738006 309.1975
L 186.738006 306.159358
L 184.524148 306.159358
z
" style="fill:#ff00ff;opacity:0.5;"/>
   </g>
   <g id="patch_44">
    <path clip-path="url(#p55c15cf785)" d="M 186.738006 309.1975
L 188.951864 309.1975
L 188.951864 305.667468
L 186.738006 305.667468
z
" style="fill:#ff00ff;opacity:0.5;"/>
   </g>
   <g id="patch_45">
    <path clip-path="url(#p55c15cf785)" d="M 188.951864 309.1975
L 191.165722 309.1975
L 191.165722 305.00197
L 188.951864 305.00197
z
" style="fill:#ff00ff;opacity:0.5;"/>
   </g>
   <g id="patch_46">
    <path clip-path="url(#p55c15cf785)" d="M 191.165722 309.1975
L 193.37958 309.1975
L 193.37958 304.249668
L 191.165722 304.249668
z
" style="fill:#ff00ff;opacity:0.5;"/>
   </g>
   <g id="patch_47">
    <path clip-path="url(#p55c15cf785)" d="M 193.37958 309.1975
L 195.593437 309.1975
L 195.593437 303.294824
L 193.37958 303.294824
z
" style="fill:#ff00ff;opacity:0.5;"/>
   </g>
   <g id="patch_48">
    <path clip-path="url(#p55c15cf785)" d="M 195.593437 309.1975
L 197.807295 309.1975
L 197.807295 303.352693
L 195.593437 303.352693
z
" style="fill:#ff00ff;opacity:0.5;"/>
   </g>
   <g id="patch_49">
    <path clip-path="url(#p55c15cf785)" d="M 197.807295 309.1975
L 200.021153 309.1975
L 200.021153 301.79022
L 197.807295 301.79022
z
" style="fill:#ff00ff;opacity:0.5;"/>
   </g>
   <g id="patch_50">
    <path clip-path="url(#p55c15cf785)" d="M 200.021153 309.1975
L 202.235011 309.1975
L 202.235011 300.951114
L 200.021153 300.951114
z
" style="fill:#ff00ff;opacity:0.5;"/>
   </g>
   <g id="patch_51">
    <path clip-path="url(#p55c15cf785)" d="M 202.235011 309.1975
L 204.448869 309.1975
L 204.448869 300.083073
L 202.235011 300.083073
z
" style="fill:#ff00ff;opacity:0.5;"/>
   </g>
   <g id="patch_52">
    <path clip-path="url(#p55c15cf785)" d="M 204.448869 309.1975
L 206.662727 309.1975
L 206.662727 298.08658
L 204.448869 298.08658
z
" style="fill:#ff00ff;opacity:0.5;"/>
   </g>
   <g id="patch_53">
    <path clip-path="url(#p55c15cf785)" d="M 206.662727 309.1975
L 208.876585 309.1975
L 208.876585 297.16067
L 206.662727 297.16067
z
" style="fill:#ff00ff;opacity:0.5;"/>
   </g>
   <g id="patch_54">
    <path clip-path="url(#p55c15cf785)" d="M 208.876585 309.1975
L 211.090443 309.1975
L 211.090443 294.730156
L 208.876585 294.730156
z
" style="fill:#ff00ff;opacity:0.5;"/>
   </g>
   <g id="patch_55">
    <path clip-path="url(#p55c15cf785)" d="M 211.090443 309.1975
L 213.304301 309.1975
L 213.304301 292.386447
L 211.090443 292.386447
z
" style="fill:#ff00ff;opacity:0.5;"/>
   </g>
   <g id="patch_56">
    <path clip-path="url(#p55c15cf785)" d="M 213.304301 309.1975
L 215.518159 309.1975
L 215.518159 291.663079
L 213.304301 291.663079
z
" style="fill:#ff00ff;opacity:0.5;"/>
   </g>
   <g id="patch_57">
    <path clip-path="url(#p55c15cf785)" d="M 215.518159 309.1975
L 217.732017 309.1975
L 217.732017 286.715248
L 215.518159 286.715248
z
" style="fill:#ff00ff;opacity:0.5;"/>
   </g>
   <g id="patch_58">
    <path clip-path="url(#p55c15cf785)" d="M 217.732017 309.1975
L 219.945875 309.1975
L 219.945875 285.355318
L 217.732017 285.355318
z
" style="fill:#ff00ff;opacity:0.5;"/>
   </g>
   <g id="patch_59">
    <path clip-path="url(#p55c15cf785)" d="M 219.945875 309.1975
L 222.159733 309.1975
L 222.159733 282.664392
L 219.945875 282.664392
z
" style="fill:#ff00ff;opacity:0.5;"/>
   </g>
   <g id="patch_60">
    <path clip-path="url(#p55c15cf785)" d="M 222.159733 309.1975
L 224.373591 309.1975
L 224.373591 279.539445
L 222.159733 279.539445
z
" style="fill:#ff00ff;opacity:0.5;"/>
   </g>
   <g id="patch_61">
    <path clip-path="url(#p55c15cf785)" d="M 224.373591 309.1975
L 226.587449 309.1975
L 226.587449 276.559172
L 224.373591 276.559172
z
" style="fill:#ff00ff;opacity:0.5;"/>
   </g>
   <g id="patch_62">
    <path clip-path="url(#p55c15cf785)" d="M 226.587449 309.1975
L 228.801307 309.1975
L 228.801307 271.321994
L 226.587449 271.321994
z
" style="fill:#ff00ff;opacity:0.5;"/>
   </g>
   <g id="patch_63">
    <path clip-path="url(#p55c15cf785)" d="M 228.801307 309.1975
L 231.015165 309.1975
L 231.015165 268.717872
L 228.801307 268.717872
z
" style="fill:#ff00ff;opacity:0.5;"/>
   </g>
   <g id="patch_64">
    <path clip-path="url(#p55c15cf785)" d="M 231.015165 309.1975
L 233.229023 309.1975
L 233.229023 263.972583
L 231.015165 263.972583
z
" style="fill:#ff00ff;opacity:0.5;"/>
   </g>
   <g id="patch_65">
    <path clip-path="url(#p55c15cf785)" d="M 233.229023 309.1975
L 235.442881 309.1975
L 235.442881 256.970389
L 233.229023 256.970389
z
" style="fill:#ff00ff;opacity:0.5;"/>
   </g>
   <g id="patch_66">
    <path clip-path="url(#p55c15cf785)" d="M 235.442881 309.1975
L 237.656739 309.1975
L 237.656739 250.604758
L 235.442881 250.604758
z
" style="fill:#ff00ff;opacity:0.5;"/>
   </g>
   <g id="patch_67">
    <path clip-path="url(#p55c15cf785)" d="M 237.656739 309.1975
L 239.870597 309.1975
L 239.870597 244.441669
L 237.656739 244.441669
z
" style="fill:#ff00ff;opacity:0.5;"/>
   </g>
   <g id="patch_68">
    <path clip-path="url(#p55c15cf785)" d="M 239.870597 309.1975
L 242.084455 309.1975
L 242.084455 241.200984
L 239.870597 241.200984
z
" style="fill:#ff00ff;opacity:0.5;"/>
   </g>
   <g id="patch_69">
    <path clip-path="url(#p55c15cf785)" d="M 242.084455 309.1975
L 244.298312 309.1975
L 244.298312 229.974326
L 242.084455 229.974326
z
" style="fill:#ff00ff;opacity:0.5;"/>
   </g>
   <g id="patch_70">
    <path clip-path="url(#p55c15cf785)" d="M 244.298312 309.1975
L 246.51217 309.1975
L 246.51217 226.733641
L 244.298312 226.733641
z
" style="fill:#ff00ff;opacity:0.5;"/>
   </g>
   <g id="patch_71">
    <path clip-path="url(#p55c15cf785)" d="M 246.51217 309.1975
L 248.726028 309.1975
L 248.726028 218.342581
L 246.51217 218.342581
z
" style="fill:#ff00ff;opacity:0.5;"/>
   </g>
   <g id="patch_72">
    <path clip-path="url(#p55c15cf785)" d="M 248.726028 309.1975
L 250.939886 309.1975
L 250.939886 208.012898
L 248.726028 208.012898
z
" style="fill:#ff00ff;opacity:0.5;"/>
   </g>
   <g id="patch_73">
    <path clip-path="url(#p55c15cf785)" d="M 250.939886 309.1975
L 253.153744 309.1975
L 253.153744 202.71785
L 250.939886 202.71785
z
" style="fill:#ff00ff;opacity:0.5;"/>
   </g>
   <g id="patch_74">
    <path clip-path="url(#p55c15cf785)" d="M 253.153744 309.1975
L 255.367602 309.1975
L 255.367602 189.726175
L 253.153744 189.726175
z
" style="fill:#ff00ff;opacity:0.5;"/>
   </g>
   <g id="patch_75">
    <path clip-path="url(#p55c15cf785)" d="M 255.367602 309.1975
L 257.58146 309.1975
L 257.58146 183.244805
L 255.367602 183.244805
z
" style="fill:#ff00ff;opacity:0.5;"/>
   </g>
   <g id="patch_76">
    <path clip-path="url(#p55c15cf785)" d="M 257.58146 309.1975
L 259.795318 309.1975
L 259.795318 177.313194
L 257.58146 177.313194
z
" style="fill:#ff00ff;opacity:0.5;"/>
   </g>
   <g id="patch_77">
    <path clip-path="url(#p55c15cf785)" d="M 259.795318 309.1975
L 262.009176 309.1975
L 262.009176 168.95107
L 259.795318 168.95107
z
" style="fill:#ff00ff;opacity:0.5;"/>
   </g>
   <g id="patch_78">
    <path clip-path="url(#p55c15cf785)" d="M 262.009176 309.1975
L 264.223034 309.1975
L 264.223034 156.595958
L 262.009176 156.595958
z
" style="fill:#ff00ff;opacity:0.5;"/>
   </g>
   <g id="patch_79">
    <path clip-path="url(#p55c15cf785)" d="M 264.223034 309.1975
L 266.436892 309.1975
L 266.436892 146.410948
L 264.223034 146.410948
z
" style="fill:#ff00ff;opacity:0.5;"/>
   </g>
   <g id="patch_80">
    <path clip-path="url(#p55c15cf785)" d="M 266.436892 309.1975
L 268.65075 309.1975
L 268.65075 135.791918
L 266.436892 135.791918
z
" style="fill:#ff00ff;opacity:0.5;"/>
   </g>
   <g id="patch_81">
    <path clip-path="url(#p55c15cf785)" d="M 268.65075 309.1975
L 270.864608 309.1975
L 270.864608 127.661271
L 268.65075 127.661271
z
" style="fill:#ff00ff;opacity:0.5;"/>
   </g>
   <g id="patch_82">
    <path clip-path="url(#p55c15cf785)" d="M 270.864608 309.1975
L 273.078466 309.1975
L 273.078466 118.546844
L 270.864608 118.546844
z
" style="fill:#ff00ff;opacity:0.5;"/>
   </g>
   <g id="patch_83">
    <path clip-path="url(#p55c15cf785)" d="M 273.078466 309.1975
L 275.292324 309.1975
L 275.292324 108.564377
L 273.078466 108.564377
z
" style="fill:#ff00ff;opacity:0.5;"/>
   </g>
   <g id="patch_84">
    <path clip-path="url(#p55c15cf785)" d="M 275.292324 309.1975
L 277.506182 309.1975
L 277.506182 101.909399
L 275.292324 101.909399
z
" style="fill:#ff00ff;opacity:0.5;"/>
   </g>
   <g id="patch_85">
    <path clip-path="url(#p55c15cf785)" d="M 277.506182 309.1975
L 279.72004 309.1975
L 279.72004 92.303083
L 277.506182 92.303083
z
" style="fill:#ff00ff;opacity:0.5;"/>
   </g>
   <g id="patch_86">
    <path clip-path="url(#p55c15cf785)" d="M 279.72004 309.1975
L 281.933898 309.1975
L 281.933898 84.751129
L 279.72004 84.751129
z
" style="fill:#ff00ff;opacity:0.5;"/>
   </g>
   <g id="patch_87">
    <path clip-path="url(#p55c15cf785)" d="M 281.933898 309.1975
L 284.147756 309.1975
L 284.147756 76.128592
L 281.933898 76.128592
z
" style="fill:#ff00ff;opacity:0.5;"/>
   </g>
   <g id="patch_88">
    <path clip-path="url(#p55c15cf785)" d="M 284.147756 309.1975
L 286.361614 309.1975
L 286.361614 67.390317
L 284.147756 67.390317
z
" style="fill:#ff00ff;opacity:0.5;"/>
   </g>
   <g id="patch_89">
    <path clip-path="url(#p55c15cf785)" d="M 286.361614 309.1975
L 288.575472 309.1975
L 288.575472 60.706404
L 286.361614 60.706404
z
" style="fill:#ff00ff;opacity:0.5;"/>
   </g>
   <g id="patch_90">
    <path clip-path="url(#p55c15cf785)" d="M 288.575472 309.1975
L 290.78933 309.1975
L 290.78933 60.417057
L 288.575472 60.417057
z
" style="fill:#ff00ff;opacity:0.5;"/>
   </g>
   <g id="patch_91">
    <path clip-path="url(#p55c15cf785)" d="M 290.78933 309.1975
L 293.003187 309.1975
L 293.003187 58.623106
L 290.78933 58.623106
z
" style="fill:#ff00ff;opacity:0.5;"/>
   </g>
   <g id="patch_92">
    <path clip-path="url(#p55c15cf785)" d="M 293.003187 309.1975
L 295.217045 309.1975
L 295.217045 53.183385
L 293.003187 53.183385
z
" style="fill:#ff00ff;opacity:0.5;"/>
   </g>
   <g id="patch_93">
    <path clip-path="url(#p55c15cf785)" d="M 295.217045 309.1975
L 297.430903 309.1975
L 297.430903 50.029504
L 295.217045 50.029504
z
" style="fill:#ff00ff;opacity:0.5;"/>
   </g>
   <g id="patch_94">
    <path clip-path="url(#p55c15cf785)" d="M 297.430903 309.1975
L 299.644761 309.1975
L 299.644761 45.371019
L 297.430903 45.371019
z
" style="fill:#ff00ff;opacity:0.5;"/>
   </g>
   <g id="patch_95">
    <path clip-path="url(#p55c15cf785)" d="M 299.644761 309.1975
L 301.858619 309.1975
L 301.858619 46.065452
L 299.644761 46.065452
z
" style="fill:#ff00ff;opacity:0.5;"/>
   </g>
   <g id="patch_96">
    <path clip-path="url(#p55c15cf785)" d="M 301.858619 309.1975
L 304.072477 309.1975
L 304.072477 49.248267
L 301.858619 49.248267
z
" style="fill:#ff00ff;opacity:0.5;"/>
   </g>
   <g id="patch_97">
    <path clip-path="url(#p55c15cf785)" d="M 304.072477 309.1975
L 306.286335 309.1975
L 306.286335 44.763391
L 304.072477 44.763391
z
" style="fill:#ff00ff;opacity:0.5;"/>
   </g>
   <g id="patch_98">
    <path clip-path="url(#p55c15cf785)" d="M 306.286335 309.1975
L 308.500193 309.1975
L 308.500193 51.331565
L 306.286335 51.331565
z
" style="fill:#ff00ff;opacity:0.5;"/>
   </g>
   <g id="patch_99">
    <path clip-path="url(#p55c15cf785)" d="M 308.500193 309.1975
L 310.714051 309.1975
L 310.714051 52.691495
L 308.500193 52.691495
z
" style="fill:#ff00ff;opacity:0.5;"/>
   </g>
   <g id="patch_100">
    <path clip-path="url(#p55c15cf785)" d="M 310.714051 309.1975
L 312.927909 309.1975
L 312.927909 54.890532
L 310.714051 54.890532
z
" style="fill:#ff00ff;opacity:0.5;"/>
   </g>
   <g id="patch_101">
    <path clip-path="url(#p55c15cf785)" d="M 312.927909 309.1975
L 315.141767 309.1975
L 315.141767 62.153138
L 312.927909 62.153138
z
" style="fill:#ff00ff;opacity:0.5;"/>
   </g>
   <g id="patch_102">
    <path clip-path="url(#p55c15cf785)" d="M 315.141767 309.1975
L 317.355625 309.1975
L 317.355625 67.795402
L 315.141767 67.795402
z
" style="fill:#ff00ff;opacity:0.5;"/>
   </g>
   <g id="patch_103">
    <path clip-path="url(#p55c15cf785)" d="M 317.355625 309.1975
L 319.569483 309.1975
L 319.569483 70.80461
L 317.355625 70.80461
z
" style="fill:#ff00ff;opacity:0.5;"/>
   </g>
   <g id="patch_104">
    <path clip-path="url(#p55c15cf785)" d="M 319.569483 309.1975
L 321.783341 309.1975
L 321.783341 76.417939
L 319.569483 76.417939
z
" style="fill:#ff00ff;opacity:0.5;"/>
   </g>
   <g id="patch_105">
    <path clip-path="url(#p55c15cf785)" d="M 321.783341 309.1975
L 323.997199 309.1975
L 323.997199 83.70948
L 321.783341 83.70948
z
" style="fill:#ff00ff;opacity:0.5;"/>
   </g>
   <g id="patch_106">
    <path clip-path="url(#p55c15cf785)" d="M 323.997199 309.1975
L 326.211057 309.1975
L 326.211057 93.142188
L 323.997199 93.142188
z
" style="fill:#ff00ff;opacity:0.5;"/>
   </g>
   <g id="patch_107">
    <path clip-path="url(#p55c15cf785)" d="M 326.211057 309.1975
L 328.424915 309.1975
L 328.424915 98.842322
L 326.211057 98.842322
z
" style="fill:#ff00ff;opacity:0.5;"/>
   </g>
   <g id="patch_108">
    <path clip-path="url(#p55c15cf785)" d="M 328.424915 309.1975
L 330.638773 309.1975
L 330.638773 103.037852
L 328.424915 103.037852
z
" style="fill:#ff00ff;opacity:0.5;"/>
   </g>
   <g id="patch_109">
    <path clip-path="url(#p55c15cf785)" d="M 330.638773 309.1975
L 332.852631 309.1975
L 332.852631 112.325886
L 330.638773 112.325886
z
" style="fill:#ff00ff;opacity:0.5;"/>
   </g>
   <g id="patch_110">
    <path clip-path="url(#p55c15cf785)" d="M 332.852631 309.1975
L 335.066489 309.1975
L 335.066489 125.606908
L 332.852631 125.606908
z
" style="fill:#ff00ff;opacity:0.5;"/>
   </g>
   <g id="patch_111">
    <path clip-path="url(#p55c15cf785)" d="M 335.066489 309.1975
L 337.280347 309.1975
L 337.280347 133.535012
L 335.066489 133.535012
z
" style="fill:#ff00ff;opacity:0.5;"/>
   </g>
   <g id="patch_112">
    <path clip-path="url(#p55c15cf785)" d="M 337.280347 309.1975
L 339.494205 309.1975
L 339.494205 140.942292
L 337.280347 140.942292
z
" style="fill:#ff00ff;opacity:0.5;"/>
   </g>
   <g id="patch_113">
    <path clip-path="url(#p55c15cf785)" d="M 339.494205 309.1975
L 341.708062 309.1975
L 341.708062 149.883111
L 339.494205 149.883111
z
" style="fill:#ff00ff;opacity:0.5;"/>
   </g>
   <g id="patch_114">
    <path clip-path="url(#p55c15cf785)" d="M 341.708062 309.1975
L 343.92192 309.1975
L 343.92192 160.61788
L 341.708062 160.61788
z
" style="fill:#ff00ff;opacity:0.5;"/>
   </g>
   <g id="patch_115">
    <path clip-path="url(#p55c15cf785)" d="M 343.92192 309.1975
L 346.135778 309.1975
L 346.135778 167.822617
L 343.92192 167.822617
z
" style="fill:#ff00ff;opacity:0.5;"/>
   </g>
   <g id="patch_116">
    <path clip-path="url(#p55c15cf785)" d="M 346.135778 309.1975
L 348.349636 309.1975
L 348.349636 171.294779
L 346.135778 171.294779
z
" style="fill:#ff00ff;opacity:0.5;"/>
   </g>
   <g id="patch_117">
    <path clip-path="url(#p55c15cf785)" d="M 348.349636 309.1975
L 350.563494 309.1975
L 350.563494 182.405699
L 348.349636 182.405699
z
" style="fill:#ff00ff;opacity:0.5;"/>
   </g>
   <g id="patch_118">
    <path clip-path="url(#p55c15cf785)" d="M 350.563494 309.1975
L 352.777352 309.1975
L 352.777352 191.983081
L 350.563494 191.983081
z
" style="fill:#ff00ff;opacity:0.5;"/>
   </g>
   <g id="patch_119">
    <path clip-path="url(#p55c15cf785)" d="M 352.777352 309.1975
L 354.99121 309.1975
L 354.99121 199.44823
L 352.777352 199.44823
z
" style="fill:#ff00ff;opacity:0.5;"/>
   </g>
   <g id="patch_120">
    <path clip-path="url(#p55c15cf785)" d="M 354.99121 309.1975
L 357.205068 309.1975
L 357.205068 207.115923
L 354.99121 207.115923
z
" style="fill:#ff00ff;opacity:0.5;"/>
   </g>
   <g id="patch_121">
    <path clip-path="url(#p55c15cf785)" d="M 357.205068 309.1975
L 359.418926 309.1975
L 359.418926 209.980457
L 357.205068 209.980457
z
" style="fill:#ff00ff;opacity:0.5;"/>
   </g>
   <g id="patch_122">
    <path clip-path="url(#p55c15cf785)" d="M 359.418926 309.1975
L 361.632784 309.1975
L 361.632784 216.722239
L 359.418926 216.722239
z
" style="fill:#ff00ff;opacity:0.5;"/>
   </g>
   <g id="patch_123">
    <path clip-path="url(#p55c15cf785)" d="M 361.632784 309.1975
L 363.846642 309.1975
L 363.846642 222.740654
L 361.632784 222.740654
z
" style="fill:#ff00ff;opacity:0.5;"/>
   </g>
   <g id="patch_124">
    <path clip-path="url(#p55c15cf785)" d="M 363.846642 309.1975
L 366.0605 309.1975
L 366.0605 233.041403
L 363.846642 233.041403
z
" style="fill:#ff00ff;opacity:0.5;"/>
   </g>
   <g id="patch_125">
    <path clip-path="url(#p55c15cf785)" d="M 366.0605 309.1975
L 368.274358 309.1975
L 368.274358 239.001948
L 366.0605 239.001948
z
" style="fill:#ff00ff;opacity:0.5;"/>
   </g>
   <g id="patch_126">
    <path clip-path="url(#p55c15cf785)" d="M 368.274358 309.1975
L 370.488216 309.1975
L 370.488216 243.168543
L 368.274358 243.168543
z
" style="fill:#ff00ff;opacity:0.5;"/>
   </g>
   <g id="patch_127">
    <path clip-path="url(#p55c15cf785)" d="M 370.488216 309.1975
L 372.702074 309.1975
L 372.702074 250.286476
L 370.488216 250.286476
z
" style="fill:#ff00ff;opacity:0.5;"/>
   </g>
   <g id="patch_128">
    <path clip-path="url(#p55c15cf785)" d="M 372.702074 309.1975
L 374.915932 309.1975
L 374.915932 253.700769
L 372.702074 253.700769
z
" style="fill:#ff00ff;opacity:0.5;"/>
   </g>
   <g id="patch_129">
    <path clip-path="url(#p55c15cf785)" d="M 374.915932 309.1975
L 377.12979 309.1975
L 377.12979 258.417123
L 374.915932 258.417123
z
" style="fill:#ff00ff;opacity:0.5;"/>
   </g>
   <g id="patch_130">
    <path clip-path="url(#p55c15cf785)" d="M 377.12979 309.1975
L 379.343648 309.1975
L 379.343648 265.824403
L 377.12979 265.824403
z
" style="fill:#ff00ff;opacity:0.5;"/>
   </g>
   <g id="patch_131">
    <path clip-path="url(#p55c15cf785)" d="M 379.343648 309.1975
L 381.557506 309.1975
L 381.557506 266.808183
L 379.343648 266.808183
z
" style="fill:#ff00ff;opacity:0.5;"/>
   </g>
   <g id="patch_132">
    <path clip-path="url(#p55c15cf785)" d="M 381.557506 309.1975
L 383.771364 309.1975
L 383.771364 270.511823
L 381.557506 270.511823
z
" style="fill:#ff00ff;opacity:0.5;"/>
   </g>
   <g id="patch_133">
    <path clip-path="url(#p55c15cf785)" d="M 383.771364 309.1975
L 385.985222 309.1975
L 385.985222 274.649483
L 383.771364 274.649483
z
" style="fill:#ff00ff;opacity:0.5;"/>
   </g>
   <g id="patch_134">
    <path clip-path="url(#p55c15cf785)" d="M 385.985222 309.1975
L 388.19908 309.1975
L 388.19908 279.163294
L 385.985222 279.163294
z
" style="fill:#ff00ff;opacity:0.5;"/>
   </g>
   <g id="patch_135">
    <path clip-path="url(#p55c15cf785)" d="M 388.19908 309.1975
L 390.412937 309.1975
L 390.412937 280.49429
L 388.19908 280.49429
z
" style="fill:#ff00ff;opacity:0.5;"/>
   </g>
   <g id="patch_136">
    <path clip-path="url(#p55c15cf785)" d="M 390.412937 309.1975
L 392.626795 309.1975
L 392.626795 284.024322
L 390.412937 284.024322
z
" style="fill:#ff00ff;opacity:0.5;"/>
   </g>
   <g id="patch_137">
    <path clip-path="url(#p55c15cf785)" d="M 392.626795 309.1975
L 394.840653 309.1975
L 394.840653 285.818272
L 392.626795 285.818272
z
" style="fill:#ff00ff;opacity:0.5;"/>
   </g>
   <g id="patch_138">
    <path clip-path="url(#p55c15cf785)" d="M 394.840653 309.1975
L 397.054511 309.1975
L 397.054511 289.348304
L 394.840653 289.348304
z
" style="fill:#ff00ff;opacity:0.5;"/>
   </g>
   <g id="patch_139">
    <path clip-path="url(#p55c15cf785)" d="M 397.054511 309.1975
L 399.268369 309.1975
L 399.268369 291.286928
L 397.054511 291.286928
z
" style="fill:#ff00ff;opacity:0.5;"/>
   </g>
   <g id="patch_140">
    <path clip-path="url(#p55c15cf785)" d="M 399.268369 309.1975
L 401.482227 309.1975
L 401.482227 293.254487
L 399.268369 293.254487
z
" style="fill:#ff00ff;opacity:0.5;"/>
   </g>
   <g id="patch_141">
    <path clip-path="url(#p55c15cf785)" d="M 401.482227 309.1975
L 403.696085 309.1975
L 403.696085 294.498679
L 401.482227 294.498679
z
" style="fill:#ff00ff;opacity:0.5;"/>
   </g>
   <g id="patch_142">
    <path clip-path="url(#p55c15cf785)" d="M 403.696085 309.1975
L 405.909943 309.1975
L 405.909943 297.450017
L 403.696085 297.450017
z
" style="fill:#ff00ff;opacity:0.5;"/>
   </g>
   <g id="patch_143">
    <path clip-path="url(#p55c15cf785)" d="M 405.909943 309.1975
L 408.123801 309.1975
L 408.123801 299.01249
L 405.909943 299.01249
z
" style="fill:#ff00ff;opacity:0.5;"/>
   </g>
   <g id="patch_144">
    <path clip-path="url(#p55c15cf785)" d="M 408.123801 309.1975
L 410.337659 309.1975
L 410.337659 298.346992
L 408.123801 298.346992
z
" style="fill:#ff00ff;opacity:0.5;"/>
   </g>
   <g id="patch_145">
    <path clip-path="url(#p55c15cf785)" d="M 410.337659 309.1975
L 412.551517 309.1975
L 412.551517 300.140943
L 410.337659 300.140943
z
" style="fill:#ff00ff;opacity:0.5;"/>
   </g>
   <g id="patch_146">
    <path clip-path="url(#p55c15cf785)" d="M 412.551517 309.1975
L 414.765375 309.1975
L 414.765375 301.587677
L 412.551517 301.587677
z
" style="fill:#ff00ff;opacity:0.5;"/>
   </g>
   <g id="patch_147">
    <path clip-path="url(#p55c15cf785)" d="M 414.765375 309.1975
L 416.979233 309.1975
L 416.979233 302.860803
L 414.765375 302.860803
z
" style="fill:#ff00ff;opacity:0.5;"/>
   </g>
   <g id="patch_148">
    <path clip-path="url(#p55c15cf785)" d="M 416.979233 309.1975
L 419.193091 309.1975
L 419.193091 302.71613
L 416.979233 302.71613
z
" style="fill:#ff00ff;opacity:0.5;"/>
   </g>
   <g id="patch_149">
    <path clip-path="url(#p55c15cf785)" d="M 419.193091 309.1975
L 421.406949 309.1975
L 421.406949 303.728844
L 419.193091 303.728844
z
" style="fill:#ff00ff;opacity:0.5;"/>
   </g>
   <g id="patch_150">
    <path clip-path="url(#p55c15cf785)" d="M 421.406949 309.1975
L 423.620807 309.1975
L 423.620807 304.799427
L 421.406949 304.799427
z
" style="fill:#ff00ff;opacity:0.5;"/>
   </g>
   <g id="patch_151">
    <path clip-path="url(#p55c15cf785)" d="M 423.620807 309.1975
L 425.834665 309.1975
L 425.834665 305.49386
L 423.620807 305.49386
z
" style="fill:#ff00ff;opacity:0.5;"/>
   </g>
   <g id="patch_152">
    <path clip-path="url(#p55c15cf785)" d="M 425.834665 309.1975
L 428.048523 309.1975
L 428.048523 305.609599
L 425.834665 305.609599
z
" style="fill:#ff00ff;opacity:0.5;"/>
   </g>
   <g id="patch_153">
    <path clip-path="url(#p55c15cf785)" d="M 428.048523 309.1975
L 430.262381 309.1975
L 430.262381 305.812142
L 428.048523 305.812142
z
" style="fill:#ff00ff;opacity:0.5;"/>
   </g>
   <g id="patch_154">
    <path clip-path="url(#p55c15cf785)" d="M 430.262381 309.1975
L 432.476239 309.1975
L 432.476239 306.101488
L 430.262381 306.101488
z
" style="fill:#ff00ff;opacity:0.5;"/>
   </g>
   <g id="patch_155">
    <path clip-path="url(#p55c15cf785)" d="M 432.476239 309.1975
L 434.690097 309.1975
L 434.690097 307.114202
L 432.476239 307.114202
z
" style="fill:#ff00ff;opacity:0.5;"/>
   </g>
   <g id="patch_156">
    <path clip-path="url(#p55c15cf785)" d="M 434.690097 309.1975
L 436.903955 309.1975
L 436.903955 306.477639
L 434.690097 306.477639
z
" style="fill:#ff00ff;opacity:0.5;"/>
   </g>
   <g id="patch_157">
    <path clip-path="url(#p55c15cf785)" d="M 436.903955 309.1975
L 439.117812 309.1975
L 439.117812 307.056333
L 436.903955 307.056333
z
" style="fill:#ff00ff;opacity:0.5;"/>
   </g>
   <g id="patch_158">
    <path clip-path="url(#p55c15cf785)" d="M 439.117812 309.1975
L 441.33167 309.1975
L 441.33167 307.258876
L 439.117812 307.258876
z
" style="fill:#ff00ff;opacity:0.5;"/>
   </g>
   <g id="patch_159">
    <path clip-path="url(#p55c15cf785)" d="M 441.33167 309.1975
L 443.545528 309.1975
L 443.545528 307.7797
L 441.33167 307.7797
z
" style="fill:#ff00ff;opacity:0.5;"/>
   </g>
   <g id="patch_160">
    <path clip-path="url(#p55c15cf785)" d="M 443.545528 309.1975
L 445.759386 309.1975
L 445.759386 308.040112
L 443.545528 308.040112
z
" style="fill:#ff00ff;opacity:0.5;"/>
   </g>
   <g id="patch_161">
    <path clip-path="url(#p55c15cf785)" d="M 445.759386 309.1975
L 447.973244 309.1975
L 447.973244 308.213721
L 445.759386 308.213721
z
" style="fill:#ff00ff;opacity:0.5;"/>
   </g>
   <g id="patch_162">
    <path clip-path="url(#p55c15cf785)" d="M 447.973244 309.1975
L 450.187102 309.1975
L 450.187102 308.358394
L 447.973244 308.358394
z
" style="fill:#ff00ff;opacity:0.5;"/>
   </g>
   <g id="patch_163">
    <path clip-path="url(#p55c15cf785)" d="M 450.187102 309.1975
L 452.40096 309.1975
L 452.40096 308.503067
L 450.187102 308.503067
z
" style="fill:#ff00ff;opacity:0.5;"/>
   </g>
   <g id="patch_164">
    <path clip-path="url(#p55c15cf785)" d="M 452.40096 309.1975
L 454.614818 309.1975
L 454.614818 308.474133
L 452.40096 308.474133
z
" style="fill:#ff00ff;opacity:0.5;"/>
   </g>
   <g id="patch_165">
    <path clip-path="url(#p55c15cf785)" d="M 454.614818 309.1975
L 456.828676 309.1975
L 456.828676 308.76348
L 454.614818 308.76348
z
" style="fill:#ff00ff;opacity:0.5;"/>
   </g>
   <g id="patch_166">
    <path clip-path="url(#p55c15cf785)" d="M 456.828676 309.1975
L 459.042534 309.1975
L 459.042534 308.676676
L 456.828676 308.676676
z
" style="fill:#ff00ff;opacity:0.5;"/>
   </g>
   <g id="patch_167">
    <path clip-path="url(#p55c15cf785)" d="M 459.042534 309.1975
L 461.256392 309.1975
L 461.256392 308.821349
L 459.042534 308.821349
z
" style="fill:#ff00ff;opacity:0.5;"/>
   </g>
   <g id="patch_168">
    <path clip-path="url(#p55c15cf785)" d="M 461.256392 309.1975
L 463.47025 309.1975
L 463.47025 308.70561
L 461.256392 308.70561
z
" style="fill:#ff00ff;opacity:0.5;"/>
   </g>
   <g id="patch_169">
    <path clip-path="url(#p55c15cf785)" d="M 463.47025 309.1975
L 465.684108 309.1975
L 465.684108 309.023892
L 463.47025 309.023892
z
" style="fill:#ff00ff;opacity:0.5;"/>
   </g>
   <g id="patch_170">
    <path clip-path="url(#p55c15cf785)" d="M 465.684108 309.1975
L 467.897966 309.1975
L 467.897966 308.879218
L 465.684108 308.879218
z
" style="fill:#ff00ff;opacity:0.5;"/>
   </g>
   <g id="patch_171">
    <path clip-path="url(#p55c15cf785)" d="M 467.897966 309.1975
L 470.111824 309.1975
L 470.111824 308.850284
L 467.897966 308.850284
z
" style="fill:#ff00ff;opacity:0.5;"/>
   </g>
   <g id="patch_172">
    <path clip-path="url(#p55c15cf785)" d="M 470.111824 309.1975
L 472.325682 309.1975
L 472.325682 309.052827
L 470.111824 309.052827
z
" style="fill:#ff00ff;opacity:0.5;"/>
   </g>
   <g id="patch_173">
    <path clip-path="url(#p55c15cf785)" d="M 472.325682 309.1975
L 474.53954 309.1975
L 474.53954 308.994957
L 472.325682 308.994957
z
" style="fill:#ff00ff;opacity:0.5;"/>
   </g>
   <g id="patch_174">
    <path clip-path="url(#p55c15cf785)" d="M 474.53954 309.1975
L 476.753398 309.1975
L 476.753398 309.052827
L 474.53954 309.052827
z
" style="fill:#ff00ff;opacity:0.5;"/>
   </g>
   <g id="patch_175">
    <path clip-path="url(#p55c15cf785)" d="M 476.753398 309.1975
L 478.967256 309.1975
L 478.967256 309.052827
L 476.753398 309.052827
z
" style="fill:#ff00ff;opacity:0.5;"/>
   </g>
   <g id="patch_176">
    <path clip-path="url(#p55c15cf785)" d="M 478.967256 309.1975
L 481.181114 309.1975
L 481.181114 309.081761
L 478.967256 309.081761
z
" style="fill:#ff00ff;opacity:0.5;"/>
   </g>
   <g id="patch_177">
    <path clip-path="url(#p55c15cf785)" d="M 481.181114 309.1975
L 483.394972 309.1975
L 483.394972 309.052827
L 481.181114 309.052827
z
" style="fill:#ff00ff;opacity:0.5;"/>
   </g>
   <g id="patch_178">
    <path clip-path="url(#p55c15cf785)" d="M 483.394972 309.1975
L 485.60883 309.1975
L 485.60883 309.081761
L 483.394972 309.081761
z
" style="fill:#ff00ff;opacity:0.5;"/>
   </g>
   <g id="patch_179">
    <path clip-path="url(#p55c15cf785)" d="M 485.60883 309.1975
L 487.822687 309.1975
L 487.822687 309.139631
L 485.60883 309.139631
z
" style="fill:#ff00ff;opacity:0.5;"/>
   </g>
   <g id="patch_180">
    <path clip-path="url(#p55c15cf785)" d="M 487.822687 309.1975
L 490.036545 309.1975
L 490.036545 309.168565
L 487.822687 309.168565
z
" style="fill:#ff00ff;opacity:0.5;"/>
   </g>
   <g id="patch_181">
    <path clip-path="url(#p55c15cf785)" d="M 490.036545 309.1975
L 492.250403 309.1975
L 492.250403 309.110696
L 490.036545 309.110696
z
" style="fill:#ff00ff;opacity:0.5;"/>
   </g>
   <g id="patch_182">
    <path clip-path="url(#p55c15cf785)" d="M 492.250403 309.1975
L 494.464261 309.1975
L 494.464261 309.168565
L 492.250403 309.168565
z
" style="fill:#ff00ff;opacity:0.5;"/>
   </g>
   <g id="patch_183">
    <path clip-path="url(#p55c15cf785)" d="M 494.464261 309.1975
L 496.678119 309.1975
L 496.678119 309.168565
L 494.464261 309.168565
z
" style="fill:#ff00ff;opacity:0.5;"/>
   </g>
   <g id="patch_184">
    <path clip-path="url(#p55c15cf785)" d="M 496.678119 309.1975
L 498.891977 309.1975
L 498.891977 309.139631
L 496.678119 309.139631
z
" style="fill:#ff00ff;opacity:0.5;"/>
   </g>
   <g id="patch_185">
    <path clip-path="url(#p55c15cf785)" d="M 498.891977 309.1975
L 501.105835 309.1975
L 501.105835 309.1975
L 498.891977 309.1975
z
" style="fill:#ff00ff;opacity:0.5;"/>
   </g>
   <g id="patch_186">
    <path clip-path="url(#p55c15cf785)" d="M 501.105835 309.1975
L 503.319693 309.1975
L 503.319693 309.139631
L 501.105835 309.139631
z
" style="fill:#ff00ff;opacity:0.5;"/>
   </g>
   <g id="patch_187">
    <path clip-path="url(#p55c15cf785)" d="M 503.319693 309.1975
L 505.533551 309.1975
L 505.533551 309.168565
L 503.319693 309.168565
z
" style="fill:#ff00ff;opacity:0.5;"/>
   </g>
   <g id="patch_188">
    <path clip-path="url(#p55c15cf785)" d="M 505.533551 309.1975
L 507.747409 309.1975
L 507.747409 309.1975
L 505.533551 309.1975
z
" style="fill:#ff00ff;opacity:0.5;"/>
   </g>
   <g id="patch_189">
    <path clip-path="url(#p55c15cf785)" d="M 507.747409 309.1975
L 509.961267 309.1975
L 509.961267 309.139631
L 507.747409 309.139631
z
" style="fill:#ff00ff;opacity:0.5;"/>
   </g>
   <g id="patch_190">
    <path clip-path="url(#p55c15cf785)" d="M 509.961267 309.1975
L 512.175125 309.1975
L 512.175125 309.1975
L 509.961267 309.1975
z
" style="fill:#ff00ff;opacity:0.5;"/>
   </g>
   <g id="patch_191">
    <path clip-path="url(#p55c15cf785)" d="M 512.175125 309.1975
L 514.388983 309.1975
L 514.388983 309.168565
L 512.175125 309.168565
z
" style="fill:#ff00ff;opacity:0.5;"/>
   </g>
   <g id="patch_192">
    <path clip-path="url(#p55c15cf785)" d="M 514.388983 309.1975
L 516.602841 309.1975
L 516.602841 309.1975
L 514.388983 309.1975
z
" style="fill:#ff00ff;opacity:0.5;"/>
   </g>
   <g id="patch_193">
    <path clip-path="url(#p55c15cf785)" d="M 516.602841 309.1975
L 518.816699 309.1975
L 518.816699 309.168565
L 516.602841 309.168565
z
" style="fill:#ff00ff;opacity:0.5;"/>
   </g>
   <g id="patch_194">
    <path clip-path="url(#p55c15cf785)" d="M 518.816699 309.1975
L 521.030557 309.1975
L 521.030557 309.1975
L 518.816699 309.1975
z
" style="fill:#ff00ff;opacity:0.5;"/>
   </g>
   <g id="patch_195">
    <path clip-path="url(#p55c15cf785)" d="M 521.030557 309.1975
L 523.244415 309.1975
L 523.244415 309.168565
L 521.030557 309.168565
z
" style="fill:#ff00ff;opacity:0.5;"/>
   </g>
   <g id="patch_196">
    <path clip-path="url(#p55c15cf785)" d="M 523.244415 309.1975
L 525.458273 309.1975
L 525.458273 309.1975
L 523.244415 309.1975
z
" style="fill:#ff00ff;opacity:0.5;"/>
   </g>
   <g id="patch_197">
    <path clip-path="url(#p55c15cf785)" d="M 525.458273 309.1975
L 527.672131 309.1975
L 527.672131 309.1975
L 525.458273 309.1975
z
" style="fill:#ff00ff;opacity:0.5;"/>
   </g>
   <g id="patch_198">
    <path clip-path="url(#p55c15cf785)" d="M 527.672131 309.1975
L 529.885989 309.1975
L 529.885989 309.1975
L 527.672131 309.1975
z
" style="fill:#ff00ff;opacity:0.5;"/>
   </g>
   <g id="patch_199">
    <path clip-path="url(#p55c15cf785)" d="M 529.885989 309.1975
L 532.099847 309.1975
L 532.099847 309.1975
L 529.885989 309.1975
z
" style="fill:#ff00ff;opacity:0.5;"/>
   </g>
   <g id="patch_200">
    <path clip-path="url(#p55c15cf785)" d="M 532.099847 309.1975
L 534.313705 309.1975
L 534.313705 309.1975
L 532.099847 309.1975
z
" style="fill:#ff00ff;opacity:0.5;"/>
   </g>
   <g id="patch_201">
    <path clip-path="url(#p55c15cf785)" d="M 534.313705 309.1975
L 536.527562 309.1975
L 536.527562 309.1975
L 534.313705 309.1975
z
" style="fill:#ff00ff;opacity:0.5;"/>
   </g>
   <g id="patch_202">
    <path clip-path="url(#p55c15cf785)" d="M 536.527562 309.1975
L 538.74142 309.1975
L 538.74142 309.168565
L 536.527562 309.168565
z
" style="fill:#ff00ff;opacity:0.5;"/>
   </g>
   <g id="patch_203">
    <path d="M 73.83125 309.1975
L 73.83125 19.850625
" style="fill:none;stroke:#000000;stroke-linecap:square;stroke-linejoin:miter;stroke-width:0.8;"/>
   </g>
   <g id="patch_204">
    <path d="M 560.88 309.1975
L 560.88 19.850625
" style="fill:none;stroke:#000000;stroke-linecap:square;stroke-linejoin:miter;stroke-width:0.8;"/>
   </g>
   <g id="patch_205">
    <path d="M 73.83125 309.1975
L 560.88 309.1975
" style="fill:none;stroke:#000000;stroke-linecap:square;stroke-linejoin:miter;stroke-width:0.8;"/>
   </g>
   <g id="patch_206">
    <path d="M 73.83125 19.850625
L 560.88 19.850625
" style="fill:none;stroke:#000000;stroke-linecap:square;stroke-linejoin:miter;stroke-width:0.8;"/>
   </g>
  </g>
 </g>
 <defs>
  <clipPath id="p55c15cf785">
   <rect height="289.346875" width="487.04875" x="73.83125" y="19.850625"/>
  </clipPath>
 </defs>
</svg>
