<?xml version="1.0" encoding="utf-8" standalone="no"?>
<!DOCTYPE svg PUBLIC "-//W3C//DTD SVG 1.1//EN"
  "http://www.w3.org/Graphics/SVG/1.1/DTD/svg11.dtd">
<!-- Created with matplotlib (https://matplotlib.org/) -->
<svg height="496.8pt" version="1.1" viewBox="0 0 496.8 496.8" width="496.8pt" xmlns="http://www.w3.org/2000/svg" xmlns:xlink="http://www.w3.org/1999/xlink">
 <metadata>
  <rdf:RDF xmlns:cc="http://creativecommons.org/ns#" xmlns:dc="http://purl.org/dc/elements/1.1/" xmlns:rdf="http://www.w3.org/1999/02/22-rdf-syntax-ns#">
   <cc:Work>
    <dc:type rdf:resource="http://purl.org/dc/dcmitype/StillImage"/>
    <dc:date>2021-03-18T12:59:32.361067</dc:date>
    <dc:format>image/svg+xml</dc:format>
    <dc:creator>
     <cc:Agent>
      <dc:title>Matplotlib v3.3.4, https://matplotlib.org/</dc:title>
     </cc:Agent>
    </dc:creator>
   </cc:Work>
  </rdf:RDF>
 </metadata>
 <defs>
  <style type="text/css">*{stroke-linecap:butt;stroke-linejoin:round;}</style>
 </defs>
 <g id="figure_1">
  <g id="patch_1">
   <path d="M 0 496.8
L 496.8 496.8
L 496.8 0
L 0 0
z
" style="fill:#ffffff;"/>
  </g>
  <g id="axes_1">
   <g id="patch_2">
    <path d="M 39.785756 214.288647
L 236.634961 214.288647
L 236.634961 10.659249
L 39.785756 10.659249
z
" style="fill:#ffffff;"/>
   </g>
   <g id="matplotlib.axis_1">
    <g id="xtick_1">
     <g id="line2d_1">
      <defs>
       <path d="M 0 0
L 0 3.5
" id="m92624f417d" style="stroke:#000000;stroke-width:0.8;"/>
      </defs>
      <g>
       <use style="stroke:#000000;stroke-width:0.8;" x="39.785756" xlink:href="#m92624f417d" y="214.288647"/>
      </g>
     </g>
     <g id="text_1">
      <!-- $\mathdefault{0.0}$ -->
      <g transform="translate(33.420716 228.207145)scale(0.1 -0.1)">
       <defs>
        <path d="M 42 31.84375
C 42 37.96875 41.90625 48.421875 37.703125 56.453125
C 34 63.484375 28.09375 66 22.90625 66
C 18.09375 66 12 63.78125 8.203125 56.5625
C 4.203125 49.015625 3.796875 39.671875 3.796875 31.84375
C 3.796875 26.109375 3.90625 17.375 7 9.734375
C 11.296875 -0.609375 19 -2 22.90625 -2
C 27.5 -2 34.5 -0.109375 38.59375 9.4375
C 41.59375 16.375 42 24.5 42 31.84375
z
M 22.90625 -0.40625
C 16.5 -0.40625 12.703125 5.125 11.296875 12.75
C 10.203125 18.6875 10.203125 27.328125 10.203125 32.953125
C 10.203125 40.6875 10.203125 47.109375 11.5 53.234375
C 13.40625 61.78125 19 64.390625 22.90625 64.390625
C 27 64.390625 32.296875 61.671875 34.203125 53.4375
C 35.5 47.71875 35.59375 40.984375 35.59375 32.953125
C 35.59375 26.421875 35.59375 18.375 34.40625 12.453125
C 32.296875 1.5 26.40625 -0.40625 22.90625 -0.40625
z
" id="CMR17-48"/>
        <path d="M 18.40625 4.796875
C 18.40625 7.6875 16 9.6875 13.59375 9.6875
C 10.703125 9.6875 8.703125 7.296875 8.703125 4.890625
C 8.703125 2 11.09375 0 13.5 0
C 16.40625 0 18.40625 2.390625 18.40625 4.796875
z
" id="CMMI12-58"/>
       </defs>
       <use transform="scale(0.996264)" xlink:href="#CMR17-48"/>
       <use transform="translate(45.690477 0)scale(0.996264)" xlink:href="#CMMI12-58"/>
       <use transform="translate(72.787654 0)scale(0.996264)" xlink:href="#CMR17-48"/>
      </g>
     </g>
    </g>
    <g id="xtick_2">
     <g id="line2d_2">
      <g>
       <use style="stroke:#000000;stroke-width:0.8;" x="79.155597" xlink:href="#m92624f417d" y="214.288647"/>
      </g>
     </g>
     <g id="text_2">
      <!-- $\mathdefault{0.2}$ -->
      <g transform="translate(72.790557 228.207145)scale(0.1 -0.1)">
       <defs>
        <path d="M 41.703125 15.46875
L 39.90625 15.46875
C 38.90625 8.390625 38.09375 7.1875 37.703125 6.59375
C 37.203125 5.796875 30 5.796875 28.59375 5.796875
L 9.40625 5.796875
C 13 9.6875 20 16.765625 28.5 24.9375
C 34.59375 30.71875 41.703125 37.5 41.703125 47.390625
C 41.703125 59.1875 32.296875 66 21.796875 66
C 10.796875 66 4.09375 56.296875 4.09375 47.296875
C 4.09375 43.390625 7 42.890625 8.203125 42.890625
C 9.203125 42.890625 12.203125 43.484375 12.203125 46.984375
C 12.203125 50.09375 9.59375 51 8.203125 51
C 7.59375 51 7 50.890625 6.59375 50.6875
C 8.5 59.1875 14.296875 63.390625 20.40625 63.390625
C 29.09375 63.390625 34.796875 56.5 34.796875 47.390625
C 34.796875 38.703125 29.703125 31.21875 24 24.734375
L 4.09375 2.296875
L 4.09375 0
L 39.296875 0
z
" id="CMR17-50"/>
       </defs>
       <use transform="scale(0.996264)" xlink:href="#CMR17-48"/>
       <use transform="translate(45.690477 0)scale(0.996264)" xlink:href="#CMMI12-58"/>
       <use transform="translate(72.787654 0)scale(0.996264)" xlink:href="#CMR17-50"/>
      </g>
     </g>
    </g>
    <g id="xtick_3">
     <g id="line2d_3">
      <g>
       <use style="stroke:#000000;stroke-width:0.8;" x="118.525438" xlink:href="#m92624f417d" y="214.288647"/>
      </g>
     </g>
     <g id="text_3">
      <!-- $\mathdefault{0.4}$ -->
      <g transform="translate(112.160398 228.207145)scale(0.1 -0.1)">
       <defs>
        <path d="M 33.59375 64.796875
C 33.59375 66.890625 33.5 67 31.703125 67
L 2 19.59375
L 2 17
L 27.796875 17
L 27.796875 7.1875
C 27.796875 3.59375 27.59375 2.59375 20.59375 2.59375
L 18.703125 2.59375
L 18.703125 0
C 21.90625 0.1875 27.296875 0.1875 30.703125 0.1875
C 34.09375 0.1875 39.5 0.1875 42.703125 0
L 42.703125 2.59375
L 40.796875 2.59375
C 33.796875 2.59375 33.59375 3.59375 33.59375 7.1875
L 33.59375 17
L 43.796875 17
L 43.796875 19.59375
L 33.59375 19.59375
z
M 28.09375 58.171875
L 28.09375 19.59375
L 4 19.59375
z
" id="CMR17-52"/>
       </defs>
       <use transform="scale(0.996264)" xlink:href="#CMR17-48"/>
       <use transform="translate(45.690477 0)scale(0.996264)" xlink:href="#CMMI12-58"/>
       <use transform="translate(72.787654 0)scale(0.996264)" xlink:href="#CMR17-52"/>
      </g>
     </g>
    </g>
    <g id="xtick_4">
     <g id="line2d_4">
      <g>
       <use style="stroke:#000000;stroke-width:0.8;" x="157.895279" xlink:href="#m92624f417d" y="214.288647"/>
      </g>
     </g>
     <g id="text_4">
      <!-- $\mathdefault{0.6}$ -->
      <g transform="translate(151.530239 228.207145)scale(0.1 -0.1)">
       <defs>
        <path d="M 10.59375 34.34375
C 10.59375 58 21.796875 63.6875 28.296875 63.6875
C 30.40625 63.6875 35.5 63.265625 37.5 59.09375
C 35.90625 59.09375 32.90625 59.09375 32.90625 55.59375
C 32.90625 52.890625 35.09375 52 36.5 52
C 37.40625 52 40.09375 52.390625 40.09375 55.796875
C 40.09375 62.296875 35.09375 66 28.203125 66
C 16.296875 66 3.796875 53.296875 3.796875 31.421875
C 3.796875 4.015625 15.09375 -2 23.09375 -2
C 32.796875 -2 42 6.734375 42 20.234375
C 42 32.828125 33.90625 42 23.703125 42
C 17.59375 42 13.09375 37.96875 10.59375 30.921875
z
M 23.09375 0.390625
C 10.796875 0.390625 10.796875 18.9375 10.796875 22.65625
C 10.796875 29.90625 14.203125 40.390625 23.5 40.390625
C 25.203125 40.390625 30.09375 40.390625 33.40625 33.4375
C 35.203125 29.515625 35.203125 25.375 35.203125 20.34375
C 35.203125 14.90625 35.203125 10.875 33.09375 6.84375
C 30.90625 2.703125 27.703125 0.390625 23.09375 0.390625
z
" id="CMR17-54"/>
       </defs>
       <use transform="scale(0.996264)" xlink:href="#CMR17-48"/>
       <use transform="translate(45.690477 0)scale(0.996264)" xlink:href="#CMMI12-58"/>
       <use transform="translate(72.787654 0)scale(0.996264)" xlink:href="#CMR17-54"/>
      </g>
     </g>
    </g>
    <g id="xtick_5">
     <g id="line2d_5">
      <g>
       <use style="stroke:#000000;stroke-width:0.8;" x="197.26512" xlink:href="#m92624f417d" y="214.288647"/>
      </g>
     </g>
     <g id="text_5">
      <!-- $\mathdefault{0.8}$ -->
      <g transform="translate(190.90008 228.207145)scale(0.1 -0.1)">
       <defs>
        <path d="M 27.203125 35.765625
C 33.5 38.96875 39.90625 43.796875 39.90625 51.53125
C 39.90625 60.6875 31.09375 66 23 66
C 13.90625 66 5.90625 59.375 5.90625 50.234375
C 5.90625 47.71875 6.5 43.390625 10.40625 39.578125
C 11.40625 38.578125 15.59375 35.5625 18.296875 33.65625
C 13.796875 31.34375 3.296875 25.8125 3.296875 14.765625
C 3.296875 4.40625 13.09375 -2 22.796875 -2
C 33.5 -2 42.5 5.71875 42.5 15.96875
C 42.5 25.109375 36.40625 29.328125 32.40625 32.046875
z
M 14.09375 44.609375
C 13.296875 45.109375 9.296875 48.21875 9.296875 52.9375
C 9.296875 59.078125 15.59375 63.6875 22.796875 63.6875
C 30.703125 63.6875 36.5 58.0625 36.5 51.53125
C 36.5 42.1875 26.09375 36.859375 25.59375 36.859375
C 25.5 36.859375 25.40625 36.859375 24.59375 37.46875
z
M 32.5 24
C 34 22.90625 38.796875 19.578125 38.796875 13.453125
C 38.796875 6.015625 31.40625 0.390625 23 0.390625
C 13.90625 0.390625 7 6.921875 7 14.859375
C 7 22.796875 13.09375 29.4375 20 32.546875
z
" id="CMR17-56"/>
       </defs>
       <use transform="scale(0.996264)" xlink:href="#CMR17-48"/>
       <use transform="translate(45.690477 0)scale(0.996264)" xlink:href="#CMMI12-58"/>
       <use transform="translate(72.787654 0)scale(0.996264)" xlink:href="#CMR17-56"/>
      </g>
     </g>
    </g>
    <g id="xtick_6">
     <g id="line2d_6">
      <g>
       <use style="stroke:#000000;stroke-width:0.8;" x="236.634961" xlink:href="#m92624f417d" y="214.288647"/>
      </g>
     </g>
     <g id="text_6">
      <!-- $\mathdefault{1.0}$ -->
      <g transform="translate(230.269921 228.207145)scale(0.1 -0.1)">
       <defs>
        <path d="M 26.59375 63.796875
C 26.59375 65.890625 26.5 66 25.09375 66
C 21.203125 61.359375 15.296875 59.890625 9.703125 59.6875
C 9.40625 59.6875 8.90625 59.6875 8.796875 59.5
C 8.703125 59.296875 8.703125 59.09375 8.703125 57
C 11.796875 57 17 57.59375 21 59.984375
L 21 7.296875
C 21 3.796875 20.796875 2.59375 12.203125 2.59375
L 9.203125 2.59375
L 9.203125 0
C 14 0.09375 19 0.1875 23.796875 0.1875
C 28.59375 0.1875 33.59375 0.09375 38.40625 0
L 38.40625 2.59375
L 35.40625 2.59375
C 26.796875 2.59375 26.59375 3.6875 26.59375 7.296875
z
" id="CMR17-49"/>
       </defs>
       <use transform="scale(0.996264)" xlink:href="#CMR17-49"/>
       <use transform="translate(45.690477 0)scale(0.996264)" xlink:href="#CMMI12-58"/>
       <use transform="translate(72.787654 0)scale(0.996264)" xlink:href="#CMR17-48"/>
      </g>
     </g>
    </g>
    <g id="text_7">
     <!-- $\theta$ -->
     <g transform="translate(135.871906 241.062822)scale(0.1 -0.1)">
      <defs>
       <path d="M 44.296875 50
C 44.296875 60.140625 41.09375 70 32.90625 70
C 18.90625 70 4 40.859375 4 18.984375
C 4 14.40625 5 -1 15.5 -1
C 29.09375 -1 44.296875 27.421875 44.296875 50
z
M 14 36
C 15.5 41.859375 17.59375 50.203125 21.59375 57.265625
C 24.90625 63.21875 28.40625 67.984375 32.796875 67.984375
C 36.09375 67.984375 38.296875 65.203125 38.296875 55.671875
C 38.296875 52.09375 38 47.125 35.09375 36
z
M 34.40625 33
C 31.90625 23.25 29.796875 17 26.203125 10.734375
C 23.296875 5.65625 19.796875 1 15.59375 1
C 12.5 1 10 3.375 10 13.21875
C 10 19.671875 11.59375 26.4375 13.203125 33
z
" id="CMMI12-18"/>
      </defs>
      <use transform="scale(0.996264)" xlink:href="#CMMI12-18"/>
     </g>
    </g>
   </g>
   <g id="matplotlib.axis_2">
    <g id="ytick_1">
     <g id="line2d_7">
      <defs>
       <path d="M 0 0
L -3.5 0
" id="me3d4554a2e" style="stroke:#000000;stroke-width:0.8;"/>
      </defs>
      <g>
       <use style="stroke:#000000;stroke-width:0.8;" x="39.785756" xlink:href="#me3d4554a2e" y="214.288647"/>
      </g>
     </g>
     <g id="text_8">
      <!-- $\mathdefault{0.0}$ -->
      <g transform="translate(20.055677 217.747896)scale(0.1 -0.1)">
       <use transform="scale(0.996264)" xlink:href="#CMR17-48"/>
       <use transform="translate(45.690477 0)scale(0.996264)" xlink:href="#CMMI12-58"/>
       <use transform="translate(72.787654 0)scale(0.996264)" xlink:href="#CMR17-48"/>
      </g>
     </g>
    </g>
    <g id="ytick_2">
     <g id="line2d_8">
      <g>
       <use style="stroke:#000000;stroke-width:0.8;" x="39.785756" xlink:href="#me3d4554a2e" y="188.834972"/>
      </g>
     </g>
     <g id="text_9">
      <!-- $\mathdefault{0.5}$ -->
      <g transform="translate(20.055677 192.294221)scale(0.1 -0.1)">
       <defs>
        <path d="M 11.40625 58.59375
C 12.40625 58.1875 16.5 56.890625 20.703125 56.890625
C 30 56.890625 35.09375 61.890625 38 64.6875
C 38 65.484375 38 66 37.40625 66
C 37.296875 66 37.09375 66 36.296875 65.59375
C 32.796875 64.09375 28.703125 63 23.703125 63
C 20.703125 63 16.203125 63.359375 11.296875 65.484375
C 10.203125 66 10 66 9.90625 66
C 9.40625 66 9.296875 65.890625 9.296875 63.90625
L 9.296875 34.859375
C 9.296875 33.015625 9.296875 32.5 10.296875 32.5
C 10.796875 32.5 11 32.703125 11.5 33.421875
C 14.703125 38.046875 19.09375 40 24.09375 40
C 27.59375 40 35.09375 37.734375 35.09375 20.203125
C 35.09375 16.984375 35.09375 11.1875 32.09375 6.59375
C 29.59375 2.484375 25.703125 0.390625 21.40625 0.390625
C 14.796875 0.390625 8.09375 4.984375 6.296875 12.6875
C 6.703125 12.59375 7.5 12.390625 7.90625 12.390625
C 9.203125 12.390625 11.703125 13.09375 11.703125 16.1875
C 11.703125 18.890625 9.796875 20 7.90625 20
C 5.59375 20 4.09375 18.59375 4.09375 15.796875
C 4.09375 7.09375 11 -2 21.59375 -2
C 31.90625 -2 41.703125 6.890625 41.703125 19.796875
C 41.703125 32.09375 33.90625 41.59375 24.203125 41.59375
C 19.09375 41.59375 14.796875 39.6875 11.40625 36
z
" id="CMR17-53"/>
       </defs>
       <use transform="scale(0.996264)" xlink:href="#CMR17-48"/>
       <use transform="translate(45.690477 0)scale(0.996264)" xlink:href="#CMMI12-58"/>
       <use transform="translate(72.787654 0)scale(0.996264)" xlink:href="#CMR17-53"/>
      </g>
     </g>
    </g>
    <g id="ytick_3">
     <g id="line2d_9">
      <g>
       <use style="stroke:#000000;stroke-width:0.8;" x="39.785756" xlink:href="#me3d4554a2e" y="163.381297"/>
      </g>
     </g>
     <g id="text_10">
      <!-- $\mathdefault{1.0}$ -->
      <g transform="translate(20.055677 166.840546)scale(0.1 -0.1)">
       <use transform="scale(0.996264)" xlink:href="#CMR17-49"/>
       <use transform="translate(45.690477 0)scale(0.996264)" xlink:href="#CMMI12-58"/>
       <use transform="translate(72.787654 0)scale(0.996264)" xlink:href="#CMR17-48"/>
      </g>
     </g>
    </g>
    <g id="ytick_4">
     <g id="line2d_10">
      <g>
       <use style="stroke:#000000;stroke-width:0.8;" x="39.785756" xlink:href="#me3d4554a2e" y="137.927623"/>
      </g>
     </g>
     <g id="text_11">
      <!-- $\mathdefault{1.5}$ -->
      <g transform="translate(20.055677 141.386872)scale(0.1 -0.1)">
       <use transform="scale(0.996264)" xlink:href="#CMR17-49"/>
       <use transform="translate(45.690477 0)scale(0.996264)" xlink:href="#CMMI12-58"/>
       <use transform="translate(72.787654 0)scale(0.996264)" xlink:href="#CMR17-53"/>
      </g>
     </g>
    </g>
    <g id="ytick_5">
     <g id="line2d_11">
      <g>
       <use style="stroke:#000000;stroke-width:0.8;" x="39.785756" xlink:href="#me3d4554a2e" y="112.473948"/>
      </g>
     </g>
     <g id="text_12">
      <!-- $\mathdefault{2.0}$ -->
      <g transform="translate(20.055677 115.933197)scale(0.1 -0.1)">
       <use transform="scale(0.996264)" xlink:href="#CMR17-50"/>
       <use transform="translate(45.690477 0)scale(0.996264)" xlink:href="#CMMI12-58"/>
       <use transform="translate(72.787654 0)scale(0.996264)" xlink:href="#CMR17-48"/>
      </g>
     </g>
    </g>
    <g id="ytick_6">
     <g id="line2d_12">
      <g>
       <use style="stroke:#000000;stroke-width:0.8;" x="39.785756" xlink:href="#me3d4554a2e" y="87.020273"/>
      </g>
     </g>
     <g id="text_13">
      <!-- $\mathdefault{2.5}$ -->
      <g transform="translate(20.055677 90.479522)scale(0.1 -0.1)">
       <use transform="scale(0.996264)" xlink:href="#CMR17-50"/>
       <use transform="translate(45.690477 0)scale(0.996264)" xlink:href="#CMMI12-58"/>
       <use transform="translate(72.787654 0)scale(0.996264)" xlink:href="#CMR17-53"/>
      </g>
     </g>
    </g>
    <g id="ytick_7">
     <g id="line2d_13">
      <g>
       <use style="stroke:#000000;stroke-width:0.8;" x="39.785756" xlink:href="#me3d4554a2e" y="61.566599"/>
      </g>
     </g>
     <g id="text_14">
      <!-- $\mathdefault{3.0}$ -->
      <g transform="translate(20.055677 65.025848)scale(0.1 -0.1)">
       <defs>
        <path d="M 22.09375 34
C 31 34 34.90625 26.140625 34.90625 17.09375
C 34.90625 5.03125 28.5 0.390625 22.703125 0.390625
C 17.40625 0.390625 8.796875 3.015625 6.09375 10.796875
C 6.59375 10.59375 7.09375 10.59375 7.59375 10.59375
C 10 10.59375 11.796875 12.1875 11.796875 14.796875
C 11.796875 17.6875 9.59375 19 7.59375 19
C 5.90625 19 3.296875 18.1875 3.296875 14.484375
C 3.296875 5.234375 12.296875 -2 22.90625 -2
C 34 -2 42.5 6.75 42.5 16.984375
C 42.5 26.84375 34.5 34 25 35.09375
C 32.59375 36.671875 39.90625 43.375 39.90625 52.390625
C 39.90625 60.25 32 66 23 66
C 13.90625 66 5.90625 60.34375 5.90625 52.296875
C 5.90625 48.796875 8.5 48.1875 9.796875 48.1875
C 11.90625 48.1875 13.703125 49.484375 13.703125 52.09375
C 13.703125 54.6875 11.90625 56 9.796875 56
C 9.40625 56 8.90625 56 8.5 55.796875
C 11.40625 62.484375 19.296875 63.6875 22.796875 63.6875
C 26.296875 63.6875 32.90625 61.96875 32.90625 52.296875
C 32.90625 49.484375 32.5 44.546875 29.09375 40.21875
C 26.09375 36.390625 22.703125 36.1875 19.40625 35.890625
C 18.90625 35.890625 16.59375 35.6875 16.203125 35.6875
C 15.5 35.59375 15.09375 35.5 15.09375 34.796875
C 15.09375 34.09375 15.203125 34 17.203125 34
z
" id="CMR17-51"/>
       </defs>
       <use transform="scale(0.996264)" xlink:href="#CMR17-51"/>
       <use transform="translate(45.690477 0)scale(0.996264)" xlink:href="#CMMI12-58"/>
       <use transform="translate(72.787654 0)scale(0.996264)" xlink:href="#CMR17-48"/>
      </g>
     </g>
    </g>
    <g id="ytick_8">
     <g id="line2d_14">
      <g>
       <use style="stroke:#000000;stroke-width:0.8;" x="39.785756" xlink:href="#me3d4554a2e" y="36.112924"/>
      </g>
     </g>
     <g id="text_15">
      <!-- $\mathdefault{3.5}$ -->
      <g transform="translate(20.055677 39.572173)scale(0.1 -0.1)">
       <use transform="scale(0.996264)" xlink:href="#CMR17-51"/>
       <use transform="translate(45.690477 0)scale(0.996264)" xlink:href="#CMMI12-58"/>
       <use transform="translate(72.787654 0)scale(0.996264)" xlink:href="#CMR17-53"/>
      </g>
     </g>
    </g>
    <g id="ytick_9">
     <g id="line2d_15">
      <g>
       <use style="stroke:#000000;stroke-width:0.8;" x="39.785756" xlink:href="#me3d4554a2e" y="10.659249"/>
      </g>
     </g>
     <g id="text_16">
      <!-- $\mathdefault{4.0}$ -->
      <g transform="translate(20.055677 14.118498)scale(0.1 -0.1)">
       <use transform="scale(0.996264)" xlink:href="#CMR17-52"/>
       <use transform="translate(45.690477 0)scale(0.996264)" xlink:href="#CMMI12-58"/>
       <use transform="translate(72.787654 0)scale(0.996264)" xlink:href="#CMR17-48"/>
      </g>
     </g>
    </g>
    <g id="text_17">
     <!-- PDF -->
     <g transform="translate(14.118498 122.920909)rotate(-90)scale(0.1 -0.1)">
      <defs>
       <path d="M 19.796875 32
L 35.796875 32
C 48.703125 32 58.09375 40.359375 58.09375 49.796875
C 58.09375 59.234375 48.90625 68 35.796875 68
L 5.203125 68
L 5.203125 65.390625
C 12.09375 65.390625 13.203125 65.390625 13.203125 60.921875
L 13.203125 7.078125
C 13.203125 2.59375 12.09375 2.59375 5.203125 2.59375
L 5.203125 0
C 8.09375 0.1875 13.40625 0.1875 16.5 0.1875
C 19.59375 0.1875 24.90625 0.1875 27.796875 0
L 27.796875 2.59375
C 20.90625 2.59375 19.796875 2.59375 19.796875 7.078125
z
M 19.59375 34.09375
L 19.59375 61.515625
C 19.59375 64.890625 19.796875 65.390625 23.796875 65.390625
L 33.90625 65.390625
C 46.796875 65.390625 50.5 58.046875 50.5 49.796875
C 50.5 40.75 46.09375 34.09375 33.90625 34.09375
z
" id="CMR17-80"/>
       <path d="M 5.203125 68
L 5.203125 65.390625
C 12.09375 65.390625 13.203125 65.390625 13.203125 60.90625
L 13.203125 7.078125
C 13.203125 2.59375 12.09375 2.59375 5.203125 2.59375
L 5.203125 0
L 37 0
C 53.09375 0 66 14.734375 66 33.4375
C 66 52.25 53.296875 68 37 68
z
M 23.796875 2.59375
C 19.796875 2.59375 19.59375 3.09375 19.59375 6.46875
L 19.59375 61.5
C 19.59375 64.890625 19.796875 65.390625 23.796875 65.390625
L 35 65.390625
C 43.296875 65.390625 58.59375 60.515625 58.59375 33.4375
C 58.59375 19.40625 54.5 13.734375 52.59375 11.046875
C 50.203125 7.96875 44.5 2.59375 35 2.59375
z
" id="CMR17-68"/>
       <path d="M 54.40625 67.796875
L 5.09375 67.796875
L 5.09375 65.1875
C 12 65.1875 13.09375 65.1875 13.09375 60.671875
L 13.09375 7.03125
C 13.09375 2.59375 12 2.59375 5.09375 2.59375
L 5.09375 0
C 8 0.1875 13.59375 0.1875 16.703125 0.1875
C 20.796875 0.1875 25.59375 0.1875 29.703125 0
L 29.703125 2.59375
L 27.5 2.59375
C 19.90625 2.59375 19.703125 3.578125 19.703125 7.125
L 19.703125 32.390625
L 28.703125 32.390625
C 38 32.390625 38.90625 29.140625 38.90625 20.84375
L 40.703125 20.84375
L 40.703125 46.734375
L 38.90625 46.734375
C 38.90625 38.296875 38 35 28.703125 35
L 19.703125 35
L 19.703125 61.28125
C 19.703125 64.6875 19.90625 65.1875 23.90625 65.1875
L 36.796875 65.1875
C 51.90625 65.1875 53.59375 58.96875 55 45.625
L 56.796875 45.625
z
" id="CMR17-70"/>
      </defs>
      <use transform="scale(0.996264)" xlink:href="#CMR17-80"/>
      <use transform="translate(62.586301 0)scale(0.996264)" xlink:href="#CMR17-68"/>
      <use transform="translate(132.979856 0)scale(0.996264)" xlink:href="#CMR17-70"/>
     </g>
    </g>
   </g>
   <g id="line2d_16">
    <path clip-path="url(#p8117c9bafb)" d="M 39.785756 163.381297
L 236.634961 163.381297
L 236.634961 163.381297
" style="fill:none;stroke:#40e0d0;stroke-linecap:square;stroke-width:1.5;"/>
   </g>
   <g id="line2d_17">
    <path clip-path="url(#p8117c9bafb)" d="M 39.785756 214.288647
L 78.209775 214.177915
L 85.106393 213.925713
L 90.03255 213.538294
L 94.170521 212.991728
L 97.717354 212.295353
L 100.870094 211.445649
L 103.628741 210.482402
L 106.190342 209.370081
L 108.751944 208.015235
L 111.116499 206.520594
L 113.481054 204.764235
L 115.845609 202.719398
L 118.210164 200.35986
L 120.574719 197.660569
L 122.939274 194.598346
L 125.303829 191.152635
L 127.668384 187.306309
L 130.032939 183.046496
L 132.59454 177.956226
L 135.156141 172.369746
L 137.914789 165.807462
L 140.870482 158.174413
L 144.023223 149.400667
L 147.570055 138.859496
L 152.102119 124.629206
L 163.333755 88.97613
L 166.486495 79.930785
L 169.048096 73.24992
L 171.215605 68.189989
L 173.186068 64.146622
L 174.959484 61.020734
L 176.535854 58.691873
L 177.915178 57.028658
L 179.097455 55.898132
L 180.279733 55.053239
L 181.46201 54.505665
L 182.447241 54.28425
L 183.432473 54.282442
L 184.417704 54.50534
L 185.402935 54.957436
L 186.388166 55.642572
L 187.570444 56.776717
L 188.752722 58.254917
L 189.934999 60.079507
L 191.314323 62.646637
L 192.693647 65.683564
L 194.270017 69.721641
L 196.043433 74.968968
L 197.816849 80.930691
L 199.787312 88.338593
L 201.95482 97.348943
L 204.516422 108.98623
L 207.669162 124.40223
L 217.71852 174.428306
L 220.083075 184.610832
L 222.053538 192.154931
L 223.826954 198.080238
L 225.403324 202.586727
L 226.782648 205.908241
L 228.161972 208.635454
L 229.344249 210.502207
L 230.526527 211.948122
L 231.511758 212.849689
L 232.496989 213.498707
L 233.679267 213.986331
L 234.861544 214.220092
L 236.634961 214.288647
L 236.634961 214.288647
" style="fill:none;stroke:#ff00ff;stroke-linecap:square;stroke-width:1.5;"/>
   </g>
   <g id="line2d_18">
    <path clip-path="url(#p8117c9bafb)" d="M 39.785756 214.288647
L 78.209775 214.177915
L 85.106393 213.925713
L 90.03255 213.538294
L 94.170521 212.991728
L 97.717354 212.295353
L 100.870094 211.445649
L 103.628741 210.482402
L 106.190342 209.370081
L 108.751944 208.015235
L 111.116499 206.520594
L 113.481054 204.764235
L 115.845609 202.719398
L 118.210164 200.35986
L 120.574719 197.660569
L 122.939274 194.598346
L 125.303829 191.152635
L 127.668384 187.306309
L 130.032939 183.046496
L 132.59454 177.956226
L 135.156141 172.369746
L 137.914789 165.807462
L 140.870482 158.174413
L 144.023223 149.400667
L 147.570055 138.859496
L 152.102119 124.629206
L 163.333755 88.97613
L 166.486495 79.930785
L 169.048096 73.24992
L 171.215605 68.189989
L 173.186068 64.146622
L 174.959484 61.020734
L 176.535854 58.691873
L 177.915178 57.028658
L 179.097455 55.898132
L 180.279733 55.053239
L 181.46201 54.505665
L 182.447241 54.28425
L 183.432473 54.282442
L 184.417704 54.50534
L 185.402935 54.957436
L 186.388166 55.642572
L 187.570444 56.776717
L 188.752722 58.254917
L 189.934999 60.079507
L 191.314323 62.646637
L 192.693647 65.683564
L 194.270017 69.721641
L 196.043433 74.968968
L 197.816849 80.930691
L 199.787312 88.338593
L 201.95482 97.348943
L 204.516422 108.98623
L 207.669162 124.40223
L 217.71852 174.428306
L 220.083075 184.610832
L 222.053538 192.154931
L 223.826954 198.080238
L 225.403324 202.586727
L 226.782648 205.908241
L 228.161972 208.635454
L 229.344249 210.502207
L 230.526527 211.948122
L 231.511758 212.849689
L 232.496989 213.498707
L 233.679267 213.986331
L 234.861544 214.220092
L 236.634961 214.288647
L 236.634961 214.288647
" style="fill:none;stroke:#a070e8;stroke-linecap:square;stroke-width:1.5;"/>
   </g>
   <g id="patch_3">
    <path d="M 39.785756 214.288647
L 39.785756 10.659249
" style="fill:none;stroke:#000000;stroke-linecap:square;stroke-linejoin:miter;stroke-width:0.8;"/>
   </g>
   <g id="patch_4">
    <path d="M 236.634961 214.288647
L 236.634961 10.659249
" style="fill:none;stroke:#000000;stroke-linecap:square;stroke-linejoin:miter;stroke-width:0.8;"/>
   </g>
   <g id="patch_5">
    <path d="M 39.785756 214.288647
L 236.634961 214.288647
" style="fill:none;stroke:#000000;stroke-linecap:square;stroke-linejoin:miter;stroke-width:0.8;"/>
   </g>
   <g id="patch_6">
    <path d="M 39.785756 10.659249
L 236.634961 10.659249
" style="fill:none;stroke:#000000;stroke-linecap:square;stroke-linejoin:miter;stroke-width:0.8;"/>
   </g>
   <g id="text_18">
    <!-- Beta(1, 1) -->
    <g transform="translate(53.224632 158.733987)scale(0.12 -0.12)">
     <defs>
      <path d="M 5.203125 68
L 5.203125 65.390625
C 12.09375 65.390625 13.203125 65.390625 13.203125 60.890625
L 13.203125 7.046875
C 13.203125 2.59375 12.09375 2.59375 5.203125 2.59375
L 5.203125 0
L 39.59375 0
C 52.40625 0 60.703125 9.03125 60.703125 18.046875
C 60.703125 26.96875 52.5 34.59375 41.796875 35.296875
C 51.40625 37.1875 58.09375 43.59375 58.09375 51.1875
C 58.09375 59.5 49.90625 68 37 68
z
M 19.5 36
L 19.5 61.5
C 19.5 64.890625 19.703125 65.390625 23.703125 65.390625
L 36.5 65.390625
C 46.40625 65.390625 50.796875 57.390625 50.796875 51.1875
C 50.796875 43.59375 44.703125 36 33.90625 36
z
M 23.703125 2.59375
C 19.703125 2.59375 19.5 3.09375 19.5 6.453125
L 19.5 34.390625
L 38 34.390625
C 48.296875 34.390625 53.296875 25.375 53.296875 18.140625
C 53.296875 10.90625 47.59375 2.59375 36.703125 2.59375
z
" id="CMR17-66"/>
      <path d="M 38.09375 23.484375
C 38.5 23.890625 38.5 24.09375 38.5 25.09375
C 38.5 35.171875 33.09375 44 21.703125 44
C 11.09375 44 2.703125 33.984375 2.703125 21.78125
C 2.703125 8.65625 12.203125 -1 22.796875 -1
C 34 -1 38.40625 9.671875 38.40625 11.796875
C 38.40625 12.5 37.796875 12.5 37.59375 12.5
C 36.90625 12.5 36.796875 12.296875 36.40625 11.078125
C 34.203125 4.21875 28.703125 0.796875 23.5 0.796875
C 19.203125 0.796875 14.90625 3.21875 12.203125 7.65625
C 9.09375 12.796875 9.09375 18.75 9.09375 23.484375
z
M 9.203125 25
C 9.90625 39.234375 17.59375 42.390625 21.59375 42.390625
C 28.40625 42.390625 33 36.0625 33.09375 25
z
" id="CMR17-101"/>
      <path d="M 15.09375 40.390625
L 29.09375 40.390625
L 29.09375 43
L 15.09375 43
L 15.09375 62
L 13.296875 62
C 13.09375 51.4375 9.59375 42.1875 1.09375 41.984375
L 1.09375 40.390625
L 9.796875 40.390625
L 9.796875 12.15625
C 9.796875 10.234375 9.796875 -1 21.40625 -1
C 27.296875 -1 30.703125 4.8125 30.703125 12.25
L 30.703125 17.984375
L 28.90625 17.984375
L 28.90625 12.34375
C 28.90625 5.421875 26.203125 0.796875 22 0.796875
C 19.09375 0.796875 15.09375 2.796875 15.09375 11.953125
z
" id="CMR17-116"/>
      <path d="M 36 25.875
C 36 32 36 35.546875 31.796875 39.59375
C 28.09375 42.984375 23.796875 44 20.40625 44
C 12.5 44 6.796875 37.625 6.796875 30.890625
C 6.796875 27.1875 9.796875 27 10.40625 27
C 11.703125 27 14 27.796875 14 30.59375
C 14 33.09375 12.09375 34.1875 10.40625 34.1875
C 10 34.1875 9.5 34.09375 9.203125 34
C 11.296875 40.53125 16.703125 42.390625 20.203125 42.390625
C 25.203125 42.390625 30.703125 37.828125 30.703125 29.296875
L 30.703125 25.5
C 24.796875 25.296875 17.703125 24.5 12.09375 21.453125
C 5.796875 17.921875 4 12.84375 4 9
C 4 1.203125 13 -1 18.296875 -1
C 23.796875 -1 28.90625 2.109375 31.09375 7.890625
C 31.296875 3.421875 34.09375 -0.609375 38.5 -0.609375
C 40.59375 -0.609375 45.90625 0.796875 45.90625 8.796875
L 45.90625 14.46875
L 44.09375 14.46875
L 44.09375 8.703125
C 44.09375 2.515625 41.40625 1.703125 40.09375 1.703125
C 36 1.703125 36 6.96875 36 11.4375
z
M 30.703125 13.859375
C 30.703125 5.046875 24.5 0.59375 19 0.59375
C 14 0.59375 10.09375 4.34375 10.09375 9
C 10.09375 12.046875 11.40625 17.40625 17.203125 20.65625
C 22 23.390625 27.5 23.796875 30.703125 24
z
" id="CMR17-97"/>
      <path d="M 30.59375 -24.40625
C 30.59375 -24.3125 30.59375 -24.109375 30.296875 -23.8125
C 25.703125 -19.109375 13.40625 -6.296875 13.40625 24.9375
C 13.40625 56.171875 25.5 68.875 30.40625 73.890625
C 30.40625 73.984375 30.59375 74.1875 30.59375 74.484375
C 30.59375 74.796875 30.296875 75 29.90625 75
C 28.796875 75 20.296875 67.578125 15.40625 56.5625
C 10.40625 45.453125 9 34.65625 9 25.046875
C 9 17.828125 9.703125 5.625 15.703125 -7.296875
C 20.5 -17.703125 28.703125 -25 29.90625 -25
C 30.40625 -25 30.59375 -24.8125 30.59375 -24.40625
z
" id="CMR17-40"/>
      <path d="M 15.796875 1.59375
C 16 0.6875 16 0.390625 16 -1.1875
C 16 -7.046875 14 -12.421875 9.796875 -17.3125
C 9.296875 -17.8125 9.296875 -18 9.296875 -18.203125
C 9.296875 -18.609375 9.703125 -19 10.09375 -19
C 10.703125 -19 17.59375 -12.125 17.59375 -1.28125
C 17.59375 2 17.203125 8.1875 12.5 8.1875
C 10.296875 8.1875 8.40625 6.6875 8.40625 4.09375
C 8.40625 1.5 10.296875 0 12.5 0
C 13.703125 0 15 0.5 15.796875 1.59375
z
" id="CMR17-44"/>
      <path d="M 26.296875 24.9375
C 26.296875 32.140625 25.59375 44.359375 19.59375 57.265625
C 14.796875 67.6875 6.59375 75 5.40625 75
C 5.09375 75 4.703125 74.890625 4.703125 74.390625
C 4.703125 74.1875 4.796875 74.09375 4.90625 73.890625
C 9.703125 68.875 21.90625 56.171875 21.90625 25.046875
C 21.90625 -6.1875 9.796875 -18.90625 4.90625 -23.90625
C 4.796875 -24.109375 4.703125 -24.203125 4.703125 -24.40625
C 4.703125 -24.90625 5.09375 -25 5.40625 -25
C 6.5 -25 15 -17.609375 19.90625 -6.59375
C 24.90625 4.515625 26.296875 15.328125 26.296875 24.9375
z
" id="CMR17-41"/>
     </defs>
     <use transform="scale(0.996264)" xlink:href="#CMR17-66"/>
     <use transform="translate(65.188754 0)scale(0.996264)" xlink:href="#CMR17-101"/>
     <use transform="translate(105.674415 0)scale(0.996264)" xlink:href="#CMR17-116"/>
     <use transform="translate(140.955183 0)scale(0.996264)" xlink:href="#CMR17-97"/>
     <use transform="translate(186.64566 0)scale(0.996264)" xlink:href="#CMR17-40"/>
     <use transform="translate(221.926428 0)scale(0.996264)" xlink:href="#CMR17-49"/>
     <use transform="translate(267.616905 0)scale(0.996264)" xlink:href="#CMR17-44"/>
     <use transform="translate(322.56393 0)scale(0.996264)" xlink:href="#CMR17-49"/>
     <use transform="translate(368.254407 0)scale(0.996264)" xlink:href="#CMR17-41"/>
    </g>
   </g>
   <g id="legend_1">
    <g id="patch_7">
     <path d="M 46.785756 62.962088
L 183.006303 62.962088
Q 185.006303 62.962088 185.006303 60.962088
L 185.006303 17.659249
Q 185.006303 15.659249 183.006303 15.659249
L 46.785756 15.659249
Q 44.785756 15.659249 44.785756 17.659249
L 44.785756 60.962088
Q 44.785756 62.962088 46.785756 62.962088
z
" style="fill:none;opacity:0;"/>
    </g>
    <g id="line2d_19">
     <path d="M 48.785756 23.757687
L 68.785756 23.757687
" style="fill:none;stroke:#40e0d0;stroke-linecap:square;stroke-width:1.5;"/>
    </g>
    <g id="line2d_20"/>
    <g id="text_19">
     <!-- Prior -->
     <g transform="translate(76.785756 27.257687)scale(0.1 -0.1)">
      <defs>
       <path d="M 15 23.703125
C 15 33.34375 19.09375 42.390625 26.59375 42.390625
C 27.296875 42.390625 28 42.296875 28.703125 41.984375
C 28.703125 41.984375 26.5 41.28125 26.5 38.671875
C 26.5 36.265625 28.40625 35.265625 29.90625 35.265625
C 31.09375 35.265625 33.296875 35.96875 33.296875 38.78125
C 33.296875 41.984375 30.09375 44 26.703125 44
C 19.09375 44 15.796875 36.5625 14.796875 33.046875
L 14.703125 33.046875
L 14.703125 44
L 3.09375 42.890625
L 3.09375 40.28125
C 9 40.28125 9.90625 39.6875 9.90625 34.859375
L 9.90625 6.921875
C 9.90625 3.09375 9.5 2.59375 3.09375 2.59375
L 3.09375 0
C 5.5 0.1875 10.09375 0.1875 12.703125 0.1875
C 15.59375 0.1875 20.703125 0.1875 23.40625 0
L 23.40625 2.59375
C 16.203125 2.59375 15 2.59375 15 7.109375
z
" id="CMR17-114"/>
       <path d="M 15.5 61.890625
C 15.5 64.09375 13.703125 66 11.40625 66
C 9.203125 66 7.296875 64.1875 7.296875 61.890625
C 7.296875 59.6875 9.09375 57.796875 11.40625 57.796875
C 13.59375 57.796875 15.5 59.59375 15.5 61.890625
z
M 3.796875 42.890625
L 3.796875 40.296875
C 9.40625 40.296875 10.203125 39.6875 10.203125 34.859375
L 10.203125 6.921875
C 10.203125 3.09375 9.796875 2.59375 3.40625 2.59375
L 3.40625 0
C 5.796875 0.1875 10.09375 0.1875 12.59375 0.1875
C 15 0.1875 19.09375 0.1875 21.40625 0
L 21.40625 2.59375
C 15.5 2.59375 15.296875 3.203125 15.296875 6.8125
L 15.296875 44
z
" id="CMR17-105"/>
       <path d="M 43.09375 21.1875
C 43.09375 34 33.796875 44 22.90625 44
C 12 44 2.703125 34 2.703125 21.1875
C 2.703125 8.59375 12 -1 22.90625 -1
C 33.796875 -1 43.09375 8.59375 43.09375 21.1875
z
M 22.90625 0.796875
C 18.203125 0.796875 14.203125 3.59375 11.90625 7.5
C 9.40625 12 9.09375 17.59375 9.09375 22
C 9.09375 26.1875 9.296875 31.390625 11.90625 35.890625
C 13.90625 39.1875 17.796875 42.390625 22.90625 42.390625
C 27.40625 42.390625 31.203125 39.890625 33.59375 36.390625
C 36.703125 31.6875 36.703125 25.09375 36.703125 22
C 36.703125 18.09375 36.5 12.09375 33.796875 7.296875
C 31 2.6875 26.703125 0.796875 22.90625 0.796875
z
" id="CMR17-111"/>
      </defs>
      <use transform="scale(0.996264)" xlink:href="#CMR17-80"/>
      <use transform="translate(62.586301 0)scale(0.996264)" xlink:href="#CMR17-114"/>
      <use transform="translate(97.867068 0)scale(0.996264)" xlink:href="#CMR17-105"/>
      <use transform="translate(122.738127 0)scale(0.996264)" xlink:href="#CMR17-111"/>
      <use transform="translate(168.428604 0)scale(0.996264)" xlink:href="#CMR17-114"/>
     </g>
    </g>
    <g id="line2d_21">
     <path d="M 48.785756 38.435812
L 68.785756 38.435812
" style="fill:none;stroke:#ff00ff;stroke-linecap:square;stroke-width:1.5;"/>
    </g>
    <g id="line2d_22"/>
    <g id="text_20">
     <!-- Likelihood (normalized) -->
     <g transform="translate(76.785756 41.935812)scale(0.1 -0.1)">
      <defs>
       <path d="M 54.203125 25.1875
L 52.40625 25.1875
C 51.59375 15.328125 50.296875 2.59375 33.203125 2.59375
L 23.90625 2.59375
C 19.90625 2.59375 19.703125 3.09375 19.703125 6.46875
L 19.703125 60.8125
C 19.703125 64.390625 19.90625 65.390625 27.5 65.390625
L 29.703125 65.390625
L 29.703125 68
C 25.59375 67.796875 20.796875 67.796875 16.703125 67.796875
C 13.59375 67.796875 8 67.796875 5.09375 68
L 5.09375 65.390625
C 12 65.390625 13.09375 65.390625 13.09375 60.90625
L 13.09375 7.078125
C 13.09375 2.59375 12 2.59375 5.09375 2.59375
L 5.09375 0
L 51.796875 0
z
" id="CMR17-76"/>
       <path d="M 26.09375 26.234375
C 26 26.4375 25.5 27.03125 25.5 27.328125
C 25.5 27.53125 32.59375 33.984375 33.5 34.78125
C 39.203125 39.5625 42.796875 40.046875 45.40625 40.15625
L 45.40625 42.734375
C 44.796875 42.734375 44.59375 42.734375 44.5 42.640625
L 39.59375 42.53125
C 36.796875 42.53125 32.5 42.53125 29.796875 42.734375
L 29.796875 40.15625
C 31.203125 40.046875 32.203125 39.265625 32.203125 37.859375
C 32.203125 35.875 30.203125 33.984375 30.09375 33.984375
L 15 20.28125
L 15 69
L 3.09375 67.890625
L 3.09375 65.296875
C 9 65.296875 9.90625 64.703125 9.90625 59.921875
L 9.90625 6.859375
C 9.90625 3.09375 9.5 2.59375 3.09375 2.59375
L 3.09375 0
C 5.5 0.1875 9.90625 0.1875 12.40625 0.1875
C 14.90625 0.1875 19.296875 0.1875 21.703125 0
L 21.703125 2.59375
C 15.296875 2.59375 14.90625 2.984375 14.90625 6.859375
L 14.90625 17.796875
L 21.796875 24.0625
L 31.90625 9.15625
C 33.09375 7.359375 34.09375 5.96875 34.09375 4.671875
C 34.09375 2.890625 32.296875 2.59375 31.09375 2.59375
L 31.09375 0
C 33.5 0.1875 37.796875 0.1875 40.296875 0.1875
C 42.09375 0.1875 45.796875 0.09375 47.5 0
L 47.5 2.59375
C 42.796875 2.59375 41.703125 3.484375 38.703125 7.859375
z
" id="CMR17-107"/>
       <path d="M 15.296875 69
L 3.40625 67.890625
L 3.40625 65.296875
C 9.296875 65.296875 10.203125 64.703125 10.203125 59.921875
L 10.203125 6.859375
C 10.203125 3.09375 9.796875 2.59375 3.40625 2.59375
L 3.40625 0
C 5.796875 0.1875 10.203125 0.1875 12.703125 0.1875
C 15.296875 0.1875 19.703125 0.1875 22.09375 0
L 22.09375 2.59375
C 15.703125 2.59375 15.296875 2.984375 15.296875 6.859375
z
" id="CMR17-108"/>
       <path d="M 41.5 30.53125
C 41.5 35.65625 40.5 44 28.703125 44
C 20.5 44 16.5 37.375 15.296875 34.046875
L 15.203125 34.046875
L 15.203125 69
L 3.296875 67.890625
L 3.296875 65.296875
C 9.203125 65.296875 10.09375 64.703125 10.09375 60.046875
L 10.09375 6.921875
C 10.09375 3.09375 9.703125 2.59375 3.296875 2.59375
L 3.296875 0
C 5.703125 0.1875 10.09375 0.1875 12.703125 0.1875
C 15.296875 0.1875 19.796875 0.1875 22.203125 0
L 22.203125 2.59375
C 15.796875 2.59375 15.40625 3 15.40625 6.921875
L 15.40625 26.21875
C 15.40625 35.453125 21 42.390625 28 42.390625
C 35.40625 42.390625 36.203125 35.765625 36.203125 30.9375
L 36.203125 6.921875
C 36.203125 3.09375 35.796875 2.59375 29.40625 2.59375
L 29.40625 0
C 31.796875 0.1875 36.203125 0.1875 38.796875 0.1875
C 41.40625 0.1875 45.90625 0.1875 48.296875 0
L 48.296875 2.59375
C 41.90625 2.59375 41.5 3 41.5 6.921875
z
" id="CMR17-104"/>
       <path d="M 29.203125 67.890625
L 29.203125 65.296875
C 35.09375 65.296875 36 64.703125 36 60.046875
L 36 37.046875
C 35.59375 37.546875 31.5 44 23.40625 44
C 13.203125 44 3.296875 34.8125 3.296875 21.5
C 3.296875 8.265625 12.59375 -1 22.40625 -1
C 30.90625 -1 35.296875 5.640625 35.796875 6.34375
L 35.796875 -1
L 47.90625 -0.203125
L 47.90625 2.40625
C 42 2.40625 41.09375 3.015625 41.09375 7.859375
L 41.09375 69
z
M 35.796875 11.90625
C 35.796875 8.875 34 6.140625 31.703125 4.125
C 28.296875 1.09375 24.90625 0.59375 23 0.59375
C 20.09375 0.59375 9.703125 2.109375 9.703125 21.390625
C 9.703125 41.1875 21.296875 42.390625 23.90625 42.390625
C 28.5 42.390625 32.203125 39.765625 34.5 36.140625
C 35.796875 34.015625 35.796875 33.703125 35.796875 31.890625
z
" id="CMR17-100"/>
       <path d="M 41.5 30.53125
C 41.5 35.65625 40.5 44 28.703125 44
C 20.796875 44 16.703125 37.875 15.203125 33.84375
L 15.09375 33.84375
L 15.09375 44
L 3.296875 42.890625
L 3.296875 40.28125
C 9.203125 40.28125 10.09375 39.6875 10.09375 34.859375
L 10.09375 6.921875
C 10.09375 3.09375 9.703125 2.59375 3.296875 2.59375
L 3.296875 0
C 5.703125 0.1875 10.09375 0.1875 12.703125 0.1875
C 15.296875 0.1875 19.796875 0.1875 22.203125 0
L 22.203125 2.59375
C 15.796875 2.59375 15.40625 3 15.40625 6.921875
L 15.40625 26.21875
C 15.40625 35.453125 21 42.390625 28 42.390625
C 35.40625 42.390625 36.203125 35.765625 36.203125 30.9375
L 36.203125 6.921875
C 36.203125 3.09375 35.796875 2.59375 29.40625 2.59375
L 29.40625 0
C 31.796875 0.1875 36.203125 0.1875 38.796875 0.1875
C 41.40625 0.1875 45.90625 0.1875 48.296875 0
L 48.296875 2.59375
C 41.90625 2.59375 41.5 3 41.5 6.921875
z
" id="CMR17-110"/>
       <path d="M 67.59375 30.53125
C 67.59375 35.5625 66.703125 44 54.796875 44
C 48 44 43.296875 39.375 41.5 33.953125
L 41.40625 33.953125
C 40.203125 42.1875 34.296875 44 28.703125 44
C 20.796875 44 16.703125 37.875 15.203125 33.84375
L 15.09375 33.84375
L 15.09375 44
L 3.296875 42.890625
L 3.296875 40.28125
C 9.203125 40.28125 10.09375 39.6875 10.09375 34.859375
L 10.09375 6.921875
C 10.09375 3.09375 9.703125 2.59375 3.296875 2.59375
L 3.296875 0
C 5.703125 0.1875 10.09375 0.1875 12.703125 0.1875
C 15.296875 0.1875 19.796875 0.1875 22.203125 0
L 22.203125 2.59375
C 15.796875 2.59375 15.40625 3 15.40625 6.921875
L 15.40625 26.21875
C 15.40625 35.453125 21 42.390625 28 42.390625
C 35.40625 42.390625 36.203125 35.765625 36.203125 30.9375
L 36.203125 6.921875
C 36.203125 3.09375 35.796875 2.59375 29.40625 2.59375
L 29.40625 0
C 31.796875 0.1875 36.203125 0.1875 38.796875 0.1875
C 41.40625 0.1875 45.90625 0.1875 48.296875 0
L 48.296875 2.59375
C 41.90625 2.59375 41.5 3 41.5 6.921875
L 41.5 26.21875
C 41.5 35.453125 47.09375 42.390625 54.09375 42.390625
C 61.5 42.390625 62.296875 35.765625 62.296875 30.9375
L 62.296875 6.921875
C 62.296875 3.09375 61.90625 2.59375 55.5 2.59375
L 55.5 0
C 57.90625 0.1875 62.296875 0.1875 64.90625 0.1875
C 67.5 0.1875 72 0.1875 74.40625 0
L 74.40625 2.59375
C 68 2.59375 67.59375 3 67.59375 6.921875
z
" id="CMR17-109"/>
       <path d="M 36.09375 40.6875
C 36.90625 41.6875 36.90625 41.890625 36.90625 42.09375
C 36.90625 43 36.5 43 34.703125 43
L 4.296875 43
L 3.296875 27.5
L 5.09375 27.5
C 5.796875 37.1875 6.90625 41.390625 18.40625 41.390625
L 30.59375 41.390625
L 2 1.5
C 2 0.09375 2.09375 0 4.203125 0
L 35.796875 0
L 37.203125 18
L 35.40625 18
C 34.59375 6.890625 33.296875 1.796875 21.09375 1.796875
L 8.296875 1.796875
z
" id="CMR17-122"/>
      </defs>
      <use transform="scale(0.996264)" xlink:href="#CMR17-76"/>
      <use transform="translate(57.381408 0)scale(0.996264)" xlink:href="#CMR17-105"/>
      <use transform="translate(82.252466 0)scale(0.996264)" xlink:href="#CMR17-107"/>
      <use transform="translate(127.942928 0)scale(0.996264)" xlink:href="#CMR17-101"/>
      <use transform="translate(168.428589 0)scale(0.996264)" xlink:href="#CMR17-108"/>
      <use transform="translate(193.299647 0)scale(0.996264)" xlink:href="#CMR17-105"/>
      <use transform="translate(218.170706 0)scale(0.996264)" xlink:href="#CMR17-104"/>
      <use transform="translate(269.066075 0)scale(0.996264)" xlink:href="#CMR17-111"/>
      <use transform="translate(317.358991 0)scale(0.996264)" xlink:href="#CMR17-111"/>
      <use transform="translate(365.651907 0)scale(0.996264)" xlink:href="#CMR17-100"/>
      <use transform="translate(446.623243 0)scale(0.996264)" xlink:href="#CMR17-40"/>
      <use transform="translate(481.904011 0)scale(0.996264)" xlink:href="#CMR17-110"/>
      <use transform="translate(532.799381 0)scale(0.996264)" xlink:href="#CMR17-111"/>
      <use transform="translate(578.489858 0)scale(0.996264)" xlink:href="#CMR17-114"/>
      <use transform="translate(613.770626 0)scale(0.996264)" xlink:href="#CMR17-109"/>
      <use transform="translate(690.690216 0)scale(0.996264)" xlink:href="#CMR17-97"/>
      <use transform="translate(736.380693 0)scale(0.996264)" xlink:href="#CMR17-108"/>
      <use transform="translate(761.251751 0)scale(0.996264)" xlink:href="#CMR17-105"/>
      <use transform="translate(786.12281 0)scale(0.996264)" xlink:href="#CMR17-122"/>
      <use transform="translate(826.60847 0)scale(0.996264)" xlink:href="#CMR17-101"/>
      <use transform="translate(867.094131 0)scale(0.996264)" xlink:href="#CMR17-100"/>
      <use transform="translate(917.9895 0)scale(0.996264)" xlink:href="#CMR17-41"/>
     </g>
    </g>
    <g id="line2d_23">
     <path d="M 48.785756 53.524909
L 68.785756 53.524909
" style="fill:none;stroke:#a070e8;stroke-linecap:square;stroke-width:1.5;"/>
    </g>
    <g id="line2d_24"/>
    <g id="text_21">
     <!-- Posterior -->
     <g transform="translate(76.785756 57.024909)scale(0.1 -0.1)">
      <defs>
       <path d="M 30.90625 42
C 30.90625 43.796875 30.796875 43.890625 30.203125 43.890625
C 29.796875 43.890625 29.703125 43.796875 28.5 42.296875
C 28.203125 41.890625 27.296875 40.890625 27 40.5
C 23.796875 43.890625 19.296875 44 17.59375 44
C 6.5 44 2.5 38.1875 2.5 32.390625
C 2.5 23.390625 12.703125 21.296875 15.59375 20.6875
C 21.90625 19.390625 24.09375 19 26.203125 17.1875
C 27.5 16 29.703125 13.796875 29.703125 10.1875
C 29.703125 6 27.296875 0.59375 18.09375 0.59375
C 9.40625 0.59375 6.296875 7.1875 4.5 16
C 4.203125 17.390625 4.203125 17.5 3.40625 17.5
C 2.59375 17.5 2.5 17.390625 2.5 15.390625
L 2.5 1
C 2.5 -0.8125 2.59375 -0.90625 3.203125 -0.90625
C 3.703125 -0.90625 3.796875 -0.8125 4.296875 0
C 4.90625 0.890625 6.40625 3.296875 7 4.296875
C 9 1.59375 12.5 -1 18.09375 -1
C 28 -1 33.296875 4.390625 33.296875 12.1875
C 33.296875 17.296875 30.59375 20 29.296875 21.1875
C 26.296875 24.296875 22.796875 25 18.59375 25.796875
C 13.09375 27 6.09375 28.390625 6.09375 34.5
C 6.09375 37.09375 7.5 42.59375 17.59375 42.59375
C 28.296875 42.59375 28.90625 32.59375 29.09375 29.390625
C 29.203125 28.890625 29.703125 28.796875 30 28.796875
C 30.90625 28.796875 30.90625 29.09375 30.90625 30.796875
z
" id="CMR17-115"/>
      </defs>
      <use transform="scale(0.996264)" xlink:href="#CMR17-80"/>
      <use transform="translate(59.983847 0)scale(0.996264)" xlink:href="#CMR17-111"/>
      <use transform="translate(105.674324 0)scale(0.996264)" xlink:href="#CMR17-115"/>
      <use transform="translate(141.475661 0)scale(0.996264)" xlink:href="#CMR17-116"/>
      <use transform="translate(176.756429 0)scale(0.996264)" xlink:href="#CMR17-101"/>
      <use transform="translate(217.24209 0)scale(0.996264)" xlink:href="#CMR17-114"/>
      <use transform="translate(252.522857 0)scale(0.996264)" xlink:href="#CMR17-105"/>
      <use transform="translate(277.393916 0)scale(0.996264)" xlink:href="#CMR17-111"/>
      <use transform="translate(323.084393 0)scale(0.996264)" xlink:href="#CMR17-114"/>
     </g>
    </g>
   </g>
  </g>
  <g id="axes_2">
   <g id="patch_8">
    <path d="M 286.385756 214.288647
L 483.234961 214.288647
L 483.234961 10.659249
L 286.385756 10.659249
z
" style="fill:#ffffff;"/>
   </g>
   <g id="matplotlib.axis_3">
    <g id="xtick_7">
     <g id="line2d_25">
      <g>
       <use style="stroke:#000000;stroke-width:0.8;" x="286.385756" xlink:href="#m92624f417d" y="214.288647"/>
      </g>
     </g>
     <g id="text_22">
      <!-- $\mathdefault{0.0}$ -->
      <g transform="translate(280.020716 228.207145)scale(0.1 -0.1)">
       <use transform="scale(0.996264)" xlink:href="#CMR17-48"/>
       <use transform="translate(45.690477 0)scale(0.996264)" xlink:href="#CMMI12-58"/>
       <use transform="translate(72.787654 0)scale(0.996264)" xlink:href="#CMR17-48"/>
      </g>
     </g>
    </g>
    <g id="xtick_8">
     <g id="line2d_26">
      <g>
       <use style="stroke:#000000;stroke-width:0.8;" x="325.755597" xlink:href="#m92624f417d" y="214.288647"/>
      </g>
     </g>
     <g id="text_23">
      <!-- $\mathdefault{0.2}$ -->
      <g transform="translate(319.390557 228.207145)scale(0.1 -0.1)">
       <use transform="scale(0.996264)" xlink:href="#CMR17-48"/>
       <use transform="translate(45.690477 0)scale(0.996264)" xlink:href="#CMMI12-58"/>
       <use transform="translate(72.787654 0)scale(0.996264)" xlink:href="#CMR17-50"/>
      </g>
     </g>
    </g>
    <g id="xtick_9">
     <g id="line2d_27">
      <g>
       <use style="stroke:#000000;stroke-width:0.8;" x="365.125438" xlink:href="#m92624f417d" y="214.288647"/>
      </g>
     </g>
     <g id="text_24">
      <!-- $\mathdefault{0.4}$ -->
      <g transform="translate(358.760398 228.207145)scale(0.1 -0.1)">
       <use transform="scale(0.996264)" xlink:href="#CMR17-48"/>
       <use transform="translate(45.690477 0)scale(0.996264)" xlink:href="#CMMI12-58"/>
       <use transform="translate(72.787654 0)scale(0.996264)" xlink:href="#CMR17-52"/>
      </g>
     </g>
    </g>
    <g id="xtick_10">
     <g id="line2d_28">
      <g>
       <use style="stroke:#000000;stroke-width:0.8;" x="404.495279" xlink:href="#m92624f417d" y="214.288647"/>
      </g>
     </g>
     <g id="text_25">
      <!-- $\mathdefault{0.6}$ -->
      <g transform="translate(398.130239 228.207145)scale(0.1 -0.1)">
       <use transform="scale(0.996264)" xlink:href="#CMR17-48"/>
       <use transform="translate(45.690477 0)scale(0.996264)" xlink:href="#CMMI12-58"/>
       <use transform="translate(72.787654 0)scale(0.996264)" xlink:href="#CMR17-54"/>
      </g>
     </g>
    </g>
    <g id="xtick_11">
     <g id="line2d_29">
      <g>
       <use style="stroke:#000000;stroke-width:0.8;" x="443.86512" xlink:href="#m92624f417d" y="214.288647"/>
      </g>
     </g>
     <g id="text_26">
      <!-- $\mathdefault{0.8}$ -->
      <g transform="translate(437.50008 228.207145)scale(0.1 -0.1)">
       <use transform="scale(0.996264)" xlink:href="#CMR17-48"/>
       <use transform="translate(45.690477 0)scale(0.996264)" xlink:href="#CMMI12-58"/>
       <use transform="translate(72.787654 0)scale(0.996264)" xlink:href="#CMR17-56"/>
      </g>
     </g>
    </g>
    <g id="xtick_12">
     <g id="line2d_30">
      <g>
       <use style="stroke:#000000;stroke-width:0.8;" x="483.234961" xlink:href="#m92624f417d" y="214.288647"/>
      </g>
     </g>
     <g id="text_27">
      <!-- $\mathdefault{1.0}$ -->
      <g transform="translate(476.869921 228.207145)scale(0.1 -0.1)">
       <use transform="scale(0.996264)" xlink:href="#CMR17-49"/>
       <use transform="translate(45.690477 0)scale(0.996264)" xlink:href="#CMMI12-58"/>
       <use transform="translate(72.787654 0)scale(0.996264)" xlink:href="#CMR17-48"/>
      </g>
     </g>
    </g>
    <g id="text_28">
     <!-- $\theta$ -->
     <g transform="translate(382.471906 241.062822)scale(0.1 -0.1)">
      <use transform="scale(0.996264)" xlink:href="#CMMI12-18"/>
     </g>
    </g>
   </g>
   <g id="matplotlib.axis_4">
    <g id="ytick_10">
     <g id="line2d_31">
      <g>
       <use style="stroke:#000000;stroke-width:0.8;" x="286.385756" xlink:href="#me3d4554a2e" y="214.288647"/>
      </g>
     </g>
     <g id="text_29">
      <!-- $\mathdefault{0.0}$ -->
      <g transform="translate(266.655677 217.747896)scale(0.1 -0.1)">
       <use transform="scale(0.996264)" xlink:href="#CMR17-48"/>
       <use transform="translate(45.690477 0)scale(0.996264)" xlink:href="#CMMI12-58"/>
       <use transform="translate(72.787654 0)scale(0.996264)" xlink:href="#CMR17-48"/>
      </g>
     </g>
    </g>
    <g id="ytick_11">
     <g id="line2d_32">
      <g>
       <use style="stroke:#000000;stroke-width:0.8;" x="286.385756" xlink:href="#me3d4554a2e" y="188.834972"/>
      </g>
     </g>
     <g id="text_30">
      <!-- $\mathdefault{0.5}$ -->
      <g transform="translate(266.655677 192.294221)scale(0.1 -0.1)">
       <use transform="scale(0.996264)" xlink:href="#CMR17-48"/>
       <use transform="translate(45.690477 0)scale(0.996264)" xlink:href="#CMMI12-58"/>
       <use transform="translate(72.787654 0)scale(0.996264)" xlink:href="#CMR17-53"/>
      </g>
     </g>
    </g>
    <g id="ytick_12">
     <g id="line2d_33">
      <g>
       <use style="stroke:#000000;stroke-width:0.8;" x="286.385756" xlink:href="#me3d4554a2e" y="163.381297"/>
      </g>
     </g>
     <g id="text_31">
      <!-- $\mathdefault{1.0}$ -->
      <g transform="translate(266.655677 166.840546)scale(0.1 -0.1)">
       <use transform="scale(0.996264)" xlink:href="#CMR17-49"/>
       <use transform="translate(45.690477 0)scale(0.996264)" xlink:href="#CMMI12-58"/>
       <use transform="translate(72.787654 0)scale(0.996264)" xlink:href="#CMR17-48"/>
      </g>
     </g>
    </g>
    <g id="ytick_13">
     <g id="line2d_34">
      <g>
       <use style="stroke:#000000;stroke-width:0.8;" x="286.385756" xlink:href="#me3d4554a2e" y="137.927623"/>
      </g>
     </g>
     <g id="text_32">
      <!-- $\mathdefault{1.5}$ -->
      <g transform="translate(266.655677 141.386872)scale(0.1 -0.1)">
       <use transform="scale(0.996264)" xlink:href="#CMR17-49"/>
       <use transform="translate(45.690477 0)scale(0.996264)" xlink:href="#CMMI12-58"/>
       <use transform="translate(72.787654 0)scale(0.996264)" xlink:href="#CMR17-53"/>
      </g>
     </g>
    </g>
    <g id="ytick_14">
     <g id="line2d_35">
      <g>
       <use style="stroke:#000000;stroke-width:0.8;" x="286.385756" xlink:href="#me3d4554a2e" y="112.473948"/>
      </g>
     </g>
     <g id="text_33">
      <!-- $\mathdefault{2.0}$ -->
      <g transform="translate(266.655677 115.933197)scale(0.1 -0.1)">
       <use transform="scale(0.996264)" xlink:href="#CMR17-50"/>
       <use transform="translate(45.690477 0)scale(0.996264)" xlink:href="#CMMI12-58"/>
       <use transform="translate(72.787654 0)scale(0.996264)" xlink:href="#CMR17-48"/>
      </g>
     </g>
    </g>
    <g id="ytick_15">
     <g id="line2d_36">
      <g>
       <use style="stroke:#000000;stroke-width:0.8;" x="286.385756" xlink:href="#me3d4554a2e" y="87.020273"/>
      </g>
     </g>
     <g id="text_34">
      <!-- $\mathdefault{2.5}$ -->
      <g transform="translate(266.655677 90.479522)scale(0.1 -0.1)">
       <use transform="scale(0.996264)" xlink:href="#CMR17-50"/>
       <use transform="translate(45.690477 0)scale(0.996264)" xlink:href="#CMMI12-58"/>
       <use transform="translate(72.787654 0)scale(0.996264)" xlink:href="#CMR17-53"/>
      </g>
     </g>
    </g>
    <g id="ytick_16">
     <g id="line2d_37">
      <g>
       <use style="stroke:#000000;stroke-width:0.8;" x="286.385756" xlink:href="#me3d4554a2e" y="61.566599"/>
      </g>
     </g>
     <g id="text_35">
      <!-- $\mathdefault{3.0}$ -->
      <g transform="translate(266.655677 65.025848)scale(0.1 -0.1)">
       <use transform="scale(0.996264)" xlink:href="#CMR17-51"/>
       <use transform="translate(45.690477 0)scale(0.996264)" xlink:href="#CMMI12-58"/>
       <use transform="translate(72.787654 0)scale(0.996264)" xlink:href="#CMR17-48"/>
      </g>
     </g>
    </g>
    <g id="ytick_17">
     <g id="line2d_38">
      <g>
       <use style="stroke:#000000;stroke-width:0.8;" x="286.385756" xlink:href="#me3d4554a2e" y="36.112924"/>
      </g>
     </g>
     <g id="text_36">
      <!-- $\mathdefault{3.5}$ -->
      <g transform="translate(266.655677 39.572173)scale(0.1 -0.1)">
       <use transform="scale(0.996264)" xlink:href="#CMR17-51"/>
       <use transform="translate(45.690477 0)scale(0.996264)" xlink:href="#CMMI12-58"/>
       <use transform="translate(72.787654 0)scale(0.996264)" xlink:href="#CMR17-53"/>
      </g>
     </g>
    </g>
    <g id="ytick_18">
     <g id="line2d_39">
      <g>
       <use style="stroke:#000000;stroke-width:0.8;" x="286.385756" xlink:href="#me3d4554a2e" y="10.659249"/>
      </g>
     </g>
     <g id="text_37">
      <!-- $\mathdefault{4.0}$ -->
      <g transform="translate(266.655677 14.118498)scale(0.1 -0.1)">
       <use transform="scale(0.996264)" xlink:href="#CMR17-52"/>
       <use transform="translate(45.690477 0)scale(0.996264)" xlink:href="#CMMI12-58"/>
       <use transform="translate(72.787654 0)scale(0.996264)" xlink:href="#CMR17-48"/>
      </g>
     </g>
    </g>
    <g id="text_38">
     <!-- PDF -->
     <g transform="translate(260.718498 122.920909)rotate(-90)scale(0.1 -0.1)">
      <use transform="scale(0.996264)" xlink:href="#CMR17-80"/>
      <use transform="translate(62.586301 0)scale(0.996264)" xlink:href="#CMR17-68"/>
      <use transform="translate(132.979856 0)scale(0.996264)" xlink:href="#CMR17-70"/>
     </g>
    </g>
   </g>
   <g id="line2d_40">
    <path clip-path="url(#pc195fd150f)" d="M 286.385756 214.288647
L 291.508958 206.546044
L 296.435114 199.491456
L 301.361271 192.819437
L 306.090381 186.774221
L 310.819491 181.081581
L 315.548601 175.741518
L 320.080665 170.954804
L 324.612728 166.491896
L 328.947746 162.526024
L 333.282763 158.856414
L 337.617781 155.483066
L 341.755752 152.53942
L 345.893724 149.865716
L 350.031695 147.461953
L 353.97262 145.42362
L 357.913545 143.630133
L 361.85447 142.08149
L 365.795395 140.777692
L 369.539274 139.765871
L 373.283152 138.975022
L 377.027031 138.405146
L 380.77091 138.056243
L 384.514789 137.928311
L 388.258667 138.021352
L 392.002546 138.335366
L 395.746425 138.870351
L 399.490304 139.626309
L 403.234183 140.60324
L 406.978061 141.801143
L 410.918986 143.300816
L 414.859911 145.045335
L 418.800836 147.034698
L 422.741761 149.268907
L 426.879733 151.878339
L 431.017704 154.757713
L 435.155675 157.907028
L 439.490693 161.49584
L 443.82571 165.380913
L 448.160728 169.562249
L 452.692792 174.250414
L 457.224855 179.262385
L 461.756919 184.598164
L 466.486029 190.511164
L 471.215139 196.77674
L 476.141295 203.678301
L 481.067452 210.962431
L 483.234961 214.288647
L 483.234961 214.288647
" style="fill:none;stroke:#40e0d0;stroke-linecap:square;stroke-width:1.5;"/>
   </g>
   <g id="line2d_41">
    <path clip-path="url(#pc195fd150f)" d="M 286.385756 214.288647
L 324.809775 214.177915
L 331.706393 213.925713
L 336.63255 213.538294
L 340.770521 212.991728
L 344.317354 212.295353
L 347.470094 211.445649
L 350.228741 210.482402
L 352.790342 209.370081
L 355.351944 208.015235
L 357.716499 206.520594
L 360.081054 204.764235
L 362.445609 202.719398
L 364.810164 200.35986
L 367.174719 197.660569
L 369.539274 194.598346
L 371.903829 191.152635
L 374.268384 187.306309
L 376.632939 183.046496
L 379.19454 177.956226
L 381.756141 172.369746
L 384.514789 165.807462
L 387.470482 158.174413
L 390.623223 149.400667
L 394.170055 138.859496
L 398.702119 124.629206
L 409.933755 88.97613
L 413.086495 79.930785
L 415.648096 73.24992
L 417.815605 68.189989
L 419.786068 64.146622
L 421.559484 61.020734
L 423.135854 58.691873
L 424.515178 57.028658
L 425.697455 55.898132
L 426.879733 55.053239
L 428.06201 54.505665
L 429.047241 54.28425
L 430.032473 54.282442
L 431.017704 54.50534
L 432.002935 54.957436
L 432.988166 55.642572
L 434.170444 56.776717
L 435.352722 58.254917
L 436.534999 60.079507
L 437.914323 62.646637
L 439.293647 65.683564
L 440.870017 69.721641
L 442.643433 74.968968
L 444.416849 80.930691
L 446.387312 88.338593
L 448.55482 97.348943
L 451.116422 108.98623
L 454.269162 124.40223
L 464.31852 174.428306
L 466.683075 184.610832
L 468.653538 192.154931
L 470.426954 198.080238
L 472.003324 202.586727
L 473.382648 205.908241
L 474.761972 208.635454
L 475.944249 210.502207
L 477.126527 211.948122
L 478.111758 212.849689
L 479.096989 213.498707
L 480.279267 213.986331
L 481.461544 214.220092
L 483.234961 214.288647
L 483.234961 214.288647
" style="fill:none;stroke:#ff00ff;stroke-linecap:square;stroke-width:1.5;"/>
   </g>
   <g id="line2d_42">
    <path clip-path="url(#pc195fd150f)" d="M 286.385756 214.288647
L 325.795006 214.180921
L 332.297532 213.928912
L 336.829596 213.545665
L 340.573475 213.012761
L 343.726215 212.347613
L 346.484862 211.55338
L 349.046464 210.596357
L 351.411019 209.489178
L 353.775574 208.131781
L 355.943082 206.636811
L 358.110591 204.872557
L 360.2781 202.810204
L 362.445609 200.42138
L 364.613117 197.678872
L 366.780626 194.557396
L 368.948135 191.034447
L 371.115644 187.091184
L 373.480199 182.293477
L 375.844754 176.967764
L 378.406355 170.600696
L 380.967956 163.624144
L 383.726604 155.462383
L 386.879344 145.386899
L 390.426176 133.25747
L 395.155286 116.216652
L 402.84009 88.456619
L 405.99283 77.922772
L 408.554431 70.095287
L 410.72194 64.140933
L 412.692403 59.365044
L 414.465819 55.658716
L 416.042189 52.88484
L 417.421513 50.891717
L 418.60379 49.525047
L 419.786068 48.488573
L 420.771299 47.886227
L 421.75653 47.528517
L 422.741761 47.42122
L 423.726993 47.569304
L 424.712224 47.976863
L 425.697455 48.647074
L 426.682686 49.582144
L 427.864964 51.055447
L 429.047241 52.911851
L 430.426565 55.558731
L 431.805889 58.716265
L 433.382259 62.934352
L 434.958629 67.777838
L 436.732045 73.932296
L 438.702508 81.575967
L 441.067063 91.729644
L 443.82571 104.665008
L 447.569589 123.431886
L 454.466208 158.207625
L 457.224855 170.904524
L 459.58941 180.754437
L 461.559873 188.07365
L 463.333289 193.888385
L 465.106705 198.925502
L 466.683075 202.73364
L 468.062399 205.5508
L 469.441723 207.900177
L 470.821047 209.804208
L 472.20037 211.294862
L 473.382648 212.274277
L 474.761972 213.111425
L 476.141295 213.671043
L 477.717665 214.045164
L 479.688128 214.243046
L 483.037914 214.288646
L 483.234961 214.288647
L 483.234961 214.288647
" style="fill:none;stroke:#a070e8;stroke-linecap:square;stroke-width:1.5;"/>
   </g>
   <g id="patch_9">
    <path d="M 286.385756 214.288647
L 286.385756 10.659249
" style="fill:none;stroke:#000000;stroke-linecap:square;stroke-linejoin:miter;stroke-width:0.8;"/>
   </g>
   <g id="patch_10">
    <path d="M 483.234961 214.288647
L 483.234961 10.659249
" style="fill:none;stroke:#000000;stroke-linecap:square;stroke-linejoin:miter;stroke-width:0.8;"/>
   </g>
   <g id="patch_11">
    <path d="M 286.385756 214.288647
L 483.234961 214.288647
" style="fill:none;stroke:#000000;stroke-linecap:square;stroke-linejoin:miter;stroke-width:0.8;"/>
   </g>
   <g id="patch_12">
    <path d="M 286.385756 10.659249
L 483.234961 10.659249
" style="fill:none;stroke:#000000;stroke-linecap:square;stroke-linejoin:miter;stroke-width:0.8;"/>
   </g>
   <g id="text_39">
    <!-- Beta(2, 2) -->
    <g transform="translate(299.824632 158.733987)scale(0.12 -0.12)">
     <use transform="scale(0.996264)" xlink:href="#CMR17-66"/>
     <use transform="translate(65.188754 0)scale(0.996264)" xlink:href="#CMR17-101"/>
     <use transform="translate(105.674415 0)scale(0.996264)" xlink:href="#CMR17-116"/>
     <use transform="translate(140.955183 0)scale(0.996264)" xlink:href="#CMR17-97"/>
     <use transform="translate(186.64566 0)scale(0.996264)" xlink:href="#CMR17-40"/>
     <use transform="translate(221.926428 0)scale(0.996264)" xlink:href="#CMR17-50"/>
     <use transform="translate(267.616905 0)scale(0.996264)" xlink:href="#CMR17-44"/>
     <use transform="translate(322.56393 0)scale(0.996264)" xlink:href="#CMR17-50"/>
     <use transform="translate(368.254407 0)scale(0.996264)" xlink:href="#CMR17-41"/>
    </g>
   </g>
  </g>
  <g id="axes_3">
   <g id="patch_13">
    <path d="M 39.785756 460.888647
L 236.634961 460.888647
L 236.634961 257.259249
L 39.785756 257.259249
z
" style="fill:#ffffff;"/>
   </g>
   <g id="matplotlib.axis_5">
    <g id="xtick_13">
     <g id="line2d_43">
      <g>
       <use style="stroke:#000000;stroke-width:0.8;" x="39.785756" xlink:href="#m92624f417d" y="460.888647"/>
      </g>
     </g>
     <g id="text_40">
      <!-- $\mathdefault{0.0}$ -->
      <g transform="translate(33.420716 474.807145)scale(0.1 -0.1)">
       <use transform="scale(0.996264)" xlink:href="#CMR17-48"/>
       <use transform="translate(45.690477 0)scale(0.996264)" xlink:href="#CMMI12-58"/>
       <use transform="translate(72.787654 0)scale(0.996264)" xlink:href="#CMR17-48"/>
      </g>
     </g>
    </g>
    <g id="xtick_14">
     <g id="line2d_44">
      <g>
       <use style="stroke:#000000;stroke-width:0.8;" x="79.155597" xlink:href="#m92624f417d" y="460.888647"/>
      </g>
     </g>
     <g id="text_41">
      <!-- $\mathdefault{0.2}$ -->
      <g transform="translate(72.790557 474.807145)scale(0.1 -0.1)">
       <use transform="scale(0.996264)" xlink:href="#CMR17-48"/>
       <use transform="translate(45.690477 0)scale(0.996264)" xlink:href="#CMMI12-58"/>
       <use transform="translate(72.787654 0)scale(0.996264)" xlink:href="#CMR17-50"/>
      </g>
     </g>
    </g>
    <g id="xtick_15">
     <g id="line2d_45">
      <g>
       <use style="stroke:#000000;stroke-width:0.8;" x="118.525438" xlink:href="#m92624f417d" y="460.888647"/>
      </g>
     </g>
     <g id="text_42">
      <!-- $\mathdefault{0.4}$ -->
      <g transform="translate(112.160398 474.807145)scale(0.1 -0.1)">
       <use transform="scale(0.996264)" xlink:href="#CMR17-48"/>
       <use transform="translate(45.690477 0)scale(0.996264)" xlink:href="#CMMI12-58"/>
       <use transform="translate(72.787654 0)scale(0.996264)" xlink:href="#CMR17-52"/>
      </g>
     </g>
    </g>
    <g id="xtick_16">
     <g id="line2d_46">
      <g>
       <use style="stroke:#000000;stroke-width:0.8;" x="157.895279" xlink:href="#m92624f417d" y="460.888647"/>
      </g>
     </g>
     <g id="text_43">
      <!-- $\mathdefault{0.6}$ -->
      <g transform="translate(151.530239 474.807145)scale(0.1 -0.1)">
       <use transform="scale(0.996264)" xlink:href="#CMR17-48"/>
       <use transform="translate(45.690477 0)scale(0.996264)" xlink:href="#CMMI12-58"/>
       <use transform="translate(72.787654 0)scale(0.996264)" xlink:href="#CMR17-54"/>
      </g>
     </g>
    </g>
    <g id="xtick_17">
     <g id="line2d_47">
      <g>
       <use style="stroke:#000000;stroke-width:0.8;" x="197.26512" xlink:href="#m92624f417d" y="460.888647"/>
      </g>
     </g>
     <g id="text_44">
      <!-- $\mathdefault{0.8}$ -->
      <g transform="translate(190.90008 474.807145)scale(0.1 -0.1)">
       <use transform="scale(0.996264)" xlink:href="#CMR17-48"/>
       <use transform="translate(45.690477 0)scale(0.996264)" xlink:href="#CMMI12-58"/>
       <use transform="translate(72.787654 0)scale(0.996264)" xlink:href="#CMR17-56"/>
      </g>
     </g>
    </g>
    <g id="xtick_18">
     <g id="line2d_48">
      <g>
       <use style="stroke:#000000;stroke-width:0.8;" x="236.634961" xlink:href="#m92624f417d" y="460.888647"/>
      </g>
     </g>
     <g id="text_45">
      <!-- $\mathdefault{1.0}$ -->
      <g transform="translate(230.269921 474.807145)scale(0.1 -0.1)">
       <use transform="scale(0.996264)" xlink:href="#CMR17-49"/>
       <use transform="translate(45.690477 0)scale(0.996264)" xlink:href="#CMMI12-58"/>
       <use transform="translate(72.787654 0)scale(0.996264)" xlink:href="#CMR17-48"/>
      </g>
     </g>
    </g>
    <g id="text_46">
     <!-- $\theta$ -->
     <g transform="translate(135.871906 487.662822)scale(0.1 -0.1)">
      <use transform="scale(0.996264)" xlink:href="#CMMI12-18"/>
     </g>
    </g>
   </g>
   <g id="matplotlib.axis_6">
    <g id="ytick_19">
     <g id="line2d_49">
      <g>
       <use style="stroke:#000000;stroke-width:0.8;" x="39.785756" xlink:href="#me3d4554a2e" y="460.888647"/>
      </g>
     </g>
     <g id="text_47">
      <!-- $\mathdefault{0.0}$ -->
      <g transform="translate(20.055677 464.347896)scale(0.1 -0.1)">
       <use transform="scale(0.996264)" xlink:href="#CMR17-48"/>
       <use transform="translate(45.690477 0)scale(0.996264)" xlink:href="#CMMI12-58"/>
       <use transform="translate(72.787654 0)scale(0.996264)" xlink:href="#CMR17-48"/>
      </g>
     </g>
    </g>
    <g id="ytick_20">
     <g id="line2d_50">
      <g>
       <use style="stroke:#000000;stroke-width:0.8;" x="39.785756" xlink:href="#me3d4554a2e" y="435.434972"/>
      </g>
     </g>
     <g id="text_48">
      <!-- $\mathdefault{0.5}$ -->
      <g transform="translate(20.055677 438.894221)scale(0.1 -0.1)">
       <use transform="scale(0.996264)" xlink:href="#CMR17-48"/>
       <use transform="translate(45.690477 0)scale(0.996264)" xlink:href="#CMMI12-58"/>
       <use transform="translate(72.787654 0)scale(0.996264)" xlink:href="#CMR17-53"/>
      </g>
     </g>
    </g>
    <g id="ytick_21">
     <g id="line2d_51">
      <g>
       <use style="stroke:#000000;stroke-width:0.8;" x="39.785756" xlink:href="#me3d4554a2e" y="409.981297"/>
      </g>
     </g>
     <g id="text_49">
      <!-- $\mathdefault{1.0}$ -->
      <g transform="translate(20.055677 413.440546)scale(0.1 -0.1)">
       <use transform="scale(0.996264)" xlink:href="#CMR17-49"/>
       <use transform="translate(45.690477 0)scale(0.996264)" xlink:href="#CMMI12-58"/>
       <use transform="translate(72.787654 0)scale(0.996264)" xlink:href="#CMR17-48"/>
      </g>
     </g>
    </g>
    <g id="ytick_22">
     <g id="line2d_52">
      <g>
       <use style="stroke:#000000;stroke-width:0.8;" x="39.785756" xlink:href="#me3d4554a2e" y="384.527623"/>
      </g>
     </g>
     <g id="text_50">
      <!-- $\mathdefault{1.5}$ -->
      <g transform="translate(20.055677 387.986872)scale(0.1 -0.1)">
       <use transform="scale(0.996264)" xlink:href="#CMR17-49"/>
       <use transform="translate(45.690477 0)scale(0.996264)" xlink:href="#CMMI12-58"/>
       <use transform="translate(72.787654 0)scale(0.996264)" xlink:href="#CMR17-53"/>
      </g>
     </g>
    </g>
    <g id="ytick_23">
     <g id="line2d_53">
      <g>
       <use style="stroke:#000000;stroke-width:0.8;" x="39.785756" xlink:href="#me3d4554a2e" y="359.073948"/>
      </g>
     </g>
     <g id="text_51">
      <!-- $\mathdefault{2.0}$ -->
      <g transform="translate(20.055677 362.533197)scale(0.1 -0.1)">
       <use transform="scale(0.996264)" xlink:href="#CMR17-50"/>
       <use transform="translate(45.690477 0)scale(0.996264)" xlink:href="#CMMI12-58"/>
       <use transform="translate(72.787654 0)scale(0.996264)" xlink:href="#CMR17-48"/>
      </g>
     </g>
    </g>
    <g id="ytick_24">
     <g id="line2d_54">
      <g>
       <use style="stroke:#000000;stroke-width:0.8;" x="39.785756" xlink:href="#me3d4554a2e" y="333.620273"/>
      </g>
     </g>
     <g id="text_52">
      <!-- $\mathdefault{2.5}$ -->
      <g transform="translate(20.055677 337.079522)scale(0.1 -0.1)">
       <use transform="scale(0.996264)" xlink:href="#CMR17-50"/>
       <use transform="translate(45.690477 0)scale(0.996264)" xlink:href="#CMMI12-58"/>
       <use transform="translate(72.787654 0)scale(0.996264)" xlink:href="#CMR17-53"/>
      </g>
     </g>
    </g>
    <g id="ytick_25">
     <g id="line2d_55">
      <g>
       <use style="stroke:#000000;stroke-width:0.8;" x="39.785756" xlink:href="#me3d4554a2e" y="308.166599"/>
      </g>
     </g>
     <g id="text_53">
      <!-- $\mathdefault{3.0}$ -->
      <g transform="translate(20.055677 311.625848)scale(0.1 -0.1)">
       <use transform="scale(0.996264)" xlink:href="#CMR17-51"/>
       <use transform="translate(45.690477 0)scale(0.996264)" xlink:href="#CMMI12-58"/>
       <use transform="translate(72.787654 0)scale(0.996264)" xlink:href="#CMR17-48"/>
      </g>
     </g>
    </g>
    <g id="ytick_26">
     <g id="line2d_56">
      <g>
       <use style="stroke:#000000;stroke-width:0.8;" x="39.785756" xlink:href="#me3d4554a2e" y="282.712924"/>
      </g>
     </g>
     <g id="text_54">
      <!-- $\mathdefault{3.5}$ -->
      <g transform="translate(20.055677 286.172173)scale(0.1 -0.1)">
       <use transform="scale(0.996264)" xlink:href="#CMR17-51"/>
       <use transform="translate(45.690477 0)scale(0.996264)" xlink:href="#CMMI12-58"/>
       <use transform="translate(72.787654 0)scale(0.996264)" xlink:href="#CMR17-53"/>
      </g>
     </g>
    </g>
    <g id="ytick_27">
     <g id="line2d_57">
      <g>
       <use style="stroke:#000000;stroke-width:0.8;" x="39.785756" xlink:href="#me3d4554a2e" y="257.259249"/>
      </g>
     </g>
     <g id="text_55">
      <!-- $\mathdefault{4.0}$ -->
      <g transform="translate(20.055677 260.718498)scale(0.1 -0.1)">
       <use transform="scale(0.996264)" xlink:href="#CMR17-52"/>
       <use transform="translate(45.690477 0)scale(0.996264)" xlink:href="#CMMI12-58"/>
       <use transform="translate(72.787654 0)scale(0.996264)" xlink:href="#CMR17-48"/>
      </g>
     </g>
    </g>
    <g id="text_56">
     <!-- PDF -->
     <g transform="translate(14.118498 369.520909)rotate(-90)scale(0.1 -0.1)">
      <use transform="scale(0.996264)" xlink:href="#CMR17-80"/>
      <use transform="translate(62.586301 0)scale(0.996264)" xlink:href="#CMR17-68"/>
      <use transform="translate(132.979856 0)scale(0.996264)" xlink:href="#CMR17-70"/>
     </g>
    </g>
   </g>
   <g id="line2d_58">
    <path clip-path="url(#pf452b52816)" d="M 39.785756 460.888647
L 48.652837 460.778837
L 52.19967 460.497749
L 54.958317 460.067381
L 57.519918 459.440466
L 59.884473 458.623128
L 62.051982 457.640424
L 64.219491 456.408254
L 66.387 454.904707
L 68.554508 453.111779
L 70.722017 451.015761
L 72.889526 448.607516
L 75.057035 445.882656
L 77.42159 442.54963
L 79.983191 438.52275
L 82.544792 434.080729
L 85.30344 428.863588
L 88.45618 422.406765
L 92.003012 414.611682
L 96.33803 404.519081
L 111.707637 368.178852
L 115.057424 361.120653
L 118.013117 355.414718
L 120.574719 350.939026
L 122.939274 347.243685
L 125.106782 344.257529
L 127.077245 341.898445
L 129.047707 339.895574
L 130.821124 338.409494
L 132.397494 337.347608
L 133.973864 336.53469
L 135.550234 335.974488
L 137.126604 335.669587
L 138.505927 335.613361
L 139.885251 335.753892
L 141.461621 336.154759
L 143.037991 336.810095
L 144.614361 337.716877
L 146.190731 338.870925
L 147.964148 340.458127
L 149.737564 342.342271
L 151.708026 344.770645
L 153.875535 347.82876
L 156.24009 351.596815
L 158.801691 356.143655
L 161.560339 361.519644
L 164.713079 368.178852
L 168.456958 376.641685
L 173.58016 388.831653
L 183.432473 412.364009
L 187.373398 421.14347
L 190.723184 428.08396
L 193.678878 433.72255
L 196.437525 438.52275
L 198.999127 442.54963
L 201.363682 445.882656
L 203.728237 448.839499
L 205.895745 451.219106
L 208.063254 453.287123
L 210.230763 455.053111
L 212.398272 456.531181
L 214.56578 457.739712
L 216.733289 458.700946
L 219.097844 459.497661
L 221.659445 460.105833
L 224.418093 460.520414
L 227.767879 460.778837
L 232.299943 460.881746
L 236.634961 460.888647
L 236.634961 460.888647
" style="fill:none;stroke:#40e0d0;stroke-linecap:square;stroke-width:1.5;"/>
   </g>
   <g id="line2d_59">
    <path clip-path="url(#pf452b52816)" d="M 39.785756 460.888647
L 78.209775 460.777915
L 85.106393 460.525713
L 90.03255 460.138294
L 94.170521 459.591728
L 97.717354 458.895353
L 100.870094 458.045649
L 103.628741 457.082402
L 106.190342 455.970081
L 108.751944 454.615235
L 111.116499 453.120594
L 113.481054 451.364235
L 115.845609 449.319398
L 118.210164 446.95986
L 120.574719 444.260569
L 122.939274 441.198346
L 125.303829 437.752635
L 127.668384 433.906309
L 130.032939 429.646496
L 132.59454 424.556226
L 135.156141 418.969746
L 137.914789 412.407462
L 140.870482 404.774413
L 144.023223 396.000667
L 147.570055 385.459496
L 152.102119 371.229206
L 163.333755 335.57613
L 166.486495 326.530785
L 169.048096 319.84992
L 171.215605 314.789989
L 173.186068 310.746622
L 174.959484 307.620734
L 176.535854 305.291873
L 177.915178 303.628658
L 179.097455 302.498132
L 180.279733 301.653239
L 181.46201 301.105665
L 182.447241 300.88425
L 183.432473 300.882442
L 184.417704 301.10534
L 185.402935 301.557436
L 186.388166 302.242572
L 187.570444 303.376717
L 188.752722 304.854917
L 189.934999 306.679507
L 191.314323 309.246637
L 192.693647 312.283564
L 194.270017 316.321641
L 196.043433 321.568968
L 197.816849 327.530691
L 199.787312 334.938593
L 201.95482 343.948943
L 204.516422 355.58623
L 207.669162 371.00223
L 217.71852 421.028306
L 220.083075 431.210832
L 222.053538 438.754931
L 223.826954 444.680238
L 225.403324 449.186727
L 226.782648 452.508241
L 228.161972 455.235454
L 229.344249 457.102207
L 230.526527 458.548122
L 231.511758 459.449689
L 232.496989 460.098707
L 233.679267 460.586331
L 234.861544 460.820092
L 236.634961 460.888647
L 236.634961 460.888647
" style="fill:none;stroke:#ff00ff;stroke-linecap:square;stroke-width:1.5;"/>
   </g>
   <g id="line2d_60">
    <path clip-path="url(#pf452b52816)" d="M 39.785756 460.888647
L 82.741838 460.781882
L 88.259133 460.53613
L 92.200058 460.142712
L 95.352798 459.600347
L 97.9144 458.942094
L 100.278955 458.103831
L 102.446464 457.090703
L 104.416926 455.923443
L 106.387389 454.479445
L 108.160805 452.907226
L 109.934221 451.042414
L 111.707637 448.851252
L 113.481054 446.300078
L 115.25447 443.356157
L 117.027886 439.988614
L 118.801302 436.169465
L 120.771765 431.367279
L 122.742227 425.952633
L 124.71269 419.909877
L 126.880199 412.53303
L 129.244754 403.630264
L 131.806355 393.034355
L 134.565002 380.639105
L 137.914789 364.503632
L 144.220269 332.681079
L 147.964148 314.418521
L 150.525749 302.909716
L 152.693258 294.119394
L 154.466674 287.739034
L 156.043044 282.781798
L 157.422368 279.057754
L 158.801691 275.954862
L 159.983969 273.821055
L 160.9692 272.431208
L 161.954431 271.406599
L 162.742616 270.856412
L 163.530801 270.550245
L 164.318986 270.491378
L 165.107171 270.682263
L 165.895356 271.124504
L 166.683541 271.818829
L 167.668773 273.040897
L 168.654004 274.654218
L 169.836281 277.100102
L 171.018559 280.09061
L 172.397883 284.245295
L 173.974253 289.828631
L 175.550623 296.24088
L 177.324039 304.349174
L 179.491548 315.364811
L 182.053149 329.608794
L 185.797028 351.857705
L 191.708415 386.997945
L 194.467063 402.041472
L 196.831618 413.752642
L 198.999127 423.342686
L 200.969589 431.022239
L 202.743005 437.056752
L 204.319375 441.72236
L 205.895745 445.746187
L 207.472115 449.15643
L 208.851439 451.66772
L 210.230763 453.771266
L 211.610087 455.503256
L 212.98941 456.902727
L 214.368734 458.010273
L 215.945104 458.971
L 217.521474 459.663258
L 219.29489 460.190426
L 221.265353 460.546532
L 223.826954 460.77568
L 227.767879 460.877543
L 236.634961 460.888647
L 236.634961 460.888647
" style="fill:none;stroke:#a070e8;stroke-linecap:square;stroke-width:1.5;"/>
   </g>
   <g id="patch_14">
    <path d="M 39.785756 460.888647
L 39.785756 257.259249
" style="fill:none;stroke:#000000;stroke-linecap:square;stroke-linejoin:miter;stroke-width:0.8;"/>
   </g>
   <g id="patch_15">
    <path d="M 236.634961 460.888647
L 236.634961 257.259249
" style="fill:none;stroke:#000000;stroke-linecap:square;stroke-linejoin:miter;stroke-width:0.8;"/>
   </g>
   <g id="patch_16">
    <path d="M 39.785756 460.888647
L 236.634961 460.888647
" style="fill:none;stroke:#000000;stroke-linecap:square;stroke-linejoin:miter;stroke-width:0.8;"/>
   </g>
   <g id="patch_17">
    <path d="M 39.785756 257.259249
L 236.634961 257.259249
" style="fill:none;stroke:#000000;stroke-linecap:square;stroke-linejoin:miter;stroke-width:0.8;"/>
   </g>
   <g id="text_57">
    <!-- Beta(5, 5) -->
    <g transform="translate(53.224632 405.333987)scale(0.12 -0.12)">
     <use transform="scale(0.996264)" xlink:href="#CMR17-66"/>
     <use transform="translate(65.188754 0)scale(0.996264)" xlink:href="#CMR17-101"/>
     <use transform="translate(105.674415 0)scale(0.996264)" xlink:href="#CMR17-116"/>
     <use transform="translate(140.955183 0)scale(0.996264)" xlink:href="#CMR17-97"/>
     <use transform="translate(186.64566 0)scale(0.996264)" xlink:href="#CMR17-40"/>
     <use transform="translate(221.926428 0)scale(0.996264)" xlink:href="#CMR17-53"/>
     <use transform="translate(267.616905 0)scale(0.996264)" xlink:href="#CMR17-44"/>
     <use transform="translate(322.56393 0)scale(0.996264)" xlink:href="#CMR17-53"/>
     <use transform="translate(368.254407 0)scale(0.996264)" xlink:href="#CMR17-41"/>
    </g>
   </g>
  </g>
  <g id="axes_4">
   <g id="patch_18">
    <path d="M 286.385756 460.888647
L 483.234961 460.888647
L 483.234961 257.259249
L 286.385756 257.259249
z
" style="fill:#ffffff;"/>
   </g>
   <g id="matplotlib.axis_7">
    <g id="xtick_19">
     <g id="line2d_61">
      <g>
       <use style="stroke:#000000;stroke-width:0.8;" x="286.385756" xlink:href="#m92624f417d" y="460.888647"/>
      </g>
     </g>
     <g id="text_58">
      <!-- $\mathdefault{0.0}$ -->
      <g transform="translate(280.020716 474.807145)scale(0.1 -0.1)">
       <use transform="scale(0.996264)" xlink:href="#CMR17-48"/>
       <use transform="translate(45.690477 0)scale(0.996264)" xlink:href="#CMMI12-58"/>
       <use transform="translate(72.787654 0)scale(0.996264)" xlink:href="#CMR17-48"/>
      </g>
     </g>
    </g>
    <g id="xtick_20">
     <g id="line2d_62">
      <g>
       <use style="stroke:#000000;stroke-width:0.8;" x="325.755597" xlink:href="#m92624f417d" y="460.888647"/>
      </g>
     </g>
     <g id="text_59">
      <!-- $\mathdefault{0.2}$ -->
      <g transform="translate(319.390557 474.807145)scale(0.1 -0.1)">
       <use transform="scale(0.996264)" xlink:href="#CMR17-48"/>
       <use transform="translate(45.690477 0)scale(0.996264)" xlink:href="#CMMI12-58"/>
       <use transform="translate(72.787654 0)scale(0.996264)" xlink:href="#CMR17-50"/>
      </g>
     </g>
    </g>
    <g id="xtick_21">
     <g id="line2d_63">
      <g>
       <use style="stroke:#000000;stroke-width:0.8;" x="365.125438" xlink:href="#m92624f417d" y="460.888647"/>
      </g>
     </g>
     <g id="text_60">
      <!-- $\mathdefault{0.4}$ -->
      <g transform="translate(358.760398 474.807145)scale(0.1 -0.1)">
       <use transform="scale(0.996264)" xlink:href="#CMR17-48"/>
       <use transform="translate(45.690477 0)scale(0.996264)" xlink:href="#CMMI12-58"/>
       <use transform="translate(72.787654 0)scale(0.996264)" xlink:href="#CMR17-52"/>
      </g>
     </g>
    </g>
    <g id="xtick_22">
     <g id="line2d_64">
      <g>
       <use style="stroke:#000000;stroke-width:0.8;" x="404.495279" xlink:href="#m92624f417d" y="460.888647"/>
      </g>
     </g>
     <g id="text_61">
      <!-- $\mathdefault{0.6}$ -->
      <g transform="translate(398.130239 474.807145)scale(0.1 -0.1)">
       <use transform="scale(0.996264)" xlink:href="#CMR17-48"/>
       <use transform="translate(45.690477 0)scale(0.996264)" xlink:href="#CMMI12-58"/>
       <use transform="translate(72.787654 0)scale(0.996264)" xlink:href="#CMR17-54"/>
      </g>
     </g>
    </g>
    <g id="xtick_23">
     <g id="line2d_65">
      <g>
       <use style="stroke:#000000;stroke-width:0.8;" x="443.86512" xlink:href="#m92624f417d" y="460.888647"/>
      </g>
     </g>
     <g id="text_62">
      <!-- $\mathdefault{0.8}$ -->
      <g transform="translate(437.50008 474.807145)scale(0.1 -0.1)">
       <use transform="scale(0.996264)" xlink:href="#CMR17-48"/>
       <use transform="translate(45.690477 0)scale(0.996264)" xlink:href="#CMMI12-58"/>
       <use transform="translate(72.787654 0)scale(0.996264)" xlink:href="#CMR17-56"/>
      </g>
     </g>
    </g>
    <g id="xtick_24">
     <g id="line2d_66">
      <g>
       <use style="stroke:#000000;stroke-width:0.8;" x="483.234961" xlink:href="#m92624f417d" y="460.888647"/>
      </g>
     </g>
     <g id="text_63">
      <!-- $\mathdefault{1.0}$ -->
      <g transform="translate(476.869921 474.807145)scale(0.1 -0.1)">
       <use transform="scale(0.996264)" xlink:href="#CMR17-49"/>
       <use transform="translate(45.690477 0)scale(0.996264)" xlink:href="#CMMI12-58"/>
       <use transform="translate(72.787654 0)scale(0.996264)" xlink:href="#CMR17-48"/>
      </g>
     </g>
    </g>
    <g id="text_64">
     <!-- $\theta$ -->
     <g transform="translate(382.471906 487.662822)scale(0.1 -0.1)">
      <use transform="scale(0.996264)" xlink:href="#CMMI12-18"/>
     </g>
    </g>
   </g>
   <g id="matplotlib.axis_8">
    <g id="ytick_28">
     <g id="line2d_67">
      <g>
       <use style="stroke:#000000;stroke-width:0.8;" x="286.385756" xlink:href="#me3d4554a2e" y="460.888647"/>
      </g>
     </g>
     <g id="text_65">
      <!-- $\mathdefault{0.0}$ -->
      <g transform="translate(266.655677 464.347896)scale(0.1 -0.1)">
       <use transform="scale(0.996264)" xlink:href="#CMR17-48"/>
       <use transform="translate(45.690477 0)scale(0.996264)" xlink:href="#CMMI12-58"/>
       <use transform="translate(72.787654 0)scale(0.996264)" xlink:href="#CMR17-48"/>
      </g>
     </g>
    </g>
    <g id="ytick_29">
     <g id="line2d_68">
      <g>
       <use style="stroke:#000000;stroke-width:0.8;" x="286.385756" xlink:href="#me3d4554a2e" y="435.434972"/>
      </g>
     </g>
     <g id="text_66">
      <!-- $\mathdefault{0.5}$ -->
      <g transform="translate(266.655677 438.894221)scale(0.1 -0.1)">
       <use transform="scale(0.996264)" xlink:href="#CMR17-48"/>
       <use transform="translate(45.690477 0)scale(0.996264)" xlink:href="#CMMI12-58"/>
       <use transform="translate(72.787654 0)scale(0.996264)" xlink:href="#CMR17-53"/>
      </g>
     </g>
    </g>
    <g id="ytick_30">
     <g id="line2d_69">
      <g>
       <use style="stroke:#000000;stroke-width:0.8;" x="286.385756" xlink:href="#me3d4554a2e" y="409.981297"/>
      </g>
     </g>
     <g id="text_67">
      <!-- $\mathdefault{1.0}$ -->
      <g transform="translate(266.655677 413.440546)scale(0.1 -0.1)">
       <use transform="scale(0.996264)" xlink:href="#CMR17-49"/>
       <use transform="translate(45.690477 0)scale(0.996264)" xlink:href="#CMMI12-58"/>
       <use transform="translate(72.787654 0)scale(0.996264)" xlink:href="#CMR17-48"/>
      </g>
     </g>
    </g>
    <g id="ytick_31">
     <g id="line2d_70">
      <g>
       <use style="stroke:#000000;stroke-width:0.8;" x="286.385756" xlink:href="#me3d4554a2e" y="384.527623"/>
      </g>
     </g>
     <g id="text_68">
      <!-- $\mathdefault{1.5}$ -->
      <g transform="translate(266.655677 387.986872)scale(0.1 -0.1)">
       <use transform="scale(0.996264)" xlink:href="#CMR17-49"/>
       <use transform="translate(45.690477 0)scale(0.996264)" xlink:href="#CMMI12-58"/>
       <use transform="translate(72.787654 0)scale(0.996264)" xlink:href="#CMR17-53"/>
      </g>
     </g>
    </g>
    <g id="ytick_32">
     <g id="line2d_71">
      <g>
       <use style="stroke:#000000;stroke-width:0.8;" x="286.385756" xlink:href="#me3d4554a2e" y="359.073948"/>
      </g>
     </g>
     <g id="text_69">
      <!-- $\mathdefault{2.0}$ -->
      <g transform="translate(266.655677 362.533197)scale(0.1 -0.1)">
       <use transform="scale(0.996264)" xlink:href="#CMR17-50"/>
       <use transform="translate(45.690477 0)scale(0.996264)" xlink:href="#CMMI12-58"/>
       <use transform="translate(72.787654 0)scale(0.996264)" xlink:href="#CMR17-48"/>
      </g>
     </g>
    </g>
    <g id="ytick_33">
     <g id="line2d_72">
      <g>
       <use style="stroke:#000000;stroke-width:0.8;" x="286.385756" xlink:href="#me3d4554a2e" y="333.620273"/>
      </g>
     </g>
     <g id="text_70">
      <!-- $\mathdefault{2.5}$ -->
      <g transform="translate(266.655677 337.079522)scale(0.1 -0.1)">
       <use transform="scale(0.996264)" xlink:href="#CMR17-50"/>
       <use transform="translate(45.690477 0)scale(0.996264)" xlink:href="#CMMI12-58"/>
       <use transform="translate(72.787654 0)scale(0.996264)" xlink:href="#CMR17-53"/>
      </g>
     </g>
    </g>
    <g id="ytick_34">
     <g id="line2d_73">
      <g>
       <use style="stroke:#000000;stroke-width:0.8;" x="286.385756" xlink:href="#me3d4554a2e" y="308.166599"/>
      </g>
     </g>
     <g id="text_71">
      <!-- $\mathdefault{3.0}$ -->
      <g transform="translate(266.655677 311.625848)scale(0.1 -0.1)">
       <use transform="scale(0.996264)" xlink:href="#CMR17-51"/>
       <use transform="translate(45.690477 0)scale(0.996264)" xlink:href="#CMMI12-58"/>
       <use transform="translate(72.787654 0)scale(0.996264)" xlink:href="#CMR17-48"/>
      </g>
     </g>
    </g>
    <g id="ytick_35">
     <g id="line2d_74">
      <g>
       <use style="stroke:#000000;stroke-width:0.8;" x="286.385756" xlink:href="#me3d4554a2e" y="282.712924"/>
      </g>
     </g>
     <g id="text_72">
      <!-- $\mathdefault{3.5}$ -->
      <g transform="translate(266.655677 286.172173)scale(0.1 -0.1)">
       <use transform="scale(0.996264)" xlink:href="#CMR17-51"/>
       <use transform="translate(45.690477 0)scale(0.996264)" xlink:href="#CMMI12-58"/>
       <use transform="translate(72.787654 0)scale(0.996264)" xlink:href="#CMR17-53"/>
      </g>
     </g>
    </g>
    <g id="ytick_36">
     <g id="line2d_75">
      <g>
       <use style="stroke:#000000;stroke-width:0.8;" x="286.385756" xlink:href="#me3d4554a2e" y="257.259249"/>
      </g>
     </g>
     <g id="text_73">
      <!-- $\mathdefault{4.0}$ -->
      <g transform="translate(266.655677 260.718498)scale(0.1 -0.1)">
       <use transform="scale(0.996264)" xlink:href="#CMR17-52"/>
       <use transform="translate(45.690477 0)scale(0.996264)" xlink:href="#CMMI12-58"/>
       <use transform="translate(72.787654 0)scale(0.996264)" xlink:href="#CMR17-48"/>
      </g>
     </g>
    </g>
    <g id="text_74">
     <!-- PDF -->
     <g transform="translate(260.718498 369.520909)rotate(-90)scale(0.1 -0.1)">
      <use transform="scale(0.996264)" xlink:href="#CMR17-80"/>
      <use transform="translate(62.586301 0)scale(0.996264)" xlink:href="#CMR17-68"/>
      <use transform="translate(132.979856 0)scale(0.996264)" xlink:href="#CMR17-70"/>
     </g>
    </g>
   </g>
   <g id="line2d_76">
    <path clip-path="url(#pfcf1459233)" d="M 286.385756 460.888647
L 304.908103 460.780195
L 312.001768 460.507697
L 317.519063 460.084197
L 322.44522 459.483994
L 326.780237 458.73631
L 330.918208 457.793455
L 334.662087 456.718897
L 338.405966 455.408687
L 341.952798 453.928957
L 345.499631 452.198312
L 348.849417 450.318142
L 352.199204 448.186363
L 355.54899 445.792094
L 358.898776 443.126521
L 362.248562 440.183153
L 365.795395 436.759568
L 369.342227 433.01906
L 373.086106 428.73007
L 376.829985 424.099577
L 380.77091 418.872164
L 384.908881 413.019591
L 389.440945 406.226333
L 394.564148 398.14407
L 401.26372 387.12509
L 414.859911 364.640105
L 419.391975 357.651879
L 422.938808 352.563655
L 426.091548 348.413327
L 428.850195 345.134497
L 431.411796 342.436945
L 433.579305 340.452391
L 435.746814 338.773886
L 437.717277 337.540917
L 439.490693 336.691577
L 441.067063 336.15986
L 442.643433 335.852878
L 444.219803 335.78512
L 445.599127 335.933799
L 446.97845 336.287352
L 448.357774 336.856336
L 449.737098 337.651583
L 451.116422 338.684199
L 452.692792 340.169604
L 454.269162 341.997364
L 455.845532 344.185409
L 457.421902 346.752161
L 458.998272 349.71654
L 460.771688 353.55096
L 462.545104 357.941652
L 464.31852 362.917874
L 466.288983 369.170375
L 468.259445 376.225444
L 470.229908 384.126907
L 472.20037 392.919926
L 474.367879 403.677545
L 476.535388 415.634074
L 478.702897 428.855367
L 480.870405 443.409342
L 483.234961 460.888647
L 483.234961 460.888647
" style="fill:none;stroke:#40e0d0;stroke-linecap:square;stroke-width:1.5;"/>
   </g>
   <g id="line2d_77">
    <path clip-path="url(#pfcf1459233)" d="M 286.385756 460.888647
L 324.809775 460.777915
L 331.706393 460.525713
L 336.63255 460.138294
L 340.770521 459.591728
L 344.317354 458.895353
L 347.470094 458.045649
L 350.228741 457.082402
L 352.790342 455.970081
L 355.351944 454.615235
L 357.716499 453.120594
L 360.081054 451.364235
L 362.445609 449.319398
L 364.810164 446.95986
L 367.174719 444.260569
L 369.539274 441.198346
L 371.903829 437.752635
L 374.268384 433.906309
L 376.632939 429.646496
L 379.19454 424.556226
L 381.756141 418.969746
L 384.514789 412.407462
L 387.470482 404.774413
L 390.623223 396.000667
L 394.170055 385.459496
L 398.702119 371.229206
L 409.933755 335.57613
L 413.086495 326.530785
L 415.648096 319.84992
L 417.815605 314.789989
L 419.786068 310.746622
L 421.559484 307.620734
L 423.135854 305.291873
L 424.515178 303.628658
L 425.697455 302.498132
L 426.879733 301.653239
L 428.06201 301.105665
L 429.047241 300.88425
L 430.032473 300.882442
L 431.017704 301.10534
L 432.002935 301.557436
L 432.988166 302.242572
L 434.170444 303.376717
L 435.352722 304.854917
L 436.534999 306.679507
L 437.914323 309.246637
L 439.293647 312.283564
L 440.870017 316.321641
L 442.643433 321.568968
L 444.416849 327.530691
L 446.387312 334.938593
L 448.55482 343.948943
L 451.116422 355.58623
L 454.269162 371.00223
L 464.31852 421.028306
L 466.683075 431.210832
L 468.653538 438.754931
L 470.426954 444.680238
L 472.003324 449.186727
L 473.382648 452.508241
L 474.761972 455.235454
L 475.944249 457.102207
L 477.126527 458.548122
L 478.111758 459.449689
L 479.096989 460.098707
L 480.279267 460.586331
L 481.461544 460.820092
L 483.234961 460.888647
L 483.234961 460.888647
" style="fill:none;stroke:#ff00ff;stroke-linecap:square;stroke-width:1.5;"/>
   </g>
   <g id="line2d_78">
    <path clip-path="url(#pfcf1459233)" d="M 286.385756 460.888647
L 342.149845 460.777642
L 348.849417 460.532112
L 353.578527 460.146979
L 357.322406 459.624241
L 360.475146 458.96352
L 363.233794 458.162825
L 365.795395 457.182705
L 368.15995 456.030378
L 370.327459 454.725725
L 372.494967 453.144466
L 374.46543 451.432818
L 376.435892 449.427066
L 378.406355 447.09427
L 380.376817 444.401119
L 382.34728 441.314612
L 384.317742 437.802869
L 386.288205 433.836053
L 388.258667 429.387406
L 390.426176 423.910624
L 392.593685 417.801326
L 394.761194 411.047202
L 397.125749 402.94384
L 399.68735 393.322283
L 402.445998 382.044048
L 405.598738 368.141114
L 409.539663 349.638754
L 418.60379 306.569931
L 421.165391 295.628392
L 423.3329 287.28255
L 425.106316 281.244548
L 426.682686 276.582214
L 428.06201 273.116231
L 429.244288 270.644496
L 430.426565 268.667713
L 431.411796 267.420376
L 432.397028 266.55397
L 433.185213 266.145079
L 433.973398 265.99628
L 434.761583 266.113686
L 435.549768 266.502639
L 436.337953 267.167651
L 437.126138 268.112349
L 438.111369 269.690528
L 439.0966 271.712887
L 440.278878 274.726506
L 441.461155 278.375894
L 442.840479 283.422935
L 444.219803 289.29392
L 445.796173 296.961966
L 447.569589 306.716143
L 449.540052 318.786229
L 451.904607 334.649831
L 455.254393 358.753263
L 460.771688 398.487634
L 463.136243 413.881598
L 465.106705 425.350749
L 466.880122 434.38467
L 468.456492 441.274849
L 469.835815 446.378065
L 471.215139 450.608333
L 472.397417 453.554195
L 473.579694 455.903011
L 474.564925 457.436381
L 475.550157 458.620003
L 476.535388 459.493896
L 477.520619 460.10322
L 478.702897 460.554019
L 480.08222 460.803263
L 482.052683 460.88674
L 483.234961 460.888647
L 483.234961 460.888647
" style="fill:none;stroke:#a070e8;stroke-linecap:square;stroke-width:1.5;"/>
   </g>
   <g id="patch_19">
    <path d="M 286.385756 460.888647
L 286.385756 257.259249
" style="fill:none;stroke:#000000;stroke-linecap:square;stroke-linejoin:miter;stroke-width:0.8;"/>
   </g>
   <g id="patch_20">
    <path d="M 483.234961 460.888647
L 483.234961 257.259249
" style="fill:none;stroke:#000000;stroke-linecap:square;stroke-linejoin:miter;stroke-width:0.8;"/>
   </g>
   <g id="patch_21">
    <path d="M 286.385756 460.888647
L 483.234961 460.888647
" style="fill:none;stroke:#000000;stroke-linecap:square;stroke-linejoin:miter;stroke-width:0.8;"/>
   </g>
   <g id="patch_22">
    <path d="M 286.385756 257.259249
L 483.234961 257.259249
" style="fill:none;stroke:#000000;stroke-linecap:square;stroke-linejoin:miter;stroke-width:0.8;"/>
   </g>
   <g id="text_75">
    <!-- Beta(5, 2) -->
    <g transform="translate(299.824632 405.333987)scale(0.12 -0.12)">
     <use transform="scale(0.996264)" xlink:href="#CMR17-66"/>
     <use transform="translate(65.188754 0)scale(0.996264)" xlink:href="#CMR17-101"/>
     <use transform="translate(105.674415 0)scale(0.996264)" xlink:href="#CMR17-116"/>
     <use transform="translate(140.955183 0)scale(0.996264)" xlink:href="#CMR17-97"/>
     <use transform="translate(186.64566 0)scale(0.996264)" xlink:href="#CMR17-40"/>
     <use transform="translate(221.926428 0)scale(0.996264)" xlink:href="#CMR17-53"/>
     <use transform="translate(267.616905 0)scale(0.996264)" xlink:href="#CMR17-44"/>
     <use transform="translate(322.56393 0)scale(0.996264)" xlink:href="#CMR17-50"/>
     <use transform="translate(368.254407 0)scale(0.996264)" xlink:href="#CMR17-41"/>
    </g>
   </g>
  </g>
 </g>
 <defs>
  <clipPath id="p8117c9bafb">
   <rect height="203.629397" width="196.849205" x="39.785756" y="10.659249"/>
  </clipPath>
  <clipPath id="pc195fd150f">
   <rect height="203.629397" width="196.849205" x="286.385756" y="10.659249"/>
  </clipPath>
  <clipPath id="pf452b52816">
   <rect height="203.629397" width="196.849205" x="39.785756" y="257.259249"/>
  </clipPath>
  <clipPath id="pfcf1459233">
   <rect height="203.629397" width="196.849205" x="286.385756" y="257.259249"/>
  </clipPath>
 </defs>
</svg>
