<?xml version="1.0" encoding="utf-8" standalone="no"?>
<!DOCTYPE svg PUBLIC "-//W3C//DTD SVG 1.1//EN"
  "http://www.w3.org/Graphics/SVG/1.1/DTD/svg11.dtd">
<!-- Created with matplotlib (https://matplotlib.org/) -->
<svg height="352.8pt" version="1.1" viewBox="0 0 496.8 352.8" width="496.8pt" xmlns="http://www.w3.org/2000/svg" xmlns:xlink="http://www.w3.org/1999/xlink">
 <metadata>
  <rdf:RDF xmlns:cc="http://creativecommons.org/ns#" xmlns:dc="http://purl.org/dc/elements/1.1/" xmlns:rdf="http://www.w3.org/1999/02/22-rdf-syntax-ns#">
   <cc:Work>
    <dc:type rdf:resource="http://purl.org/dc/dcmitype/StillImage"/>
    <dc:date>2021-03-18T12:03:18.514126</dc:date>
    <dc:format>image/svg+xml</dc:format>
    <dc:creator>
     <cc:Agent>
      <dc:title>Matplotlib v3.3.4, https://matplotlib.org/</dc:title>
     </cc:Agent>
    </dc:creator>
   </cc:Work>
  </rdf:RDF>
 </metadata>
 <defs>
  <style type="text/css">*{stroke-linecap:butt;stroke-linejoin:round;}</style>
 </defs>
 <g id="figure_1">
  <g id="patch_1">
   <path d="M 0 352.8
L 496.8 352.8
L 496.8 0
L 0 0
z
" style="fill:#ffffff;"/>
  </g>
  <g id="axes_1">
   <g id="patch_2">
    <path d="M 48.309319 313.346418
L 483.234961 313.346418
L 483.234961 10.659249
L 48.309319 10.659249
z
" style="fill:#ffffff;"/>
   </g>
   <g id="line2d_1">
    <path clip-path="url(#p0c07c675fe)" d="M 364.618876 313.346418
L 364.618876 49.032018
" style="fill:none;stroke:#8b008b;stroke-dasharray:5.55,2.4;stroke-dashoffset:0;stroke-width:1.5;"/>
   </g>
   <g id="matplotlib.axis_1">
    <g id="xtick_1">
     <g id="line2d_2">
      <defs>
       <path d="M 0 0
L 0 3.5
" id="m6168282dcc" style="stroke:#000000;stroke-width:0.8;"/>
      </defs>
      <g>
       <use style="stroke:#000000;stroke-width:0.8;" x="48.309319" xlink:href="#m6168282dcc" y="313.346418"/>
      </g>
     </g>
     <g id="text_1">
      <!-- $\mathdefault{0.0}$ -->
      <g transform="translate(41.94428 327.264917)scale(0.1 -0.1)">
       <defs>
        <path d="M 42 31.84375
C 42 37.96875 41.90625 48.421875 37.703125 56.453125
C 34 63.484375 28.09375 66 22.90625 66
C 18.09375 66 12 63.78125 8.203125 56.5625
C 4.203125 49.015625 3.796875 39.671875 3.796875 31.84375
C 3.796875 26.109375 3.90625 17.375 7 9.734375
C 11.296875 -0.609375 19 -2 22.90625 -2
C 27.5 -2 34.5 -0.109375 38.59375 9.4375
C 41.59375 16.375 42 24.5 42 31.84375
z
M 22.90625 -0.40625
C 16.5 -0.40625 12.703125 5.125 11.296875 12.75
C 10.203125 18.6875 10.203125 27.328125 10.203125 32.953125
C 10.203125 40.6875 10.203125 47.109375 11.5 53.234375
C 13.40625 61.78125 19 64.390625 22.90625 64.390625
C 27 64.390625 32.296875 61.671875 34.203125 53.4375
C 35.5 47.71875 35.59375 40.984375 35.59375 32.953125
C 35.59375 26.421875 35.59375 18.375 34.40625 12.453125
C 32.296875 1.5 26.40625 -0.40625 22.90625 -0.40625
z
" id="CMR17-48"/>
        <path d="M 18.40625 4.796875
C 18.40625 7.6875 16 9.6875 13.59375 9.6875
C 10.703125 9.6875 8.703125 7.296875 8.703125 4.890625
C 8.703125 2 11.09375 0 13.5 0
C 16.40625 0 18.40625 2.390625 18.40625 4.796875
z
" id="CMMI12-58"/>
       </defs>
       <use transform="scale(0.996264)" xlink:href="#CMR17-48"/>
       <use transform="translate(45.690477 0)scale(0.996264)" xlink:href="#CMMI12-58"/>
       <use transform="translate(72.787654 0)scale(0.996264)" xlink:href="#CMR17-48"/>
      </g>
     </g>
    </g>
    <g id="xtick_2">
     <g id="line2d_3">
      <g>
       <use style="stroke:#000000;stroke-width:0.8;" x="135.294447" xlink:href="#m6168282dcc" y="313.346418"/>
      </g>
     </g>
     <g id="text_2">
      <!-- $\mathdefault{0.2}$ -->
      <g transform="translate(128.929408 327.264917)scale(0.1 -0.1)">
       <defs>
        <path d="M 41.703125 15.46875
L 39.90625 15.46875
C 38.90625 8.390625 38.09375 7.1875 37.703125 6.59375
C 37.203125 5.796875 30 5.796875 28.59375 5.796875
L 9.40625 5.796875
C 13 9.6875 20 16.765625 28.5 24.9375
C 34.59375 30.71875 41.703125 37.5 41.703125 47.390625
C 41.703125 59.1875 32.296875 66 21.796875 66
C 10.796875 66 4.09375 56.296875 4.09375 47.296875
C 4.09375 43.390625 7 42.890625 8.203125 42.890625
C 9.203125 42.890625 12.203125 43.484375 12.203125 46.984375
C 12.203125 50.09375 9.59375 51 8.203125 51
C 7.59375 51 7 50.890625 6.59375 50.6875
C 8.5 59.1875 14.296875 63.390625 20.40625 63.390625
C 29.09375 63.390625 34.796875 56.5 34.796875 47.390625
C 34.796875 38.703125 29.703125 31.21875 24 24.734375
L 4.09375 2.296875
L 4.09375 0
L 39.296875 0
z
" id="CMR17-50"/>
       </defs>
       <use transform="scale(0.996264)" xlink:href="#CMR17-48"/>
       <use transform="translate(45.690477 0)scale(0.996264)" xlink:href="#CMMI12-58"/>
       <use transform="translate(72.787654 0)scale(0.996264)" xlink:href="#CMR17-50"/>
      </g>
     </g>
    </g>
    <g id="xtick_3">
     <g id="line2d_4">
      <g>
       <use style="stroke:#000000;stroke-width:0.8;" x="222.279576" xlink:href="#m6168282dcc" y="313.346418"/>
      </g>
     </g>
     <g id="text_3">
      <!-- $\mathdefault{0.4}$ -->
      <g transform="translate(215.914536 327.264917)scale(0.1 -0.1)">
       <defs>
        <path d="M 33.59375 64.796875
C 33.59375 66.890625 33.5 67 31.703125 67
L 2 19.59375
L 2 17
L 27.796875 17
L 27.796875 7.1875
C 27.796875 3.59375 27.59375 2.59375 20.59375 2.59375
L 18.703125 2.59375
L 18.703125 0
C 21.90625 0.1875 27.296875 0.1875 30.703125 0.1875
C 34.09375 0.1875 39.5 0.1875 42.703125 0
L 42.703125 2.59375
L 40.796875 2.59375
C 33.796875 2.59375 33.59375 3.59375 33.59375 7.1875
L 33.59375 17
L 43.796875 17
L 43.796875 19.59375
L 33.59375 19.59375
z
M 28.09375 58.171875
L 28.09375 19.59375
L 4 19.59375
z
" id="CMR17-52"/>
       </defs>
       <use transform="scale(0.996264)" xlink:href="#CMR17-48"/>
       <use transform="translate(45.690477 0)scale(0.996264)" xlink:href="#CMMI12-58"/>
       <use transform="translate(72.787654 0)scale(0.996264)" xlink:href="#CMR17-52"/>
      </g>
     </g>
    </g>
    <g id="xtick_4">
     <g id="line2d_5">
      <g>
       <use style="stroke:#000000;stroke-width:0.8;" x="309.264704" xlink:href="#m6168282dcc" y="313.346418"/>
      </g>
     </g>
     <g id="text_4">
      <!-- $\mathdefault{0.6}$ -->
      <g transform="translate(302.899664 327.264917)scale(0.1 -0.1)">
       <defs>
        <path d="M 10.59375 34.34375
C 10.59375 58 21.796875 63.6875 28.296875 63.6875
C 30.40625 63.6875 35.5 63.265625 37.5 59.09375
C 35.90625 59.09375 32.90625 59.09375 32.90625 55.59375
C 32.90625 52.890625 35.09375 52 36.5 52
C 37.40625 52 40.09375 52.390625 40.09375 55.796875
C 40.09375 62.296875 35.09375 66 28.203125 66
C 16.296875 66 3.796875 53.296875 3.796875 31.421875
C 3.796875 4.015625 15.09375 -2 23.09375 -2
C 32.796875 -2 42 6.734375 42 20.234375
C 42 32.828125 33.90625 42 23.703125 42
C 17.59375 42 13.09375 37.96875 10.59375 30.921875
z
M 23.09375 0.390625
C 10.796875 0.390625 10.796875 18.9375 10.796875 22.65625
C 10.796875 29.90625 14.203125 40.390625 23.5 40.390625
C 25.203125 40.390625 30.09375 40.390625 33.40625 33.4375
C 35.203125 29.515625 35.203125 25.375 35.203125 20.34375
C 35.203125 14.90625 35.203125 10.875 33.09375 6.84375
C 30.90625 2.703125 27.703125 0.390625 23.09375 0.390625
z
" id="CMR17-54"/>
       </defs>
       <use transform="scale(0.996264)" xlink:href="#CMR17-48"/>
       <use transform="translate(45.690477 0)scale(0.996264)" xlink:href="#CMMI12-58"/>
       <use transform="translate(72.787654 0)scale(0.996264)" xlink:href="#CMR17-54"/>
      </g>
     </g>
    </g>
    <g id="xtick_5">
     <g id="line2d_6">
      <g>
       <use style="stroke:#000000;stroke-width:0.8;" x="396.249832" xlink:href="#m6168282dcc" y="313.346418"/>
      </g>
     </g>
     <g id="text_5">
      <!-- $\mathdefault{0.8}$ -->
      <g transform="translate(389.884793 327.264917)scale(0.1 -0.1)">
       <defs>
        <path d="M 27.203125 35.765625
C 33.5 38.96875 39.90625 43.796875 39.90625 51.53125
C 39.90625 60.6875 31.09375 66 23 66
C 13.90625 66 5.90625 59.375 5.90625 50.234375
C 5.90625 47.71875 6.5 43.390625 10.40625 39.578125
C 11.40625 38.578125 15.59375 35.5625 18.296875 33.65625
C 13.796875 31.34375 3.296875 25.8125 3.296875 14.765625
C 3.296875 4.40625 13.09375 -2 22.796875 -2
C 33.5 -2 42.5 5.71875 42.5 15.96875
C 42.5 25.109375 36.40625 29.328125 32.40625 32.046875
z
M 14.09375 44.609375
C 13.296875 45.109375 9.296875 48.21875 9.296875 52.9375
C 9.296875 59.078125 15.59375 63.6875 22.796875 63.6875
C 30.703125 63.6875 36.5 58.0625 36.5 51.53125
C 36.5 42.1875 26.09375 36.859375 25.59375 36.859375
C 25.5 36.859375 25.40625 36.859375 24.59375 37.46875
z
M 32.5 24
C 34 22.90625 38.796875 19.578125 38.796875 13.453125
C 38.796875 6.015625 31.40625 0.390625 23 0.390625
C 13.90625 0.390625 7 6.921875 7 14.859375
C 7 22.796875 13.09375 29.4375 20 32.546875
z
" id="CMR17-56"/>
       </defs>
       <use transform="scale(0.996264)" xlink:href="#CMR17-48"/>
       <use transform="translate(45.690477 0)scale(0.996264)" xlink:href="#CMMI12-58"/>
       <use transform="translate(72.787654 0)scale(0.996264)" xlink:href="#CMR17-56"/>
      </g>
     </g>
    </g>
    <g id="xtick_6">
     <g id="line2d_7">
      <g>
       <use style="stroke:#000000;stroke-width:0.8;" x="483.234961" xlink:href="#m6168282dcc" y="313.346418"/>
      </g>
     </g>
     <g id="text_6">
      <!-- $\mathdefault{1.0}$ -->
      <g transform="translate(476.869921 327.264917)scale(0.1 -0.1)">
       <defs>
        <path d="M 26.59375 63.796875
C 26.59375 65.890625 26.5 66 25.09375 66
C 21.203125 61.359375 15.296875 59.890625 9.703125 59.6875
C 9.40625 59.6875 8.90625 59.6875 8.796875 59.5
C 8.703125 59.296875 8.703125 59.09375 8.703125 57
C 11.796875 57 17 57.59375 21 59.984375
L 21 7.296875
C 21 3.796875 20.796875 2.59375 12.203125 2.59375
L 9.203125 2.59375
L 9.203125 0
C 14 0.09375 19 0.1875 23.796875 0.1875
C 28.59375 0.1875 33.59375 0.09375 38.40625 0
L 38.40625 2.59375
L 35.40625 2.59375
C 26.796875 2.59375 26.59375 3.6875 26.59375 7.296875
z
" id="CMR17-49"/>
       </defs>
       <use transform="scale(0.996264)" xlink:href="#CMR17-49"/>
       <use transform="translate(45.690477 0)scale(0.996264)" xlink:href="#CMMI12-58"/>
       <use transform="translate(72.787654 0)scale(0.996264)" xlink:href="#CMR17-48"/>
      </g>
     </g>
    </g>
    <g id="text_7">
     <!-- $\theta$ -->
     <g transform="translate(262.589958 342.887972)scale(0.14 -0.14)">
      <defs>
       <path d="M 44.296875 50
C 44.296875 60.140625 41.09375 70 32.90625 70
C 18.90625 70 4 40.859375 4 18.984375
C 4 14.40625 5 -1 15.5 -1
C 29.09375 -1 44.296875 27.421875 44.296875 50
z
M 14 36
C 15.5 41.859375 17.59375 50.203125 21.59375 57.265625
C 24.90625 63.21875 28.40625 67.984375 32.796875 67.984375
C 36.09375 67.984375 38.296875 65.203125 38.296875 55.671875
C 38.296875 52.09375 38 47.125 35.09375 36
z
M 34.40625 33
C 31.90625 23.25 29.796875 17 26.203125 10.734375
C 23.296875 5.65625 19.796875 1 15.59375 1
C 12.5 1 10 3.375 10 13.21875
C 10 19.671875 11.59375 26.4375 13.203125 33
z
" id="CMMI12-18"/>
      </defs>
      <use transform="scale(0.996264)" xlink:href="#CMMI12-18"/>
     </g>
    </g>
   </g>
   <g id="matplotlib.axis_2">
    <g id="ytick_1">
     <g id="line2d_8">
      <defs>
       <path d="M 0 0
L -3.5 0
" id="m0fb9f984c4" style="stroke:#000000;stroke-width:0.8;"/>
      </defs>
      <g>
       <use style="stroke:#000000;stroke-width:0.8;" x="48.309319" xlink:href="#m0fb9f984c4" y="313.346418"/>
      </g>
     </g>
     <g id="text_8">
      <!-- 0.0 -->
      <g transform="translate(28.57924 316.805668)scale(0.1 -0.1)">
       <defs>
        <path d="M 16.59375 4.09375
C 16.59375 6.59375 14.59375 8.1875 12.5 8.1875
C 10.5 8.1875 8.40625 6.59375 8.40625 4.09375
C 8.40625 1.59375 10.40625 0 12.5 0
C 14.5 0 16.59375 1.59375 16.59375 4.09375
z
" id="CMR17-46"/>
       </defs>
       <use transform="scale(0.996264)" xlink:href="#CMR17-48"/>
       <use transform="translate(45.690477 0)scale(0.996264)" xlink:href="#CMR17-46"/>
       <use transform="translate(70.561536 0)scale(0.996264)" xlink:href="#CMR17-48"/>
      </g>
     </g>
    </g>
    <g id="ytick_2">
     <g id="line2d_9">
      <g>
       <use style="stroke:#000000;stroke-width:0.8;" x="48.309319" xlink:href="#m0fb9f984c4" y="252.808985"/>
      </g>
     </g>
     <g id="text_9">
      <!-- 0.06 -->
      <g transform="translate(23.597905 256.268234)scale(0.1 -0.1)">
       <use transform="scale(0.996264)" xlink:href="#CMR17-48"/>
       <use transform="translate(45.690477 0)scale(0.996264)" xlink:href="#CMR17-46"/>
       <use transform="translate(70.561536 0)scale(0.996264)" xlink:href="#CMR17-48"/>
       <use transform="translate(116.252013 0)scale(0.996264)" xlink:href="#CMR17-54"/>
      </g>
     </g>
    </g>
    <g id="ytick_3">
     <g id="line2d_10">
      <g>
       <use style="stroke:#000000;stroke-width:0.8;" x="48.309319" xlink:href="#m0fb9f984c4" y="192.271551"/>
      </g>
     </g>
     <g id="text_10">
      <!-- 0.12 -->
      <g transform="translate(23.597905 195.7308)scale(0.1 -0.1)">
       <use transform="scale(0.996264)" xlink:href="#CMR17-48"/>
       <use transform="translate(45.690477 0)scale(0.996264)" xlink:href="#CMR17-46"/>
       <use transform="translate(70.561536 0)scale(0.996264)" xlink:href="#CMR17-49"/>
       <use transform="translate(116.252013 0)scale(0.996264)" xlink:href="#CMR17-50"/>
      </g>
     </g>
    </g>
    <g id="ytick_4">
     <g id="line2d_11">
      <g>
       <use style="stroke:#000000;stroke-width:0.8;" x="48.309319" xlink:href="#m0fb9f984c4" y="131.734117"/>
      </g>
     </g>
     <g id="text_11">
      <!-- 0.18 -->
      <g transform="translate(23.597905 135.193366)scale(0.1 -0.1)">
       <use transform="scale(0.996264)" xlink:href="#CMR17-48"/>
       <use transform="translate(45.690477 0)scale(0.996264)" xlink:href="#CMR17-46"/>
       <use transform="translate(70.561536 0)scale(0.996264)" xlink:href="#CMR17-49"/>
       <use transform="translate(116.252013 0)scale(0.996264)" xlink:href="#CMR17-56"/>
      </g>
     </g>
    </g>
    <g id="ytick_5">
     <g id="line2d_12">
      <g>
       <use style="stroke:#000000;stroke-width:0.8;" x="48.309319" xlink:href="#m0fb9f984c4" y="71.196683"/>
      </g>
     </g>
     <g id="text_12">
      <!-- 0.24 -->
      <g transform="translate(23.597905 74.655932)scale(0.1 -0.1)">
       <use transform="scale(0.996264)" xlink:href="#CMR17-48"/>
       <use transform="translate(45.690477 0)scale(0.996264)" xlink:href="#CMR17-46"/>
       <use transform="translate(70.561536 0)scale(0.996264)" xlink:href="#CMR17-50"/>
       <use transform="translate(116.252013 0)scale(0.996264)" xlink:href="#CMR17-52"/>
      </g>
     </g>
    </g>
    <g id="ytick_6">
     <g id="line2d_13">
      <g>
       <use style="stroke:#000000;stroke-width:0.8;" x="48.309319" xlink:href="#m0fb9f984c4" y="10.659249"/>
      </g>
     </g>
     <g id="text_13">
      <!-- 0.3 -->
      <g transform="translate(28.57924 14.118498)scale(0.1 -0.1)">
       <defs>
        <path d="M 22.09375 34
C 31 34 34.90625 26.140625 34.90625 17.09375
C 34.90625 5.03125 28.5 0.390625 22.703125 0.390625
C 17.40625 0.390625 8.796875 3.015625 6.09375 10.796875
C 6.59375 10.59375 7.09375 10.59375 7.59375 10.59375
C 10 10.59375 11.796875 12.1875 11.796875 14.796875
C 11.796875 17.6875 9.59375 19 7.59375 19
C 5.90625 19 3.296875 18.1875 3.296875 14.484375
C 3.296875 5.234375 12.296875 -2 22.90625 -2
C 34 -2 42.5 6.75 42.5 16.984375
C 42.5 26.84375 34.5 34 25 35.09375
C 32.59375 36.671875 39.90625 43.375 39.90625 52.390625
C 39.90625 60.25 32 66 23 66
C 13.90625 66 5.90625 60.34375 5.90625 52.296875
C 5.90625 48.796875 8.5 48.1875 9.796875 48.1875
C 11.90625 48.1875 13.703125 49.484375 13.703125 52.09375
C 13.703125 54.6875 11.90625 56 9.796875 56
C 9.40625 56 8.90625 56 8.5 55.796875
C 11.40625 62.484375 19.296875 63.6875 22.796875 63.6875
C 26.296875 63.6875 32.90625 61.96875 32.90625 52.296875
C 32.90625 49.484375 32.5 44.546875 29.09375 40.21875
C 26.09375 36.390625 22.703125 36.1875 19.40625 35.890625
C 18.90625 35.890625 16.59375 35.6875 16.203125 35.6875
C 15.5 35.59375 15.09375 35.5 15.09375 34.796875
C 15.09375 34.09375 15.203125 34 17.203125 34
z
" id="CMR17-51"/>
       </defs>
       <use transform="scale(0.996264)" xlink:href="#CMR17-48"/>
       <use transform="translate(45.690477 0)scale(0.996264)" xlink:href="#CMR17-46"/>
       <use transform="translate(70.561536 0)scale(0.996264)" xlink:href="#CMR17-51"/>
      </g>
     </g>
    </g>
    <g id="text_14">
     <!-- Likelihood -->
     <g transform="translate(16.885876 193.204029)rotate(-90)scale(0.14 -0.14)">
      <defs>
       <path d="M 54.203125 25.1875
L 52.40625 25.1875
C 51.59375 15.328125 50.296875 2.59375 33.203125 2.59375
L 23.90625 2.59375
C 19.90625 2.59375 19.703125 3.09375 19.703125 6.46875
L 19.703125 60.8125
C 19.703125 64.390625 19.90625 65.390625 27.5 65.390625
L 29.703125 65.390625
L 29.703125 68
C 25.59375 67.796875 20.796875 67.796875 16.703125 67.796875
C 13.59375 67.796875 8 67.796875 5.09375 68
L 5.09375 65.390625
C 12 65.390625 13.09375 65.390625 13.09375 60.90625
L 13.09375 7.078125
C 13.09375 2.59375 12 2.59375 5.09375 2.59375
L 5.09375 0
L 51.796875 0
z
" id="CMR17-76"/>
       <path d="M 15.5 61.890625
C 15.5 64.09375 13.703125 66 11.40625 66
C 9.203125 66 7.296875 64.1875 7.296875 61.890625
C 7.296875 59.6875 9.09375 57.796875 11.40625 57.796875
C 13.59375 57.796875 15.5 59.59375 15.5 61.890625
z
M 3.796875 42.890625
L 3.796875 40.296875
C 9.40625 40.296875 10.203125 39.6875 10.203125 34.859375
L 10.203125 6.921875
C 10.203125 3.09375 9.796875 2.59375 3.40625 2.59375
L 3.40625 0
C 5.796875 0.1875 10.09375 0.1875 12.59375 0.1875
C 15 0.1875 19.09375 0.1875 21.40625 0
L 21.40625 2.59375
C 15.5 2.59375 15.296875 3.203125 15.296875 6.8125
L 15.296875 44
z
" id="CMR17-105"/>
       <path d="M 26.09375 26.234375
C 26 26.4375 25.5 27.03125 25.5 27.328125
C 25.5 27.53125 32.59375 33.984375 33.5 34.78125
C 39.203125 39.5625 42.796875 40.046875 45.40625 40.15625
L 45.40625 42.734375
C 44.796875 42.734375 44.59375 42.734375 44.5 42.640625
L 39.59375 42.53125
C 36.796875 42.53125 32.5 42.53125 29.796875 42.734375
L 29.796875 40.15625
C 31.203125 40.046875 32.203125 39.265625 32.203125 37.859375
C 32.203125 35.875 30.203125 33.984375 30.09375 33.984375
L 15 20.28125
L 15 69
L 3.09375 67.890625
L 3.09375 65.296875
C 9 65.296875 9.90625 64.703125 9.90625 59.921875
L 9.90625 6.859375
C 9.90625 3.09375 9.5 2.59375 3.09375 2.59375
L 3.09375 0
C 5.5 0.1875 9.90625 0.1875 12.40625 0.1875
C 14.90625 0.1875 19.296875 0.1875 21.703125 0
L 21.703125 2.59375
C 15.296875 2.59375 14.90625 2.984375 14.90625 6.859375
L 14.90625 17.796875
L 21.796875 24.0625
L 31.90625 9.15625
C 33.09375 7.359375 34.09375 5.96875 34.09375 4.671875
C 34.09375 2.890625 32.296875 2.59375 31.09375 2.59375
L 31.09375 0
C 33.5 0.1875 37.796875 0.1875 40.296875 0.1875
C 42.09375 0.1875 45.796875 0.09375 47.5 0
L 47.5 2.59375
C 42.796875 2.59375 41.703125 3.484375 38.703125 7.859375
z
" id="CMR17-107"/>
       <path d="M 38.09375 23.484375
C 38.5 23.890625 38.5 24.09375 38.5 25.09375
C 38.5 35.171875 33.09375 44 21.703125 44
C 11.09375 44 2.703125 33.984375 2.703125 21.78125
C 2.703125 8.65625 12.203125 -1 22.796875 -1
C 34 -1 38.40625 9.671875 38.40625 11.796875
C 38.40625 12.5 37.796875 12.5 37.59375 12.5
C 36.90625 12.5 36.796875 12.296875 36.40625 11.078125
C 34.203125 4.21875 28.703125 0.796875 23.5 0.796875
C 19.203125 0.796875 14.90625 3.21875 12.203125 7.65625
C 9.09375 12.796875 9.09375 18.75 9.09375 23.484375
z
M 9.203125 25
C 9.90625 39.234375 17.59375 42.390625 21.59375 42.390625
C 28.40625 42.390625 33 36.0625 33.09375 25
z
" id="CMR17-101"/>
       <path d="M 15.296875 69
L 3.40625 67.890625
L 3.40625 65.296875
C 9.296875 65.296875 10.203125 64.703125 10.203125 59.921875
L 10.203125 6.859375
C 10.203125 3.09375 9.796875 2.59375 3.40625 2.59375
L 3.40625 0
C 5.796875 0.1875 10.203125 0.1875 12.703125 0.1875
C 15.296875 0.1875 19.703125 0.1875 22.09375 0
L 22.09375 2.59375
C 15.703125 2.59375 15.296875 2.984375 15.296875 6.859375
z
" id="CMR17-108"/>
       <path d="M 41.5 30.53125
C 41.5 35.65625 40.5 44 28.703125 44
C 20.5 44 16.5 37.375 15.296875 34.046875
L 15.203125 34.046875
L 15.203125 69
L 3.296875 67.890625
L 3.296875 65.296875
C 9.203125 65.296875 10.09375 64.703125 10.09375 60.046875
L 10.09375 6.921875
C 10.09375 3.09375 9.703125 2.59375 3.296875 2.59375
L 3.296875 0
C 5.703125 0.1875 10.09375 0.1875 12.703125 0.1875
C 15.296875 0.1875 19.796875 0.1875 22.203125 0
L 22.203125 2.59375
C 15.796875 2.59375 15.40625 3 15.40625 6.921875
L 15.40625 26.21875
C 15.40625 35.453125 21 42.390625 28 42.390625
C 35.40625 42.390625 36.203125 35.765625 36.203125 30.9375
L 36.203125 6.921875
C 36.203125 3.09375 35.796875 2.59375 29.40625 2.59375
L 29.40625 0
C 31.796875 0.1875 36.203125 0.1875 38.796875 0.1875
C 41.40625 0.1875 45.90625 0.1875 48.296875 0
L 48.296875 2.59375
C 41.90625 2.59375 41.5 3 41.5 6.921875
z
" id="CMR17-104"/>
       <path d="M 43.09375 21.1875
C 43.09375 34 33.796875 44 22.90625 44
C 12 44 2.703125 34 2.703125 21.1875
C 2.703125 8.59375 12 -1 22.90625 -1
C 33.796875 -1 43.09375 8.59375 43.09375 21.1875
z
M 22.90625 0.796875
C 18.203125 0.796875 14.203125 3.59375 11.90625 7.5
C 9.40625 12 9.09375 17.59375 9.09375 22
C 9.09375 26.1875 9.296875 31.390625 11.90625 35.890625
C 13.90625 39.1875 17.796875 42.390625 22.90625 42.390625
C 27.40625 42.390625 31.203125 39.890625 33.59375 36.390625
C 36.703125 31.6875 36.703125 25.09375 36.703125 22
C 36.703125 18.09375 36.5 12.09375 33.796875 7.296875
C 31 2.6875 26.703125 0.796875 22.90625 0.796875
z
" id="CMR17-111"/>
       <path d="M 29.203125 67.890625
L 29.203125 65.296875
C 35.09375 65.296875 36 64.703125 36 60.046875
L 36 37.046875
C 35.59375 37.546875 31.5 44 23.40625 44
C 13.203125 44 3.296875 34.8125 3.296875 21.5
C 3.296875 8.265625 12.59375 -1 22.40625 -1
C 30.90625 -1 35.296875 5.640625 35.796875 6.34375
L 35.796875 -1
L 47.90625 -0.203125
L 47.90625 2.40625
C 42 2.40625 41.09375 3.015625 41.09375 7.859375
L 41.09375 69
z
M 35.796875 11.90625
C 35.796875 8.875 34 6.140625 31.703125 4.125
C 28.296875 1.09375 24.90625 0.59375 23 0.59375
C 20.09375 0.59375 9.703125 2.109375 9.703125 21.390625
C 9.703125 41.1875 21.296875 42.390625 23.90625 42.390625
C 28.5 42.390625 32.203125 39.765625 34.5 36.140625
C 35.796875 34.015625 35.796875 33.703125 35.796875 31.890625
z
" id="CMR17-100"/>
      </defs>
      <use transform="scale(0.996264)" xlink:href="#CMR17-76"/>
      <use transform="translate(57.381408 0)scale(0.996264)" xlink:href="#CMR17-105"/>
      <use transform="translate(82.252466 0)scale(0.996264)" xlink:href="#CMR17-107"/>
      <use transform="translate(127.942928 0)scale(0.996264)" xlink:href="#CMR17-101"/>
      <use transform="translate(168.428589 0)scale(0.996264)" xlink:href="#CMR17-108"/>
      <use transform="translate(193.299647 0)scale(0.996264)" xlink:href="#CMR17-105"/>
      <use transform="translate(218.170706 0)scale(0.996264)" xlink:href="#CMR17-104"/>
      <use transform="translate(269.066075 0)scale(0.996264)" xlink:href="#CMR17-111"/>
      <use transform="translate(317.358991 0)scale(0.996264)" xlink:href="#CMR17-111"/>
      <use transform="translate(365.651907 0)scale(0.996264)" xlink:href="#CMR17-100"/>
     </g>
    </g>
   </g>
   <g id="line2d_14">
    <path clip-path="url(#p0c07c675fe)" d="M 48.309319 313.346418
L 127.545022 313.235916
L 141.911935 312.976086
L 151.925238 312.582748
L 160.197097 312.0378
L 167.162873 311.359192
L 173.257927 310.549811
L 178.91762 309.574712
L 184.141952 308.445886
L 188.930923 307.186193
L 193.284533 305.828236
L 197.638143 304.243077
L 201.991753 302.406061
L 205.910002 300.516521
L 209.828251 298.383837
L 213.7465 295.989323
L 217.664749 293.314495
L 221.582998 290.341308
L 225.065886 287.433956
L 228.548774 284.265598
L 232.031662 280.825457
L 235.51455 277.103699
L 239.432799 272.569296
L 243.351048 267.657041
L 247.269297 262.35891
L 251.187546 256.669622
L 255.105795 250.586977
L 259.024044 244.112181
L 263.377654 236.464173
L 267.731264 228.350862
L 272.520235 218.912014
L 277.309206 208.969203
L 282.533538 197.602732
L 288.193231 184.763534
L 295.159007 168.385129
L 307.349116 138.998747
L 316.056336 118.303166
L 321.716029 105.407773
L 326.505 95.047945
L 330.423249 87.060397
L 333.906137 80.403557
L 337.389025 74.226702
L 340.436552 69.263143
L 343.484079 64.753371
L 346.096245 61.278946
L 348.708411 58.191176
L 350.885216 55.93043
L 353.062021 53.967774
L 355.238826 52.315917
L 357.415631 50.987006
L 359.157075 50.164163
L 360.898519 49.560964
L 362.639963 49.18267
L 364.381407 49.034201
L 366.122851 49.120113
L 367.864295 49.44457
L 369.605739 50.01132
L 371.347183 50.82367
L 373.088627 51.884457
L 374.830071 53.19603
L 376.571515 54.760214
L 378.312959 56.578297
L 380.489764 59.208983
L 382.666569 62.237562
L 384.843374 65.66262
L 387.020179 69.481164
L 389.632345 74.57617
L 392.244511 80.21977
L 394.856677 86.397046
L 397.904204 94.253214
L 400.951731 102.773802
L 403.999258 111.915122
L 407.482146 123.056551
L 411.400395 136.369525
L 415.754005 151.958508
L 421.413698 173.114156
L 437.086694 232.275406
L 441.440304 247.512147
L 444.923192 258.929823
L 447.970719 268.230185
L 451.018246 276.789856
L 453.630412 283.474679
L 456.242578 289.510707
L 458.419383 294.019255
L 460.596188 298.037441
L 462.772993 301.556101
L 464.514437 304.009473
L 466.255881 306.143641
L 467.997325 307.964257
L 469.738769 309.480753
L 471.480213 310.706699
L 473.221657 311.660182
L 474.963101 312.364205
L 476.704545 312.847108
L 478.88135 313.192353
L 481.493517 313.336069
L 483.234961 313.346418
L 483.234961 313.346418
" style="fill:none;stroke:#ff00ff;stroke-linecap:square;stroke-width:1.5;"/>
   </g>
   <g id="patch_3">
    <path d="M 48.309319 313.346418
L 48.309319 10.659249
" style="fill:none;stroke:#000000;stroke-linecap:square;stroke-linejoin:miter;stroke-width:0.8;"/>
   </g>
   <g id="patch_4">
    <path d="M 483.234961 313.346418
L 483.234961 10.659249
" style="fill:none;stroke:#000000;stroke-linecap:square;stroke-linejoin:miter;stroke-width:0.8;"/>
   </g>
   <g id="patch_5">
    <path d="M 48.309319 313.346418
L 483.234961 313.346418
" style="fill:none;stroke:#000000;stroke-linecap:square;stroke-linejoin:miter;stroke-width:0.8;"/>
   </g>
   <g id="patch_6">
    <path d="M 48.309319 10.659249
L 483.234961 10.659249
" style="fill:none;stroke:#000000;stroke-linecap:square;stroke-linejoin:miter;stroke-width:0.8;"/>
   </g>
   <g id="text_15">
    <!-- $\hat{\theta}_{\mathrm{MLE}}$ -->
    <g transform="translate(346.87493 331.904136)scale(0.18 -0.18)">
     <defs>
      <path d="M 22.90625 69
L 10.59375 55.1875
L 11.796875 54
L 22.90625 64.984375
L 34 54
L 35.203125 55.1875
z
" id="CMR17-94"/>
      <path d="M 20.90625 66.390625
C 20.296875 67.890625 20.203125 68 18.09375 68
L 5.296875 68
L 5.296875 65.390625
C 12.203125 65.390625 13.296875 65.390625 13.296875 60.90625
L 13.296875 9.75
C 13.296875 7.265625 13.296875 2.59375 5.296875 2.59375
L 5.296875 0
C 7.59375 0.1875 11.796875 0.1875 14.296875 0.1875
C 16.796875 0.1875 21 0.1875 23.296875 0
L 23.296875 2.59375
C 15.296875 2.59375 15.296875 7.265625 15.296875 9.75
L 15.296875 64.984375
L 15.40625 64.984375
L 38.90625 1.59375
C 39.296875 0.59375 39.5 0 40.296875 0
C 41.09375 0 41.296875 0.59375 41.703125 1.59375
L 65.40625 65.484375
L 65.5 65.484375
L 65.5 7.078125
C 65.5 2.59375 64.40625 2.59375 57.5 2.59375
L 57.5 0
C 60.203125 0.1875 65.59375 0.1875 68.5 0.1875
C 71.40625 0.1875 76.90625 0.1875 79.59375 0
L 79.59375 2.59375
C 72.703125 2.59375 71.59375 2.59375 71.59375 7.078125
L 71.59375 60.90625
C 71.59375 65.390625 72.703125 65.390625 79.59375 65.390625
L 79.59375 68
L 66.90625 68
C 64.796875 68 64.703125 67.890625 64.09375 66.390625
L 42.5 8.0625
z
" id="CMR17-77"/>
      <path d="M 60.703125 25.21875
L 58.90625 25.21875
C 56.703125 10.5625 55.40625 2.59375 37.796875 2.59375
L 23.90625 2.59375
C 19.90625 2.59375 19.703125 3.09375 19.703125 6.484375
L 19.703125 34
L 29.09375 34
C 38.5 34 39.40625 30.609375 39.40625 22.328125
L 41.203125 22.328125
L 41.203125 48.21875
L 39.40625 48.21875
C 39.40625 39.96875 38.5 36.59375 29.09375 36.59375
L 19.703125 36.59375
L 19.703125 61.3125
C 19.703125 64.703125 19.90625 65.1875 23.90625 65.1875
L 37.59375 65.1875
C 53.09375 65.1875 54.90625 59.03125 56.296875 45.828125
L 58.09375 45.828125
L 55.703125 67.796875
L 5.09375 67.796875
L 5.09375 65.1875
C 12 65.1875 13.09375 65.1875 13.09375 60.71875
L 13.09375 7.078125
C 13.09375 2.59375 12 2.59375 5.09375 2.59375
L 5.09375 0
L 57.09375 0
z
" id="CMR17-69"/>
     </defs>
     <use transform="translate(9.368676 26.296621)scale(0.996264)" xlink:href="#CMR17-94"/>
     <use transform="scale(0.996264)" xlink:href="#CMMI12-18"/>
     <use transform="translate(45.45979 -14.943915)scale(0.697382)" xlink:href="#CMR17-77"/>
     <use transform="translate(104.740387 -14.943915)scale(0.697382)" xlink:href="#CMR17-76"/>
     <use transform="translate(144.90719 -14.943915)scale(0.697382)" xlink:href="#CMR17-69"/>
    </g>
   </g>
  </g>
 </g>
 <defs>
  <clipPath id="p0c07c675fe">
   <rect height="302.687169" width="434.925641" x="48.309319" y="10.659249"/>
  </clipPath>
 </defs>
</svg>
