<?xml version="1.0" encoding="utf-8" standalone="no"?>
<!DOCTYPE svg PUBLIC "-//W3C//DTD SVG 1.1//EN"
  "http://www.w3.org/Graphics/SVG/1.1/DTD/svg11.dtd">
<!-- Created with matplotlib (https://matplotlib.org/) -->
<svg height="352.8pt" version="1.1" viewBox="0 0 496.8 352.8" width="496.8pt" xmlns="http://www.w3.org/2000/svg" xmlns:xlink="http://www.w3.org/1999/xlink">
 <metadata>
  <rdf:RDF xmlns:cc="http://creativecommons.org/ns#" xmlns:dc="http://purl.org/dc/elements/1.1/" xmlns:rdf="http://www.w3.org/1999/02/22-rdf-syntax-ns#">
   <cc:Work>
    <dc:type rdf:resource="http://purl.org/dc/dcmitype/StillImage"/>
    <dc:date>2021-03-18T12:37:39.083025</dc:date>
    <dc:format>image/svg+xml</dc:format>
    <dc:creator>
     <cc:Agent>
      <dc:title>Matplotlib v3.3.4, https://matplotlib.org/</dc:title>
     </cc:Agent>
    </dc:creator>
   </cc:Work>
  </rdf:RDF>
 </metadata>
 <defs>
  <style type="text/css">*{stroke-linecap:butt;stroke-linejoin:round;}</style>
 </defs>
 <g id="figure_1">
  <g id="patch_1">
   <path d="M 0 352.8
L 496.8 352.8
L 496.8 0
L 0 0
z
" style="fill:#ffffff;"/>
  </g>
  <g id="axes_1">
   <g id="patch_2">
    <path d="M 43.327984 313.346418
L 483.234961 313.346418
L 483.234961 10.659249
L 43.327984 10.659249
z
" style="fill:#ffffff;"/>
   </g>
   <g id="line2d_1">
    <path clip-path="url(#pb99b12817b)" d="M 347.878968 313.346418
L 347.878968 65.303365
" style="fill:none;stroke:#503874;stroke-dasharray:5.55,2.4;stroke-dashoffset:0;stroke-width:1.5;"/>
   </g>
   <g id="matplotlib.axis_1">
    <g id="xtick_1">
     <g id="line2d_2">
      <defs>
       <path d="M 0 0
L 0 3.5
" id="m74e664feb2" style="stroke:#000000;stroke-width:0.8;"/>
      </defs>
      <g>
       <use style="stroke:#000000;stroke-width:0.8;" x="43.327984" xlink:href="#m74e664feb2" y="313.346418"/>
      </g>
     </g>
     <g id="text_1">
      <!-- $\mathdefault{0.0}$ -->
      <g transform="translate(36.962944 327.264917)scale(0.1 -0.1)">
       <defs>
        <path d="M 42 31.84375
C 42 37.96875 41.90625 48.421875 37.703125 56.453125
C 34 63.484375 28.09375 66 22.90625 66
C 18.09375 66 12 63.78125 8.203125 56.5625
C 4.203125 49.015625 3.796875 39.671875 3.796875 31.84375
C 3.796875 26.109375 3.90625 17.375 7 9.734375
C 11.296875 -0.609375 19 -2 22.90625 -2
C 27.5 -2 34.5 -0.109375 38.59375 9.4375
C 41.59375 16.375 42 24.5 42 31.84375
z
M 22.90625 -0.40625
C 16.5 -0.40625 12.703125 5.125 11.296875 12.75
C 10.203125 18.6875 10.203125 27.328125 10.203125 32.953125
C 10.203125 40.6875 10.203125 47.109375 11.5 53.234375
C 13.40625 61.78125 19 64.390625 22.90625 64.390625
C 27 64.390625 32.296875 61.671875 34.203125 53.4375
C 35.5 47.71875 35.59375 40.984375 35.59375 32.953125
C 35.59375 26.421875 35.59375 18.375 34.40625 12.453125
C 32.296875 1.5 26.40625 -0.40625 22.90625 -0.40625
z
" id="CMR17-48"/>
        <path d="M 18.40625 4.796875
C 18.40625 7.6875 16 9.6875 13.59375 9.6875
C 10.703125 9.6875 8.703125 7.296875 8.703125 4.890625
C 8.703125 2 11.09375 0 13.5 0
C 16.40625 0 18.40625 2.390625 18.40625 4.796875
z
" id="CMMI12-58"/>
       </defs>
       <use transform="scale(0.996264)" xlink:href="#CMR17-48"/>
       <use transform="translate(45.690477 0)scale(0.996264)" xlink:href="#CMMI12-58"/>
       <use transform="translate(72.787654 0)scale(0.996264)" xlink:href="#CMR17-48"/>
      </g>
     </g>
    </g>
    <g id="xtick_2">
     <g id="line2d_3">
      <g>
       <use style="stroke:#000000;stroke-width:0.8;" x="131.309379" xlink:href="#m74e664feb2" y="313.346418"/>
      </g>
     </g>
     <g id="text_2">
      <!-- $\mathdefault{0.2}$ -->
      <g transform="translate(124.94434 327.264917)scale(0.1 -0.1)">
       <defs>
        <path d="M 41.703125 15.46875
L 39.90625 15.46875
C 38.90625 8.390625 38.09375 7.1875 37.703125 6.59375
C 37.203125 5.796875 30 5.796875 28.59375 5.796875
L 9.40625 5.796875
C 13 9.6875 20 16.765625 28.5 24.9375
C 34.59375 30.71875 41.703125 37.5 41.703125 47.390625
C 41.703125 59.1875 32.296875 66 21.796875 66
C 10.796875 66 4.09375 56.296875 4.09375 47.296875
C 4.09375 43.390625 7 42.890625 8.203125 42.890625
C 9.203125 42.890625 12.203125 43.484375 12.203125 46.984375
C 12.203125 50.09375 9.59375 51 8.203125 51
C 7.59375 51 7 50.890625 6.59375 50.6875
C 8.5 59.1875 14.296875 63.390625 20.40625 63.390625
C 29.09375 63.390625 34.796875 56.5 34.796875 47.390625
C 34.796875 38.703125 29.703125 31.21875 24 24.734375
L 4.09375 2.296875
L 4.09375 0
L 39.296875 0
z
" id="CMR17-50"/>
       </defs>
       <use transform="scale(0.996264)" xlink:href="#CMR17-48"/>
       <use transform="translate(45.690477 0)scale(0.996264)" xlink:href="#CMMI12-58"/>
       <use transform="translate(72.787654 0)scale(0.996264)" xlink:href="#CMR17-50"/>
      </g>
     </g>
    </g>
    <g id="xtick_3">
     <g id="line2d_4">
      <g>
       <use style="stroke:#000000;stroke-width:0.8;" x="219.290774" xlink:href="#m74e664feb2" y="313.346418"/>
      </g>
     </g>
     <g id="text_3">
      <!-- $\mathdefault{0.4}$ -->
      <g transform="translate(212.925735 327.264917)scale(0.1 -0.1)">
       <defs>
        <path d="M 33.59375 64.796875
C 33.59375 66.890625 33.5 67 31.703125 67
L 2 19.59375
L 2 17
L 27.796875 17
L 27.796875 7.1875
C 27.796875 3.59375 27.59375 2.59375 20.59375 2.59375
L 18.703125 2.59375
L 18.703125 0
C 21.90625 0.1875 27.296875 0.1875 30.703125 0.1875
C 34.09375 0.1875 39.5 0.1875 42.703125 0
L 42.703125 2.59375
L 40.796875 2.59375
C 33.796875 2.59375 33.59375 3.59375 33.59375 7.1875
L 33.59375 17
L 43.796875 17
L 43.796875 19.59375
L 33.59375 19.59375
z
M 28.09375 58.171875
L 28.09375 19.59375
L 4 19.59375
z
" id="CMR17-52"/>
       </defs>
       <use transform="scale(0.996264)" xlink:href="#CMR17-48"/>
       <use transform="translate(45.690477 0)scale(0.996264)" xlink:href="#CMMI12-58"/>
       <use transform="translate(72.787654 0)scale(0.996264)" xlink:href="#CMR17-52"/>
      </g>
     </g>
    </g>
    <g id="xtick_4">
     <g id="line2d_5">
      <g>
       <use style="stroke:#000000;stroke-width:0.8;" x="307.27217" xlink:href="#m74e664feb2" y="313.346418"/>
      </g>
     </g>
     <g id="text_4">
      <!-- $\mathdefault{0.6}$ -->
      <g transform="translate(300.90713 327.264917)scale(0.1 -0.1)">
       <defs>
        <path d="M 10.59375 34.34375
C 10.59375 58 21.796875 63.6875 28.296875 63.6875
C 30.40625 63.6875 35.5 63.265625 37.5 59.09375
C 35.90625 59.09375 32.90625 59.09375 32.90625 55.59375
C 32.90625 52.890625 35.09375 52 36.5 52
C 37.40625 52 40.09375 52.390625 40.09375 55.796875
C 40.09375 62.296875 35.09375 66 28.203125 66
C 16.296875 66 3.796875 53.296875 3.796875 31.421875
C 3.796875 4.015625 15.09375 -2 23.09375 -2
C 32.796875 -2 42 6.734375 42 20.234375
C 42 32.828125 33.90625 42 23.703125 42
C 17.59375 42 13.09375 37.96875 10.59375 30.921875
z
M 23.09375 0.390625
C 10.796875 0.390625 10.796875 18.9375 10.796875 22.65625
C 10.796875 29.90625 14.203125 40.390625 23.5 40.390625
C 25.203125 40.390625 30.09375 40.390625 33.40625 33.4375
C 35.203125 29.515625 35.203125 25.375 35.203125 20.34375
C 35.203125 14.90625 35.203125 10.875 33.09375 6.84375
C 30.90625 2.703125 27.703125 0.390625 23.09375 0.390625
z
" id="CMR17-54"/>
       </defs>
       <use transform="scale(0.996264)" xlink:href="#CMR17-48"/>
       <use transform="translate(45.690477 0)scale(0.996264)" xlink:href="#CMMI12-58"/>
       <use transform="translate(72.787654 0)scale(0.996264)" xlink:href="#CMR17-54"/>
      </g>
     </g>
    </g>
    <g id="xtick_5">
     <g id="line2d_6">
      <g>
       <use style="stroke:#000000;stroke-width:0.8;" x="395.253565" xlink:href="#m74e664feb2" y="313.346418"/>
      </g>
     </g>
     <g id="text_5">
      <!-- $\mathdefault{0.8}$ -->
      <g transform="translate(388.888526 327.264917)scale(0.1 -0.1)">
       <defs>
        <path d="M 27.203125 35.765625
C 33.5 38.96875 39.90625 43.796875 39.90625 51.53125
C 39.90625 60.6875 31.09375 66 23 66
C 13.90625 66 5.90625 59.375 5.90625 50.234375
C 5.90625 47.71875 6.5 43.390625 10.40625 39.578125
C 11.40625 38.578125 15.59375 35.5625 18.296875 33.65625
C 13.796875 31.34375 3.296875 25.8125 3.296875 14.765625
C 3.296875 4.40625 13.09375 -2 22.796875 -2
C 33.5 -2 42.5 5.71875 42.5 15.96875
C 42.5 25.109375 36.40625 29.328125 32.40625 32.046875
z
M 14.09375 44.609375
C 13.296875 45.109375 9.296875 48.21875 9.296875 52.9375
C 9.296875 59.078125 15.59375 63.6875 22.796875 63.6875
C 30.703125 63.6875 36.5 58.0625 36.5 51.53125
C 36.5 42.1875 26.09375 36.859375 25.59375 36.859375
C 25.5 36.859375 25.40625 36.859375 24.59375 37.46875
z
M 32.5 24
C 34 22.90625 38.796875 19.578125 38.796875 13.453125
C 38.796875 6.015625 31.40625 0.390625 23 0.390625
C 13.90625 0.390625 7 6.921875 7 14.859375
C 7 22.796875 13.09375 29.4375 20 32.546875
z
" id="CMR17-56"/>
       </defs>
       <use transform="scale(0.996264)" xlink:href="#CMR17-48"/>
       <use transform="translate(45.690477 0)scale(0.996264)" xlink:href="#CMMI12-58"/>
       <use transform="translate(72.787654 0)scale(0.996264)" xlink:href="#CMR17-56"/>
      </g>
     </g>
    </g>
    <g id="xtick_6">
     <g id="line2d_7">
      <g>
       <use style="stroke:#000000;stroke-width:0.8;" x="483.234961" xlink:href="#m74e664feb2" y="313.346418"/>
      </g>
     </g>
     <g id="text_6">
      <!-- $\mathdefault{1.0}$ -->
      <g transform="translate(476.869921 327.264917)scale(0.1 -0.1)">
       <defs>
        <path d="M 26.59375 63.796875
C 26.59375 65.890625 26.5 66 25.09375 66
C 21.203125 61.359375 15.296875 59.890625 9.703125 59.6875
C 9.40625 59.6875 8.90625 59.6875 8.796875 59.5
C 8.703125 59.296875 8.703125 59.09375 8.703125 57
C 11.796875 57 17 57.59375 21 59.984375
L 21 7.296875
C 21 3.796875 20.796875 2.59375 12.203125 2.59375
L 9.203125 2.59375
L 9.203125 0
C 14 0.09375 19 0.1875 23.796875 0.1875
C 28.59375 0.1875 33.59375 0.09375 38.40625 0
L 38.40625 2.59375
L 35.40625 2.59375
C 26.796875 2.59375 26.59375 3.6875 26.59375 7.296875
z
" id="CMR17-49"/>
       </defs>
       <use transform="scale(0.996264)" xlink:href="#CMR17-49"/>
       <use transform="translate(45.690477 0)scale(0.996264)" xlink:href="#CMMI12-58"/>
       <use transform="translate(72.787654 0)scale(0.996264)" xlink:href="#CMR17-48"/>
      </g>
     </g>
    </g>
    <g id="text_7">
     <!-- $\theta$ -->
     <g transform="translate(260.099291 342.887972)scale(0.14 -0.14)">
      <defs>
       <path d="M 44.296875 50
C 44.296875 60.140625 41.09375 70 32.90625 70
C 18.90625 70 4 40.859375 4 18.984375
C 4 14.40625 5 -1 15.5 -1
C 29.09375 -1 44.296875 27.421875 44.296875 50
z
M 14 36
C 15.5 41.859375 17.59375 50.203125 21.59375 57.265625
C 24.90625 63.21875 28.40625 67.984375 32.796875 67.984375
C 36.09375 67.984375 38.296875 65.203125 38.296875 55.671875
C 38.296875 52.09375 38 47.125 35.09375 36
z
M 34.40625 33
C 31.90625 23.25 29.796875 17 26.203125 10.734375
C 23.296875 5.65625 19.796875 1 15.59375 1
C 12.5 1 10 3.375 10 13.21875
C 10 19.671875 11.59375 26.4375 13.203125 33
z
" id="CMMI12-18"/>
      </defs>
      <use transform="scale(0.996264)" xlink:href="#CMMI12-18"/>
     </g>
    </g>
   </g>
   <g id="matplotlib.axis_2">
    <g id="ytick_1">
     <g id="line2d_8">
      <defs>
       <path d="M 0 0
L -3.5 0
" id="m5a3b9e6952" style="stroke:#000000;stroke-width:0.8;"/>
      </defs>
      <g>
       <use style="stroke:#000000;stroke-width:0.8;" x="43.327984" xlink:href="#m5a3b9e6952" y="313.346418"/>
      </g>
     </g>
     <g id="text_8">
      <!-- $\mathdefault{0.0}$ -->
      <g transform="translate(23.597905 316.805668)scale(0.1 -0.1)">
       <use transform="scale(0.996264)" xlink:href="#CMR17-48"/>
       <use transform="translate(45.690477 0)scale(0.996264)" xlink:href="#CMMI12-58"/>
       <use transform="translate(72.787654 0)scale(0.996264)" xlink:href="#CMR17-48"/>
      </g>
     </g>
    </g>
    <g id="ytick_2">
     <g id="line2d_9">
      <g>
       <use style="stroke:#000000;stroke-width:0.8;" x="43.327984" xlink:href="#m5a3b9e6952" y="275.510522"/>
      </g>
     </g>
     <g id="text_9">
      <!-- $\mathdefault{0.5}$ -->
      <g transform="translate(23.597905 278.969771)scale(0.1 -0.1)">
       <defs>
        <path d="M 11.40625 58.59375
C 12.40625 58.1875 16.5 56.890625 20.703125 56.890625
C 30 56.890625 35.09375 61.890625 38 64.6875
C 38 65.484375 38 66 37.40625 66
C 37.296875 66 37.09375 66 36.296875 65.59375
C 32.796875 64.09375 28.703125 63 23.703125 63
C 20.703125 63 16.203125 63.359375 11.296875 65.484375
C 10.203125 66 10 66 9.90625 66
C 9.40625 66 9.296875 65.890625 9.296875 63.90625
L 9.296875 34.859375
C 9.296875 33.015625 9.296875 32.5 10.296875 32.5
C 10.796875 32.5 11 32.703125 11.5 33.421875
C 14.703125 38.046875 19.09375 40 24.09375 40
C 27.59375 40 35.09375 37.734375 35.09375 20.203125
C 35.09375 16.984375 35.09375 11.1875 32.09375 6.59375
C 29.59375 2.484375 25.703125 0.390625 21.40625 0.390625
C 14.796875 0.390625 8.09375 4.984375 6.296875 12.6875
C 6.703125 12.59375 7.5 12.390625 7.90625 12.390625
C 9.203125 12.390625 11.703125 13.09375 11.703125 16.1875
C 11.703125 18.890625 9.796875 20 7.90625 20
C 5.59375 20 4.09375 18.59375 4.09375 15.796875
C 4.09375 7.09375 11 -2 21.59375 -2
C 31.90625 -2 41.703125 6.890625 41.703125 19.796875
C 41.703125 32.09375 33.90625 41.59375 24.203125 41.59375
C 19.09375 41.59375 14.796875 39.6875 11.40625 36
z
" id="CMR17-53"/>
       </defs>
       <use transform="scale(0.996264)" xlink:href="#CMR17-48"/>
       <use transform="translate(45.690477 0)scale(0.996264)" xlink:href="#CMMI12-58"/>
       <use transform="translate(72.787654 0)scale(0.996264)" xlink:href="#CMR17-53"/>
      </g>
     </g>
    </g>
    <g id="ytick_3">
     <g id="line2d_10">
      <g>
       <use style="stroke:#000000;stroke-width:0.8;" x="43.327984" xlink:href="#m5a3b9e6952" y="237.674626"/>
      </g>
     </g>
     <g id="text_10">
      <!-- $\mathdefault{1.0}$ -->
      <g transform="translate(23.597905 241.133875)scale(0.1 -0.1)">
       <use transform="scale(0.996264)" xlink:href="#CMR17-49"/>
       <use transform="translate(45.690477 0)scale(0.996264)" xlink:href="#CMMI12-58"/>
       <use transform="translate(72.787654 0)scale(0.996264)" xlink:href="#CMR17-48"/>
      </g>
     </g>
    </g>
    <g id="ytick_4">
     <g id="line2d_11">
      <g>
       <use style="stroke:#000000;stroke-width:0.8;" x="43.327984" xlink:href="#m5a3b9e6952" y="199.83873"/>
      </g>
     </g>
     <g id="text_11">
      <!-- $\mathdefault{1.5}$ -->
      <g transform="translate(23.597905 203.297979)scale(0.1 -0.1)">
       <use transform="scale(0.996264)" xlink:href="#CMR17-49"/>
       <use transform="translate(45.690477 0)scale(0.996264)" xlink:href="#CMMI12-58"/>
       <use transform="translate(72.787654 0)scale(0.996264)" xlink:href="#CMR17-53"/>
      </g>
     </g>
    </g>
    <g id="ytick_5">
     <g id="line2d_12">
      <g>
       <use style="stroke:#000000;stroke-width:0.8;" x="43.327984" xlink:href="#m5a3b9e6952" y="162.002834"/>
      </g>
     </g>
     <g id="text_12">
      <!-- $\mathdefault{2.0}$ -->
      <g transform="translate(23.597905 165.462083)scale(0.1 -0.1)">
       <use transform="scale(0.996264)" xlink:href="#CMR17-50"/>
       <use transform="translate(45.690477 0)scale(0.996264)" xlink:href="#CMMI12-58"/>
       <use transform="translate(72.787654 0)scale(0.996264)" xlink:href="#CMR17-48"/>
      </g>
     </g>
    </g>
    <g id="ytick_6">
     <g id="line2d_13">
      <g>
       <use style="stroke:#000000;stroke-width:0.8;" x="43.327984" xlink:href="#m5a3b9e6952" y="124.166938"/>
      </g>
     </g>
     <g id="text_13">
      <!-- $\mathdefault{2.5}$ -->
      <g transform="translate(23.597905 127.626187)scale(0.1 -0.1)">
       <use transform="scale(0.996264)" xlink:href="#CMR17-50"/>
       <use transform="translate(45.690477 0)scale(0.996264)" xlink:href="#CMMI12-58"/>
       <use transform="translate(72.787654 0)scale(0.996264)" xlink:href="#CMR17-53"/>
      </g>
     </g>
    </g>
    <g id="ytick_7">
     <g id="line2d_14">
      <g>
       <use style="stroke:#000000;stroke-width:0.8;" x="43.327984" xlink:href="#m5a3b9e6952" y="86.331042"/>
      </g>
     </g>
     <g id="text_14">
      <!-- $\mathdefault{3.0}$ -->
      <g transform="translate(23.597905 89.790291)scale(0.1 -0.1)">
       <defs>
        <path d="M 22.09375 34
C 31 34 34.90625 26.140625 34.90625 17.09375
C 34.90625 5.03125 28.5 0.390625 22.703125 0.390625
C 17.40625 0.390625 8.796875 3.015625 6.09375 10.796875
C 6.59375 10.59375 7.09375 10.59375 7.59375 10.59375
C 10 10.59375 11.796875 12.1875 11.796875 14.796875
C 11.796875 17.6875 9.59375 19 7.59375 19
C 5.90625 19 3.296875 18.1875 3.296875 14.484375
C 3.296875 5.234375 12.296875 -2 22.90625 -2
C 34 -2 42.5 6.75 42.5 16.984375
C 42.5 26.84375 34.5 34 25 35.09375
C 32.59375 36.671875 39.90625 43.375 39.90625 52.390625
C 39.90625 60.25 32 66 23 66
C 13.90625 66 5.90625 60.34375 5.90625 52.296875
C 5.90625 48.796875 8.5 48.1875 9.796875 48.1875
C 11.90625 48.1875 13.703125 49.484375 13.703125 52.09375
C 13.703125 54.6875 11.90625 56 9.796875 56
C 9.40625 56 8.90625 56 8.5 55.796875
C 11.40625 62.484375 19.296875 63.6875 22.796875 63.6875
C 26.296875 63.6875 32.90625 61.96875 32.90625 52.296875
C 32.90625 49.484375 32.5 44.546875 29.09375 40.21875
C 26.09375 36.390625 22.703125 36.1875 19.40625 35.890625
C 18.90625 35.890625 16.59375 35.6875 16.203125 35.6875
C 15.5 35.59375 15.09375 35.5 15.09375 34.796875
C 15.09375 34.09375 15.203125 34 17.203125 34
z
" id="CMR17-51"/>
       </defs>
       <use transform="scale(0.996264)" xlink:href="#CMR17-51"/>
       <use transform="translate(45.690477 0)scale(0.996264)" xlink:href="#CMMI12-58"/>
       <use transform="translate(72.787654 0)scale(0.996264)" xlink:href="#CMR17-48"/>
      </g>
     </g>
    </g>
    <g id="ytick_8">
     <g id="line2d_15">
      <g>
       <use style="stroke:#000000;stroke-width:0.8;" x="43.327984" xlink:href="#m5a3b9e6952" y="48.495145"/>
      </g>
     </g>
     <g id="text_15">
      <!-- $\mathdefault{3.5}$ -->
      <g transform="translate(23.597905 51.954395)scale(0.1 -0.1)">
       <use transform="scale(0.996264)" xlink:href="#CMR17-51"/>
       <use transform="translate(45.690477 0)scale(0.996264)" xlink:href="#CMMI12-58"/>
       <use transform="translate(72.787654 0)scale(0.996264)" xlink:href="#CMR17-53"/>
      </g>
     </g>
    </g>
    <g id="ytick_9">
     <g id="line2d_16">
      <g>
       <use style="stroke:#000000;stroke-width:0.8;" x="43.327984" xlink:href="#m5a3b9e6952" y="10.659249"/>
      </g>
     </g>
     <g id="text_16">
      <!-- $\mathdefault{4.0}$ -->
      <g transform="translate(23.597905 14.118498)scale(0.1 -0.1)">
       <use transform="scale(0.996264)" xlink:href="#CMR17-52"/>
       <use transform="translate(45.690477 0)scale(0.996264)" xlink:href="#CMMI12-58"/>
       <use transform="translate(72.787654 0)scale(0.996264)" xlink:href="#CMR17-48"/>
      </g>
     </g>
    </g>
    <g id="text_17">
     <!-- PDF -->
     <g transform="translate(16.885876 176.320078)rotate(-90)scale(0.14 -0.14)">
      <defs>
       <path d="M 19.796875 32
L 35.796875 32
C 48.703125 32 58.09375 40.359375 58.09375 49.796875
C 58.09375 59.234375 48.90625 68 35.796875 68
L 5.203125 68
L 5.203125 65.390625
C 12.09375 65.390625 13.203125 65.390625 13.203125 60.921875
L 13.203125 7.078125
C 13.203125 2.59375 12.09375 2.59375 5.203125 2.59375
L 5.203125 0
C 8.09375 0.1875 13.40625 0.1875 16.5 0.1875
C 19.59375 0.1875 24.90625 0.1875 27.796875 0
L 27.796875 2.59375
C 20.90625 2.59375 19.796875 2.59375 19.796875 7.078125
z
M 19.59375 34.09375
L 19.59375 61.515625
C 19.59375 64.890625 19.796875 65.390625 23.796875 65.390625
L 33.90625 65.390625
C 46.796875 65.390625 50.5 58.046875 50.5 49.796875
C 50.5 40.75 46.09375 34.09375 33.90625 34.09375
z
" id="CMR17-80"/>
       <path d="M 5.203125 68
L 5.203125 65.390625
C 12.09375 65.390625 13.203125 65.390625 13.203125 60.90625
L 13.203125 7.078125
C 13.203125 2.59375 12.09375 2.59375 5.203125 2.59375
L 5.203125 0
L 37 0
C 53.09375 0 66 14.734375 66 33.4375
C 66 52.25 53.296875 68 37 68
z
M 23.796875 2.59375
C 19.796875 2.59375 19.59375 3.09375 19.59375 6.46875
L 19.59375 61.5
C 19.59375 64.890625 19.796875 65.390625 23.796875 65.390625
L 35 65.390625
C 43.296875 65.390625 58.59375 60.515625 58.59375 33.4375
C 58.59375 19.40625 54.5 13.734375 52.59375 11.046875
C 50.203125 7.96875 44.5 2.59375 35 2.59375
z
" id="CMR17-68"/>
       <path d="M 54.40625 67.796875
L 5.09375 67.796875
L 5.09375 65.1875
C 12 65.1875 13.09375 65.1875 13.09375 60.671875
L 13.09375 7.03125
C 13.09375 2.59375 12 2.59375 5.09375 2.59375
L 5.09375 0
C 8 0.1875 13.59375 0.1875 16.703125 0.1875
C 20.796875 0.1875 25.59375 0.1875 29.703125 0
L 29.703125 2.59375
L 27.5 2.59375
C 19.90625 2.59375 19.703125 3.578125 19.703125 7.125
L 19.703125 32.390625
L 28.703125 32.390625
C 38 32.390625 38.90625 29.140625 38.90625 20.84375
L 40.703125 20.84375
L 40.703125 46.734375
L 38.90625 46.734375
C 38.90625 38.296875 38 35 28.703125 35
L 19.703125 35
L 19.703125 61.28125
C 19.703125 64.6875 19.90625 65.1875 23.90625 65.1875
L 36.796875 65.1875
C 51.90625 65.1875 53.59375 58.96875 55 45.625
L 56.796875 45.625
z
" id="CMR17-70"/>
      </defs>
      <use transform="scale(0.996264)" xlink:href="#CMR17-80"/>
      <use transform="translate(62.586301 0)scale(0.996264)" xlink:href="#CMR17-68"/>
      <use transform="translate(132.979856 0)scale(0.996264)" xlink:href="#CMR17-70"/>
     </g>
    </g>
   </g>
   <g id="line2d_17">
    <path clip-path="url(#pb99b12817b)" d="M 43.327984 313.346418
L 51.694583 304.875432
L 60.061182 296.732913
L 67.987434 289.321937
L 75.913686 282.205763
L 83.839938 275.38439
L 91.766189 268.857818
L 99.692441 262.626048
L 107.618693 256.689078
L 115.104598 251.35263
L 122.590502 246.279137
L 130.076407 241.4686
L 137.562311 236.921018
L 145.048216 232.636391
L 152.53412 228.61472
L 160.020025 224.856004
L 167.065582 221.558598
L 174.111139 218.494121
L 181.156696 215.662573
L 188.202253 213.063955
L 195.247811 210.698266
L 202.293368 208.565506
L 209.338925 206.665676
L 216.384482 204.998775
L 223.430039 203.564804
L 230.475597 202.363762
L 237.521154 201.395649
L 244.566711 200.660466
L 251.612268 200.158212
L 258.657825 199.888887
L 265.703382 199.852492
L 272.74894 200.049026
L 279.794497 200.47849
L 286.840054 201.140883
L 293.885611 202.036205
L 300.931168 203.164456
L 307.976726 204.525637
L 315.022283 206.119748
L 322.06784 207.946788
L 329.113397 210.006757
L 336.158954 212.299655
L 343.204511 214.825483
L 350.250069 217.58424
L 357.295626 220.575927
L 364.341183 223.800543
L 371.38674 227.258088
L 378.872645 231.186952
L 386.358549 235.378771
L 393.844454 239.833545
L 401.330358 244.551274
L 408.816263 249.53196
L 416.302167 254.7756
L 423.788072 260.282196
L 431.273976 266.051747
L 439.200228 272.447296
L 447.12648 279.137647
L 455.052732 286.122798
L 462.978984 293.402751
L 470.905235 300.977505
L 478.831487 308.84706
L 483.234961 313.346418
L 483.234961 313.346418
" style="fill:none;stroke:#40e0d0;stroke-linecap:square;stroke-width:1.5;"/>
   </g>
   <g id="line2d_18">
    <path clip-path="url(#pb99b12817b)" d="M 43.327984 313.346418
L 124.351891 313.238674
L 138.883353 312.990232
L 149.451689 312.595621
L 157.818288 312.069689
L 164.863845 311.418599
L 171.469055 310.581881
L 177.19357 309.636863
L 182.477738 308.547564
L 187.321559 307.336499
L 192.165379 305.893664
L 196.568853 304.3565
L 200.972326 302.581341
L 204.935452 300.761263
L 208.898578 298.713002
L 212.861704 296.419816
L 216.824829 293.865262
L 220.787955 291.033417
L 224.751081 287.909127
L 228.714207 284.478257
L 232.677333 280.727971
L 236.640459 276.647008
L 240.603585 272.225979
L 244.566711 267.457661
L 248.529837 262.337302
L 252.492963 256.862921
L 256.456089 251.035605
L 260.859562 244.152398
L 265.263035 236.850418
L 270.106856 228.355454
L 274.950676 219.406925
L 280.234844 209.1771
L 286.399707 196.71541
L 293.445264 181.945822
L 318.104714 129.713997
L 322.948535 120.206167
L 327.352008 112.035957
L 331.315134 105.157259
L 334.837912 99.484992
L 337.920344 94.907709
L 341.002775 90.728573
L 343.644859 87.490423
L 346.286943 84.593042
L 348.929027 82.057875
L 351.130763 80.236898
L 353.3325 78.693391
L 355.534237 77.438393
L 357.735973 76.482388
L 359.497362 75.939509
L 361.258752 75.599045
L 363.020141 75.465423
L 364.78153 75.542744
L 366.54292 75.834755
L 368.304309 76.34483
L 370.065698 77.075944
L 371.827088 78.030654
L 373.588477 79.211069
L 375.349866 80.618835
L 377.551603 82.699969
L 379.753339 85.139243
L 381.955076 87.936477
L 384.156813 91.090118
L 386.358549 94.597183
L 389.000633 99.265769
L 391.642717 104.426084
L 394.284801 110.06414
L 397.367232 117.222273
L 400.449664 124.973172
L 403.972442 134.505221
L 407.495221 144.687909
L 411.458347 156.818477
L 416.302167 172.425039
L 422.46703 193.108538
L 434.796755 234.683332
L 439.200228 248.713112
L 443.163354 260.600385
L 446.686133 270.414835
L 449.768564 278.316976
L 452.410648 284.51947
L 455.052732 290.150496
L 457.254468 294.381206
L 459.456205 298.175405
L 461.657942 301.52265
L 463.859678 304.41822
L 465.621068 306.410441
L 467.382457 308.118887
L 469.143846 309.551167
L 470.905235 310.718531
L 472.666625 311.636208
L 474.428014 312.323761
L 476.189403 312.805456
L 478.39114 313.16335
L 481.033224 313.328373
L 483.234961 313.346418
L 483.234961 313.346418
" style="fill:none;stroke:#ff00ff;stroke-linecap:square;stroke-width:1.5;"/>
   </g>
   <g id="line2d_19">
    <path clip-path="url(#pb99b12817b)" d="M 43.327984 313.346418
L 127.434323 313.235766
L 141.08509 312.980084
L 150.772731 312.582032
L 158.258635 312.067017
L 164.863845 311.397688
L 170.58836 310.604019
L 175.872528 309.652078
L 180.716349 308.557526
L 185.119822 307.347482
L 189.523295 305.903164
L 193.486421 304.378127
L 197.449547 302.616215
L 201.412673 300.594172
L 204.935452 298.559433
L 208.45823 296.28416
L 211.981009 293.752172
L 215.503788 290.947766
L 219.026566 287.85595
L 222.549345 284.46269
L 226.072123 280.755169
L 229.594902 276.722063
L 233.11768 272.353813
L 236.640459 267.64291
L 240.163238 262.584179
L 244.126364 256.474268
L 248.089489 249.921728
L 252.052615 242.932415
L 256.015741 235.517726
L 260.419215 226.801596
L 265.263035 216.67182
L 270.106856 206.030719
L 275.831371 192.89673
L 282.876928 176.115353
L 304.0136 125.289312
L 308.85742 114.437936
L 313.260893 105.132268
L 316.783672 98.163223
L 320.306451 91.690437
L 323.388882 86.486751
L 326.030966 82.403384
L 328.67305 78.696574
L 331.315134 75.392497
L 333.51687 72.964858
L 335.718607 70.848121
L 337.920344 69.05536
L 340.12208 67.598831
L 341.883469 66.683352
L 343.644859 65.995702
L 345.406248 65.540804
L 347.167637 65.323116
L 348.929027 65.346612
L 350.690416 65.614745
L 352.451805 66.130429
L 354.213195 66.89601
L 355.974584 67.913246
L 357.735973 69.183281
L 359.497362 70.706624
L 361.258752 72.483133
L 363.460488 75.058477
L 365.662225 78.024963
L 367.863962 81.377762
L 370.065698 85.11029
L 372.707782 90.078657
L 375.349866 95.563807
L 377.99195 101.544112
L 381.074381 109.112925
L 384.156813 117.274468
L 387.679591 127.259234
L 391.642717 139.222496
L 396.04619 153.254224
L 401.770706 172.312586
L 418.063557 227.161822
L 422.46703 240.975937
L 426.430156 252.665958
L 429.952934 262.341874
L 433.035366 270.18203
L 436.117797 277.385105
L 438.759881 283.022224
L 441.401965 288.14488
L 444.044049 292.742524
L 446.245785 296.170351
L 448.447522 299.233541
L 450.649259 301.938163
L 452.850995 304.294104
L 455.052732 306.315029
L 457.254468 308.01828
L 459.456205 309.424685
L 461.657942 310.558285
L 463.859678 311.445963
L 466.061415 312.116953
L 468.703499 312.679816
L 471.78593 313.072308
L 475.308709 313.278634
L 481.033224 313.345964
L 483.234961 313.346418
L 483.234961 313.346418
" style="fill:none;stroke:#a070e8;stroke-linecap:square;stroke-width:1.5;"/>
   </g>
   <g id="patch_3">
    <path d="M 43.327984 313.346418
L 43.327984 10.659249
" style="fill:none;stroke:#000000;stroke-linecap:square;stroke-linejoin:miter;stroke-width:0.8;"/>
   </g>
   <g id="patch_4">
    <path d="M 483.234961 313.346418
L 483.234961 10.659249
" style="fill:none;stroke:#000000;stroke-linecap:square;stroke-linejoin:miter;stroke-width:0.8;"/>
   </g>
   <g id="patch_5">
    <path d="M 43.327984 313.346418
L 483.234961 313.346418
" style="fill:none;stroke:#000000;stroke-linecap:square;stroke-linejoin:miter;stroke-width:0.8;"/>
   </g>
   <g id="patch_6">
    <path d="M 43.327984 10.659249
L 483.234961 10.659249
" style="fill:none;stroke:#000000;stroke-linecap:square;stroke-linejoin:miter;stroke-width:0.8;"/>
   </g>
   <g id="text_18">
    <!-- $\hat{\theta}_{\mathrm{MAP}}$ -->
    <g transform="translate(329.367917 331.904136)scale(0.18 -0.18)">
     <defs>
      <path d="M 22.90625 69
L 10.59375 55.1875
L 11.796875 54
L 22.90625 64.984375
L 34 54
L 35.203125 55.1875
z
" id="CMR17-94"/>
      <path d="M 20.90625 66.390625
C 20.296875 67.890625 20.203125 68 18.09375 68
L 5.296875 68
L 5.296875 65.390625
C 12.203125 65.390625 13.296875 65.390625 13.296875 60.90625
L 13.296875 9.75
C 13.296875 7.265625 13.296875 2.59375 5.296875 2.59375
L 5.296875 0
C 7.59375 0.1875 11.796875 0.1875 14.296875 0.1875
C 16.796875 0.1875 21 0.1875 23.296875 0
L 23.296875 2.59375
C 15.296875 2.59375 15.296875 7.265625 15.296875 9.75
L 15.296875 64.984375
L 15.40625 64.984375
L 38.90625 1.59375
C 39.296875 0.59375 39.5 0 40.296875 0
C 41.09375 0 41.296875 0.59375 41.703125 1.59375
L 65.40625 65.484375
L 65.5 65.484375
L 65.5 7.078125
C 65.5 2.59375 64.40625 2.59375 57.5 2.59375
L 57.5 0
C 60.203125 0.1875 65.59375 0.1875 68.5 0.1875
C 71.40625 0.1875 76.90625 0.1875 79.59375 0
L 79.59375 2.59375
C 72.703125 2.59375 71.59375 2.59375 71.59375 7.078125
L 71.59375 60.90625
C 71.59375 65.390625 72.703125 65.390625 79.59375 65.390625
L 79.59375 68
L 66.90625 68
C 64.796875 68 64.703125 67.890625 64.09375 66.390625
L 42.5 8.0625
z
" id="CMR17-77"/>
      <path d="M 36.296875 69.390625
C 35.796875 70.6875 35.59375 71 34.59375 71
C 33.59375 71 33.40625 70.6875 32.90625 69.390625
L 11.703125 9.0625
C 9.796875 3.6875 5.796875 2.59375 2.296875 2.59375
L 2.296875 0
C 4.09375 0.1875 8.09375 0.1875 10 0.1875
C 12.5 0.1875 16.5 0.1875 18.90625 0
L 18.90625 2.59375
C 14.203125 2.796875 13.5 5.96875 13.5 7.171875
C 13.5 8.0625 13.703125 8.5625 13.90625 9.15625
L 19.203125 24
L 45.40625 24
L 51.40625 7.078125
C 51.90625 5.875 51.90625 5.671875 51.90625 5.28125
C 51.90625 2.59375 47.59375 2.59375 45.703125 2.59375
L 45.703125 0
C 48.59375 0.1875 53.796875 0.1875 56.90625 0.1875
C 59.5 0.1875 64.5 0.1875 66.90625 0
L 66.90625 2.59375
C 61.59375 2.59375 59.796875 2.59375 58.5 6.28125
z
M 32.296875 61.3125
L 44.5 26.59375
L 20.09375 26.59375
z
" id="CMR17-65"/>
     </defs>
     <use transform="translate(9.368676 26.296621)scale(0.996264)" xlink:href="#CMR17-94"/>
     <use transform="scale(0.996264)" xlink:href="#CMMI12-18"/>
     <use transform="translate(45.45979 -14.943915)scale(0.697382)" xlink:href="#CMR17-77"/>
     <use transform="translate(104.740387 -14.943915)scale(0.697382)" xlink:href="#CMR17-65"/>
     <use transform="translate(153.090872 -14.943915)scale(0.697382)" xlink:href="#CMR17-80"/>
    </g>
   </g>
   <g id="legend_1">
    <g id="patch_7">
     <path d="M 51.727984 73.422637
L 212.550962 73.422637
Q 214.950962 73.422637 214.950962 71.022637
L 214.950962 19.059249
Q 214.950962 16.659249 212.550962 16.659249
L 51.727984 16.659249
Q 49.327984 16.659249 49.327984 19.059249
L 49.327984 71.022637
Q 49.327984 73.422637 51.727984 73.422637
z
" style="fill:none;opacity:0;"/>
    </g>
    <g id="line2d_20">
     <path d="M 54.127984 26.377374
L 78.127984 26.377374
" style="fill:none;stroke:#40e0d0;stroke-linecap:square;stroke-width:1.5;"/>
    </g>
    <g id="line2d_21"/>
    <g id="text_19">
     <!-- Prior -->
     <g transform="translate(87.727984 30.577374)scale(0.12 -0.12)">
      <defs>
       <path d="M 15 23.703125
C 15 33.34375 19.09375 42.390625 26.59375 42.390625
C 27.296875 42.390625 28 42.296875 28.703125 41.984375
C 28.703125 41.984375 26.5 41.28125 26.5 38.671875
C 26.5 36.265625 28.40625 35.265625 29.90625 35.265625
C 31.09375 35.265625 33.296875 35.96875 33.296875 38.78125
C 33.296875 41.984375 30.09375 44 26.703125 44
C 19.09375 44 15.796875 36.5625 14.796875 33.046875
L 14.703125 33.046875
L 14.703125 44
L 3.09375 42.890625
L 3.09375 40.28125
C 9 40.28125 9.90625 39.6875 9.90625 34.859375
L 9.90625 6.921875
C 9.90625 3.09375 9.5 2.59375 3.09375 2.59375
L 3.09375 0
C 5.5 0.1875 10.09375 0.1875 12.703125 0.1875
C 15.59375 0.1875 20.703125 0.1875 23.40625 0
L 23.40625 2.59375
C 16.203125 2.59375 15 2.59375 15 7.109375
z
" id="CMR17-114"/>
       <path d="M 15.5 61.890625
C 15.5 64.09375 13.703125 66 11.40625 66
C 9.203125 66 7.296875 64.1875 7.296875 61.890625
C 7.296875 59.6875 9.09375 57.796875 11.40625 57.796875
C 13.59375 57.796875 15.5 59.59375 15.5 61.890625
z
M 3.796875 42.890625
L 3.796875 40.296875
C 9.40625 40.296875 10.203125 39.6875 10.203125 34.859375
L 10.203125 6.921875
C 10.203125 3.09375 9.796875 2.59375 3.40625 2.59375
L 3.40625 0
C 5.796875 0.1875 10.09375 0.1875 12.59375 0.1875
C 15 0.1875 19.09375 0.1875 21.40625 0
L 21.40625 2.59375
C 15.5 2.59375 15.296875 3.203125 15.296875 6.8125
L 15.296875 44
z
" id="CMR17-105"/>
       <path d="M 43.09375 21.1875
C 43.09375 34 33.796875 44 22.90625 44
C 12 44 2.703125 34 2.703125 21.1875
C 2.703125 8.59375 12 -1 22.90625 -1
C 33.796875 -1 43.09375 8.59375 43.09375 21.1875
z
M 22.90625 0.796875
C 18.203125 0.796875 14.203125 3.59375 11.90625 7.5
C 9.40625 12 9.09375 17.59375 9.09375 22
C 9.09375 26.1875 9.296875 31.390625 11.90625 35.890625
C 13.90625 39.1875 17.796875 42.390625 22.90625 42.390625
C 27.40625 42.390625 31.203125 39.890625 33.59375 36.390625
C 36.703125 31.6875 36.703125 25.09375 36.703125 22
C 36.703125 18.09375 36.5 12.09375 33.796875 7.296875
C 31 2.6875 26.703125 0.796875 22.90625 0.796875
z
" id="CMR17-111"/>
      </defs>
      <use transform="scale(0.996264)" xlink:href="#CMR17-80"/>
      <use transform="translate(62.586301 0)scale(0.996264)" xlink:href="#CMR17-114"/>
      <use transform="translate(97.867068 0)scale(0.996264)" xlink:href="#CMR17-105"/>
      <use transform="translate(122.738127 0)scale(0.996264)" xlink:href="#CMR17-111"/>
      <use transform="translate(168.428604 0)scale(0.996264)" xlink:href="#CMR17-114"/>
     </g>
    </g>
    <g id="line2d_22">
     <path d="M 54.127984 43.991124
L 78.127984 43.991124
" style="fill:none;stroke:#ff00ff;stroke-linecap:square;stroke-width:1.5;"/>
    </g>
    <g id="line2d_23"/>
    <g id="text_20">
     <!-- Likelihood (normalized) -->
     <g transform="translate(87.727984 48.191124)scale(0.12 -0.12)">
      <defs>
       <path d="M 54.203125 25.1875
L 52.40625 25.1875
C 51.59375 15.328125 50.296875 2.59375 33.203125 2.59375
L 23.90625 2.59375
C 19.90625 2.59375 19.703125 3.09375 19.703125 6.46875
L 19.703125 60.8125
C 19.703125 64.390625 19.90625 65.390625 27.5 65.390625
L 29.703125 65.390625
L 29.703125 68
C 25.59375 67.796875 20.796875 67.796875 16.703125 67.796875
C 13.59375 67.796875 8 67.796875 5.09375 68
L 5.09375 65.390625
C 12 65.390625 13.09375 65.390625 13.09375 60.90625
L 13.09375 7.078125
C 13.09375 2.59375 12 2.59375 5.09375 2.59375
L 5.09375 0
L 51.796875 0
z
" id="CMR17-76"/>
       <path d="M 26.09375 26.234375
C 26 26.4375 25.5 27.03125 25.5 27.328125
C 25.5 27.53125 32.59375 33.984375 33.5 34.78125
C 39.203125 39.5625 42.796875 40.046875 45.40625 40.15625
L 45.40625 42.734375
C 44.796875 42.734375 44.59375 42.734375 44.5 42.640625
L 39.59375 42.53125
C 36.796875 42.53125 32.5 42.53125 29.796875 42.734375
L 29.796875 40.15625
C 31.203125 40.046875 32.203125 39.265625 32.203125 37.859375
C 32.203125 35.875 30.203125 33.984375 30.09375 33.984375
L 15 20.28125
L 15 69
L 3.09375 67.890625
L 3.09375 65.296875
C 9 65.296875 9.90625 64.703125 9.90625 59.921875
L 9.90625 6.859375
C 9.90625 3.09375 9.5 2.59375 3.09375 2.59375
L 3.09375 0
C 5.5 0.1875 9.90625 0.1875 12.40625 0.1875
C 14.90625 0.1875 19.296875 0.1875 21.703125 0
L 21.703125 2.59375
C 15.296875 2.59375 14.90625 2.984375 14.90625 6.859375
L 14.90625 17.796875
L 21.796875 24.0625
L 31.90625 9.15625
C 33.09375 7.359375 34.09375 5.96875 34.09375 4.671875
C 34.09375 2.890625 32.296875 2.59375 31.09375 2.59375
L 31.09375 0
C 33.5 0.1875 37.796875 0.1875 40.296875 0.1875
C 42.09375 0.1875 45.796875 0.09375 47.5 0
L 47.5 2.59375
C 42.796875 2.59375 41.703125 3.484375 38.703125 7.859375
z
" id="CMR17-107"/>
       <path d="M 38.09375 23.484375
C 38.5 23.890625 38.5 24.09375 38.5 25.09375
C 38.5 35.171875 33.09375 44 21.703125 44
C 11.09375 44 2.703125 33.984375 2.703125 21.78125
C 2.703125 8.65625 12.203125 -1 22.796875 -1
C 34 -1 38.40625 9.671875 38.40625 11.796875
C 38.40625 12.5 37.796875 12.5 37.59375 12.5
C 36.90625 12.5 36.796875 12.296875 36.40625 11.078125
C 34.203125 4.21875 28.703125 0.796875 23.5 0.796875
C 19.203125 0.796875 14.90625 3.21875 12.203125 7.65625
C 9.09375 12.796875 9.09375 18.75 9.09375 23.484375
z
M 9.203125 25
C 9.90625 39.234375 17.59375 42.390625 21.59375 42.390625
C 28.40625 42.390625 33 36.0625 33.09375 25
z
" id="CMR17-101"/>
       <path d="M 15.296875 69
L 3.40625 67.890625
L 3.40625 65.296875
C 9.296875 65.296875 10.203125 64.703125 10.203125 59.921875
L 10.203125 6.859375
C 10.203125 3.09375 9.796875 2.59375 3.40625 2.59375
L 3.40625 0
C 5.796875 0.1875 10.203125 0.1875 12.703125 0.1875
C 15.296875 0.1875 19.703125 0.1875 22.09375 0
L 22.09375 2.59375
C 15.703125 2.59375 15.296875 2.984375 15.296875 6.859375
z
" id="CMR17-108"/>
       <path d="M 41.5 30.53125
C 41.5 35.65625 40.5 44 28.703125 44
C 20.5 44 16.5 37.375 15.296875 34.046875
L 15.203125 34.046875
L 15.203125 69
L 3.296875 67.890625
L 3.296875 65.296875
C 9.203125 65.296875 10.09375 64.703125 10.09375 60.046875
L 10.09375 6.921875
C 10.09375 3.09375 9.703125 2.59375 3.296875 2.59375
L 3.296875 0
C 5.703125 0.1875 10.09375 0.1875 12.703125 0.1875
C 15.296875 0.1875 19.796875 0.1875 22.203125 0
L 22.203125 2.59375
C 15.796875 2.59375 15.40625 3 15.40625 6.921875
L 15.40625 26.21875
C 15.40625 35.453125 21 42.390625 28 42.390625
C 35.40625 42.390625 36.203125 35.765625 36.203125 30.9375
L 36.203125 6.921875
C 36.203125 3.09375 35.796875 2.59375 29.40625 2.59375
L 29.40625 0
C 31.796875 0.1875 36.203125 0.1875 38.796875 0.1875
C 41.40625 0.1875 45.90625 0.1875 48.296875 0
L 48.296875 2.59375
C 41.90625 2.59375 41.5 3 41.5 6.921875
z
" id="CMR17-104"/>
       <path d="M 29.203125 67.890625
L 29.203125 65.296875
C 35.09375 65.296875 36 64.703125 36 60.046875
L 36 37.046875
C 35.59375 37.546875 31.5 44 23.40625 44
C 13.203125 44 3.296875 34.8125 3.296875 21.5
C 3.296875 8.265625 12.59375 -1 22.40625 -1
C 30.90625 -1 35.296875 5.640625 35.796875 6.34375
L 35.796875 -1
L 47.90625 -0.203125
L 47.90625 2.40625
C 42 2.40625 41.09375 3.015625 41.09375 7.859375
L 41.09375 69
z
M 35.796875 11.90625
C 35.796875 8.875 34 6.140625 31.703125 4.125
C 28.296875 1.09375 24.90625 0.59375 23 0.59375
C 20.09375 0.59375 9.703125 2.109375 9.703125 21.390625
C 9.703125 41.1875 21.296875 42.390625 23.90625 42.390625
C 28.5 42.390625 32.203125 39.765625 34.5 36.140625
C 35.796875 34.015625 35.796875 33.703125 35.796875 31.890625
z
" id="CMR17-100"/>
       <path d="M 30.59375 -24.40625
C 30.59375 -24.3125 30.59375 -24.109375 30.296875 -23.8125
C 25.703125 -19.109375 13.40625 -6.296875 13.40625 24.9375
C 13.40625 56.171875 25.5 68.875 30.40625 73.890625
C 30.40625 73.984375 30.59375 74.1875 30.59375 74.484375
C 30.59375 74.796875 30.296875 75 29.90625 75
C 28.796875 75 20.296875 67.578125 15.40625 56.5625
C 10.40625 45.453125 9 34.65625 9 25.046875
C 9 17.828125 9.703125 5.625 15.703125 -7.296875
C 20.5 -17.703125 28.703125 -25 29.90625 -25
C 30.40625 -25 30.59375 -24.8125 30.59375 -24.40625
z
" id="CMR17-40"/>
       <path d="M 41.5 30.53125
C 41.5 35.65625 40.5 44 28.703125 44
C 20.796875 44 16.703125 37.875 15.203125 33.84375
L 15.09375 33.84375
L 15.09375 44
L 3.296875 42.890625
L 3.296875 40.28125
C 9.203125 40.28125 10.09375 39.6875 10.09375 34.859375
L 10.09375 6.921875
C 10.09375 3.09375 9.703125 2.59375 3.296875 2.59375
L 3.296875 0
C 5.703125 0.1875 10.09375 0.1875 12.703125 0.1875
C 15.296875 0.1875 19.796875 0.1875 22.203125 0
L 22.203125 2.59375
C 15.796875 2.59375 15.40625 3 15.40625 6.921875
L 15.40625 26.21875
C 15.40625 35.453125 21 42.390625 28 42.390625
C 35.40625 42.390625 36.203125 35.765625 36.203125 30.9375
L 36.203125 6.921875
C 36.203125 3.09375 35.796875 2.59375 29.40625 2.59375
L 29.40625 0
C 31.796875 0.1875 36.203125 0.1875 38.796875 0.1875
C 41.40625 0.1875 45.90625 0.1875 48.296875 0
L 48.296875 2.59375
C 41.90625 2.59375 41.5 3 41.5 6.921875
z
" id="CMR17-110"/>
       <path d="M 67.59375 30.53125
C 67.59375 35.5625 66.703125 44 54.796875 44
C 48 44 43.296875 39.375 41.5 33.953125
L 41.40625 33.953125
C 40.203125 42.1875 34.296875 44 28.703125 44
C 20.796875 44 16.703125 37.875 15.203125 33.84375
L 15.09375 33.84375
L 15.09375 44
L 3.296875 42.890625
L 3.296875 40.28125
C 9.203125 40.28125 10.09375 39.6875 10.09375 34.859375
L 10.09375 6.921875
C 10.09375 3.09375 9.703125 2.59375 3.296875 2.59375
L 3.296875 0
C 5.703125 0.1875 10.09375 0.1875 12.703125 0.1875
C 15.296875 0.1875 19.796875 0.1875 22.203125 0
L 22.203125 2.59375
C 15.796875 2.59375 15.40625 3 15.40625 6.921875
L 15.40625 26.21875
C 15.40625 35.453125 21 42.390625 28 42.390625
C 35.40625 42.390625 36.203125 35.765625 36.203125 30.9375
L 36.203125 6.921875
C 36.203125 3.09375 35.796875 2.59375 29.40625 2.59375
L 29.40625 0
C 31.796875 0.1875 36.203125 0.1875 38.796875 0.1875
C 41.40625 0.1875 45.90625 0.1875 48.296875 0
L 48.296875 2.59375
C 41.90625 2.59375 41.5 3 41.5 6.921875
L 41.5 26.21875
C 41.5 35.453125 47.09375 42.390625 54.09375 42.390625
C 61.5 42.390625 62.296875 35.765625 62.296875 30.9375
L 62.296875 6.921875
C 62.296875 3.09375 61.90625 2.59375 55.5 2.59375
L 55.5 0
C 57.90625 0.1875 62.296875 0.1875 64.90625 0.1875
C 67.5 0.1875 72 0.1875 74.40625 0
L 74.40625 2.59375
C 68 2.59375 67.59375 3 67.59375 6.921875
z
" id="CMR17-109"/>
       <path d="M 36 25.875
C 36 32 36 35.546875 31.796875 39.59375
C 28.09375 42.984375 23.796875 44 20.40625 44
C 12.5 44 6.796875 37.625 6.796875 30.890625
C 6.796875 27.1875 9.796875 27 10.40625 27
C 11.703125 27 14 27.796875 14 30.59375
C 14 33.09375 12.09375 34.1875 10.40625 34.1875
C 10 34.1875 9.5 34.09375 9.203125 34
C 11.296875 40.53125 16.703125 42.390625 20.203125 42.390625
C 25.203125 42.390625 30.703125 37.828125 30.703125 29.296875
L 30.703125 25.5
C 24.796875 25.296875 17.703125 24.5 12.09375 21.453125
C 5.796875 17.921875 4 12.84375 4 9
C 4 1.203125 13 -1 18.296875 -1
C 23.796875 -1 28.90625 2.109375 31.09375 7.890625
C 31.296875 3.421875 34.09375 -0.609375 38.5 -0.609375
C 40.59375 -0.609375 45.90625 0.796875 45.90625 8.796875
L 45.90625 14.46875
L 44.09375 14.46875
L 44.09375 8.703125
C 44.09375 2.515625 41.40625 1.703125 40.09375 1.703125
C 36 1.703125 36 6.96875 36 11.4375
z
M 30.703125 13.859375
C 30.703125 5.046875 24.5 0.59375 19 0.59375
C 14 0.59375 10.09375 4.34375 10.09375 9
C 10.09375 12.046875 11.40625 17.40625 17.203125 20.65625
C 22 23.390625 27.5 23.796875 30.703125 24
z
" id="CMR17-97"/>
       <path d="M 36.09375 40.6875
C 36.90625 41.6875 36.90625 41.890625 36.90625 42.09375
C 36.90625 43 36.5 43 34.703125 43
L 4.296875 43
L 3.296875 27.5
L 5.09375 27.5
C 5.796875 37.1875 6.90625 41.390625 18.40625 41.390625
L 30.59375 41.390625
L 2 1.5
C 2 0.09375 2.09375 0 4.203125 0
L 35.796875 0
L 37.203125 18
L 35.40625 18
C 34.59375 6.890625 33.296875 1.796875 21.09375 1.796875
L 8.296875 1.796875
z
" id="CMR17-122"/>
       <path d="M 26.296875 24.9375
C 26.296875 32.140625 25.59375 44.359375 19.59375 57.265625
C 14.796875 67.6875 6.59375 75 5.40625 75
C 5.09375 75 4.703125 74.890625 4.703125 74.390625
C 4.703125 74.1875 4.796875 74.09375 4.90625 73.890625
C 9.703125 68.875 21.90625 56.171875 21.90625 25.046875
C 21.90625 -6.1875 9.796875 -18.90625 4.90625 -23.90625
C 4.796875 -24.109375 4.703125 -24.203125 4.703125 -24.40625
C 4.703125 -24.90625 5.09375 -25 5.40625 -25
C 6.5 -25 15 -17.609375 19.90625 -6.59375
C 24.90625 4.515625 26.296875 15.328125 26.296875 24.9375
z
" id="CMR17-41"/>
      </defs>
      <use transform="scale(0.996264)" xlink:href="#CMR17-76"/>
      <use transform="translate(57.381408 0)scale(0.996264)" xlink:href="#CMR17-105"/>
      <use transform="translate(82.252466 0)scale(0.996264)" xlink:href="#CMR17-107"/>
      <use transform="translate(127.942928 0)scale(0.996264)" xlink:href="#CMR17-101"/>
      <use transform="translate(168.428589 0)scale(0.996264)" xlink:href="#CMR17-108"/>
      <use transform="translate(193.299647 0)scale(0.996264)" xlink:href="#CMR17-105"/>
      <use transform="translate(218.170706 0)scale(0.996264)" xlink:href="#CMR17-104"/>
      <use transform="translate(269.066075 0)scale(0.996264)" xlink:href="#CMR17-111"/>
      <use transform="translate(317.358991 0)scale(0.996264)" xlink:href="#CMR17-111"/>
      <use transform="translate(365.651907 0)scale(0.996264)" xlink:href="#CMR17-100"/>
      <use transform="translate(446.623243 0)scale(0.996264)" xlink:href="#CMR17-40"/>
      <use transform="translate(481.904011 0)scale(0.996264)" xlink:href="#CMR17-110"/>
      <use transform="translate(532.799381 0)scale(0.996264)" xlink:href="#CMR17-111"/>
      <use transform="translate(578.489858 0)scale(0.996264)" xlink:href="#CMR17-114"/>
      <use transform="translate(613.770626 0)scale(0.996264)" xlink:href="#CMR17-109"/>
      <use transform="translate(690.690216 0)scale(0.996264)" xlink:href="#CMR17-97"/>
      <use transform="translate(736.380693 0)scale(0.996264)" xlink:href="#CMR17-108"/>
      <use transform="translate(761.251751 0)scale(0.996264)" xlink:href="#CMR17-105"/>
      <use transform="translate(786.12281 0)scale(0.996264)" xlink:href="#CMR17-122"/>
      <use transform="translate(826.60847 0)scale(0.996264)" xlink:href="#CMR17-101"/>
      <use transform="translate(867.094131 0)scale(0.996264)" xlink:href="#CMR17-100"/>
      <use transform="translate(917.9895 0)scale(0.996264)" xlink:href="#CMR17-41"/>
     </g>
    </g>
    <g id="line2d_24">
     <path d="M 54.127984 62.098041
L 78.127984 62.098041
" style="fill:none;stroke:#a070e8;stroke-linecap:square;stroke-width:1.5;"/>
    </g>
    <g id="line2d_25"/>
    <g id="text_21">
     <!-- Posterior -->
     <g transform="translate(87.727984 66.298041)scale(0.12 -0.12)">
      <defs>
       <path d="M 30.90625 42
C 30.90625 43.796875 30.796875 43.890625 30.203125 43.890625
C 29.796875 43.890625 29.703125 43.796875 28.5 42.296875
C 28.203125 41.890625 27.296875 40.890625 27 40.5
C 23.796875 43.890625 19.296875 44 17.59375 44
C 6.5 44 2.5 38.1875 2.5 32.390625
C 2.5 23.390625 12.703125 21.296875 15.59375 20.6875
C 21.90625 19.390625 24.09375 19 26.203125 17.1875
C 27.5 16 29.703125 13.796875 29.703125 10.1875
C 29.703125 6 27.296875 0.59375 18.09375 0.59375
C 9.40625 0.59375 6.296875 7.1875 4.5 16
C 4.203125 17.390625 4.203125 17.5 3.40625 17.5
C 2.59375 17.5 2.5 17.390625 2.5 15.390625
L 2.5 1
C 2.5 -0.8125 2.59375 -0.90625 3.203125 -0.90625
C 3.703125 -0.90625 3.796875 -0.8125 4.296875 0
C 4.90625 0.890625 6.40625 3.296875 7 4.296875
C 9 1.59375 12.5 -1 18.09375 -1
C 28 -1 33.296875 4.390625 33.296875 12.1875
C 33.296875 17.296875 30.59375 20 29.296875 21.1875
C 26.296875 24.296875 22.796875 25 18.59375 25.796875
C 13.09375 27 6.09375 28.390625 6.09375 34.5
C 6.09375 37.09375 7.5 42.59375 17.59375 42.59375
C 28.296875 42.59375 28.90625 32.59375 29.09375 29.390625
C 29.203125 28.890625 29.703125 28.796875 30 28.796875
C 30.90625 28.796875 30.90625 29.09375 30.90625 30.796875
z
" id="CMR17-115"/>
       <path d="M 15.09375 40.390625
L 29.09375 40.390625
L 29.09375 43
L 15.09375 43
L 15.09375 62
L 13.296875 62
C 13.09375 51.4375 9.59375 42.1875 1.09375 41.984375
L 1.09375 40.390625
L 9.796875 40.390625
L 9.796875 12.15625
C 9.796875 10.234375 9.796875 -1 21.40625 -1
C 27.296875 -1 30.703125 4.8125 30.703125 12.25
L 30.703125 17.984375
L 28.90625 17.984375
L 28.90625 12.34375
C 28.90625 5.421875 26.203125 0.796875 22 0.796875
C 19.09375 0.796875 15.09375 2.796875 15.09375 11.953125
z
" id="CMR17-116"/>
      </defs>
      <use transform="scale(0.996264)" xlink:href="#CMR17-80"/>
      <use transform="translate(59.983847 0)scale(0.996264)" xlink:href="#CMR17-111"/>
      <use transform="translate(105.674324 0)scale(0.996264)" xlink:href="#CMR17-115"/>
      <use transform="translate(141.475661 0)scale(0.996264)" xlink:href="#CMR17-116"/>
      <use transform="translate(176.756429 0)scale(0.996264)" xlink:href="#CMR17-101"/>
      <use transform="translate(217.24209 0)scale(0.996264)" xlink:href="#CMR17-114"/>
      <use transform="translate(252.522857 0)scale(0.996264)" xlink:href="#CMR17-105"/>
      <use transform="translate(277.393916 0)scale(0.996264)" xlink:href="#CMR17-111"/>
      <use transform="translate(323.084393 0)scale(0.996264)" xlink:href="#CMR17-114"/>
     </g>
    </g>
   </g>
  </g>
 </g>
 <defs>
  <clipPath id="pb99b12817b">
   <rect height="302.687169" width="439.906977" x="43.327984" y="10.659249"/>
  </clipPath>
 </defs>
</svg>
