<?xml version="1.0" encoding="utf-8" standalone="no"?>
<!DOCTYPE svg PUBLIC "-//W3C//DTD SVG 1.1//EN"
  "http://www.w3.org/Graphics/SVG/1.1/DTD/svg11.dtd">
<!-- Created with matplotlib (https://matplotlib.org/) -->
<svg height="248.887198pt" version="1.1" viewBox="0 0 704.027172 248.887198" width="704.027172pt" xmlns="http://www.w3.org/2000/svg" xmlns:xlink="http://www.w3.org/1999/xlink">
 <metadata>
  <rdf:RDF xmlns:cc="http://creativecommons.org/ns#" xmlns:dc="http://purl.org/dc/elements/1.1/" xmlns:rdf="http://www.w3.org/1999/02/22-rdf-syntax-ns#">
   <cc:Work>
    <dc:type rdf:resource="http://purl.org/dc/dcmitype/StillImage"/>
    <dc:date>2021-03-30T17:59:25.777445</dc:date>
    <dc:format>image/svg+xml</dc:format>
    <dc:creator>
     <cc:Agent>
      <dc:title>Matplotlib v3.3.4, https://matplotlib.org/</dc:title>
     </cc:Agent>
    </dc:creator>
   </cc:Work>
  </rdf:RDF>
 </metadata>
 <defs>
  <style type="text/css">*{stroke-linecap:butt;stroke-linejoin:round;}</style>
 </defs>
 <g id="figure_1">
  <g id="patch_1">
   <path d="M 0 248.887198
L 704.027172 248.887198
L 704.027172 0
L 0 0
z
" style="fill:#ffffff;"/>
  </g>
  <g id="axes_1">
   <g id="patch_2">
    <path d="M 23.430079 229.331521
L 229.875724 229.331521
L 229.875724 22.885876
L 23.430079 22.885876
z
" style="fill:#ffffff;"/>
   </g>
   <g id="matplotlib.axis_1">
    <g id="xtick_1">
     <g id="line2d_1">
      <path clip-path="url(#paadc350561)" d="M 40.633883 229.331521
L 40.633883 22.885876
" style="fill:none;stroke:#b0b0b0;stroke-dasharray:0.5,0.825;stroke-dashoffset:0;stroke-width:0.5;"/>
     </g>
     <g id="line2d_2"/>
     <g id="line2d_3"/>
     <g id="text_1">
      <!-- $\mathdefault{−3}$ -->
      <g transform="translate(34.268843 239.75002)scale(0.1 -0.1)">
       <defs>
        <path d="M 65.90625 23
C 67.59375 23 69.40625 23 69.40625 25
C 69.40625 27 67.59375 27 65.90625 27
L 11.796875 27
C 10.09375 27 8.296875 27 8.296875 25
C 8.296875 23 10.09375 23 11.796875 23
z
" id="CMSY10-0"/>
        <path d="M 22.09375 34
C 31 34 34.90625 26.140625 34.90625 17.09375
C 34.90625 5.03125 28.5 0.390625 22.703125 0.390625
C 17.40625 0.390625 8.796875 3.015625 6.09375 10.796875
C 6.59375 10.59375 7.09375 10.59375 7.59375 10.59375
C 10 10.59375 11.796875 12.1875 11.796875 14.796875
C 11.796875 17.6875 9.59375 19 7.59375 19
C 5.90625 19 3.296875 18.1875 3.296875 14.484375
C 3.296875 5.234375 12.296875 -2 22.90625 -2
C 34 -2 42.5 6.75 42.5 16.984375
C 42.5 26.84375 34.5 34 25 35.09375
C 32.59375 36.671875 39.90625 43.375 39.90625 52.390625
C 39.90625 60.25 32 66 23 66
C 13.90625 66 5.90625 60.34375 5.90625 52.296875
C 5.90625 48.796875 8.5 48.1875 9.796875 48.1875
C 11.90625 48.1875 13.703125 49.484375 13.703125 52.09375
C 13.703125 54.6875 11.90625 56 9.796875 56
C 9.40625 56 8.90625 56 8.5 55.796875
C 11.40625 62.484375 19.296875 63.6875 22.796875 63.6875
C 26.296875 63.6875 32.90625 61.96875 32.90625 52.296875
C 32.90625 49.484375 32.5 44.546875 29.09375 40.21875
C 26.09375 36.390625 22.703125 36.1875 19.40625 35.890625
C 18.90625 35.890625 16.59375 35.6875 16.203125 35.6875
C 15.5 35.59375 15.09375 35.5 15.09375 34.796875
C 15.09375 34.09375 15.203125 34 17.203125 34
z
" id="CMR17-51"/>
       </defs>
       <use transform="scale(0.996264)" xlink:href="#CMSY10-0"/>
       <use transform="translate(77.487468 0)scale(0.996264)" xlink:href="#CMR17-51"/>
      </g>
     </g>
    </g>
    <g id="xtick_2">
     <g id="line2d_4">
      <path clip-path="url(#paadc350561)" d="M 69.306889 229.331521
L 69.306889 22.885876
" style="fill:none;stroke:#b0b0b0;stroke-dasharray:0.5,0.825;stroke-dashoffset:0;stroke-width:0.5;"/>
     </g>
     <g id="line2d_5"/>
     <g id="line2d_6"/>
     <g id="text_2">
      <!-- $\mathdefault{−2}$ -->
      <g transform="translate(62.941849 239.75002)scale(0.1 -0.1)">
       <defs>
        <path d="M 41.703125 15.46875
L 39.90625 15.46875
C 38.90625 8.390625 38.09375 7.1875 37.703125 6.59375
C 37.203125 5.796875 30 5.796875 28.59375 5.796875
L 9.40625 5.796875
C 13 9.6875 20 16.765625 28.5 24.9375
C 34.59375 30.71875 41.703125 37.5 41.703125 47.390625
C 41.703125 59.1875 32.296875 66 21.796875 66
C 10.796875 66 4.09375 56.296875 4.09375 47.296875
C 4.09375 43.390625 7 42.890625 8.203125 42.890625
C 9.203125 42.890625 12.203125 43.484375 12.203125 46.984375
C 12.203125 50.09375 9.59375 51 8.203125 51
C 7.59375 51 7 50.890625 6.59375 50.6875
C 8.5 59.1875 14.296875 63.390625 20.40625 63.390625
C 29.09375 63.390625 34.796875 56.5 34.796875 47.390625
C 34.796875 38.703125 29.703125 31.21875 24 24.734375
L 4.09375 2.296875
L 4.09375 0
L 39.296875 0
z
" id="CMR17-50"/>
       </defs>
       <use transform="scale(0.996264)" xlink:href="#CMSY10-0"/>
       <use transform="translate(77.487468 0)scale(0.996264)" xlink:href="#CMR17-50"/>
      </g>
     </g>
    </g>
    <g id="xtick_3">
     <g id="line2d_7">
      <path clip-path="url(#paadc350561)" d="M 97.979895 229.331521
L 97.979895 22.885876
" style="fill:none;stroke:#b0b0b0;stroke-dasharray:0.5,0.825;stroke-dashoffset:0;stroke-width:0.5;"/>
     </g>
     <g id="line2d_8"/>
     <g id="line2d_9"/>
     <g id="text_3">
      <!-- $\mathdefault{−1}$ -->
      <g transform="translate(91.614856 239.75002)scale(0.1 -0.1)">
       <defs>
        <path d="M 26.59375 63.796875
C 26.59375 65.890625 26.5 66 25.09375 66
C 21.203125 61.359375 15.296875 59.890625 9.703125 59.6875
C 9.40625 59.6875 8.90625 59.6875 8.796875 59.5
C 8.703125 59.296875 8.703125 59.09375 8.703125 57
C 11.796875 57 17 57.59375 21 59.984375
L 21 7.296875
C 21 3.796875 20.796875 2.59375 12.203125 2.59375
L 9.203125 2.59375
L 9.203125 0
C 14 0.09375 19 0.1875 23.796875 0.1875
C 28.59375 0.1875 33.59375 0.09375 38.40625 0
L 38.40625 2.59375
L 35.40625 2.59375
C 26.796875 2.59375 26.59375 3.6875 26.59375 7.296875
z
" id="CMR17-49"/>
       </defs>
       <use transform="scale(0.996264)" xlink:href="#CMSY10-0"/>
       <use transform="translate(77.487468 0)scale(0.996264)" xlink:href="#CMR17-49"/>
      </g>
     </g>
    </g>
    <g id="xtick_4">
     <g id="line2d_10">
      <path clip-path="url(#paadc350561)" d="M 126.652901 229.331521
L 126.652901 22.885876
" style="fill:none;stroke:#b0b0b0;stroke-dasharray:0.5,0.825;stroke-dashoffset:0;stroke-width:0.5;"/>
     </g>
     <g id="line2d_11"/>
     <g id="line2d_12"/>
     <g id="text_4">
      <!-- $\mathdefault{0}$ -->
      <g transform="translate(124.162234 239.75002)scale(0.1 -0.1)">
       <defs>
        <path d="M 42 31.84375
C 42 37.96875 41.90625 48.421875 37.703125 56.453125
C 34 63.484375 28.09375 66 22.90625 66
C 18.09375 66 12 63.78125 8.203125 56.5625
C 4.203125 49.015625 3.796875 39.671875 3.796875 31.84375
C 3.796875 26.109375 3.90625 17.375 7 9.734375
C 11.296875 -0.609375 19 -2 22.90625 -2
C 27.5 -2 34.5 -0.109375 38.59375 9.4375
C 41.59375 16.375 42 24.5 42 31.84375
z
M 22.90625 -0.40625
C 16.5 -0.40625 12.703125 5.125 11.296875 12.75
C 10.203125 18.6875 10.203125 27.328125 10.203125 32.953125
C 10.203125 40.6875 10.203125 47.109375 11.5 53.234375
C 13.40625 61.78125 19 64.390625 22.90625 64.390625
C 27 64.390625 32.296875 61.671875 34.203125 53.4375
C 35.5 47.71875 35.59375 40.984375 35.59375 32.953125
C 35.59375 26.421875 35.59375 18.375 34.40625 12.453125
C 32.296875 1.5 26.40625 -0.40625 22.90625 -0.40625
z
" id="CMR17-48"/>
       </defs>
       <use transform="scale(0.996264)" xlink:href="#CMR17-48"/>
      </g>
     </g>
    </g>
    <g id="xtick_5">
     <g id="line2d_13">
      <path clip-path="url(#paadc350561)" d="M 155.325908 229.331521
L 155.325908 22.885876
" style="fill:none;stroke:#b0b0b0;stroke-dasharray:0.5,0.825;stroke-dashoffset:0;stroke-width:0.5;"/>
     </g>
     <g id="line2d_14"/>
     <g id="line2d_15"/>
     <g id="text_5">
      <!-- $\mathdefault{1}$ -->
      <g transform="translate(152.83524 239.75002)scale(0.1 -0.1)">
       <use transform="scale(0.996264)" xlink:href="#CMR17-49"/>
      </g>
     </g>
    </g>
    <g id="xtick_6">
     <g id="line2d_16">
      <path clip-path="url(#paadc350561)" d="M 183.998914 229.331521
L 183.998914 22.885876
" style="fill:none;stroke:#b0b0b0;stroke-dasharray:0.5,0.825;stroke-dashoffset:0;stroke-width:0.5;"/>
     </g>
     <g id="line2d_17"/>
     <g id="line2d_18"/>
     <g id="text_6">
      <!-- $\mathdefault{2}$ -->
      <g transform="translate(181.508246 239.75002)scale(0.1 -0.1)">
       <use transform="scale(0.996264)" xlink:href="#CMR17-50"/>
      </g>
     </g>
    </g>
    <g id="xtick_7">
     <g id="line2d_19">
      <path clip-path="url(#paadc350561)" d="M 212.67192 229.331521
L 212.67192 22.885876
" style="fill:none;stroke:#b0b0b0;stroke-dasharray:0.5,0.825;stroke-dashoffset:0;stroke-width:0.5;"/>
     </g>
     <g id="line2d_20"/>
     <g id="line2d_21"/>
     <g id="text_7">
      <!-- $\mathdefault{3}$ -->
      <g transform="translate(210.181253 239.75002)scale(0.1 -0.1)">
       <use transform="scale(0.996264)" xlink:href="#CMR17-51"/>
      </g>
     </g>
    </g>
   </g>
   <g id="matplotlib.axis_2">
    <g id="ytick_1">
     <g id="line2d_22">
      <path clip-path="url(#paadc350561)" d="M 23.430079 212.127718
L 229.875724 212.127718
" style="fill:none;stroke:#b0b0b0;stroke-dasharray:0.5,0.825;stroke-dashoffset:0;stroke-width:0.5;"/>
     </g>
     <g id="line2d_23"/>
     <g id="line2d_24"/>
     <g id="text_8">
      <!-- $\mathdefault{−3}$ -->
      <g transform="translate(7.2 215.586967)scale(0.1 -0.1)">
       <use transform="scale(0.996264)" xlink:href="#CMSY10-0"/>
       <use transform="translate(77.487468 0)scale(0.996264)" xlink:href="#CMR17-51"/>
      </g>
     </g>
    </g>
    <g id="ytick_2">
     <g id="line2d_25">
      <path clip-path="url(#paadc350561)" d="M 23.430079 183.454711
L 229.875724 183.454711
" style="fill:none;stroke:#b0b0b0;stroke-dasharray:0.5,0.825;stroke-dashoffset:0;stroke-width:0.5;"/>
     </g>
     <g id="line2d_26"/>
     <g id="line2d_27"/>
     <g id="text_9">
      <!-- $\mathdefault{−2}$ -->
      <g transform="translate(7.2 186.913961)scale(0.1 -0.1)">
       <use transform="scale(0.996264)" xlink:href="#CMSY10-0"/>
       <use transform="translate(77.487468 0)scale(0.996264)" xlink:href="#CMR17-50"/>
      </g>
     </g>
    </g>
    <g id="ytick_3">
     <g id="line2d_28">
      <path clip-path="url(#paadc350561)" d="M 23.430079 154.781705
L 229.875724 154.781705
" style="fill:none;stroke:#b0b0b0;stroke-dasharray:0.5,0.825;stroke-dashoffset:0;stroke-width:0.5;"/>
     </g>
     <g id="line2d_29"/>
     <g id="line2d_30"/>
     <g id="text_10">
      <!-- $\mathdefault{−1}$ -->
      <g transform="translate(7.2 158.240954)scale(0.1 -0.1)">
       <use transform="scale(0.996264)" xlink:href="#CMSY10-0"/>
       <use transform="translate(77.487468 0)scale(0.996264)" xlink:href="#CMR17-49"/>
      </g>
     </g>
    </g>
    <g id="ytick_4">
     <g id="line2d_31">
      <path clip-path="url(#paadc350561)" d="M 23.430079 126.108699
L 229.875724 126.108699
" style="fill:none;stroke:#b0b0b0;stroke-dasharray:0.5,0.825;stroke-dashoffset:0;stroke-width:0.5;"/>
     </g>
     <g id="line2d_32"/>
     <g id="line2d_33"/>
     <g id="text_11">
      <!-- $\mathdefault{0}$ -->
      <g transform="translate(14.948744 129.567948)scale(0.1 -0.1)">
       <use transform="scale(0.996264)" xlink:href="#CMR17-48"/>
      </g>
     </g>
    </g>
    <g id="ytick_5">
     <g id="line2d_34">
      <path clip-path="url(#paadc350561)" d="M 23.430079 97.435693
L 229.875724 97.435693
" style="fill:none;stroke:#b0b0b0;stroke-dasharray:0.5,0.825;stroke-dashoffset:0;stroke-width:0.5;"/>
     </g>
     <g id="line2d_35"/>
     <g id="line2d_36"/>
     <g id="text_12">
      <!-- $\mathdefault{1}$ -->
      <g transform="translate(14.948744 100.894942)scale(0.1 -0.1)">
       <use transform="scale(0.996264)" xlink:href="#CMR17-49"/>
      </g>
     </g>
    </g>
    <g id="ytick_6">
     <g id="line2d_37">
      <path clip-path="url(#paadc350561)" d="M 23.430079 68.762686
L 229.875724 68.762686
" style="fill:none;stroke:#b0b0b0;stroke-dasharray:0.5,0.825;stroke-dashoffset:0;stroke-width:0.5;"/>
     </g>
     <g id="line2d_38"/>
     <g id="line2d_39"/>
     <g id="text_13">
      <!-- $\mathdefault{2}$ -->
      <g transform="translate(14.948744 72.221936)scale(0.1 -0.1)">
       <use transform="scale(0.996264)" xlink:href="#CMR17-50"/>
      </g>
     </g>
    </g>
    <g id="ytick_7">
     <g id="line2d_40">
      <path clip-path="url(#paadc350561)" d="M 23.430079 40.08968
L 229.875724 40.08968
" style="fill:none;stroke:#b0b0b0;stroke-dasharray:0.5,0.825;stroke-dashoffset:0;stroke-width:0.5;"/>
     </g>
     <g id="line2d_41"/>
     <g id="line2d_42"/>
     <g id="text_14">
      <!-- $\mathdefault{3}$ -->
      <g transform="translate(14.948744 43.548929)scale(0.1 -0.1)">
       <use transform="scale(0.996264)" xlink:href="#CMR17-51"/>
      </g>
     </g>
    </g>
   </g>
   <g id="patch_3">
    <path clip-path="url(#paadc350561)" d="M 110.000309 136.697689
C 105.790284 139.299627 101.996162 142.190208 99.453554 144.732815
C 96.910946 147.275422 95.827445 149.262463 96.44168 150.256315
C 97.055914 151.250167 99.317734 151.169687 102.729 150.032599
C 106.140266 148.89551 110.422463 146.794652 114.632488 144.192715
C 118.842513 141.590777 122.636635 138.700196 125.179242 136.157589
C 127.72185 133.614982 128.805351 131.627941 128.191117 130.634089
C 127.576883 129.640237 125.315063 129.720717 121.903797 130.857806
C 118.492531 131.994894 114.210333 134.095752 110.000309 136.697689
z
" style="fill:#ff00ff;opacity:0.2;"/>
   </g>
   <g id="patch_4">
    <path clip-path="url(#paadc350561)" d="M 107.684219 132.950177
C 99.26417 138.154052 91.675926 143.935214 86.59071 149.020428
C 81.505495 154.105643 79.338492 158.079725 80.566961 160.067429
C 81.795429 162.055133 86.319069 161.894172 93.141601 159.619995
C 99.964133 157.345818 108.528528 153.144103 116.948578 147.940228
C 125.368627 142.736352 132.956871 136.95519 138.042086 131.869976
C 143.127302 126.784761 145.294304 122.810679 144.065836 120.822975
C 142.837368 118.835271 138.313728 118.996232 131.491196 121.270409
C 124.668663 123.544586 116.104268 127.746301 107.684219 132.950177
z
" style="fill:#ff00ff;opacity:0.2;"/>
   </g>
   <g id="patch_5">
    <path clip-path="url(#paadc350561)" d="M 105.368129 129.202664
C 92.738055 137.008477 81.35569 145.68022 73.727866 153.308042
C 66.100043 160.935863 62.849539 166.896986 64.692242 169.878542
C 66.534944 172.860098 73.320404 172.618657 83.554203 169.207392
C 93.788001 165.796127 106.634593 159.493553 119.264667 151.68774
C 131.894741 143.881927 143.277107 135.210184 150.90493 127.582363
C 158.532754 119.954541 161.783257 113.993418 159.940555 111.011862
C 158.097852 108.030306 151.312392 108.271748 141.078594 111.683012
C 130.844796 115.094277 117.998203 121.396851 105.368129 129.202664
z
" style="fill:#ff00ff;opacity:0.2;"/>
   </g>
   <g id="patch_6">
    <path clip-path="url(#paadc350561)" d="M 146.070896 110.876965
C 145.03404 104.991586 143.504094 99.440793 141.81801 95.447082
C 140.131926 91.453371 138.427365 89.342811 137.079738 89.580229
C 135.732111 89.817647 134.851445 92.383659 134.631696 96.71313
C 134.411947 101.0426 134.871058 106.782048 135.907913 112.667427
C 136.944769 118.552805 138.474715 124.103599 140.160799 128.09731
C 141.846883 132.091021 143.551444 134.201581 144.899071 133.964162
C 146.246698 133.726744 147.127365 131.160733 147.347113 126.831262
C 147.566862 122.501791 147.107751 116.762343 146.070896 110.876965
z
" style="fill:#40e0d0;opacity:0.2;"/>
   </g>
   <g id="patch_7">
    <path clip-path="url(#paadc350561)" d="M 151.152387 109.981734
C 149.078675 98.210977 146.018783 87.10939 142.646615 79.121968
C 139.274447 71.134546 135.865326 66.913426 133.170071 67.388262
C 130.474817 67.863099 128.713485 72.995122 128.273987 81.654063
C 127.83449 90.313005 128.752711 101.791901 130.826422 113.562658
C 132.900134 125.333414 135.960026 136.435002 139.332194 144.422424
C 142.704362 152.409846 146.113483 156.630965 148.808738 156.156129
C 151.503992 155.681293 153.265325 150.54927 153.704822 141.890328
C 154.144319 133.231387 153.226098 121.752491 151.152387 109.981734
z
" style="fill:#40e0d0;opacity:0.2;"/>
   </g>
   <g id="patch_8">
    <path clip-path="url(#paadc350561)" d="M 156.233878 109.086503
C 153.123311 91.430368 148.533472 74.777987 143.47522 62.796854
C 138.416968 50.815721 133.303286 44.484042 129.260405 45.196296
C 125.217523 45.90855 122.575525 53.606585 121.916279 66.594997
C 121.257033 79.58341 122.634364 96.801754 125.744931 114.457889
C 128.855498 132.114024 133.445337 148.766405 138.503589 160.747538
C 143.561841 172.728671 148.675523 179.06035 152.718404 178.348096
C 156.761286 177.635842 159.403284 169.937807 160.06253 156.949394
C 160.721776 143.960982 159.344445 126.742638 156.233878 109.086503
z
" style="fill:#40e0d0;opacity:0.2;"/>
   </g>
   <g id="patch_9">
    <path clip-path="url(#paadc350561)" d="M 146.070896 110.876965
C 145.03404 104.991586 143.504094 99.440793 141.81801 95.447082
C 140.131926 91.453371 138.427365 89.342811 137.079738 89.580229
C 135.732111 89.817647 134.851445 92.383659 134.631696 96.71313
C 134.411947 101.0426 134.871058 106.782048 135.907913 112.667427
C 136.944769 118.552805 138.474715 124.103599 140.160799 128.09731
C 141.846883 132.091021 143.551444 134.201581 144.899071 133.964162
C 146.246698 133.726744 147.127365 131.160733 147.347113 126.831262
C 147.566862 122.501791 147.107751 116.762343 146.070896 110.876965
z
" style="fill:#40e0d0;opacity:0.1;"/>
   </g>
   <g id="patch_10">
    <path clip-path="url(#paadc350561)" d="M 151.152387 109.981734
C 149.078675 98.210977 146.018783 87.10939 142.646615 79.121968
C 139.274447 71.134546 135.865326 66.913426 133.170071 67.388262
C 130.474817 67.863099 128.713485 72.995122 128.273987 81.654063
C 127.83449 90.313005 128.752711 101.791901 130.826422 113.562658
C 132.900134 125.333414 135.960026 136.435002 139.332194 144.422424
C 142.704362 152.409846 146.113483 156.630965 148.808738 156.156129
C 151.503992 155.681293 153.265325 150.54927 153.704822 141.890328
C 154.144319 133.231387 153.226098 121.752491 151.152387 109.981734
z
" style="fill:#40e0d0;opacity:0.1;"/>
   </g>
   <g id="patch_11">
    <path clip-path="url(#paadc350561)" d="M 156.233878 109.086503
C 153.123311 91.430368 148.533472 74.777987 143.47522 62.796854
C 138.416968 50.815721 133.303286 44.484042 129.260405 45.196296
C 125.217523 45.90855 122.575525 53.606585 121.916279 66.594997
C 121.257033 79.58341 122.634364 96.801754 125.744931 114.457889
C 128.855498 132.114024 133.445337 148.766405 138.503589 160.747538
C 143.561841 172.728671 148.675523 179.06035 152.718404 178.348096
C 156.761286 177.635842 159.403284 169.937807 160.06253 156.949394
C 160.721776 143.960982 159.344445 126.742638 156.233878 109.086503
z
" style="fill:#40e0d0;opacity:0.1;"/>
   </g>
   <g id="patch_12">
    <path clip-path="url(#paadc350561)" d="M 110.000309 136.697689
C 105.790284 139.299627 101.996162 142.190208 99.453554 144.732815
C 96.910946 147.275422 95.827445 149.262463 96.44168 150.256315
C 97.055914 151.250167 99.317734 151.169687 102.729 150.032599
C 106.140266 148.89551 110.422463 146.794652 114.632488 144.192715
C 118.842513 141.590777 122.636635 138.700196 125.179242 136.157589
C 127.72185 133.614982 128.805351 131.627941 128.191117 130.634089
C 127.576883 129.640237 125.315063 129.720717 121.903797 130.857806
C 118.492531 131.994894 114.210333 134.095752 110.000309 136.697689
z
" style="fill:#ff00ff;opacity:0.1;"/>
   </g>
   <g id="patch_13">
    <path clip-path="url(#paadc350561)" d="M 107.684219 132.950177
C 99.26417 138.154052 91.675926 143.935214 86.59071 149.020428
C 81.505495 154.105643 79.338492 158.079725 80.566961 160.067429
C 81.795429 162.055133 86.319069 161.894172 93.141601 159.619995
C 99.964133 157.345818 108.528528 153.144103 116.948578 147.940228
C 125.368627 142.736352 132.956871 136.95519 138.042086 131.869976
C 143.127302 126.784761 145.294304 122.810679 144.065836 120.822975
C 142.837368 118.835271 138.313728 118.996232 131.491196 121.270409
C 124.668663 123.544586 116.104268 127.746301 107.684219 132.950177
z
" style="fill:#ff00ff;opacity:0.1;"/>
   </g>
   <g id="patch_14">
    <path clip-path="url(#paadc350561)" d="M 105.368129 129.202664
C 92.738055 137.008477 81.35569 145.68022 73.727866 153.308042
C 66.100043 160.935863 62.849539 166.896986 64.692242 169.878542
C 66.534944 172.860098 73.320404 172.618657 83.554203 169.207392
C 93.788001 165.796127 106.634593 159.493553 119.264667 151.68774
C 131.894741 143.881927 143.277107 135.210184 150.90493 127.582363
C 158.532754 119.954541 161.783257 113.993418 159.940555 111.011862
C 158.097852 108.030306 151.312392 108.271748 141.078594 111.683012
C 130.844796 115.094277 117.998203 121.396851 105.368129 129.202664
z
" style="fill:#ff00ff;opacity:0.1;"/>
   </g>
   <g id="patch_15">
    <path d="M 23.430079 229.331521
L 23.430079 22.885876
" style="fill:none;stroke:#000000;stroke-linecap:square;stroke-linejoin:miter;stroke-width:0.8;"/>
   </g>
   <g id="patch_16">
    <path d="M 229.875724 229.331521
L 229.875724 22.885876
" style="fill:none;stroke:#000000;stroke-linecap:square;stroke-linejoin:miter;stroke-width:0.8;"/>
   </g>
   <g id="patch_17">
    <path d="M 23.430079 229.331521
L 229.875724 229.331521
" style="fill:none;stroke:#000000;stroke-linecap:square;stroke-linejoin:miter;stroke-width:0.8;"/>
   </g>
   <g id="patch_18">
    <path d="M 23.430079 22.885876
L 229.875724 22.885876
" style="fill:none;stroke:#000000;stroke-linecap:square;stroke-linejoin:miter;stroke-width:0.8;"/>
   </g>
   <g id="text_15">
    <!-- Different covariance matrices -->
    <g transform="translate(40.216821 16.885876)scale(0.14 -0.14)">
     <defs>
      <path d="M 5.203125 68
L 5.203125 65.390625
C 12.09375 65.390625 13.203125 65.390625 13.203125 60.90625
L 13.203125 7.078125
C 13.203125 2.59375 12.09375 2.59375 5.203125 2.59375
L 5.203125 0
L 37 0
C 53.09375 0 66 14.734375 66 33.4375
C 66 52.25 53.296875 68 37 68
z
M 23.796875 2.59375
C 19.796875 2.59375 19.59375 3.09375 19.59375 6.46875
L 19.59375 61.5
C 19.59375 64.890625 19.796875 65.390625 23.796875 65.390625
L 35 65.390625
C 43.296875 65.390625 58.59375 60.515625 58.59375 33.4375
C 58.59375 19.40625 54.5 13.734375 52.59375 11.046875
C 50.203125 7.96875 44.5 2.59375 35 2.59375
z
" id="CMR17-68"/>
      <path d="M 15.5 61.890625
C 15.5 64.09375 13.703125 66 11.40625 66
C 9.203125 66 7.296875 64.1875 7.296875 61.890625
C 7.296875 59.6875 9.09375 57.796875 11.40625 57.796875
C 13.59375 57.796875 15.5 59.59375 15.5 61.890625
z
M 3.796875 42.890625
L 3.796875 40.296875
C 9.40625 40.296875 10.203125 39.6875 10.203125 34.859375
L 10.203125 6.921875
C 10.203125 3.09375 9.796875 2.59375 3.40625 2.59375
L 3.40625 0
C 5.796875 0.1875 10.09375 0.1875 12.59375 0.1875
C 15 0.1875 19.09375 0.1875 21.40625 0
L 21.40625 2.59375
C 15.5 2.59375 15.296875 3.203125 15.296875 6.8125
L 15.296875 44
z
" id="CMR17-105"/>
      <path d="M 39.90625 40.390625
L 51.296875 40.390625
L 51.296875 43
L 39.703125 43
L 39.703125 55
C 39.703125 63.234375 43.90625 68.390625 48.203125 68.390625
C 49.5 68.390625 51 68 52 67.296875
C 51.203125 67.09375 49.09375 66.40625 49.09375 63.921875
C 49.09375 61.34375 51.09375 60.546875 52.5 60.546875
C 53.90625 60.546875 55.90625 61.34375 55.90625 63.921875
C 55.90625 67.703125 52.296875 70 48.296875 70
C 44.40625 70 41.203125 68.09375 38.703125 65.71875
C 36.40625 68.984375 32.59375 70 28.703125 70
C 20.90625 70 9.90625 65.515625 9.90625 54.59375
L 9.90625 43
L 1.90625 43
L 1.90625 40.390625
L 9.90625 40.390625
L 9.90625 6.890625
C 9.90625 3.09375 9.5 2.59375 3.09375 2.59375
L 3.09375 0
C 5.5 0.1875 9.90625 0.1875 12.40625 0.1875
C 15 0.1875 19.40625 0.1875 21.796875 0
L 21.796875 2.59375
C 15.40625 2.59375 15 3 15 6.890625
L 15 40.390625
L 34.796875 40.390625
L 34.796875 6.890625
C 34.796875 3.09375 34.40625 2.59375 28 2.59375
L 28 0
C 30.40625 0.1875 35 0.1875 37.59375 0.1875
C 40.5 0.1875 45.59375 0.1875 48.296875 0
L 48.296875 2.59375
C 41.09375 2.59375 39.90625 2.59375 39.90625 7.09375
z
M 14.796875 43
L 14.796875 54.59375
C 14.796875 63.625 21.796875 68.390625 28.5 68.390625
C 30 68.390625 33.90625 68.09375 36.296875 65.90625
C 34.5 65.8125 32.796875 65.015625 32.796875 62.53125
C 32.796875 59.953125 35.09375 59.265625 35.296875 59.265625
C 34.796875 57.484375 34.796875 55.5 34.796875 54.796875
L 34.796875 43
z
" id="CMR17-11"/>
      <path d="M 38.09375 23.484375
C 38.5 23.890625 38.5 24.09375 38.5 25.09375
C 38.5 35.171875 33.09375 44 21.703125 44
C 11.09375 44 2.703125 33.984375 2.703125 21.78125
C 2.703125 8.65625 12.203125 -1 22.796875 -1
C 34 -1 38.40625 9.671875 38.40625 11.796875
C 38.40625 12.5 37.796875 12.5 37.59375 12.5
C 36.90625 12.5 36.796875 12.296875 36.40625 11.078125
C 34.203125 4.21875 28.703125 0.796875 23.5 0.796875
C 19.203125 0.796875 14.90625 3.21875 12.203125 7.65625
C 9.09375 12.796875 9.09375 18.75 9.09375 23.484375
z
M 9.203125 25
C 9.90625 39.234375 17.59375 42.390625 21.59375 42.390625
C 28.40625 42.390625 33 36.0625 33.09375 25
z
" id="CMR17-101"/>
      <path d="M 15 23.703125
C 15 33.34375 19.09375 42.390625 26.59375 42.390625
C 27.296875 42.390625 28 42.296875 28.703125 41.984375
C 28.703125 41.984375 26.5 41.28125 26.5 38.671875
C 26.5 36.265625 28.40625 35.265625 29.90625 35.265625
C 31.09375 35.265625 33.296875 35.96875 33.296875 38.78125
C 33.296875 41.984375 30.09375 44 26.703125 44
C 19.09375 44 15.796875 36.5625 14.796875 33.046875
L 14.703125 33.046875
L 14.703125 44
L 3.09375 42.890625
L 3.09375 40.28125
C 9 40.28125 9.90625 39.6875 9.90625 34.859375
L 9.90625 6.921875
C 9.90625 3.09375 9.5 2.59375 3.09375 2.59375
L 3.09375 0
C 5.5 0.1875 10.09375 0.1875 12.703125 0.1875
C 15.59375 0.1875 20.703125 0.1875 23.40625 0
L 23.40625 2.59375
C 16.203125 2.59375 15 2.59375 15 7.109375
z
" id="CMR17-114"/>
      <path d="M 41.5 30.53125
C 41.5 35.65625 40.5 44 28.703125 44
C 20.796875 44 16.703125 37.875 15.203125 33.84375
L 15.09375 33.84375
L 15.09375 44
L 3.296875 42.890625
L 3.296875 40.28125
C 9.203125 40.28125 10.09375 39.6875 10.09375 34.859375
L 10.09375 6.921875
C 10.09375 3.09375 9.703125 2.59375 3.296875 2.59375
L 3.296875 0
C 5.703125 0.1875 10.09375 0.1875 12.703125 0.1875
C 15.296875 0.1875 19.796875 0.1875 22.203125 0
L 22.203125 2.59375
C 15.796875 2.59375 15.40625 3 15.40625 6.921875
L 15.40625 26.21875
C 15.40625 35.453125 21 42.390625 28 42.390625
C 35.40625 42.390625 36.203125 35.765625 36.203125 30.9375
L 36.203125 6.921875
C 36.203125 3.09375 35.796875 2.59375 29.40625 2.59375
L 29.40625 0
C 31.796875 0.1875 36.203125 0.1875 38.796875 0.1875
C 41.40625 0.1875 45.90625 0.1875 48.296875 0
L 48.296875 2.59375
C 41.90625 2.59375 41.5 3 41.5 6.921875
z
" id="CMR17-110"/>
      <path d="M 15.09375 40.390625
L 29.09375 40.390625
L 29.09375 43
L 15.09375 43
L 15.09375 62
L 13.296875 62
C 13.09375 51.4375 9.59375 42.1875 1.09375 41.984375
L 1.09375 40.390625
L 9.796875 40.390625
L 9.796875 12.15625
C 9.796875 10.234375 9.796875 -1 21.40625 -1
C 27.296875 -1 30.703125 4.8125 30.703125 12.25
L 30.703125 17.984375
L 28.90625 17.984375
L 28.90625 12.34375
C 28.90625 5.421875 26.203125 0.796875 22 0.796875
C 19.09375 0.796875 15.09375 2.796875 15.09375 11.953125
z
" id="CMR17-116"/>
      <path d="M 34.90625 35
C 33 35 30.203125 35 30.203125 31.484375
C 30.203125 28.6875 32.5 27.890625 33.796875 27.890625
C 34.5 27.890625 37.40625 28.1875 37.40625 31.6875
C 37.40625 38.6875 30.59375 44 22.90625 44
C 12.296875 44 3.296875 34.390625 3.296875 21.546875
C 3.296875 8.140625 12.703125 -1 22.90625 -1
C 35.296875 -1 38.40625 10.5625 38.40625 11.671875
C 38.40625 12.078125 38.296875 12.375 37.59375 12.375
C 36.90625 12.375 36.796875 12.28125 36.40625 10.96875
C 33.796875 2.8125 28.09375 0.796875 23.796875 0.796875
C 17.40625 0.796875 9.703125 6.734375 9.703125 21.640625
C 9.703125 36.84375 17.09375 42.1875 23 42.1875
C 26.90625 42.1875 32.703125 40.34375 34.90625 35
z
" id="CMR17-99"/>
      <path d="M 43.09375 21.1875
C 43.09375 34 33.796875 44 22.90625 44
C 12 44 2.703125 34 2.703125 21.1875
C 2.703125 8.59375 12 -1 22.90625 -1
C 33.796875 -1 43.09375 8.59375 43.09375 21.1875
z
M 22.90625 0.796875
C 18.203125 0.796875 14.203125 3.59375 11.90625 7.5
C 9.40625 12 9.09375 17.59375 9.09375 22
C 9.09375 26.1875 9.296875 31.390625 11.90625 35.890625
C 13.90625 39.1875 17.796875 42.390625 22.90625 42.390625
C 27.40625 42.390625 31.203125 39.890625 33.59375 36.390625
C 36.703125 31.6875 36.703125 25.09375 36.703125 22
C 36.703125 18.09375 36.5 12.09375 33.796875 7.296875
C 31 2.6875 26.703125 0.796875 22.90625 0.796875
z
" id="CMR17-111"/>
      <path d="M 39.09375 33.953125
C 40 36.171875 41.59375 40.1875 47.40625 40.390625
L 47.40625 43
C 45.5 42.890625 43 42.796875 41.09375 42.796875
C 39 42.796875 35.703125 42.796875 33.703125 43
L 33.703125 40.390625
C 36.203125 40.1875 37.59375 38.984375 37.59375 36.375
C 37.59375 35.46875 37.59375 35.265625 37 33.859375
L 26 5.921875
L 14.09375 36.0625
C 13.5 37.375 13.5 37.578125 13.5 37.984375
C 13.5 40.390625 16.796875 40.390625 18.296875 40.390625
L 18.296875 43
C 15.90625 42.796875 11.5 42.796875 9 42.796875
C 6.296875 42.796875 3.203125 42.796875 1 43
L 1 40.390625
C 4.796875 40.390625 6.90625 40.390625 8.09375 37.28125
L 22.59375 0.6875
C 23.203125 -0.8125 23.296875 -1 24.203125 -1
C 25.09375 -1 25.203125 -0.8125 25.796875 0.6875
z
" id="CMR17-118"/>
      <path d="M 36 25.875
C 36 32 36 35.546875 31.796875 39.59375
C 28.09375 42.984375 23.796875 44 20.40625 44
C 12.5 44 6.796875 37.625 6.796875 30.890625
C 6.796875 27.1875 9.796875 27 10.40625 27
C 11.703125 27 14 27.796875 14 30.59375
C 14 33.09375 12.09375 34.1875 10.40625 34.1875
C 10 34.1875 9.5 34.09375 9.203125 34
C 11.296875 40.53125 16.703125 42.390625 20.203125 42.390625
C 25.203125 42.390625 30.703125 37.828125 30.703125 29.296875
L 30.703125 25.5
C 24.796875 25.296875 17.703125 24.5 12.09375 21.453125
C 5.796875 17.921875 4 12.84375 4 9
C 4 1.203125 13 -1 18.296875 -1
C 23.796875 -1 28.90625 2.109375 31.09375 7.890625
C 31.296875 3.421875 34.09375 -0.609375 38.5 -0.609375
C 40.59375 -0.609375 45.90625 0.796875 45.90625 8.796875
L 45.90625 14.46875
L 44.09375 14.46875
L 44.09375 8.703125
C 44.09375 2.515625 41.40625 1.703125 40.09375 1.703125
C 36 1.703125 36 6.96875 36 11.4375
z
M 30.703125 13.859375
C 30.703125 5.046875 24.5 0.59375 19 0.59375
C 14 0.59375 10.09375 4.34375 10.09375 9
C 10.09375 12.046875 11.40625 17.40625 17.203125 20.65625
C 22 23.390625 27.5 23.796875 30.703125 24
z
" id="CMR17-97"/>
      <path d="M 67.59375 30.53125
C 67.59375 35.5625 66.703125 44 54.796875 44
C 48 44 43.296875 39.375 41.5 33.953125
L 41.40625 33.953125
C 40.203125 42.1875 34.296875 44 28.703125 44
C 20.796875 44 16.703125 37.875 15.203125 33.84375
L 15.09375 33.84375
L 15.09375 44
L 3.296875 42.890625
L 3.296875 40.28125
C 9.203125 40.28125 10.09375 39.6875 10.09375 34.859375
L 10.09375 6.921875
C 10.09375 3.09375 9.703125 2.59375 3.296875 2.59375
L 3.296875 0
C 5.703125 0.1875 10.09375 0.1875 12.703125 0.1875
C 15.296875 0.1875 19.796875 0.1875 22.203125 0
L 22.203125 2.59375
C 15.796875 2.59375 15.40625 3 15.40625 6.921875
L 15.40625 26.21875
C 15.40625 35.453125 21 42.390625 28 42.390625
C 35.40625 42.390625 36.203125 35.765625 36.203125 30.9375
L 36.203125 6.921875
C 36.203125 3.09375 35.796875 2.59375 29.40625 2.59375
L 29.40625 0
C 31.796875 0.1875 36.203125 0.1875 38.796875 0.1875
C 41.40625 0.1875 45.90625 0.1875 48.296875 0
L 48.296875 2.59375
C 41.90625 2.59375 41.5 3 41.5 6.921875
L 41.5 26.21875
C 41.5 35.453125 47.09375 42.390625 54.09375 42.390625
C 61.5 42.390625 62.296875 35.765625 62.296875 30.9375
L 62.296875 6.921875
C 62.296875 3.09375 61.90625 2.59375 55.5 2.59375
L 55.5 0
C 57.90625 0.1875 62.296875 0.1875 64.90625 0.1875
C 67.5 0.1875 72 0.1875 74.40625 0
L 74.40625 2.59375
C 68 2.59375 67.59375 3 67.59375 6.921875
z
" id="CMR17-109"/>
      <path d="M 30.90625 42
C 30.90625 43.796875 30.796875 43.890625 30.203125 43.890625
C 29.796875 43.890625 29.703125 43.796875 28.5 42.296875
C 28.203125 41.890625 27.296875 40.890625 27 40.5
C 23.796875 43.890625 19.296875 44 17.59375 44
C 6.5 44 2.5 38.1875 2.5 32.390625
C 2.5 23.390625 12.703125 21.296875 15.59375 20.6875
C 21.90625 19.390625 24.09375 19 26.203125 17.1875
C 27.5 16 29.703125 13.796875 29.703125 10.1875
C 29.703125 6 27.296875 0.59375 18.09375 0.59375
C 9.40625 0.59375 6.296875 7.1875 4.5 16
C 4.203125 17.390625 4.203125 17.5 3.40625 17.5
C 2.59375 17.5 2.5 17.390625 2.5 15.390625
L 2.5 1
C 2.5 -0.8125 2.59375 -0.90625 3.203125 -0.90625
C 3.703125 -0.90625 3.796875 -0.8125 4.296875 0
C 4.90625 0.890625 6.40625 3.296875 7 4.296875
C 9 1.59375 12.5 -1 18.09375 -1
C 28 -1 33.296875 4.390625 33.296875 12.1875
C 33.296875 17.296875 30.59375 20 29.296875 21.1875
C 26.296875 24.296875 22.796875 25 18.59375 25.796875
C 13.09375 27 6.09375 28.390625 6.09375 34.5
C 6.09375 37.09375 7.5 42.59375 17.59375 42.59375
C 28.296875 42.59375 28.90625 32.59375 29.09375 29.390625
C 29.203125 28.890625 29.703125 28.796875 30 28.796875
C 30.90625 28.796875 30.90625 29.09375 30.90625 30.796875
z
" id="CMR17-115"/>
     </defs>
     <use transform="scale(0.996264)" xlink:href="#CMR17-68"/>
     <use transform="translate(70.393556 0)scale(0.996264)" xlink:href="#CMR17-105"/>
     <use transform="translate(95.264614 0)scale(0.996264)" xlink:href="#CMR17-11"/>
     <use transform="translate(147.609292 0)scale(0.996264)" xlink:href="#CMR17-101"/>
     <use transform="translate(188.094952 0)scale(0.996264)" xlink:href="#CMR17-114"/>
     <use transform="translate(223.37572 0)scale(0.996264)" xlink:href="#CMR17-101"/>
     <use transform="translate(263.86138 0)scale(0.996264)" xlink:href="#CMR17-110"/>
     <use transform="translate(312.154296 0)scale(0.996264)" xlink:href="#CMR17-116"/>
     <use transform="translate(377.51103 0)scale(0.996264)" xlink:href="#CMR17-99"/>
     <use transform="translate(417.996691 0)scale(0.996264)" xlink:href="#CMR17-111"/>
     <use transform="translate(461.084714 0)scale(0.996264)" xlink:href="#CMR17-118"/>
     <use transform="translate(504.172813 0)scale(0.996264)" xlink:href="#CMR17-97"/>
     <use transform="translate(549.86329 0)scale(0.996264)" xlink:href="#CMR17-114"/>
     <use transform="translate(585.144058 0)scale(0.996264)" xlink:href="#CMR17-105"/>
     <use transform="translate(610.015117 0)scale(0.996264)" xlink:href="#CMR17-97"/>
     <use transform="translate(655.705594 0)scale(0.996264)" xlink:href="#CMR17-110"/>
     <use transform="translate(706.600964 0)scale(0.996264)" xlink:href="#CMR17-99"/>
     <use transform="translate(747.086624 0)scale(0.996264)" xlink:href="#CMR17-101"/>
     <use transform="translate(817.648251 0)scale(0.996264)" xlink:href="#CMR17-109"/>
     <use transform="translate(894.567841 0)scale(0.996264)" xlink:href="#CMR17-97"/>
     <use transform="translate(940.258318 0)scale(0.996264)" xlink:href="#CMR17-116"/>
     <use transform="translate(975.539086 0)scale(0.996264)" xlink:href="#CMR17-114"/>
     <use transform="translate(1010.819853 0)scale(0.996264)" xlink:href="#CMR17-105"/>
     <use transform="translate(1035.690912 0)scale(0.996264)" xlink:href="#CMR17-99"/>
     <use transform="translate(1076.176572 0)scale(0.996264)" xlink:href="#CMR17-101"/>
     <use transform="translate(1116.662233 0)scale(0.996264)" xlink:href="#CMR17-115"/>
    </g>
   </g>
  </g>
  <g id="axes_2">
   <g id="patch_19">
    <path d="M 256.905803 229.331521
L 463.351448 229.331521
L 463.351448 22.885876
L 256.905803 22.885876
z
" style="fill:#ffffff;"/>
   </g>
   <g id="matplotlib.axis_3">
    <g id="xtick_8">
     <g id="line2d_43">
      <path clip-path="url(#pb22f7c31df)" d="M 274.109607 229.331521
L 274.109607 22.885876
" style="fill:none;stroke:#b0b0b0;stroke-dasharray:0.5,0.825;stroke-dashoffset:0;stroke-width:0.5;"/>
     </g>
     <g id="line2d_44"/>
     <g id="line2d_45"/>
     <g id="text_16">
      <!-- $\mathdefault{−3}$ -->
      <g transform="translate(267.744567 239.75002)scale(0.1 -0.1)">
       <use transform="scale(0.996264)" xlink:href="#CMSY10-0"/>
       <use transform="translate(77.487468 0)scale(0.996264)" xlink:href="#CMR17-51"/>
      </g>
     </g>
    </g>
    <g id="xtick_9">
     <g id="line2d_46">
      <path clip-path="url(#pb22f7c31df)" d="M 302.782613 229.331521
L 302.782613 22.885876
" style="fill:none;stroke:#b0b0b0;stroke-dasharray:0.5,0.825;stroke-dashoffset:0;stroke-width:0.5;"/>
     </g>
     <g id="line2d_47"/>
     <g id="line2d_48"/>
     <g id="text_17">
      <!-- $\mathdefault{−2}$ -->
      <g transform="translate(296.417573 239.75002)scale(0.1 -0.1)">
       <use transform="scale(0.996264)" xlink:href="#CMSY10-0"/>
       <use transform="translate(77.487468 0)scale(0.996264)" xlink:href="#CMR17-50"/>
      </g>
     </g>
    </g>
    <g id="xtick_10">
     <g id="line2d_49">
      <path clip-path="url(#pb22f7c31df)" d="M 331.455619 229.331521
L 331.455619 22.885876
" style="fill:none;stroke:#b0b0b0;stroke-dasharray:0.5,0.825;stroke-dashoffset:0;stroke-width:0.5;"/>
     </g>
     <g id="line2d_50"/>
     <g id="line2d_51"/>
     <g id="text_18">
      <!-- $\mathdefault{−1}$ -->
      <g transform="translate(325.09058 239.75002)scale(0.1 -0.1)">
       <use transform="scale(0.996264)" xlink:href="#CMSY10-0"/>
       <use transform="translate(77.487468 0)scale(0.996264)" xlink:href="#CMR17-49"/>
      </g>
     </g>
    </g>
    <g id="xtick_11">
     <g id="line2d_52">
      <path clip-path="url(#pb22f7c31df)" d="M 360.128625 229.331521
L 360.128625 22.885876
" style="fill:none;stroke:#b0b0b0;stroke-dasharray:0.5,0.825;stroke-dashoffset:0;stroke-width:0.5;"/>
     </g>
     <g id="line2d_53"/>
     <g id="line2d_54"/>
     <g id="text_19">
      <!-- $\mathdefault{0}$ -->
      <g transform="translate(357.637958 239.75002)scale(0.1 -0.1)">
       <use transform="scale(0.996264)" xlink:href="#CMR17-48"/>
      </g>
     </g>
    </g>
    <g id="xtick_12">
     <g id="line2d_55">
      <path clip-path="url(#pb22f7c31df)" d="M 388.801632 229.331521
L 388.801632 22.885876
" style="fill:none;stroke:#b0b0b0;stroke-dasharray:0.5,0.825;stroke-dashoffset:0;stroke-width:0.5;"/>
     </g>
     <g id="line2d_56"/>
     <g id="line2d_57"/>
     <g id="text_20">
      <!-- $\mathdefault{1}$ -->
      <g transform="translate(386.310964 239.75002)scale(0.1 -0.1)">
       <use transform="scale(0.996264)" xlink:href="#CMR17-49"/>
      </g>
     </g>
    </g>
    <g id="xtick_13">
     <g id="line2d_58">
      <path clip-path="url(#pb22f7c31df)" d="M 417.474638 229.331521
L 417.474638 22.885876
" style="fill:none;stroke:#b0b0b0;stroke-dasharray:0.5,0.825;stroke-dashoffset:0;stroke-width:0.5;"/>
     </g>
     <g id="line2d_59"/>
     <g id="line2d_60"/>
     <g id="text_21">
      <!-- $\mathdefault{2}$ -->
      <g transform="translate(414.98397 239.75002)scale(0.1 -0.1)">
       <use transform="scale(0.996264)" xlink:href="#CMR17-50"/>
      </g>
     </g>
    </g>
    <g id="xtick_14">
     <g id="line2d_61">
      <path clip-path="url(#pb22f7c31df)" d="M 446.147644 229.331521
L 446.147644 22.885876
" style="fill:none;stroke:#b0b0b0;stroke-dasharray:0.5,0.825;stroke-dashoffset:0;stroke-width:0.5;"/>
     </g>
     <g id="line2d_62"/>
     <g id="line2d_63"/>
     <g id="text_22">
      <!-- $\mathdefault{3}$ -->
      <g transform="translate(443.656976 239.75002)scale(0.1 -0.1)">
       <use transform="scale(0.996264)" xlink:href="#CMR17-51"/>
      </g>
     </g>
    </g>
   </g>
   <g id="matplotlib.axis_4">
    <g id="ytick_8">
     <g id="line2d_64">
      <path clip-path="url(#pb22f7c31df)" d="M 256.905803 212.127718
L 463.351448 212.127718
" style="fill:none;stroke:#b0b0b0;stroke-dasharray:0.5,0.825;stroke-dashoffset:0;stroke-width:0.5;"/>
     </g>
     <g id="line2d_65"/>
     <g id="line2d_66"/>
     <g id="text_23">
      <!-- $\mathdefault{−3}$ -->
      <g transform="translate(240.675724 215.586967)scale(0.1 -0.1)">
       <use transform="scale(0.996264)" xlink:href="#CMSY10-0"/>
       <use transform="translate(77.487468 0)scale(0.996264)" xlink:href="#CMR17-51"/>
      </g>
     </g>
    </g>
    <g id="ytick_9">
     <g id="line2d_67">
      <path clip-path="url(#pb22f7c31df)" d="M 256.905803 183.454711
L 463.351448 183.454711
" style="fill:none;stroke:#b0b0b0;stroke-dasharray:0.5,0.825;stroke-dashoffset:0;stroke-width:0.5;"/>
     </g>
     <g id="line2d_68"/>
     <g id="line2d_69"/>
     <g id="text_24">
      <!-- $\mathdefault{−2}$ -->
      <g transform="translate(240.675724 186.913961)scale(0.1 -0.1)">
       <use transform="scale(0.996264)" xlink:href="#CMSY10-0"/>
       <use transform="translate(77.487468 0)scale(0.996264)" xlink:href="#CMR17-50"/>
      </g>
     </g>
    </g>
    <g id="ytick_10">
     <g id="line2d_70">
      <path clip-path="url(#pb22f7c31df)" d="M 256.905803 154.781705
L 463.351448 154.781705
" style="fill:none;stroke:#b0b0b0;stroke-dasharray:0.5,0.825;stroke-dashoffset:0;stroke-width:0.5;"/>
     </g>
     <g id="line2d_71"/>
     <g id="line2d_72"/>
     <g id="text_25">
      <!-- $\mathdefault{−1}$ -->
      <g transform="translate(240.675724 158.240954)scale(0.1 -0.1)">
       <use transform="scale(0.996264)" xlink:href="#CMSY10-0"/>
       <use transform="translate(77.487468 0)scale(0.996264)" xlink:href="#CMR17-49"/>
      </g>
     </g>
    </g>
    <g id="ytick_11">
     <g id="line2d_73">
      <path clip-path="url(#pb22f7c31df)" d="M 256.905803 126.108699
L 463.351448 126.108699
" style="fill:none;stroke:#b0b0b0;stroke-dasharray:0.5,0.825;stroke-dashoffset:0;stroke-width:0.5;"/>
     </g>
     <g id="line2d_74"/>
     <g id="line2d_75"/>
     <g id="text_26">
      <!-- $\mathdefault{0}$ -->
      <g transform="translate(248.424468 129.567948)scale(0.1 -0.1)">
       <use transform="scale(0.996264)" xlink:href="#CMR17-48"/>
      </g>
     </g>
    </g>
    <g id="ytick_12">
     <g id="line2d_76">
      <path clip-path="url(#pb22f7c31df)" d="M 256.905803 97.435693
L 463.351448 97.435693
" style="fill:none;stroke:#b0b0b0;stroke-dasharray:0.5,0.825;stroke-dashoffset:0;stroke-width:0.5;"/>
     </g>
     <g id="line2d_77"/>
     <g id="line2d_78"/>
     <g id="text_27">
      <!-- $\mathdefault{1}$ -->
      <g transform="translate(248.424468 100.894942)scale(0.1 -0.1)">
       <use transform="scale(0.996264)" xlink:href="#CMR17-49"/>
      </g>
     </g>
    </g>
    <g id="ytick_13">
     <g id="line2d_79">
      <path clip-path="url(#pb22f7c31df)" d="M 256.905803 68.762686
L 463.351448 68.762686
" style="fill:none;stroke:#b0b0b0;stroke-dasharray:0.5,0.825;stroke-dashoffset:0;stroke-width:0.5;"/>
     </g>
     <g id="line2d_80"/>
     <g id="line2d_81"/>
     <g id="text_28">
      <!-- $\mathdefault{2}$ -->
      <g transform="translate(248.424468 72.221936)scale(0.1 -0.1)">
       <use transform="scale(0.996264)" xlink:href="#CMR17-50"/>
      </g>
     </g>
    </g>
    <g id="ytick_14">
     <g id="line2d_82">
      <path clip-path="url(#pb22f7c31df)" d="M 256.905803 40.08968
L 463.351448 40.08968
" style="fill:none;stroke:#b0b0b0;stroke-dasharray:0.5,0.825;stroke-dashoffset:0;stroke-width:0.5;"/>
     </g>
     <g id="line2d_83"/>
     <g id="line2d_84"/>
     <g id="text_29">
      <!-- $\mathdefault{3}$ -->
      <g transform="translate(248.424468 43.548929)scale(0.1 -0.1)">
       <use transform="scale(0.996264)" xlink:href="#CMR17-51"/>
      </g>
     </g>
    </g>
   </g>
   <g id="patch_20">
    <path clip-path="url(#pb22f7c31df)" d="M 345.792122 149.512403
C 353.396292 149.512403 360.690039 148.557025 366.066999 146.856681
C 371.44396 145.156337 374.465128 142.849852 374.465128 140.445202
C 374.465128 138.040552 371.44396 135.734067 366.066999 134.033723
C 360.690039 132.333379 353.396292 131.378001 345.792122 131.378001
C 338.187952 131.378001 330.894205 132.333379 325.517245 134.033723
C 320.140285 135.734067 317.119116 138.040552 317.119116 140.445202
C 317.119116 142.849852 320.140285 145.156337 325.517245 146.856681
C 330.894205 148.557025 338.187952 149.512403 345.792122 149.512403
z
" style="fill:#ff00ff;opacity:0.2;"/>
   </g>
   <g id="patch_21">
    <path clip-path="url(#pb22f7c31df)" d="M 345.792122 158.579603
C 361.000463 158.579603 375.587956 156.668848 386.341877 153.26816
C 397.095797 149.867472 403.138135 145.254501 403.138135 140.445202
C 403.138135 135.635903 397.095797 131.022932 386.341877 127.622244
C 375.587956 124.221556 361.000463 122.310801 345.792122 122.310801
C 330.583782 122.310801 315.996288 124.221556 305.242368 127.622244
C 294.488447 131.022932 288.44611 135.635903 288.44611 140.445202
C 288.44611 145.254501 294.488447 149.867472 305.242368 153.26816
C 315.996288 156.668848 330.583782 158.579603 345.792122 158.579603
z
" style="fill:#ff00ff;opacity:0.2;"/>
   </g>
   <g id="patch_22">
    <path clip-path="url(#pb22f7c31df)" d="M 345.792122 167.646804
C 368.604633 167.646804 390.485873 164.780672 406.616754 159.679639
C 422.747635 154.578607 431.811141 147.659151 431.811141 140.445202
C 431.811141 133.231253 422.747635 126.311797 406.616754 121.210765
C 390.485873 116.109732 368.604633 113.2436 345.792122 113.2436
C 322.979612 113.2436 301.098372 116.109732 284.967491 121.210765
C 268.83661 126.311797 259.773104 133.231253 259.773104 140.445202
C 259.773104 147.659151 268.83661 154.578607 284.967491 159.679639
C 301.098372 164.780672 322.979612 167.646804 345.792122 167.646804
z
" style="fill:#ff00ff;opacity:0.2;"/>
   </g>
   <g id="patch_23">
    <path clip-path="url(#pb22f7c31df)" d="M 387.288087 111.772196
C 387.288087 106.962896 385.936979 102.349926 383.532329 98.949238
C 381.127679 95.548549 377.865817 93.637795 374.465128 93.637795
C 371.06444 93.637795 367.802578 95.548549 365.397928 98.949238
C 362.993278 102.349926 361.64217 106.962896 361.64217 111.772196
C 361.64217 116.581495 362.993278 121.194466 365.397928 124.595154
C 367.802578 127.995842 371.06444 129.906597 374.465128 129.906597
C 377.865817 129.906597 381.127679 127.995842 383.532329 124.595154
C 385.936979 121.194466 387.288087 116.581495 387.288087 111.772196
z
" style="fill:#40e0d0;opacity:0.2;"/>
   </g>
   <g id="patch_24">
    <path clip-path="url(#pb22f7c31df)" d="M 400.111045 111.772196
C 400.111045 102.153597 397.408829 92.927656 392.59953 86.12628
C 387.79023 79.324903 381.266505 75.503393 374.465128 75.503393
C 367.663752 75.503393 361.140027 79.324903 356.330727 86.12628
C 351.521428 92.927656 348.819212 102.153597 348.819212 111.772196
C 348.819212 121.390795 351.521428 130.616736 356.330727 137.418112
C 361.140027 144.219489 367.663752 148.040998 374.465128 148.040998
C 381.266505 148.040998 387.79023 144.219489 392.59953 137.418112
C 397.408829 130.616736 400.111045 121.390795 400.111045 111.772196
z
" style="fill:#40e0d0;opacity:0.2;"/>
   </g>
   <g id="patch_25">
    <path clip-path="url(#pb22f7c31df)" d="M 412.934003 111.772196
C 412.934003 97.344297 408.880679 83.505386 401.66673 73.303321
C 394.452781 63.101257 384.667193 57.368992 374.465128 57.368992
C 364.263064 57.368992 354.477476 63.101257 347.263527 73.303321
C 340.049578 83.505386 335.996254 97.344297 335.996254 111.772196
C 335.996254 126.200094 340.049578 140.039005 347.263527 150.24107
C 354.477476 160.443135 364.263064 166.1754 374.465128 166.1754
C 384.667193 166.1754 394.452781 160.443135 401.66673 150.24107
C 408.880679 140.039005 412.934003 126.200094 412.934003 111.772196
z
" style="fill:#40e0d0;opacity:0.2;"/>
   </g>
   <g id="patch_26">
    <path clip-path="url(#pb22f7c31df)" d="M 387.288087 111.772196
C 387.288087 106.962896 385.936979 102.349926 383.532329 98.949238
C 381.127679 95.548549 377.865817 93.637795 374.465128 93.637795
C 371.06444 93.637795 367.802578 95.548549 365.397928 98.949238
C 362.993278 102.349926 361.64217 106.962896 361.64217 111.772196
C 361.64217 116.581495 362.993278 121.194466 365.397928 124.595154
C 367.802578 127.995842 371.06444 129.906597 374.465128 129.906597
C 377.865817 129.906597 381.127679 127.995842 383.532329 124.595154
C 385.936979 121.194466 387.288087 116.581495 387.288087 111.772196
z
" style="fill:#40e0d0;opacity:0.1;"/>
   </g>
   <g id="patch_27">
    <path clip-path="url(#pb22f7c31df)" d="M 400.111045 111.772196
C 400.111045 102.153597 397.408829 92.927656 392.59953 86.12628
C 387.79023 79.324903 381.266505 75.503393 374.465128 75.503393
C 367.663752 75.503393 361.140027 79.324903 356.330727 86.12628
C 351.521428 92.927656 348.819212 102.153597 348.819212 111.772196
C 348.819212 121.390795 351.521428 130.616736 356.330727 137.418112
C 361.140027 144.219489 367.663752 148.040998 374.465128 148.040998
C 381.266505 148.040998 387.79023 144.219489 392.59953 137.418112
C 397.408829 130.616736 400.111045 121.390795 400.111045 111.772196
z
" style="fill:#40e0d0;opacity:0.1;"/>
   </g>
   <g id="patch_28">
    <path clip-path="url(#pb22f7c31df)" d="M 412.934003 111.772196
C 412.934003 97.344297 408.880679 83.505386 401.66673 73.303321
C 394.452781 63.101257 384.667193 57.368992 374.465128 57.368992
C 364.263064 57.368992 354.477476 63.101257 347.263527 73.303321
C 340.049578 83.505386 335.996254 97.344297 335.996254 111.772196
C 335.996254 126.200094 340.049578 140.039005 347.263527 150.24107
C 354.477476 160.443135 364.263064 166.1754 374.465128 166.1754
C 384.667193 166.1754 394.452781 160.443135 401.66673 150.24107
C 408.880679 140.039005 412.934003 126.200094 412.934003 111.772196
z
" style="fill:#40e0d0;opacity:0.1;"/>
   </g>
   <g id="patch_29">
    <path clip-path="url(#pb22f7c31df)" d="M 345.792122 149.512403
C 353.396292 149.512403 360.690039 148.557025 366.066999 146.856681
C 371.44396 145.156337 374.465128 142.849852 374.465128 140.445202
C 374.465128 138.040552 371.44396 135.734067 366.066999 134.033723
C 360.690039 132.333379 353.396292 131.378001 345.792122 131.378001
C 338.187952 131.378001 330.894205 132.333379 325.517245 134.033723
C 320.140285 135.734067 317.119116 138.040552 317.119116 140.445202
C 317.119116 142.849852 320.140285 145.156337 325.517245 146.856681
C 330.894205 148.557025 338.187952 149.512403 345.792122 149.512403
z
" style="fill:#ff00ff;opacity:0.1;"/>
   </g>
   <g id="patch_30">
    <path clip-path="url(#pb22f7c31df)" d="M 345.792122 158.579603
C 361.000463 158.579603 375.587956 156.668848 386.341877 153.26816
C 397.095797 149.867472 403.138135 145.254501 403.138135 140.445202
C 403.138135 135.635903 397.095797 131.022932 386.341877 127.622244
C 375.587956 124.221556 361.000463 122.310801 345.792122 122.310801
C 330.583782 122.310801 315.996288 124.221556 305.242368 127.622244
C 294.488447 131.022932 288.44611 135.635903 288.44611 140.445202
C 288.44611 145.254501 294.488447 149.867472 305.242368 153.26816
C 315.996288 156.668848 330.583782 158.579603 345.792122 158.579603
z
" style="fill:#ff00ff;opacity:0.1;"/>
   </g>
   <g id="patch_31">
    <path clip-path="url(#pb22f7c31df)" d="M 345.792122 167.646804
C 368.604633 167.646804 390.485873 164.780672 406.616754 159.679639
C 422.747635 154.578607 431.811141 147.659151 431.811141 140.445202
C 431.811141 133.231253 422.747635 126.311797 406.616754 121.210765
C 390.485873 116.109732 368.604633 113.2436 345.792122 113.2436
C 322.979612 113.2436 301.098372 116.109732 284.967491 121.210765
C 268.83661 126.311797 259.773104 133.231253 259.773104 140.445202
C 259.773104 147.659151 268.83661 154.578607 284.967491 159.679639
C 301.098372 164.780672 322.979612 167.646804 345.792122 167.646804
z
" style="fill:#ff00ff;opacity:0.1;"/>
   </g>
   <g id="patch_32">
    <path d="M 256.905803 229.331521
L 256.905803 22.885876
" style="fill:none;stroke:#000000;stroke-linecap:square;stroke-linejoin:miter;stroke-width:0.8;"/>
   </g>
   <g id="patch_33">
    <path d="M 463.351448 229.331521
L 463.351448 22.885876
" style="fill:none;stroke:#000000;stroke-linecap:square;stroke-linejoin:miter;stroke-width:0.8;"/>
   </g>
   <g id="patch_34">
    <path d="M 256.905803 229.331521
L 463.351448 229.331521
" style="fill:none;stroke:#000000;stroke-linecap:square;stroke-linejoin:miter;stroke-width:0.8;"/>
   </g>
   <g id="patch_35">
    <path d="M 256.905803 22.885876
L 463.351448 22.885876
" style="fill:none;stroke:#000000;stroke-linecap:square;stroke-linejoin:miter;stroke-width:0.8;"/>
   </g>
   <g id="text_30">
    <!-- Diagonal covariance matrices -->
    <g transform="translate(273.313184 16.885876)scale(0.14 -0.14)">
     <defs>
      <path d="M 11.09375 18.203125
C 13 16.6875 16.296875 15 20.296875 15
C 28.203125 15 35 21.234375 35 29.609375
C 35 32.234375 34.203125 36.265625 31.203125 39.390625
C 34 42.390625 38.09375 43.390625 40.40625 43.390625
C 40.796875 43.390625 41.40625 43.390625 41.90625 43.09375
C 41.5 42.984375 40.59375 42.59375 40.59375 40.984375
C 40.59375 39.6875 41.5 38.796875 42.796875 38.796875
C 44.296875 38.796875 45.09375 39.796875 45.09375 41.09375
C 45.09375 42.984375 43.59375 45 40.40625 45
C 36.40625 45 32.90625 43.09375 30.09375 40.484375
C 27.09375 43.1875 23.5 44.1875 20.296875 44.1875
C 12.40625 44.1875 5.59375 37.984375 5.59375 29.609375
C 5.59375 23.859375 8.90625 20.21875 9.90625 19.21875
C 6.90625 15.6875 6.90625 11.59375 6.90625 11.09375
C 6.90625 8.5 7.90625 4.6875 11.296875 2.59375
C 6.09375 1.28125 2 -2.875 2 -8.078125
C 2 -15.5625 11.5 -21 22.90625 -21
C 33.90625 -21 43.796875 -15.765625 43.796875 -7.96875
C 43.796875 6 29 6 21.296875 6
C 19 6 14.90625 6 14.40625 6.09375
C 11.296875 6.59375 9.203125 9.390625 9.203125 12.890625
C 9.203125 13.796875 9.203125 16 11.09375 18.203125
z
M 20.296875 16.6875
C 11.5 16.6875 11.5 27.59375 11.5 29.609375
C 11.5 31.625 11.5 42.484375 20.296875 42.484375
C 29.09375 42.484375 29.09375 31.625 29.09375 29.609375
C 29.09375 27.59375 29.09375 16.6875 20.296875 16.6875
z
M 22.90625 -19.3125
C 12.90625 -19.3125 6 -13.796875 6 -8.078125
C 6 -4.859375 7.703125 -1.84375 9.90625 -0.171875
C 12.40625 1.59375 13.40625 1.59375 20.203125 1.59375
C 28.40625 1.59375 39.796875 1.59375 39.796875 -8.078125
C 39.796875 -13.796875 32.90625 -19.3125 22.90625 -19.3125
z
" id="CMR17-103"/>
      <path d="M 15.296875 69
L 3.40625 67.890625
L 3.40625 65.296875
C 9.296875 65.296875 10.203125 64.703125 10.203125 59.921875
L 10.203125 6.859375
C 10.203125 3.09375 9.796875 2.59375 3.40625 2.59375
L 3.40625 0
C 5.796875 0.1875 10.203125 0.1875 12.703125 0.1875
C 15.296875 0.1875 19.703125 0.1875 22.09375 0
L 22.09375 2.59375
C 15.703125 2.59375 15.296875 2.984375 15.296875 6.859375
z
" id="CMR17-108"/>
     </defs>
     <use transform="scale(0.996264)" xlink:href="#CMR17-68"/>
     <use transform="translate(70.393556 0)scale(0.996264)" xlink:href="#CMR17-105"/>
     <use transform="translate(95.264614 0)scale(0.996264)" xlink:href="#CMR17-97"/>
     <use transform="translate(140.955092 0)scale(0.996264)" xlink:href="#CMR17-103"/>
     <use transform="translate(186.645569 0)scale(0.996264)" xlink:href="#CMR17-111"/>
     <use transform="translate(232.336046 0)scale(0.996264)" xlink:href="#CMR17-110"/>
     <use transform="translate(283.231416 0)scale(0.996264)" xlink:href="#CMR17-97"/>
     <use transform="translate(328.921893 0)scale(0.996264)" xlink:href="#CMR17-108"/>
     <use transform="translate(383.868917 0)scale(0.996264)" xlink:href="#CMR17-99"/>
     <use transform="translate(424.354578 0)scale(0.996264)" xlink:href="#CMR17-111"/>
     <use transform="translate(467.442601 0)scale(0.996264)" xlink:href="#CMR17-118"/>
     <use transform="translate(510.5307 0)scale(0.996264)" xlink:href="#CMR17-97"/>
     <use transform="translate(556.221177 0)scale(0.996264)" xlink:href="#CMR17-114"/>
     <use transform="translate(591.501945 0)scale(0.996264)" xlink:href="#CMR17-105"/>
     <use transform="translate(616.373004 0)scale(0.996264)" xlink:href="#CMR17-97"/>
     <use transform="translate(662.063481 0)scale(0.996264)" xlink:href="#CMR17-110"/>
     <use transform="translate(712.958851 0)scale(0.996264)" xlink:href="#CMR17-99"/>
     <use transform="translate(753.444511 0)scale(0.996264)" xlink:href="#CMR17-101"/>
     <use transform="translate(824.006138 0)scale(0.996264)" xlink:href="#CMR17-109"/>
     <use transform="translate(900.925728 0)scale(0.996264)" xlink:href="#CMR17-97"/>
     <use transform="translate(946.616205 0)scale(0.996264)" xlink:href="#CMR17-116"/>
     <use transform="translate(981.896973 0)scale(0.996264)" xlink:href="#CMR17-114"/>
     <use transform="translate(1017.17774 0)scale(0.996264)" xlink:href="#CMR17-105"/>
     <use transform="translate(1042.048799 0)scale(0.996264)" xlink:href="#CMR17-99"/>
     <use transform="translate(1082.534459 0)scale(0.996264)" xlink:href="#CMR17-101"/>
     <use transform="translate(1123.02012 0)scale(0.996264)" xlink:href="#CMR17-115"/>
    </g>
   </g>
  </g>
  <g id="axes_3">
   <g id="patch_36">
    <path d="M 490.381527 229.331521
L 696.827172 229.331521
L 696.827172 22.885876
L 490.381527 22.885876
z
" style="fill:#ffffff;"/>
   </g>
   <g id="matplotlib.axis_5">
    <g id="xtick_15">
     <g id="line2d_85">
      <path clip-path="url(#p0098d34e58)" d="M 507.585331 229.331521
L 507.585331 22.885876
" style="fill:none;stroke:#b0b0b0;stroke-dasharray:0.5,0.825;stroke-dashoffset:0;stroke-width:0.5;"/>
     </g>
     <g id="line2d_86"/>
     <g id="line2d_87"/>
     <g id="text_31">
      <!-- $\mathdefault{−3}$ -->
      <g transform="translate(501.220291 239.75002)scale(0.1 -0.1)">
       <use transform="scale(0.996264)" xlink:href="#CMSY10-0"/>
       <use transform="translate(77.487468 0)scale(0.996264)" xlink:href="#CMR17-51"/>
      </g>
     </g>
    </g>
    <g id="xtick_16">
     <g id="line2d_88">
      <path clip-path="url(#p0098d34e58)" d="M 536.258337 229.331521
L 536.258337 22.885876
" style="fill:none;stroke:#b0b0b0;stroke-dasharray:0.5,0.825;stroke-dashoffset:0;stroke-width:0.5;"/>
     </g>
     <g id="line2d_89"/>
     <g id="line2d_90"/>
     <g id="text_32">
      <!-- $\mathdefault{−2}$ -->
      <g transform="translate(529.893297 239.75002)scale(0.1 -0.1)">
       <use transform="scale(0.996264)" xlink:href="#CMSY10-0"/>
       <use transform="translate(77.487468 0)scale(0.996264)" xlink:href="#CMR17-50"/>
      </g>
     </g>
    </g>
    <g id="xtick_17">
     <g id="line2d_91">
      <path clip-path="url(#p0098d34e58)" d="M 564.931343 229.331521
L 564.931343 22.885876
" style="fill:none;stroke:#b0b0b0;stroke-dasharray:0.5,0.825;stroke-dashoffset:0;stroke-width:0.5;"/>
     </g>
     <g id="line2d_92"/>
     <g id="line2d_93"/>
     <g id="text_33">
      <!-- $\mathdefault{−1}$ -->
      <g transform="translate(558.566304 239.75002)scale(0.1 -0.1)">
       <use transform="scale(0.996264)" xlink:href="#CMSY10-0"/>
       <use transform="translate(77.487468 0)scale(0.996264)" xlink:href="#CMR17-49"/>
      </g>
     </g>
    </g>
    <g id="xtick_18">
     <g id="line2d_94">
      <path clip-path="url(#p0098d34e58)" d="M 593.604349 229.331521
L 593.604349 22.885876
" style="fill:none;stroke:#b0b0b0;stroke-dasharray:0.5,0.825;stroke-dashoffset:0;stroke-width:0.5;"/>
     </g>
     <g id="line2d_95"/>
     <g id="line2d_96"/>
     <g id="text_34">
      <!-- $\mathdefault{0}$ -->
      <g transform="translate(591.113682 239.75002)scale(0.1 -0.1)">
       <use transform="scale(0.996264)" xlink:href="#CMR17-48"/>
      </g>
     </g>
    </g>
    <g id="xtick_19">
     <g id="line2d_97">
      <path clip-path="url(#p0098d34e58)" d="M 622.277356 229.331521
L 622.277356 22.885876
" style="fill:none;stroke:#b0b0b0;stroke-dasharray:0.5,0.825;stroke-dashoffset:0;stroke-width:0.5;"/>
     </g>
     <g id="line2d_98"/>
     <g id="line2d_99"/>
     <g id="text_35">
      <!-- $\mathdefault{1}$ -->
      <g transform="translate(619.786688 239.75002)scale(0.1 -0.1)">
       <use transform="scale(0.996264)" xlink:href="#CMR17-49"/>
      </g>
     </g>
    </g>
    <g id="xtick_20">
     <g id="line2d_100">
      <path clip-path="url(#p0098d34e58)" d="M 650.950362 229.331521
L 650.950362 22.885876
" style="fill:none;stroke:#b0b0b0;stroke-dasharray:0.5,0.825;stroke-dashoffset:0;stroke-width:0.5;"/>
     </g>
     <g id="line2d_101"/>
     <g id="line2d_102"/>
     <g id="text_36">
      <!-- $\mathdefault{2}$ -->
      <g transform="translate(648.459694 239.75002)scale(0.1 -0.1)">
       <use transform="scale(0.996264)" xlink:href="#CMR17-50"/>
      </g>
     </g>
    </g>
    <g id="xtick_21">
     <g id="line2d_103">
      <path clip-path="url(#p0098d34e58)" d="M 679.623368 229.331521
L 679.623368 22.885876
" style="fill:none;stroke:#b0b0b0;stroke-dasharray:0.5,0.825;stroke-dashoffset:0;stroke-width:0.5;"/>
     </g>
     <g id="line2d_104"/>
     <g id="line2d_105"/>
     <g id="text_37">
      <!-- $\mathdefault{3}$ -->
      <g transform="translate(677.1327 239.75002)scale(0.1 -0.1)">
       <use transform="scale(0.996264)" xlink:href="#CMR17-51"/>
      </g>
     </g>
    </g>
   </g>
   <g id="matplotlib.axis_6">
    <g id="ytick_15">
     <g id="line2d_106">
      <path clip-path="url(#p0098d34e58)" d="M 490.381527 212.127718
L 696.827172 212.127718
" style="fill:none;stroke:#b0b0b0;stroke-dasharray:0.5,0.825;stroke-dashoffset:0;stroke-width:0.5;"/>
     </g>
     <g id="line2d_107"/>
     <g id="line2d_108"/>
     <g id="text_38">
      <!-- $\mathdefault{−3}$ -->
      <g transform="translate(474.151448 215.586967)scale(0.1 -0.1)">
       <use transform="scale(0.996264)" xlink:href="#CMSY10-0"/>
       <use transform="translate(77.487468 0)scale(0.996264)" xlink:href="#CMR17-51"/>
      </g>
     </g>
    </g>
    <g id="ytick_16">
     <g id="line2d_109">
      <path clip-path="url(#p0098d34e58)" d="M 490.381527 183.454711
L 696.827172 183.454711
" style="fill:none;stroke:#b0b0b0;stroke-dasharray:0.5,0.825;stroke-dashoffset:0;stroke-width:0.5;"/>
     </g>
     <g id="line2d_110"/>
     <g id="line2d_111"/>
     <g id="text_39">
      <!-- $\mathdefault{−2}$ -->
      <g transform="translate(474.151448 186.913961)scale(0.1 -0.1)">
       <use transform="scale(0.996264)" xlink:href="#CMSY10-0"/>
       <use transform="translate(77.487468 0)scale(0.996264)" xlink:href="#CMR17-50"/>
      </g>
     </g>
    </g>
    <g id="ytick_17">
     <g id="line2d_112">
      <path clip-path="url(#p0098d34e58)" d="M 490.381527 154.781705
L 696.827172 154.781705
" style="fill:none;stroke:#b0b0b0;stroke-dasharray:0.5,0.825;stroke-dashoffset:0;stroke-width:0.5;"/>
     </g>
     <g id="line2d_113"/>
     <g id="line2d_114"/>
     <g id="text_40">
      <!-- $\mathdefault{−1}$ -->
      <g transform="translate(474.151448 158.240954)scale(0.1 -0.1)">
       <use transform="scale(0.996264)" xlink:href="#CMSY10-0"/>
       <use transform="translate(77.487468 0)scale(0.996264)" xlink:href="#CMR17-49"/>
      </g>
     </g>
    </g>
    <g id="ytick_18">
     <g id="line2d_115">
      <path clip-path="url(#p0098d34e58)" d="M 490.381527 126.108699
L 696.827172 126.108699
" style="fill:none;stroke:#b0b0b0;stroke-dasharray:0.5,0.825;stroke-dashoffset:0;stroke-width:0.5;"/>
     </g>
     <g id="line2d_116"/>
     <g id="line2d_117"/>
     <g id="text_41">
      <!-- $\mathdefault{0}$ -->
      <g transform="translate(481.900192 129.567948)scale(0.1 -0.1)">
       <use transform="scale(0.996264)" xlink:href="#CMR17-48"/>
      </g>
     </g>
    </g>
    <g id="ytick_19">
     <g id="line2d_118">
      <path clip-path="url(#p0098d34e58)" d="M 490.381527 97.435693
L 696.827172 97.435693
" style="fill:none;stroke:#b0b0b0;stroke-dasharray:0.5,0.825;stroke-dashoffset:0;stroke-width:0.5;"/>
     </g>
     <g id="line2d_119"/>
     <g id="line2d_120"/>
     <g id="text_42">
      <!-- $\mathdefault{1}$ -->
      <g transform="translate(481.900192 100.894942)scale(0.1 -0.1)">
       <use transform="scale(0.996264)" xlink:href="#CMR17-49"/>
      </g>
     </g>
    </g>
    <g id="ytick_20">
     <g id="line2d_121">
      <path clip-path="url(#p0098d34e58)" d="M 490.381527 68.762686
L 696.827172 68.762686
" style="fill:none;stroke:#b0b0b0;stroke-dasharray:0.5,0.825;stroke-dashoffset:0;stroke-width:0.5;"/>
     </g>
     <g id="line2d_122"/>
     <g id="line2d_123"/>
     <g id="text_43">
      <!-- $\mathdefault{2}$ -->
      <g transform="translate(481.900192 72.221936)scale(0.1 -0.1)">
       <use transform="scale(0.996264)" xlink:href="#CMR17-50"/>
      </g>
     </g>
    </g>
    <g id="ytick_21">
     <g id="line2d_124">
      <path clip-path="url(#p0098d34e58)" d="M 490.381527 40.08968
L 696.827172 40.08968
" style="fill:none;stroke:#b0b0b0;stroke-dasharray:0.5,0.825;stroke-dashoffset:0;stroke-width:0.5;"/>
     </g>
     <g id="line2d_125"/>
     <g id="line2d_126"/>
     <g id="text_44">
      <!-- $\mathdefault{3}$ -->
      <g transform="translate(481.900192 43.548929)scale(0.1 -0.1)">
       <use transform="scale(0.996264)" xlink:href="#CMR17-51"/>
      </g>
     </g>
    </g>
   </g>
   <g id="patch_37">
    <path clip-path="url(#p0098d34e58)" d="M 579.267846 153.26816
C 582.668534 153.26816 585.930397 151.917052 588.335047 149.512403
C 590.739696 147.107753 592.090804 143.84589 592.090804 140.445202
C 592.090804 137.044514 590.739696 133.782651 588.335047 131.378001
C 585.930397 128.973352 582.668534 127.622244 579.267846 127.622244
C 575.867158 127.622244 572.605295 128.973352 570.200646 131.378001
C 567.795996 133.782651 566.444888 137.044514 566.444888 140.445202
C 566.444888 143.84589 567.795996 147.107753 570.200646 149.512403
C 572.605295 151.917052 575.867158 153.26816 579.267846 153.26816
z
" style="fill:#ff00ff;opacity:0.2;"/>
   </g>
   <g id="patch_38">
    <path clip-path="url(#p0098d34e58)" d="M 579.267846 166.091118
C 586.069223 166.091118 592.592948 163.388903 597.402247 158.579603
C 602.211547 153.770304 604.913762 147.246578 604.913762 140.445202
C 604.913762 133.643826 602.211547 127.1201 597.402247 122.310801
C 592.592948 117.501501 586.069223 114.799286 579.267846 114.799286
C 572.46647 114.799286 565.942744 117.501501 561.133445 122.310801
C 556.324146 127.1201 553.62193 133.643826 553.62193 140.445202
C 553.62193 147.246578 556.324146 153.770304 561.133445 158.579603
C 565.942744 163.388903 572.46647 166.091118 579.267846 166.091118
z
" style="fill:#ff00ff;opacity:0.2;"/>
   </g>
   <g id="patch_39">
    <path clip-path="url(#p0098d34e58)" d="M 579.267846 178.914076
C 589.469911 178.914076 599.255499 174.860753 606.469448 167.646804
C 613.683397 160.432855 617.73672 150.647267 617.73672 140.445202
C 617.73672 130.243137 613.683397 120.457549 606.469448 113.2436
C 599.255499 106.029651 589.469911 101.976328 579.267846 101.976328
C 569.065781 101.976328 559.280193 106.029651 552.066244 113.2436
C 544.852295 120.457549 540.798972 130.243137 540.798972 140.445202
C 540.798972 150.647267 544.852295 160.432855 552.066244 167.646804
C 559.280193 174.860753 569.065781 178.914076 579.267846 178.914076
z
" style="fill:#ff00ff;opacity:0.2;"/>
   </g>
   <g id="patch_40">
    <path clip-path="url(#p0098d34e58)" d="M 607.940852 132.047073
C 613.317813 132.047073 618.47527 129.910784 622.277355 126.108699
C 626.07944 122.306614 628.215729 117.149156 628.215729 111.772196
C 628.215729 106.395236 626.07944 101.237778 622.277355 97.435693
C 618.47527 93.633608 613.317813 91.497319 607.940852 91.497319
C 602.563892 91.497319 597.406435 93.633608 593.60435 97.435693
C 589.802265 101.237778 587.665976 106.395236 587.665976 111.772196
C 587.665976 117.149156 589.802265 122.306614 593.60435 126.108699
C 597.406435 129.910784 602.563892 132.047073 607.940852 132.047073
z
" style="fill:#40e0d0;opacity:0.2;"/>
   </g>
   <g id="patch_41">
    <path clip-path="url(#p0098d34e58)" d="M 607.940852 152.321949
C 618.694773 152.321949 629.009688 148.049372 636.613858 140.445202
C 644.218028 132.841032 648.490606 122.526116 648.490606 111.772196
C 648.490606 101.018275 644.218028 90.70336 636.613858 83.09919
C 629.009688 75.49502 618.694773 71.222442 607.940852 71.222442
C 597.186932 71.222442 586.872017 75.49502 579.267847 83.09919
C 571.663677 90.70336 567.391099 101.018275 567.391099 111.772196
C 567.391099 122.526116 571.663677 132.841032 579.267847 140.445202
C 586.872017 148.049372 597.186932 152.321949 607.940852 152.321949
z
" style="fill:#40e0d0;opacity:0.2;"/>
   </g>
   <g id="patch_42">
    <path clip-path="url(#p0098d34e58)" d="M 607.940852 172.596826
C 624.071733 172.596826 639.544106 166.187959 650.950361 154.781704
C 662.356616 143.375449 668.765483 127.903076 668.765483 111.772196
C 668.765483 95.641315 662.356616 80.168942 650.950361 68.762687
C 639.544106 57.356432 624.071733 50.947565 607.940852 50.947565
C 591.809972 50.947565 576.337599 57.356432 564.931344 68.762687
C 553.525089 80.168942 547.116222 95.641315 547.116222 111.772196
C 547.116222 127.903076 553.525089 143.375449 564.931344 154.781704
C 576.337599 166.187959 591.809972 172.596826 607.940852 172.596826
z
" style="fill:#40e0d0;opacity:0.2;"/>
   </g>
   <g id="patch_43">
    <path clip-path="url(#p0098d34e58)" d="M 607.940852 132.047073
C 613.317813 132.047073 618.47527 129.910784 622.277355 126.108699
C 626.07944 122.306614 628.215729 117.149156 628.215729 111.772196
C 628.215729 106.395236 626.07944 101.237778 622.277355 97.435693
C 618.47527 93.633608 613.317813 91.497319 607.940852 91.497319
C 602.563892 91.497319 597.406435 93.633608 593.60435 97.435693
C 589.802265 101.237778 587.665976 106.395236 587.665976 111.772196
C 587.665976 117.149156 589.802265 122.306614 593.60435 126.108699
C 597.406435 129.910784 602.563892 132.047073 607.940852 132.047073
z
" style="fill:#40e0d0;opacity:0.1;"/>
   </g>
   <g id="patch_44">
    <path clip-path="url(#p0098d34e58)" d="M 607.940852 152.321949
C 618.694773 152.321949 629.009688 148.049372 636.613858 140.445202
C 644.218028 132.841032 648.490606 122.526116 648.490606 111.772196
C 648.490606 101.018275 644.218028 90.70336 636.613858 83.09919
C 629.009688 75.49502 618.694773 71.222442 607.940852 71.222442
C 597.186932 71.222442 586.872017 75.49502 579.267847 83.09919
C 571.663677 90.70336 567.391099 101.018275 567.391099 111.772196
C 567.391099 122.526116 571.663677 132.841032 579.267847 140.445202
C 586.872017 148.049372 597.186932 152.321949 607.940852 152.321949
z
" style="fill:#40e0d0;opacity:0.1;"/>
   </g>
   <g id="patch_45">
    <path clip-path="url(#p0098d34e58)" d="M 607.940852 172.596826
C 624.071733 172.596826 639.544106 166.187959 650.950361 154.781704
C 662.356616 143.375449 668.765483 127.903076 668.765483 111.772196
C 668.765483 95.641315 662.356616 80.168942 650.950361 68.762687
C 639.544106 57.356432 624.071733 50.947565 607.940852 50.947565
C 591.809972 50.947565 576.337599 57.356432 564.931344 68.762687
C 553.525089 80.168942 547.116222 95.641315 547.116222 111.772196
C 547.116222 127.903076 553.525089 143.375449 564.931344 154.781704
C 576.337599 166.187959 591.809972 172.596826 607.940852 172.596826
z
" style="fill:#40e0d0;opacity:0.1;"/>
   </g>
   <g id="patch_46">
    <path clip-path="url(#p0098d34e58)" d="M 579.267846 153.26816
C 582.668534 153.26816 585.930397 151.917052 588.335047 149.512403
C 590.739696 147.107753 592.090804 143.84589 592.090804 140.445202
C 592.090804 137.044514 590.739696 133.782651 588.335047 131.378001
C 585.930397 128.973352 582.668534 127.622244 579.267846 127.622244
C 575.867158 127.622244 572.605295 128.973352 570.200646 131.378001
C 567.795996 133.782651 566.444888 137.044514 566.444888 140.445202
C 566.444888 143.84589 567.795996 147.107753 570.200646 149.512403
C 572.605295 151.917052 575.867158 153.26816 579.267846 153.26816
z
" style="fill:#ff00ff;opacity:0.1;"/>
   </g>
   <g id="patch_47">
    <path clip-path="url(#p0098d34e58)" d="M 579.267846 166.091118
C 586.069223 166.091118 592.592948 163.388903 597.402247 158.579603
C 602.211547 153.770304 604.913762 147.246578 604.913762 140.445202
C 604.913762 133.643826 602.211547 127.1201 597.402247 122.310801
C 592.592948 117.501501 586.069223 114.799286 579.267846 114.799286
C 572.46647 114.799286 565.942744 117.501501 561.133445 122.310801
C 556.324146 127.1201 553.62193 133.643826 553.62193 140.445202
C 553.62193 147.246578 556.324146 153.770304 561.133445 158.579603
C 565.942744 163.388903 572.46647 166.091118 579.267846 166.091118
z
" style="fill:#ff00ff;opacity:0.1;"/>
   </g>
   <g id="patch_48">
    <path clip-path="url(#p0098d34e58)" d="M 579.267846 178.914076
C 589.469911 178.914076 599.255499 174.860753 606.469448 167.646804
C 613.683397 160.432855 617.73672 150.647267 617.73672 140.445202
C 617.73672 130.243137 613.683397 120.457549 606.469448 113.2436
C 599.255499 106.029651 589.469911 101.976328 579.267846 101.976328
C 569.065781 101.976328 559.280193 106.029651 552.066244 113.2436
C 544.852295 120.457549 540.798972 130.243137 540.798972 140.445202
C 540.798972 150.647267 544.852295 160.432855 552.066244 167.646804
C 559.280193 174.860753 569.065781 178.914076 579.267846 178.914076
z
" style="fill:#ff00ff;opacity:0.1;"/>
   </g>
   <g id="patch_49">
    <path d="M 490.381527 229.331521
L 490.381527 22.885876
" style="fill:none;stroke:#000000;stroke-linecap:square;stroke-linejoin:miter;stroke-width:0.8;"/>
   </g>
   <g id="patch_50">
    <path d="M 696.827172 229.331521
L 696.827172 22.885876
" style="fill:none;stroke:#000000;stroke-linecap:square;stroke-linejoin:miter;stroke-width:0.8;"/>
   </g>
   <g id="patch_51">
    <path d="M 490.381527 229.331521
L 696.827172 229.331521
" style="fill:none;stroke:#000000;stroke-linecap:square;stroke-linejoin:miter;stroke-width:0.8;"/>
   </g>
   <g id="patch_52">
    <path d="M 490.381527 22.885876
L 696.827172 22.885876
" style="fill:none;stroke:#000000;stroke-linecap:square;stroke-linejoin:miter;stroke-width:0.8;"/>
   </g>
   <g id="text_45">
    <!-- Diagonal with equal variance -->
    <g transform="translate(506.826844 16.885876)scale(0.14 -0.14)">
     <defs>
      <path d="M 58.203125 34.15625
C 60.203125 40.09375 64.203125 40.296875 65.703125 40.390625
L 65.703125 43
C 63.703125 42.890625 61.703125 42.796875 59.703125 42.796875
C 57.796875 42.796875 53.5 42.796875 51.796875 43
L 51.796875 40.390625
C 54.90625 40.1875 56.59375 38.375 56.59375 35.875
C 56.59375 35.171875 56.40625 34.265625 56.203125 33.5625
L 46.796875 6.21875
L 36.59375 35.875
C 36.40625 36.578125 36.09375 37.375 36.09375 37.78125
C 36.09375 40.390625 39.5 40.390625 41.09375 40.390625
L 41.09375 43
C 38.796875 42.796875 34.59375 42.796875 32.203125 42.796875
C 29.703125 42.796875 27.09375 42.796875 24.796875 43
L 24.796875 40.390625
C 30.296875 40.390625 30.296875 40.1875 32.40625 33.859375
L 23.203125 6.921875
L 13.296875 35.96875
C 12.796875 37.28125 12.796875 37.484375 12.796875 37.78125
C 12.796875 40.390625 16.203125 40.390625 17.796875 40.390625
L 17.796875 43
C 15.40625 42.796875 11.203125 42.796875 8.703125 42.796875
C 6.5 42.796875 3.09375 42.796875 1 43
L 1 40.390625
C 5.40625 40.390625 6.5 40.09375 7.59375 36.765625
L 19.90625 0.59375
C 20.296875 -0.703125 20.59375 -1 21.40625 -1
C 22.09375 -1 22.5 -0.8125 23 0.6875
L 33.296875 31.046875
L 43.703125 0.6875
C 44.203125 -0.8125 44.59375 -1 45.296875 -1
C 46.09375 -1 46.40625 -0.703125 46.796875 0.59375
z
" id="CMR17-119"/>
      <path d="M 41.5 30.53125
C 41.5 35.65625 40.5 44 28.703125 44
C 20.5 44 16.5 37.375 15.296875 34.046875
L 15.203125 34.046875
L 15.203125 69
L 3.296875 67.890625
L 3.296875 65.296875
C 9.203125 65.296875 10.09375 64.703125 10.09375 60.046875
L 10.09375 6.921875
C 10.09375 3.09375 9.703125 2.59375 3.296875 2.59375
L 3.296875 0
C 5.703125 0.1875 10.09375 0.1875 12.703125 0.1875
C 15.296875 0.1875 19.796875 0.1875 22.203125 0
L 22.203125 2.59375
C 15.796875 2.59375 15.40625 3 15.40625 6.921875
L 15.40625 26.21875
C 15.40625 35.453125 21 42.390625 28 42.390625
C 35.40625 42.390625 36.203125 35.765625 36.203125 30.9375
L 36.203125 6.921875
C 36.203125 3.09375 35.796875 2.59375 29.40625 2.59375
L 29.40625 0
C 31.796875 0.1875 36.203125 0.1875 38.796875 0.1875
C 41.40625 0.1875 45.90625 0.1875 48.296875 0
L 48.296875 2.59375
C 41.90625 2.59375 41.5 3 41.5 6.921875
z
" id="CMR17-104"/>
      <path d="M 41.09375 44
L 39.5 44
L 36.5 34.015625
C 34.203125 39.359375 30 44 23.296875 44
C 13.09375 44 3.296875 34.8125 3.296875 21.5
C 3.296875 8.265625 12.5 -1 22.5 -1
C 30.203125 -1 34.5 4.9375 35.796875 7.15625
L 35.796875 -13.03125
C 35.796875 -16.890625 35.40625 -17.40625 29 -17.40625
L 29 -20
C 31.40625 -19.8125 35.796875 -19.8125 38.40625 -19.8125
C 41 -19.8125 45.5 -19.8125 47.90625 -20
L 47.90625 -17.40625
C 41.5 -17.40625 41.09375 -17 41.09375 -13.03125
z
M 36 13.609375
C 36 9.28125 32.40625 5.234375 32.09375 4.9375
C 29 1.40625 25.40625 0.59375 23 0.59375
C 15.5 0.59375 9.703125 10.1875 9.703125 21.390625
C 9.703125 33.203125 16.296875 42.1875 24 42.1875
C 32 42.1875 36 33 36 27.75
z
" id="CMR17-113"/>
      <path d="M 29.40625 42.890625
L 29.40625 40.296875
C 35.296875 40.296875 36.203125 39.6875 36.203125 34.828125
L 36.203125 16.453125
C 36.203125 7.96875 31.703125 0.59375 24.296875 0.59375
C 16.09375 0.59375 15.40625 5.546875 15.40625 10.796875
L 15.40625 44
L 3.296875 42.890625
L 3.296875 40.296875
C 7.296875 40.296875 10 40.296875 10.09375 36.25
L 10.09375 16.859375
C 10.09375 10.09375 10.09375 5.75 12.703125 2.921875
C 14 1.609375 16.5 -1 23.703125 -1
C 32.203125 -1 35.5 6.25 36.296875 8.375
L 36.40625 8.375
L 36.40625 -1
L 48.296875 -0.203125
L 48.296875 2.40625
C 42.40625 2.40625 41.5 3.015625 41.5 7.859375
L 41.5 44
z
" id="CMR17-117"/>
     </defs>
     <use transform="scale(0.996264)" xlink:href="#CMR17-68"/>
     <use transform="translate(70.393556 0)scale(0.996264)" xlink:href="#CMR17-105"/>
     <use transform="translate(95.264614 0)scale(0.996264)" xlink:href="#CMR17-97"/>
     <use transform="translate(140.955092 0)scale(0.996264)" xlink:href="#CMR17-103"/>
     <use transform="translate(186.645569 0)scale(0.996264)" xlink:href="#CMR17-111"/>
     <use transform="translate(232.336046 0)scale(0.996264)" xlink:href="#CMR17-110"/>
     <use transform="translate(283.231416 0)scale(0.996264)" xlink:href="#CMR17-97"/>
     <use transform="translate(328.921893 0)scale(0.996264)" xlink:href="#CMR17-108"/>
     <use transform="translate(383.868917 0)scale(0.996264)" xlink:href="#CMR17-119"/>
     <use transform="translate(450.378798 0)scale(0.996264)" xlink:href="#CMR17-105"/>
     <use transform="translate(475.249856 0)scale(0.996264)" xlink:href="#CMR17-116"/>
     <use transform="translate(510.530624 0)scale(0.996264)" xlink:href="#CMR17-104"/>
     <use transform="translate(591.50196 0)scale(0.996264)" xlink:href="#CMR17-101"/>
     <use transform="translate(631.987621 0)scale(0.996264)" xlink:href="#CMR17-113"/>
     <use transform="translate(680.280537 0)scale(0.996264)" xlink:href="#CMR17-117"/>
     <use transform="translate(731.175907 0)scale(0.996264)" xlink:href="#CMR17-97"/>
     <use transform="translate(776.866384 0)scale(0.996264)" xlink:href="#CMR17-108"/>
     <use transform="translate(831.813408 0)scale(0.996264)" xlink:href="#CMR17-118"/>
     <use transform="translate(874.901508 0)scale(0.996264)" xlink:href="#CMR17-97"/>
     <use transform="translate(920.591985 0)scale(0.996264)" xlink:href="#CMR17-114"/>
     <use transform="translate(955.872753 0)scale(0.996264)" xlink:href="#CMR17-105"/>
     <use transform="translate(980.743811 0)scale(0.996264)" xlink:href="#CMR17-97"/>
     <use transform="translate(1026.434288 0)scale(0.996264)" xlink:href="#CMR17-110"/>
     <use transform="translate(1077.329658 0)scale(0.996264)" xlink:href="#CMR17-99"/>
     <use transform="translate(1117.815318 0)scale(0.996264)" xlink:href="#CMR17-101"/>
    </g>
   </g>
   <g id="text_46">
    <!-- cookieblues.github.io -->
    <g style="fill:#696969;" transform="translate(595.413521 225.877878)scale(0.11 -0.11)">
     <defs>
      <path d="M 26.09375 26.234375
C 26 26.4375 25.5 27.03125 25.5 27.328125
C 25.5 27.53125 32.59375 33.984375 33.5 34.78125
C 39.203125 39.5625 42.796875 40.046875 45.40625 40.15625
L 45.40625 42.734375
C 44.796875 42.734375 44.59375 42.734375 44.5 42.640625
L 39.59375 42.53125
C 36.796875 42.53125 32.5 42.53125 29.796875 42.734375
L 29.796875 40.15625
C 31.203125 40.046875 32.203125 39.265625 32.203125 37.859375
C 32.203125 35.875 30.203125 33.984375 30.09375 33.984375
L 15 20.28125
L 15 69
L 3.09375 67.890625
L 3.09375 65.296875
C 9 65.296875 9.90625 64.703125 9.90625 59.921875
L 9.90625 6.859375
C 9.90625 3.09375 9.5 2.59375 3.09375 2.59375
L 3.09375 0
C 5.5 0.1875 9.90625 0.1875 12.40625 0.1875
C 14.90625 0.1875 19.296875 0.1875 21.703125 0
L 21.703125 2.59375
C 15.296875 2.59375 14.90625 2.984375 14.90625 6.859375
L 14.90625 17.796875
L 21.796875 24.0625
L 31.90625 9.15625
C 33.09375 7.359375 34.09375 5.96875 34.09375 4.671875
C 34.09375 2.890625 32.296875 2.59375 31.09375 2.59375
L 31.09375 0
C 33.5 0.1875 37.796875 0.1875 40.296875 0.1875
C 42.09375 0.1875 45.796875 0.09375 47.5 0
L 47.5 2.59375
C 42.796875 2.59375 41.703125 3.484375 38.703125 7.859375
z
" id="CMR17-107"/>
      <path d="M 15 69
L 3.09375 67.890625
L 3.09375 65.296875
C 9 65.296875 9.90625 64.703125 9.90625 60.046875
L 9.90625 -0.203125
L 11.703125 -0.203125
L 14.59375 6.953125
C 17.5 2.203125 21.796875 -1 27.59375 -1
C 37.59375 -1 47.703125 7.859375 47.703125 21.59375
C 47.703125 34.515625 38.703125 44 28.59375 44
C 22.40625 44 18 40.671875 15 36.734375
z
M 15.203125 31.59375
C 15.203125 33.40625 15.203125 33.703125 16.59375 35.828125
C 20.5 41.890625 26.09375 42.390625 28 42.390625
C 31 42.390625 41.296875 40.78125 41.296875 21.6875
C 41.296875 1.703125 29.5 0.59375 27.09375 0.59375
C 24 0.59375 19.5 1.796875 16.296875 7.65625
C 15.203125 9.578125 15.203125 9.78125 15.203125 11.59375
z
" id="CMR17-98"/>
      <path d="M 16.59375 4.09375
C 16.59375 6.59375 14.59375 8.1875 12.5 8.1875
C 10.5 8.1875 8.40625 6.59375 8.40625 4.09375
C 8.40625 1.59375 10.40625 0 12.5 0
C 14.5 0 16.59375 1.59375 16.59375 4.09375
z
" id="CMR17-46"/>
     </defs>
     <use transform="scale(0.996264)" xlink:href="#CMR17-99"/>
     <use transform="translate(40.48566 0)scale(0.996264)" xlink:href="#CMR17-111"/>
     <use transform="translate(88.778576 0)scale(0.996264)" xlink:href="#CMR17-111"/>
     <use transform="translate(134.469053 0)scale(0.996264)" xlink:href="#CMR17-107"/>
     <use transform="translate(182.761969 0)scale(0.996264)" xlink:href="#CMR17-105"/>
     <use transform="translate(207.633028 0)scale(0.996264)" xlink:href="#CMR17-101"/>
     <use transform="translate(248.118688 0)scale(0.996264)" xlink:href="#CMR17-98"/>
     <use transform="translate(299.014058 0)scale(0.996264)" xlink:href="#CMR17-108"/>
     <use transform="translate(323.885116 0)scale(0.996264)" xlink:href="#CMR17-117"/>
     <use transform="translate(374.780486 0)scale(0.996264)" xlink:href="#CMR17-101"/>
     <use transform="translate(415.266147 0)scale(0.996264)" xlink:href="#CMR17-115"/>
     <use transform="translate(451.067484 0)scale(0.996264)" xlink:href="#CMR17-46"/>
     <use transform="translate(475.938543 0)scale(0.996264)" xlink:href="#CMR17-103"/>
     <use transform="translate(521.62902 0)scale(0.996264)" xlink:href="#CMR17-105"/>
     <use transform="translate(546.500078 0)scale(0.996264)" xlink:href="#CMR17-116"/>
     <use transform="translate(581.780846 0)scale(0.996264)" xlink:href="#CMR17-104"/>
     <use transform="translate(630.073762 0)scale(0.996264)" xlink:href="#CMR17-117"/>
     <use transform="translate(680.969132 0)scale(0.996264)" xlink:href="#CMR17-98"/>
     <use transform="translate(731.864502 0)scale(0.996264)" xlink:href="#CMR17-46"/>
     <use transform="translate(756.73556 0)scale(0.996264)" xlink:href="#CMR17-105"/>
     <use transform="translate(781.606619 0)scale(0.996264)" xlink:href="#CMR17-111"/>
    </g>
   </g>
  </g>
 </g>
 <defs>
  <clipPath id="paadc350561">
   <rect height="206.445645" width="206.445645" x="23.430079" y="22.885876"/>
  </clipPath>
  <clipPath id="pb22f7c31df">
   <rect height="206.445645" width="206.445645" x="256.905803" y="22.885876"/>
  </clipPath>
  <clipPath id="p0098d34e58">
   <rect height="206.445645" width="206.445645" x="490.381527" y="22.885876"/>
  </clipPath>
 </defs>
</svg>
