<?xml version="1.0" encoding="utf-8" standalone="no"?>
<!DOCTYPE svg PUBLIC "-//W3C//DTD SVG 1.1//EN"
  "http://www.w3.org/Graphics/SVG/1.1/DTD/svg11.dtd">
<!-- Created with matplotlib (https://matplotlib.org/) -->
<svg height="355.987578pt" version="1.1" viewBox="0 0 576 355.987578" width="576pt" xmlns="http://www.w3.org/2000/svg" xmlns:xlink="http://www.w3.org/1999/xlink">
 <metadata>
  <rdf:RDF xmlns:cc="http://creativecommons.org/ns#" xmlns:dc="http://purl.org/dc/elements/1.1/" xmlns:rdf="http://www.w3.org/1999/02/22-rdf-syntax-ns#">
   <cc:Work>
    <dc:type rdf:resource="http://purl.org/dc/dcmitype/StillImage"/>
    <dc:date>2021-03-09T23:01:44.376058</dc:date>
    <dc:format>image/svg+xml</dc:format>
    <dc:creator>
     <cc:Agent>
      <dc:title>Matplotlib v3.3.4, https://matplotlib.org/</dc:title>
     </cc:Agent>
    </dc:creator>
   </cc:Work>
  </rdf:RDF>
 </metadata>
 <defs>
  <style type="text/css">*{stroke-linecap:butt;stroke-linejoin:round;}</style>
 </defs>
 <g id="figure_1">
  <g id="patch_1">
   <path d="M 0 355.987578
L 576 355.987578
L 576 0
L 0 0
z
" style="fill:#ffffff;"/>
  </g>
  <g id="axes_1">
   <g id="patch_2">
    <path d="M 30.530079 329.331901
L 564.278863 329.331901
L 564.278863 10.8
L 30.530079 10.8
z
" style="fill:#ffffff;"/>
   </g>
   <g id="PathCollection_1">
    <defs>
     <path d="M 0 1.767767
C 0.468817 1.767767 0.918496 1.581504 1.25 1.25
C 1.581504 0.918496 1.767767 0.468817 1.767767 -0
C 1.767767 -0.468817 1.581504 -0.918496 1.25 -1.25
C 0.918496 -1.581504 0.468817 -1.767767 0 -1.767767
C -0.468817 -1.767767 -0.918496 -1.581504 -1.25 -1.25
C -1.581504 -0.918496 -1.767767 -0.468817 -1.767767 0
C -1.767767 0.468817 -1.581504 0.918496 -1.25 1.25
C -0.918496 1.581504 -0.468817 1.767767 0 1.767767
z
" id="C0_0_02d9345eb2"/>
    </defs>
    <g clip-path="url(#p4115b6cc2b)">
     <use style="fill:none;stroke:#ff00ff;" x="37.03921" xlink:href="#C0_0_02d9345eb2" y="295.627683"/>
    </g>
    <g clip-path="url(#p4115b6cc2b)">
     <use style="fill:none;stroke:#ff00ff;" x="89.112263" xlink:href="#C0_0_02d9345eb2" y="261.217058"/>
    </g>
    <g clip-path="url(#p4115b6cc2b)">
     <use style="fill:none;stroke:#ff00ff;" x="141.185315" xlink:href="#C0_0_02d9345eb2" y="244.011746"/>
    </g>
    <g clip-path="url(#p4115b6cc2b)">
     <use style="fill:none;stroke:#ff00ff;" x="193.258367" xlink:href="#C0_0_02d9345eb2" y="155.527282"/>
    </g>
    <g clip-path="url(#p4115b6cc2b)">
     <use style="fill:none;stroke:#ff00ff;" x="245.331419" xlink:href="#C0_0_02d9345eb2" y="167.816791"/>
    </g>
    <g clip-path="url(#p4115b6cc2b)">
     <use style="fill:none;stroke:#ff00ff;" x="297.404471" xlink:href="#C0_0_02d9345eb2" y="214.516924"/>
    </g>
    <g clip-path="url(#p4115b6cc2b)">
     <use style="fill:none;stroke:#ff00ff;" x="349.477523" xlink:href="#C0_0_02d9345eb2" y="207.143219"/>
    </g>
    <g clip-path="url(#p4115b6cc2b)">
     <use style="fill:none;stroke:#ff00ff;" x="401.550575" xlink:href="#C0_0_02d9345eb2" y="162.900987"/>
    </g>
    <g clip-path="url(#p4115b6cc2b)">
     <use style="fill:none;stroke:#ff00ff;" x="453.623627" xlink:href="#C0_0_02d9345eb2" y="123.574559"/>
    </g>
    <g clip-path="url(#p4115b6cc2b)">
     <use style="fill:none;stroke:#ff00ff;" x="505.696679" xlink:href="#C0_0_02d9345eb2" y="103.911345"/>
    </g>
    <g clip-path="url(#p4115b6cc2b)">
     <use style="fill:none;stroke:#ff00ff;" x="557.769731" xlink:href="#C0_0_02d9345eb2" y="37.547997"/>
    </g>
   </g>
   <g id="matplotlib.axis_1">
    <g id="xtick_1">
     <g id="line2d_1">
      <defs>
       <path d="M 0 0
L 0 3.5
" id="m3864f06521" style="stroke:#000000;stroke-width:0.8;"/>
      </defs>
      <g>
       <use style="stroke:#000000;stroke-width:0.8;" x="37.03921" xlink:href="#m3864f06521" y="329.331901"/>
      </g>
     </g>
     <g id="text_1">
      <!-- $-1.0$ -->
      <g transform="translate(26.799799 343.250399)scale(0.1 -0.1)">
       <defs>
        <path d="M 65.90625 23
C 67.59375 23 69.40625 23 69.40625 25
C 69.40625 27 67.59375 27 65.90625 27
L 11.796875 27
C 10.09375 27 8.296875 27 8.296875 25
C 8.296875 23 10.09375 23 11.796875 23
z
" id="CMSY10-0"/>
        <path d="M 26.59375 63.796875
C 26.59375 65.890625 26.5 66 25.09375 66
C 21.203125 61.359375 15.296875 59.890625 9.703125 59.6875
C 9.40625 59.6875 8.90625 59.6875 8.796875 59.5
C 8.703125 59.296875 8.703125 59.09375 8.703125 57
C 11.796875 57 17 57.59375 21 59.984375
L 21 7.296875
C 21 3.796875 20.796875 2.59375 12.203125 2.59375
L 9.203125 2.59375
L 9.203125 0
C 14 0.09375 19 0.1875 23.796875 0.1875
C 28.59375 0.1875 33.59375 0.09375 38.40625 0
L 38.40625 2.59375
L 35.40625 2.59375
C 26.796875 2.59375 26.59375 3.6875 26.59375 7.296875
z
" id="CMR17-49"/>
        <path d="M 18.40625 4.796875
C 18.40625 7.6875 16 9.6875 13.59375 9.6875
C 10.703125 9.6875 8.703125 7.296875 8.703125 4.890625
C 8.703125 2 11.09375 0 13.5 0
C 16.40625 0 18.40625 2.390625 18.40625 4.796875
z
" id="CMMI12-58"/>
        <path d="M 42 31.84375
C 42 37.96875 41.90625 48.421875 37.703125 56.453125
C 34 63.484375 28.09375 66 22.90625 66
C 18.09375 66 12 63.78125 8.203125 56.5625
C 4.203125 49.015625 3.796875 39.671875 3.796875 31.84375
C 3.796875 26.109375 3.90625 17.375 7 9.734375
C 11.296875 -0.609375 19 -2 22.90625 -2
C 27.5 -2 34.5 -0.109375 38.59375 9.4375
C 41.59375 16.375 42 24.5 42 31.84375
z
M 22.90625 -0.40625
C 16.5 -0.40625 12.703125 5.125 11.296875 12.75
C 10.203125 18.6875 10.203125 27.328125 10.203125 32.953125
C 10.203125 40.6875 10.203125 47.109375 11.5 53.234375
C 13.40625 61.78125 19 64.390625 22.90625 64.390625
C 27 64.390625 32.296875 61.671875 34.203125 53.4375
C 35.5 47.71875 35.59375 40.984375 35.59375 32.953125
C 35.59375 26.421875 35.59375 18.375 34.40625 12.453125
C 32.296875 1.5 26.40625 -0.40625 22.90625 -0.40625
z
" id="CMR17-48"/>
       </defs>
       <use transform="scale(0.996264)" xlink:href="#CMSY10-0"/>
       <use transform="translate(77.487468 0)scale(0.996264)" xlink:href="#CMR17-49"/>
       <use transform="translate(123.177945 0)scale(0.996264)" xlink:href="#CMMI12-58"/>
       <use transform="translate(150.275122 0)scale(0.996264)" xlink:href="#CMR17-48"/>
      </g>
     </g>
    </g>
    <g id="xtick_2">
     <g id="line2d_2">
      <g>
       <use style="stroke:#000000;stroke-width:0.8;" x="89.112263" xlink:href="#m3864f06521" y="329.331901"/>
      </g>
     </g>
     <g id="text_2">
      <!-- $-0.8$ -->
      <g transform="translate(78.872851 343.250399)scale(0.1 -0.1)">
       <defs>
        <path d="M 27.203125 35.765625
C 33.5 38.96875 39.90625 43.796875 39.90625 51.53125
C 39.90625 60.6875 31.09375 66 23 66
C 13.90625 66 5.90625 59.375 5.90625 50.234375
C 5.90625 47.71875 6.5 43.390625 10.40625 39.578125
C 11.40625 38.578125 15.59375 35.5625 18.296875 33.65625
C 13.796875 31.34375 3.296875 25.8125 3.296875 14.765625
C 3.296875 4.40625 13.09375 -2 22.796875 -2
C 33.5 -2 42.5 5.71875 42.5 15.96875
C 42.5 25.109375 36.40625 29.328125 32.40625 32.046875
z
M 14.09375 44.609375
C 13.296875 45.109375 9.296875 48.21875 9.296875 52.9375
C 9.296875 59.078125 15.59375 63.6875 22.796875 63.6875
C 30.703125 63.6875 36.5 58.0625 36.5 51.53125
C 36.5 42.1875 26.09375 36.859375 25.59375 36.859375
C 25.5 36.859375 25.40625 36.859375 24.59375 37.46875
z
M 32.5 24
C 34 22.90625 38.796875 19.578125 38.796875 13.453125
C 38.796875 6.015625 31.40625 0.390625 23 0.390625
C 13.90625 0.390625 7 6.921875 7 14.859375
C 7 22.796875 13.09375 29.4375 20 32.546875
z
" id="CMR17-56"/>
       </defs>
       <use transform="scale(0.996264)" xlink:href="#CMSY10-0"/>
       <use transform="translate(77.487468 0)scale(0.996264)" xlink:href="#CMR17-48"/>
       <use transform="translate(123.177945 0)scale(0.996264)" xlink:href="#CMMI12-58"/>
       <use transform="translate(150.275122 0)scale(0.996264)" xlink:href="#CMR17-56"/>
      </g>
     </g>
    </g>
    <g id="xtick_3">
     <g id="line2d_3">
      <g>
       <use style="stroke:#000000;stroke-width:0.8;" x="141.185315" xlink:href="#m3864f06521" y="329.331901"/>
      </g>
     </g>
     <g id="text_3">
      <!-- $-0.6$ -->
      <g transform="translate(130.945903 343.250399)scale(0.1 -0.1)">
       <defs>
        <path d="M 10.59375 34.34375
C 10.59375 58 21.796875 63.6875 28.296875 63.6875
C 30.40625 63.6875 35.5 63.265625 37.5 59.09375
C 35.90625 59.09375 32.90625 59.09375 32.90625 55.59375
C 32.90625 52.890625 35.09375 52 36.5 52
C 37.40625 52 40.09375 52.390625 40.09375 55.796875
C 40.09375 62.296875 35.09375 66 28.203125 66
C 16.296875 66 3.796875 53.296875 3.796875 31.421875
C 3.796875 4.015625 15.09375 -2 23.09375 -2
C 32.796875 -2 42 6.734375 42 20.234375
C 42 32.828125 33.90625 42 23.703125 42
C 17.59375 42 13.09375 37.96875 10.59375 30.921875
z
M 23.09375 0.390625
C 10.796875 0.390625 10.796875 18.9375 10.796875 22.65625
C 10.796875 29.90625 14.203125 40.390625 23.5 40.390625
C 25.203125 40.390625 30.09375 40.390625 33.40625 33.4375
C 35.203125 29.515625 35.203125 25.375 35.203125 20.34375
C 35.203125 14.90625 35.203125 10.875 33.09375 6.84375
C 30.90625 2.703125 27.703125 0.390625 23.09375 0.390625
z
" id="CMR17-54"/>
       </defs>
       <use transform="scale(0.996264)" xlink:href="#CMSY10-0"/>
       <use transform="translate(77.487468 0)scale(0.996264)" xlink:href="#CMR17-48"/>
       <use transform="translate(123.177945 0)scale(0.996264)" xlink:href="#CMMI12-58"/>
       <use transform="translate(150.275122 0)scale(0.996264)" xlink:href="#CMR17-54"/>
      </g>
     </g>
    </g>
    <g id="xtick_4">
     <g id="line2d_4">
      <g>
       <use style="stroke:#000000;stroke-width:0.8;" x="193.258367" xlink:href="#m3864f06521" y="329.331901"/>
      </g>
     </g>
     <g id="text_4">
      <!-- $-0.4$ -->
      <g transform="translate(183.018955 343.250399)scale(0.1 -0.1)">
       <defs>
        <path d="M 33.59375 64.796875
C 33.59375 66.890625 33.5 67 31.703125 67
L 2 19.59375
L 2 17
L 27.796875 17
L 27.796875 7.1875
C 27.796875 3.59375 27.59375 2.59375 20.59375 2.59375
L 18.703125 2.59375
L 18.703125 0
C 21.90625 0.1875 27.296875 0.1875 30.703125 0.1875
C 34.09375 0.1875 39.5 0.1875 42.703125 0
L 42.703125 2.59375
L 40.796875 2.59375
C 33.796875 2.59375 33.59375 3.59375 33.59375 7.1875
L 33.59375 17
L 43.796875 17
L 43.796875 19.59375
L 33.59375 19.59375
z
M 28.09375 58.171875
L 28.09375 19.59375
L 4 19.59375
z
" id="CMR17-52"/>
       </defs>
       <use transform="scale(0.996264)" xlink:href="#CMSY10-0"/>
       <use transform="translate(77.487468 0)scale(0.996264)" xlink:href="#CMR17-48"/>
       <use transform="translate(123.177945 0)scale(0.996264)" xlink:href="#CMMI12-58"/>
       <use transform="translate(150.275122 0)scale(0.996264)" xlink:href="#CMR17-52"/>
      </g>
     </g>
    </g>
    <g id="xtick_5">
     <g id="line2d_5">
      <g>
       <use style="stroke:#000000;stroke-width:0.8;" x="245.331419" xlink:href="#m3864f06521" y="329.331901"/>
      </g>
     </g>
     <g id="text_5">
      <!-- $-0.2$ -->
      <g transform="translate(235.092008 343.250399)scale(0.1 -0.1)">
       <defs>
        <path d="M 41.703125 15.46875
L 39.90625 15.46875
C 38.90625 8.390625 38.09375 7.1875 37.703125 6.59375
C 37.203125 5.796875 30 5.796875 28.59375 5.796875
L 9.40625 5.796875
C 13 9.6875 20 16.765625 28.5 24.9375
C 34.59375 30.71875 41.703125 37.5 41.703125 47.390625
C 41.703125 59.1875 32.296875 66 21.796875 66
C 10.796875 66 4.09375 56.296875 4.09375 47.296875
C 4.09375 43.390625 7 42.890625 8.203125 42.890625
C 9.203125 42.890625 12.203125 43.484375 12.203125 46.984375
C 12.203125 50.09375 9.59375 51 8.203125 51
C 7.59375 51 7 50.890625 6.59375 50.6875
C 8.5 59.1875 14.296875 63.390625 20.40625 63.390625
C 29.09375 63.390625 34.796875 56.5 34.796875 47.390625
C 34.796875 38.703125 29.703125 31.21875 24 24.734375
L 4.09375 2.296875
L 4.09375 0
L 39.296875 0
z
" id="CMR17-50"/>
       </defs>
       <use transform="scale(0.996264)" xlink:href="#CMSY10-0"/>
       <use transform="translate(77.487468 0)scale(0.996264)" xlink:href="#CMR17-48"/>
       <use transform="translate(123.177945 0)scale(0.996264)" xlink:href="#CMMI12-58"/>
       <use transform="translate(150.275122 0)scale(0.996264)" xlink:href="#CMR17-50"/>
      </g>
     </g>
    </g>
    <g id="xtick_6">
     <g id="line2d_6">
      <g>
       <use style="stroke:#000000;stroke-width:0.8;" x="297.404471" xlink:href="#m3864f06521" y="329.331901"/>
      </g>
     </g>
     <g id="text_6">
      <!-- $0.0$ -->
      <g transform="translate(291.039431 343.250399)scale(0.1 -0.1)">
       <use transform="scale(0.996264)" xlink:href="#CMR17-48"/>
       <use transform="translate(45.690477 0)scale(0.996264)" xlink:href="#CMMI12-58"/>
       <use transform="translate(72.787654 0)scale(0.996264)" xlink:href="#CMR17-48"/>
      </g>
     </g>
    </g>
    <g id="xtick_7">
     <g id="line2d_7">
      <g>
       <use style="stroke:#000000;stroke-width:0.8;" x="349.477523" xlink:href="#m3864f06521" y="329.331901"/>
      </g>
     </g>
     <g id="text_7">
      <!-- $0.2$ -->
      <g transform="translate(343.112484 343.250399)scale(0.1 -0.1)">
       <use transform="scale(0.996264)" xlink:href="#CMR17-48"/>
       <use transform="translate(45.690477 0)scale(0.996264)" xlink:href="#CMMI12-58"/>
       <use transform="translate(72.787654 0)scale(0.996264)" xlink:href="#CMR17-50"/>
      </g>
     </g>
    </g>
    <g id="xtick_8">
     <g id="line2d_8">
      <g>
       <use style="stroke:#000000;stroke-width:0.8;" x="401.550575" xlink:href="#m3864f06521" y="329.331901"/>
      </g>
     </g>
     <g id="text_8">
      <!-- $0.4$ -->
      <g transform="translate(395.185536 343.250399)scale(0.1 -0.1)">
       <use transform="scale(0.996264)" xlink:href="#CMR17-48"/>
       <use transform="translate(45.690477 0)scale(0.996264)" xlink:href="#CMMI12-58"/>
       <use transform="translate(72.787654 0)scale(0.996264)" xlink:href="#CMR17-52"/>
      </g>
     </g>
    </g>
    <g id="xtick_9">
     <g id="line2d_9">
      <g>
       <use style="stroke:#000000;stroke-width:0.8;" x="453.623627" xlink:href="#m3864f06521" y="329.331901"/>
      </g>
     </g>
     <g id="text_9">
      <!-- $0.6$ -->
      <g transform="translate(447.258588 343.250399)scale(0.1 -0.1)">
       <use transform="scale(0.996264)" xlink:href="#CMR17-48"/>
       <use transform="translate(45.690477 0)scale(0.996264)" xlink:href="#CMMI12-58"/>
       <use transform="translate(72.787654 0)scale(0.996264)" xlink:href="#CMR17-54"/>
      </g>
     </g>
    </g>
    <g id="xtick_10">
     <g id="line2d_10">
      <g>
       <use style="stroke:#000000;stroke-width:0.8;" x="505.696679" xlink:href="#m3864f06521" y="329.331901"/>
      </g>
     </g>
     <g id="text_10">
      <!-- $0.8$ -->
      <g transform="translate(499.33164 343.250399)scale(0.1 -0.1)">
       <use transform="scale(0.996264)" xlink:href="#CMR17-48"/>
       <use transform="translate(45.690477 0)scale(0.996264)" xlink:href="#CMMI12-58"/>
       <use transform="translate(72.787654 0)scale(0.996264)" xlink:href="#CMR17-56"/>
      </g>
     </g>
    </g>
    <g id="xtick_11">
     <g id="line2d_11">
      <g>
       <use style="stroke:#000000;stroke-width:0.8;" x="557.769731" xlink:href="#m3864f06521" y="329.331901"/>
      </g>
     </g>
     <g id="text_11">
      <!-- $1.0$ -->
      <g transform="translate(551.404692 343.250399)scale(0.1 -0.1)">
       <use transform="scale(0.996264)" xlink:href="#CMR17-49"/>
       <use transform="translate(45.690477 0)scale(0.996264)" xlink:href="#CMMI12-58"/>
       <use transform="translate(72.787654 0)scale(0.996264)" xlink:href="#CMR17-48"/>
      </g>
     </g>
    </g>
   </g>
   <g id="matplotlib.axis_2">
    <g id="ytick_1">
     <g id="line2d_12">
      <defs>
       <path d="M 0 0
L -3.5 0
" id="m0dd143f5ad" style="stroke:#000000;stroke-width:0.8;"/>
      </defs>
      <g>
       <use style="stroke:#000000;stroke-width:0.8;" x="30.530079" xlink:href="#m0dd143f5ad" y="322.664602"/>
      </g>
     </g>
     <g id="text_12">
      <!-- $\mathdefault{−6}$ -->
      <g transform="translate(10.8 326.123851)scale(0.1 -0.1)">
       <use transform="scale(0.996264)" xlink:href="#CMSY10-0"/>
       <use transform="translate(77.487468 0)scale(0.996264)" xlink:href="#CMR17-54"/>
      </g>
     </g>
    </g>
    <g id="ytick_2">
     <g id="line2d_13">
      <g>
       <use style="stroke:#000000;stroke-width:0.8;" x="30.530079" xlink:href="#m0dd143f5ad" y="273.506567"/>
      </g>
     </g>
     <g id="text_13">
      <!-- $\mathdefault{−4}$ -->
      <g transform="translate(10.8 276.965816)scale(0.1 -0.1)">
       <use transform="scale(0.996264)" xlink:href="#CMSY10-0"/>
       <use transform="translate(77.487468 0)scale(0.996264)" xlink:href="#CMR17-52"/>
      </g>
     </g>
    </g>
    <g id="ytick_3">
     <g id="line2d_14">
      <g>
       <use style="stroke:#000000;stroke-width:0.8;" x="30.530079" xlink:href="#m0dd143f5ad" y="224.348531"/>
      </g>
     </g>
     <g id="text_14">
      <!-- $\mathdefault{−2}$ -->
      <g transform="translate(10.8 227.807781)scale(0.1 -0.1)">
       <use transform="scale(0.996264)" xlink:href="#CMSY10-0"/>
       <use transform="translate(77.487468 0)scale(0.996264)" xlink:href="#CMR17-50"/>
      </g>
     </g>
    </g>
    <g id="ytick_4">
     <g id="line2d_15">
      <g>
       <use style="stroke:#000000;stroke-width:0.8;" x="30.530079" xlink:href="#m0dd143f5ad" y="175.190496"/>
      </g>
     </g>
     <g id="text_15">
      <!-- $\mathdefault{0}$ -->
      <g transform="translate(18.548744 178.649745)scale(0.1 -0.1)">
       <use transform="scale(0.996264)" xlink:href="#CMR17-48"/>
      </g>
     </g>
    </g>
    <g id="ytick_5">
     <g id="line2d_16">
      <g>
       <use style="stroke:#000000;stroke-width:0.8;" x="30.530079" xlink:href="#m0dd143f5ad" y="126.032461"/>
      </g>
     </g>
     <g id="text_16">
      <!-- $\mathdefault{2}$ -->
      <g transform="translate(18.548744 129.49171)scale(0.1 -0.1)">
       <use transform="scale(0.996264)" xlink:href="#CMR17-50"/>
      </g>
     </g>
    </g>
    <g id="ytick_6">
     <g id="line2d_17">
      <g>
       <use style="stroke:#000000;stroke-width:0.8;" x="30.530079" xlink:href="#m0dd143f5ad" y="76.874426"/>
      </g>
     </g>
     <g id="text_17">
      <!-- $\mathdefault{4}$ -->
      <g transform="translate(18.548744 80.333675)scale(0.1 -0.1)">
       <use transform="scale(0.996264)" xlink:href="#CMR17-52"/>
      </g>
     </g>
    </g>
    <g id="ytick_7">
     <g id="line2d_18">
      <g>
       <use style="stroke:#000000;stroke-width:0.8;" x="30.530079" xlink:href="#m0dd143f5ad" y="27.71639"/>
      </g>
     </g>
     <g id="text_18">
      <!-- $\mathdefault{6}$ -->
      <g transform="translate(18.548744 31.17564)scale(0.1 -0.1)">
       <use transform="scale(0.996264)" xlink:href="#CMR17-54"/>
      </g>
     </g>
    </g>
   </g>
   <g id="line2d_19">
    <path clip-path="url(#p4115b6cc2b)" d="M 30.530079 314.853178
L 36.960787 305.654353
L 43.391495 296.945977
L 49.822204 288.712726
L 56.252912 280.939389
L 62.68362 273.610873
L 69.114328 266.712201
L 75.545037 260.228511
L 81.975745 254.145057
L 88.406453 248.44721
L 94.837161 243.120454
L 101.26787 238.150394
L 107.698578 233.522746
L 114.129286 229.223344
L 120.559994 225.238139
L 126.990703 221.553196
L 133.421411 218.154696
L 139.852119 215.028939
L 146.282827 212.162336
L 152.713536 209.541418
L 159.144244 207.15283
L 165.574952 204.983333
L 172.00566 203.019805
L 178.436369 201.249239
L 184.867077 199.658745
L 193.441354 197.796133
L 202.015632 196.20099
L 210.58991 194.843722
L 219.164187 193.6951
L 229.882034 192.508798
L 240.599882 191.547873
L 253.461298 190.615348
L 272.753423 189.47513
L 300.619825 187.820379
L 313.481242 186.838578
L 324.199089 185.8289
L 334.916936 184.594203
L 343.491213 183.412953
L 352.065491 182.034173
L 360.639769 180.434683
L 369.214046 178.591665
L 377.788324 176.482672
L 386.362602 174.08562
L 392.79331 172.085716
L 399.224018 169.902528
L 405.654726 167.527148
L 412.085435 164.950781
L 418.516143 162.164748
L 424.946851 159.160486
L 431.377559 155.92955
L 437.808268 152.463607
L 444.238976 148.754444
L 450.669684 144.793961
L 457.100392 140.574176
L 463.531101 136.087222
L 469.961809 131.325347
L 476.392517 126.280916
L 482.823225 120.94641
L 489.253933 115.314426
L 495.684642 109.377677
L 502.11535 103.12899
L 508.546058 96.561312
L 514.976766 89.667701
L 521.407475 82.441335
L 527.838183 74.875505
L 534.268891 66.963621
L 540.699599 58.699205
L 547.130308 50.075899
L 553.561016 41.087459
L 559.991724 31.727756
L 564.278863 25.278723
L 564.278863 25.278723
" style="fill:none;stroke:#40e0d0;stroke-linecap:square;"/>
   </g>
   <g id="line2d_20">
    <path clip-path="url(#p4115b6cc2b)" d="M 30.530079 297.687995
L 34.817218 298.039212
L 39.104357 298.045527
L 43.391495 297.706907
L 47.678634 297.02513
L 51.965773 296.003777
L 56.252912 294.648208
L 60.540051 292.965532
L 64.82719 290.964564
L 69.114328 288.655774
L 73.401467 286.051222
L 77.688606 283.164492
L 81.975745 280.010607
L 86.262884 276.605941
L 90.550023 272.968124
L 94.837161 269.115938
L 101.26787 262.979326
L 107.698578 256.475852
L 114.129286 249.679902
L 122.703564 240.297247
L 150.569966 209.421861
L 157.000674 202.671434
L 163.431383 196.21366
L 169.862091 190.112644
L 176.292799 184.4267
L 180.579938 180.892521
L 184.867077 177.579559
L 189.154216 174.499895
L 193.441354 171.664041
L 197.728493 169.080882
L 202.015632 166.757626
L 206.302771 164.699768
L 210.58991 162.911063
L 214.877049 161.39351
L 219.164187 160.147341
L 223.451326 159.171031
L 227.738465 158.46131
L 232.025604 158.013192
L 236.312743 157.820006
L 240.599882 157.873448
L 244.88702 158.163634
L 249.174159 158.679166
L 253.461298 159.407209
L 257.748437 160.333572
L 262.035576 161.442803
L 266.322714 162.718286
L 272.753423 164.904313
L 279.184131 167.360926
L 287.758409 170.940466
L 315.624811 183.020066
L 322.055519 185.476679
L 328.486227 187.662707
L 332.773366 188.938189
L 337.060505 190.04742
L 341.347644 190.973783
L 345.634783 191.701826
L 349.921922 192.217358
L 354.20906 192.507544
L 358.496199 192.560986
L 362.783338 192.3678
L 367.070477 191.919682
L 371.357616 191.209961
L 375.644755 190.233651
L 379.931893 188.987482
L 384.219032 187.469929
L 388.506171 185.681225
L 392.79331 183.623367
L 397.080449 181.30011
L 401.367588 178.716951
L 405.654726 175.881097
L 409.941865 172.801433
L 414.229004 169.488471
L 418.516143 165.954292
L 422.803282 162.21248
L 429.23399 156.24365
L 435.664698 149.897942
L 442.095406 143.23762
L 450.669684 133.985119
L 463.531101 119.661941
L 476.392517 105.356206
L 484.966795 96.141722
L 491.397503 89.532334
L 497.828211 83.26538
L 504.258919 77.412868
L 508.546058 73.775052
L 512.833197 70.370386
L 517.120336 67.2165
L 521.407475 64.32977
L 525.694614 61.725219
L 529.981752 59.416428
L 534.268891 57.41546
L 538.55603 55.732784
L 542.843169 54.377215
L 547.130308 53.355862
L 551.417446 52.674086
L 555.704585 52.335466
L 559.991724 52.341781
L 564.278863 52.692998
L 564.278863 52.692998
" style="fill:none;stroke:#ff00ff;stroke-linecap:square;"/>
   </g>
   <g id="patch_3">
    <path d="M 30.530079 329.331901
L 30.530079 10.8
" style="fill:none;stroke:#000000;stroke-linecap:square;stroke-linejoin:miter;stroke-width:0.8;"/>
   </g>
   <g id="patch_4">
    <path d="M 564.278863 329.331901
L 564.278863 10.8
" style="fill:none;stroke:#000000;stroke-linecap:square;stroke-linejoin:miter;stroke-width:0.8;"/>
   </g>
   <g id="patch_5">
    <path d="M 30.530079 329.331901
L 564.278863 329.331901
" style="fill:none;stroke:#000000;stroke-linecap:square;stroke-linejoin:miter;stroke-width:0.8;"/>
   </g>
   <g id="patch_6">
    <path d="M 30.530079 10.8
L 564.278863 10.8
" style="fill:none;stroke:#000000;stroke-linecap:square;stroke-linejoin:miter;stroke-width:0.8;"/>
   </g>
   <g id="legend_1">
    <g id="line2d_21">
     <path d="M 43.130079 29.137813
L 71.130079 29.137813
" style="fill:none;stroke:#40e0d0;stroke-linecap:square;"/>
    </g>
    <g id="line2d_22"/>
    <g id="text_19">
     <!-- Predicted -->
     <g transform="translate(82.330079 34.037813)scale(0.14 -0.14)">
      <defs>
       <path d="M 19.796875 32
L 35.796875 32
C 48.703125 32 58.09375 40.359375 58.09375 49.796875
C 58.09375 59.234375 48.90625 68 35.796875 68
L 5.203125 68
L 5.203125 65.390625
C 12.09375 65.390625 13.203125 65.390625 13.203125 60.921875
L 13.203125 7.078125
C 13.203125 2.59375 12.09375 2.59375 5.203125 2.59375
L 5.203125 0
C 8.09375 0.1875 13.40625 0.1875 16.5 0.1875
C 19.59375 0.1875 24.90625 0.1875 27.796875 0
L 27.796875 2.59375
C 20.90625 2.59375 19.796875 2.59375 19.796875 7.078125
z
M 19.59375 34.09375
L 19.59375 61.515625
C 19.59375 64.890625 19.796875 65.390625 23.796875 65.390625
L 33.90625 65.390625
C 46.796875 65.390625 50.5 58.046875 50.5 49.796875
C 50.5 40.75 46.09375 34.09375 33.90625 34.09375
z
" id="CMR17-80"/>
       <path d="M 15 23.703125
C 15 33.34375 19.09375 42.390625 26.59375 42.390625
C 27.296875 42.390625 28 42.296875 28.703125 41.984375
C 28.703125 41.984375 26.5 41.28125 26.5 38.671875
C 26.5 36.265625 28.40625 35.265625 29.90625 35.265625
C 31.09375 35.265625 33.296875 35.96875 33.296875 38.78125
C 33.296875 41.984375 30.09375 44 26.703125 44
C 19.09375 44 15.796875 36.5625 14.796875 33.046875
L 14.703125 33.046875
L 14.703125 44
L 3.09375 42.890625
L 3.09375 40.28125
C 9 40.28125 9.90625 39.6875 9.90625 34.859375
L 9.90625 6.921875
C 9.90625 3.09375 9.5 2.59375 3.09375 2.59375
L 3.09375 0
C 5.5 0.1875 10.09375 0.1875 12.703125 0.1875
C 15.59375 0.1875 20.703125 0.1875 23.40625 0
L 23.40625 2.59375
C 16.203125 2.59375 15 2.59375 15 7.109375
z
" id="CMR17-114"/>
       <path d="M 38.09375 23.484375
C 38.5 23.890625 38.5 24.09375 38.5 25.09375
C 38.5 35.171875 33.09375 44 21.703125 44
C 11.09375 44 2.703125 33.984375 2.703125 21.78125
C 2.703125 8.65625 12.203125 -1 22.796875 -1
C 34 -1 38.40625 9.671875 38.40625 11.796875
C 38.40625 12.5 37.796875 12.5 37.59375 12.5
C 36.90625 12.5 36.796875 12.296875 36.40625 11.078125
C 34.203125 4.21875 28.703125 0.796875 23.5 0.796875
C 19.203125 0.796875 14.90625 3.21875 12.203125 7.65625
C 9.09375 12.796875 9.09375 18.75 9.09375 23.484375
z
M 9.203125 25
C 9.90625 39.234375 17.59375 42.390625 21.59375 42.390625
C 28.40625 42.390625 33 36.0625 33.09375 25
z
" id="CMR17-101"/>
       <path d="M 29.203125 67.890625
L 29.203125 65.296875
C 35.09375 65.296875 36 64.703125 36 60.046875
L 36 37.046875
C 35.59375 37.546875 31.5 44 23.40625 44
C 13.203125 44 3.296875 34.8125 3.296875 21.5
C 3.296875 8.265625 12.59375 -1 22.40625 -1
C 30.90625 -1 35.296875 5.640625 35.796875 6.34375
L 35.796875 -1
L 47.90625 -0.203125
L 47.90625 2.40625
C 42 2.40625 41.09375 3.015625 41.09375 7.859375
L 41.09375 69
z
M 35.796875 11.90625
C 35.796875 8.875 34 6.140625 31.703125 4.125
C 28.296875 1.09375 24.90625 0.59375 23 0.59375
C 20.09375 0.59375 9.703125 2.109375 9.703125 21.390625
C 9.703125 41.1875 21.296875 42.390625 23.90625 42.390625
C 28.5 42.390625 32.203125 39.765625 34.5 36.140625
C 35.796875 34.015625 35.796875 33.703125 35.796875 31.890625
z
" id="CMR17-100"/>
       <path d="M 15.5 61.890625
C 15.5 64.09375 13.703125 66 11.40625 66
C 9.203125 66 7.296875 64.1875 7.296875 61.890625
C 7.296875 59.6875 9.09375 57.796875 11.40625 57.796875
C 13.59375 57.796875 15.5 59.59375 15.5 61.890625
z
M 3.796875 42.890625
L 3.796875 40.296875
C 9.40625 40.296875 10.203125 39.6875 10.203125 34.859375
L 10.203125 6.921875
C 10.203125 3.09375 9.796875 2.59375 3.40625 2.59375
L 3.40625 0
C 5.796875 0.1875 10.09375 0.1875 12.59375 0.1875
C 15 0.1875 19.09375 0.1875 21.40625 0
L 21.40625 2.59375
C 15.5 2.59375 15.296875 3.203125 15.296875 6.8125
L 15.296875 44
z
" id="CMR17-105"/>
       <path d="M 34.90625 35
C 33 35 30.203125 35 30.203125 31.484375
C 30.203125 28.6875 32.5 27.890625 33.796875 27.890625
C 34.5 27.890625 37.40625 28.1875 37.40625 31.6875
C 37.40625 38.6875 30.59375 44 22.90625 44
C 12.296875 44 3.296875 34.390625 3.296875 21.546875
C 3.296875 8.140625 12.703125 -1 22.90625 -1
C 35.296875 -1 38.40625 10.5625 38.40625 11.671875
C 38.40625 12.078125 38.296875 12.375 37.59375 12.375
C 36.90625 12.375 36.796875 12.28125 36.40625 10.96875
C 33.796875 2.8125 28.09375 0.796875 23.796875 0.796875
C 17.40625 0.796875 9.703125 6.734375 9.703125 21.640625
C 9.703125 36.84375 17.09375 42.1875 23 42.1875
C 26.90625 42.1875 32.703125 40.34375 34.90625 35
z
" id="CMR17-99"/>
       <path d="M 15.09375 40.390625
L 29.09375 40.390625
L 29.09375 43
L 15.09375 43
L 15.09375 62
L 13.296875 62
C 13.09375 51.4375 9.59375 42.1875 1.09375 41.984375
L 1.09375 40.390625
L 9.796875 40.390625
L 9.796875 12.15625
C 9.796875 10.234375 9.796875 -1 21.40625 -1
C 27.296875 -1 30.703125 4.8125 30.703125 12.25
L 30.703125 17.984375
L 28.90625 17.984375
L 28.90625 12.34375
C 28.90625 5.421875 26.203125 0.796875 22 0.796875
C 19.09375 0.796875 15.09375 2.796875 15.09375 11.953125
z
" id="CMR17-116"/>
      </defs>
      <use transform="scale(0.996264)" xlink:href="#CMR17-80"/>
      <use transform="translate(62.586301 0)scale(0.996264)" xlink:href="#CMR17-114"/>
      <use transform="translate(97.867068 0)scale(0.996264)" xlink:href="#CMR17-101"/>
      <use transform="translate(138.352729 0)scale(0.996264)" xlink:href="#CMR17-100"/>
      <use transform="translate(189.248099 0)scale(0.996264)" xlink:href="#CMR17-105"/>
      <use transform="translate(214.119157 0)scale(0.996264)" xlink:href="#CMR17-99"/>
      <use transform="translate(254.604818 0)scale(0.996264)" xlink:href="#CMR17-116"/>
      <use transform="translate(289.885585 0)scale(0.996264)" xlink:href="#CMR17-101"/>
      <use transform="translate(330.371246 0)scale(0.996264)" xlink:href="#CMR17-100"/>
     </g>
    </g>
    <g id="line2d_23">
     <path d="M 43.130079 49.687188
L 71.130079 49.687188
" style="fill:none;stroke:#ff00ff;stroke-linecap:square;"/>
    </g>
    <g id="line2d_24"/>
    <g id="text_20">
     <!-- True -->
     <g transform="translate(82.330079 54.587188)scale(0.14 -0.14)">
      <defs>
       <path d="M 62.203125 67.6875
L 4.5 67.6875
L 2.796875 45.6875
L 4.59375 45.6875
C 5.90625 62.203125 7.296875 65.09375 22.703125 65.09375
C 24.5 65.09375 27.40625 65.09375 28.203125 64.984375
C 30.09375 64.6875 30.09375 63.5 30.09375 61.203125
L 30.09375 7.265625
C 30.09375 3.6875 29.796875 2.59375 21.5 2.59375
L 18.703125 2.59375
L 18.703125 0
C 23.5 0.09375 28.5 0.1875 33.40625 0.1875
C 38.296875 0.1875 43.296875 0.09375 48.09375 0
L 48.09375 2.59375
L 45.296875 2.59375
C 37 2.59375 36.703125 3.6875 36.703125 7.265625
L 36.703125 61.203125
C 36.703125 63.390625 36.703125 64.59375 38.5 64.984375
C 39.296875 65.09375 42.203125 65.09375 44 65.09375
C 59.296875 65.09375 60.796875 62.203125 62.09375 45.6875
L 63.90625 45.6875
z
" id="CMR17-84"/>
       <path d="M 29.40625 42.890625
L 29.40625 40.296875
C 35.296875 40.296875 36.203125 39.6875 36.203125 34.828125
L 36.203125 16.453125
C 36.203125 7.96875 31.703125 0.59375 24.296875 0.59375
C 16.09375 0.59375 15.40625 5.546875 15.40625 10.796875
L 15.40625 44
L 3.296875 42.890625
L 3.296875 40.296875
C 7.296875 40.296875 10 40.296875 10.09375 36.25
L 10.09375 16.859375
C 10.09375 10.09375 10.09375 5.75 12.703125 2.921875
C 14 1.609375 16.5 -1 23.703125 -1
C 32.203125 -1 35.5 6.25 36.296875 8.375
L 36.40625 8.375
L 36.40625 -1
L 48.296875 -0.203125
L 48.296875 2.40625
C 42.40625 2.40625 41.5 3.015625 41.5 7.859375
L 41.5 44
z
" id="CMR17-117"/>
      </defs>
      <use transform="scale(0.996264)" xlink:href="#CMR17-84"/>
      <use transform="translate(58.702625 0)scale(0.996264)" xlink:href="#CMR17-114"/>
      <use transform="translate(93.983393 0)scale(0.996264)" xlink:href="#CMR17-117"/>
      <use transform="translate(144.878763 0)scale(0.996264)" xlink:href="#CMR17-101"/>
     </g>
    </g>
   </g>
  </g>
 </g>
 <defs>
  <clipPath id="p4115b6cc2b">
   <rect height="318.531901" width="533.748784" x="30.530079" y="10.8"/>
  </clipPath>
 </defs>
</svg>
